<?xml version="1.0" encoding="UTF-8"?>
<svg width="100px" height="100px" viewBox="0 0 100 100" version="1.1" xmlns="http://www.w3.org/2000/svg" xmlns:xlink="http://www.w3.org/1999/xlink">
    <title>AG</title>
    <g id="AG" stroke="none" fill="currentColor" fill-rule="evenodd">
        <g transform="translate(6.000000, 26.000000)" fill="currentColor">
            <path d="M79.8595,41 L87.0046,0.01 L87.0146,0 L45.5146,0 L36.5,41 L79.8595,41 Z M72.0652,15.5511 L77.5652,15.5511 C76.5652,12.0511 72.6483,6.0056 65.0652,5.4999 C57.5661,4.9999 52.784,9.2403 49.999,13 C46.6657,17.5 42.2227,27.6729 50.5628,34.0513 C58.0644,39.7885 68.5353,35.5841 72.5661,31.5511 C75.5645,28.5513 76.0659,26.5511 76.0659,26.5511 L76.5643,21.5511 L62.5659,21.5511 L61.5659,26.5511 L70.0661,26.5511 C69.2331,28.2178 66.301,32.0001 59.5004,32.0001 C54.0004,32.0001 49.8538,27.4688 51.0004,22.5001 C54.0004,9.5001 64.0659,10.0511 64.0659,10.0511 C65.8988,9.8845 70.0646,10.7511 72.0652,15.5511 Z" id="形状"></path>
            <polygon id="路径" fill-rule="nonzero" points="21 27 28 18 32.5 27"></polygon>
            <polygon id="路径" fill-rule="nonzero" points="36.99 29.0098 42 5.0098 9 5.0098 0 48.0098 44.5 48.0098 45 43.5 33.5 43.5 35.5 35.5 34 31.0098 18.5 31.0098 10.5 42.0098 5 42.0098 29.01 10.0198"></polygon>
        </g>
    </g>
</svg>
