<?xml version="1.0" encoding="UTF-8"?>
<svg width="100px" height="100px" viewBox="0 0 100 100" version="1.1" xmlns="http://www.w3.org/2000/svg" xmlns:xlink="http://www.w3.org/1999/xlink">
    <title>BBIN</title>
    <g id="BBIN" stroke="none" stroke-width="1" fill="none" fill-rule="evenodd">
        <g transform="translate(6.000000, 32.000000)" fill="#5B9AFD" fill-rule="nonzero" id="路径">
            <path d="M64.2311,7.4111 C64.2311,7.4111 67.319,4.5319 67.319,2.9195 C67.319,1.3071 65.9365,0 64.2311,0 C62.5256,0 61.1431,1.3071 61.1431,2.9195 C61.1431,4.5319 64.2311,7.4111 64.2311,7.4111 Z"></path>
            <path d="M4.9429,5.5583 C4.9429,2.8296 2.73083,0.6176 0.00215,0.6176 L0.00215,21.3712 C0,21.4524 0,21.5339 0,21.6155 C0,29.1194 6.083,35.2026 13.5869,35.2026 C19.5794,35.2026 24.6658,31.3231 26.4716,25.9388 L21.3179,25.9388 C19.8968,28.8688 16.9687,30.8793 13.5869,30.8793 C8.8115,30.8793 4.9407,26.8701 4.9407,21.9243 C4.9407,16.9784 8.8115,12.9692 13.5869,12.9692 C15.8896,12.9692 17.9819,13.9014 19.5313,15.4212 L19.518,15.4401 L33.3505,30.5574 L33.3533,30.5548 L34.6178,31.9397 L34.6292,31.9237 C37.0068,33.967 40.0993,35.2019 43.4803,35.2019 C47.3123,35.2019 50.7738,33.6155 53.2438,31.0637 L61.7617,23.0218 L61.7617,35.2026 C64.4904,35.2026 66.7024,32.9906 66.7024,30.2619 L66.7024,21.3069 C66.7024,16.7023 70.4352,12.9694 75.0399,12.9694 C79.6445,12.9694 83.3773,16.7023 83.3773,21.3069 L83.3773,30.2619 C83.3773,32.9906 85.5893,35.2026 88.318,35.2026 L88.318,21.3069 C88.318,13.9736 82.3732,8.0287 75.0399,8.0287 C71.6425,8.0287 68.5432,9.3046 66.1949,11.4034 C65.3888,9.7699 63.7065,8.6463 61.7617,8.6463 L61.7617,16.2354 L57.0353,20.6754 C56.5527,13.6098 50.6684,8.028 43.4803,8.028 C39.7769,8.028 36.4196,9.5096 33.9689,11.9124 L33.9689,5.5583 C33.9689,2.8296 31.7568,0.6176 29.0281,0.6176 L29.0281,17.2925 L35.7491,17.2921 C37.1701,14.3619 40.0983,12.3511 43.4803,12.3511 C48.2558,12.3511 52.1265,16.3603 52.1265,21.3061 C52.1265,26.252 48.2558,30.2612 43.4803,30.2612 C41.1779,30.2612 39.0858,29.3292 37.5364,27.8097 L37.5497,27.7909 L23.7172,12.6735 L23.7144,12.6761 L22.4499,11.2912 L22.4386,11.3072 C20.0609,9.2636 16.9682,8.0285 13.5869,8.0285 C10.3033,8.0285 7.2917,9.1934 4.9429,11.1323 L4.9429,5.5583 Z"></path>
        </g>
    </g>
</svg>