<?xml version="1.0" encoding="UTF-8"?>
<svg width="100px" height="100px" viewBox="0 0 100 100" version="1.1" xmlns="http://www.w3.org/2000/svg" xmlns:xlink="http://www.w3.org/1999/xlink">
    <title>MG</title>
    <g id="MG" stroke="none" stroke-width="1" fill="none" fill-rule="evenodd">
        <g transform="translate(12.000000, 12.000000)" fill="#5B9AFD" fill-rule="nonzero" id="路径">
            <path d="M38,76 C58.9868,76 76,58.9868 76,38 C76,17.0132 58.9868,0 38,0 C17.0132,0 0,17.0132 0,38 C0,42.9265 0.9375,47.6341 2.6439,51.9541 C3.6219,51.3487 4.7457,50.0524 5.3457,49.3082 C10.3297,43.1395 16.5869,32.2902 21.1657,24.3474 L22.7205,21.6555 C23.2353,20.7669 23.6515,19.5639 24.0884,18.3012 L24.0906,18.2947 C25.1278,15.2879 26.283,11.9462 29.168,11.7088 C33.5012,11.3481 32.5135,16.9935 31.8551,20.7525 L31.8537,20.7605 C31.6735,21.7905 31.5182,22.678 31.5049,23.2607 L31.4935,23.7027 L31.4921,23.771 C31.3383,31.0608 30.8776,52.9081 34.1197,57.5374 C35.8156,59.9674 39.1269,55.299 40.7541,53.0047 C40.9272,52.7606 41.0813,52.5434 41.2123,52.3645 C43.7129,48.9299 48.1832,40.9048 49.9264,37.3371 C50.3527,36.4602 50.6476,35.2328 50.9616,33.9244 C51.7171,30.7778 52.5849,27.1634 55.6755,26.8384 C59.3671,26.4503 59.2951,29.1173 59.2247,31.7267 L59.2246,31.7306 C59.198,32.6915 59.1716,33.6446 59.335,34.434 C60.7395,41.2117 63.0555,47.3966 66.4087,53.4378 C64.1745,55.6563 55.8391,41.3649 56.1474,39.1469 L45.302,57.4451 C42.2685,62.7099 35.7278,67.4123 30.4811,62.1989 C29.2707,60.9924 25.8205,57.9744 25.4171,50.9029 L25.4171,31.9909 C25.4171,31.9909 17.0513,50.9029 9.0166,59.9091 C8.5799,60.3986 7.5718,60.7661 7.5718,60.7661 C14.5029,70.0152 25.5526,76 38,76 Z"></path>
        </g>
    </g>
</svg>