<?xml version="1.0" encoding="UTF-8"?>
<svg width="100px" height="100px" viewBox="0 0 100 100" version="1.1" xmlns="http://www.w3.org/2000/svg" xmlns:xlink="http://www.w3.org/1999/xlink">
    <title>PT</title>
    <g id="PT" stroke="none" stroke-width="1" fill="none" fill-rule="evenodd">
        <g transform="translate(6.000000, 19.000000)" fill="#5B9AFD" id="path11125">
            <path d="M86.9584139,13.2150708 C92.1901453,26.1150094 77.2018973,45.2646624 53.4751135,55.9832527 C29.7549009,66.7078946 6.2800113,64.9386092 1.03897072,52.0452724 C-3.48307641,40.8827104 7.13918931,25.0257106 25.4557253,14.0100389 L25.4497018,4.37799669 C25.6117902,0.967061025 28.9658152,-1.08335143 31.9031197,0.599560215 L41.3349119,6.53018706 C62.5893001,-1.01678317 82.2299231,1.5513213 86.9584139,13.2150708 Z M65.5928637,34.8690108 C74.7295017,23.186006 73.0396207,13.0362718 61.8062379,12.1835378 C58.6652277,11.9502739 55.1299484,12.4740175 51.4451755,13.5853224 L65.0742904,21.4579819 C67.5499716,22.9307359 67.8270551,26.7537346 65.1985947,28.4619532 L31.5849665,49.0364971 C29.0167416,50.5153027 25.4431306,48.7680234 25.5033662,45.0440519 L25.4748912,30.3973841 C25.2837802,30.6372499 25.0866457,30.8732647 24.9048438,31.1131305 C15.7594443,42.7961353 17.4619201,52.9491704 28.6854461,53.8019043 C39.928138,54.6386838 56.4502022,46.5520156 65.5928637,34.8690108 L65.5928637,34.8690108 Z M22.8398596,60.0873785 C31.7246035,60.7481097 43.1649775,56.7721691 53.4340438,50.1191941 C53.0649642,50.2853397 52.692599,50.4707405 52.3169482,50.6396368 C34.0256015,58.8990525 15.9253659,57.5511828 11.8934171,47.6028038 C11.3206318,46.2230253 11.0780468,44.7376179 11.0944747,43.188943 C8.40851666,52.4826424 12.5231524,59.3078146 22.8398596,60.0868283 L22.8398596,60.0873785 Z M34.7254291,8.07611113 C32.723966,6.92959663 30.4454194,8.32532949 30.3468521,10.6376138 L30.4552761,38.3371621 C30.4076353,40.8827104 32.8482703,42.0803889 34.5890777,41.0747131 L57.3827581,27.1239862 C59.1586116,25.9648182 58.9581915,23.3521515 57.2907619,22.3492264 L34.7254291,8.07611113 L34.7254291,8.07611113 Z M78.2708045,18.0437454 C78.7893779,10.8741787 74.5159393,5.88210929 65.7774036,5.21752698 C59.9192224,4.78345791 52.9275176,6.3706433 45.9078855,9.4113274 L48.2466677,10.8741787 C62.5060655,7.21402465 74.8751622,9.64129048 78.13062,17.6509376 C78.1853796,17.7851744 78.2165925,17.9128095 78.2708045,18.0437454 L78.2708045,18.0437454 Z"></path>
        </g>
    </g>
</svg>