<svg width="100" height="100" viewBox="0 0 100 100" fill="none" xmlns="http://www.w3.org/2000/svg">
<path d="M70 25H73V28H70V25Z" fill="#5B9AFD"/>
<path d="M89 29H86V32H89V29Z" fill="#5B9AFD"/>
<path d="M6 61H3V64H6V61Z" fill="#5B9AFD"/>
<path d="M82 29H85V32H82V29Z" fill="#5B9AFD"/>
<path d="M81 29H78V32H81V29Z" fill="#5B9AFD"/>
<path d="M74 29H77V32H74V29Z" fill="#5B9AFD"/>
<path d="M73 29H70V32H73V29Z" fill="#5B9AFD"/>
<path d="M69 29H66V32H69V29Z" fill="#5B9AFD"/>
<path d="M62 29H65V32H62V29Z" fill="#5B9AFD"/>
<path d="M81 25H78V28H81V25Z" fill="#5B9AFD"/>
<path d="M74 25H77V28H74V25Z" fill="#5B9AFD"/>
<path d="M69 25H66V28H69V25Z" fill="#5B9AFD"/>
<path d="M62 25H65V28H62V25Z" fill="#5B9AFD"/>
<path d="M61 29H58V32H61V29Z" fill="#5B9AFD"/>
<path d="M62 33H65V36H62V33Z" fill="#5B9AFD"/>
<path d="M65 53H62V56H65V53Z" fill="#5B9AFD"/>
<path d="M58 33H61V36H58V33Z" fill="#5B9AFD"/>
<path d="M57 33H54V36H57V33Z" fill="#5B9AFD"/>
<path d="M58 37H61V40H58V37Z" fill="#5B9AFD"/>
<path d="M57 37H54V40H57V37Z" fill="#5B9AFD"/>
<path d="M58 41H61V44H58V41Z" fill="#5B9AFD"/>
<path d="M57 41H54V44H57V41Z" fill="#5B9AFD"/>
<path d="M58 45H61V48H58V45Z" fill="#5B9AFD"/>
<path d="M57 45H54V48H57V45Z" fill="#5B9AFD"/>
<path d="M58 49H61V52H58V49Z" fill="#5B9AFD"/>
<path d="M57 49H54V52H57V49Z" fill="#5B9AFD"/>
<path d="M58 53H61V56H58V53Z" fill="#5B9AFD"/>
<path d="M65 57H62V60H65V57Z" fill="#5B9AFD"/>
<path d="M58 57H61V60H58V57Z" fill="#5B9AFD"/>
<path d="M73 57H70V60H73V57Z" fill="#5B9AFD"/>
<path d="M66 57H69V60H66V57Z" fill="#5B9AFD"/>
<path d="M81 57H78V60H81V57Z" fill="#5B9AFD"/>
<path d="M74 57H77V60H74V57Z" fill="#5B9AFD"/>
<path d="M89 57H86V60H89V57Z" fill="#5B9AFD"/>
<path d="M82 57H85V60H82V57Z" fill="#5B9AFD"/>
<path d="M81 41H78V44H81V41Z" fill="#5B9AFD"/>
<path d="M74 41H77V44H74V41Z" fill="#5B9AFD"/>
<path d="M89 41H86V44H89V41Z" fill="#5B9AFD"/>
<path d="M90 41H93V44H90V41Z" fill="#5B9AFD"/>
<path d="M85 41H82V44H85V41Z" fill="#5B9AFD"/>
<path d="M78 45H81V48H78V45Z" fill="#5B9AFD"/>
<path d="M77 45H74V48H77V45Z" fill="#5B9AFD"/>
<path d="M86 45H89V48H86V45Z" fill="#5B9AFD"/>
<path d="M93 45H90V48H93V45Z" fill="#5B9AFD"/>
<path d="M86 49H89V52H86V49Z" fill="#5B9AFD"/>
<path d="M93 49H90V52H93V49Z" fill="#5B9AFD"/>
<path d="M86 53H89V56H86V53Z" fill="#5B9AFD"/>
<path d="M85 53H82V56H85V53Z" fill="#5B9AFD"/>
<path d="M90 53H93V56H90V53Z" fill="#5B9AFD"/>
<path d="M85 45H82V48H85V45Z" fill="#5B9AFD"/>
<path d="M62 61H65V64H62V61Z" fill="#5B9AFD"/>
<path d="M73 61H70V64H73V61Z" fill="#5B9AFD"/>
<path d="M66 61H69V64H66V61Z" fill="#5B9AFD"/>
<path d="M81 61H78V64H81V61Z" fill="#5B9AFD"/>
<path d="M74 61H77V64H74V61Z" fill="#5B9AFD"/>
<path d="M85 61H82V64H85V61Z" fill="#5B9AFD"/>
<path d="M54 53H57V56H54V53Z" fill="#5B9AFD"/>
<path d="M89 33H86V36H89V33Z" fill="#5B9AFD"/>
<path d="M82 33H85V36H82V33Z" fill="#5B9AFD"/>
<path d="M6 57H3V60H6V57Z" fill="#5B9AFD"/>
<path d="M3 53H6V56H3V53Z" fill="#5B9AFD"/>
<path d="M6 49H3V52H6V49Z" fill="#5B9AFD"/>
<path d="M3 45H6V48H3V45Z" fill="#5B9AFD"/>
<path d="M6 41H3V44H6V41Z" fill="#5B9AFD"/>
<path d="M3 37H6V40H3V37Z" fill="#5B9AFD"/>
<path d="M6 33H3V36H6V33Z" fill="#5B9AFD"/>
<path d="M3 29H6V32H3V29Z" fill="#5B9AFD"/>
<path d="M10 61H7V64H10V61Z" fill="#5B9AFD"/>
<path d="M7 57H10V60H7V57Z" fill="#5B9AFD"/>
<path d="M10 53H7V56H10V53Z" fill="#5B9AFD"/>
<path d="M7 49H10V52H7V49Z" fill="#5B9AFD"/>
<path d="M10 45H7V48H10V45Z" fill="#5B9AFD"/>
<path d="M7 41H10V44H7V41Z" fill="#5B9AFD"/>
<path d="M10 37H7V40H10V37Z" fill="#5B9AFD"/>
<path d="M7 33H10V36H7V33Z" fill="#5B9AFD"/>
<path d="M10 29H7V32H10V29Z" fill="#5B9AFD"/>
<path d="M7 25H10V28H7V25Z" fill="#5B9AFD"/>
<path d="M14 29H11V32H14V29Z" fill="#5B9AFD"/>
<path d="M11 25H14V28H11V25Z" fill="#5B9AFD"/>
<path d="M18 29H15V32H18V29Z" fill="#5B9AFD"/>
<path d="M15 25H18V28H15V25Z" fill="#5B9AFD"/>
<path d="M22 29H19V32H22V29Z" fill="#5B9AFD"/>
<path d="M19 25H22V28H19V25Z" fill="#5B9AFD"/>
<path d="M26 29H23V32H26V29Z" fill="#5B9AFD"/>
<path d="M23 25H26V28H23V25Z" fill="#5B9AFD"/>
<path d="M30 29H27V32H30V29Z" fill="#5B9AFD"/>
<path d="M27 25H30V28H27V25Z" fill="#5B9AFD"/>
<path d="M34 29H31V32H34V29Z" fill="#5B9AFD"/>
<path d="M31 25H34V28H31V25Z" fill="#5B9AFD"/>
<path d="M38 29H35V32H38V29Z" fill="#5B9AFD"/>
<path d="M31 33H34V36H31V33Z" fill="#5B9AFD"/>
<path d="M38 33H35V36H38V33Z" fill="#5B9AFD"/>
<path d="M39 33H42V36H39V33Z" fill="#5B9AFD"/>
<path d="M34 45H31V48H34V45Z" fill="#5B9AFD"/>
<path d="M35 45H38V48H35V45Z" fill="#5B9AFD"/>
<path d="M34 49H31V52H34V49Z" fill="#5B9AFD"/>
<path d="M35 49H38V52H35V49Z" fill="#5B9AFD"/>
<path d="M26 49H23V52H26V49Z" fill="#5B9AFD"/>
<path d="M27 49H30V52H27V49Z" fill="#5B9AFD"/>
<path d="M18 49H15V52H18V49Z" fill="#5B9AFD"/>
<path d="M11 49H14V52H11V49Z" fill="#5B9AFD"/>
<path d="M22 49H19V52H22V49Z" fill="#5B9AFD"/>
<path d="M23 53H26V56H23V53Z" fill="#5B9AFD"/>
<path d="M30 53H27V56H30V53Z" fill="#5B9AFD"/>
<path d="M15 53H18V56H15V53Z" fill="#5B9AFD"/>
<path d="M14 53H11V56H14V53Z" fill="#5B9AFD"/>
<path d="M19 53H22V56H19V53Z" fill="#5B9AFD"/>
<path d="M42 45H39V48H42V45Z" fill="#5B9AFD"/>
<path d="M35 37H38V40H35V37Z" fill="#5B9AFD"/>
<path d="M42 37H39V40H42V37Z" fill="#5B9AFD"/>
<path d="M35 41H38V44H35V41Z" fill="#5B9AFD"/>
<path d="M42 41H39V44H42V41Z" fill="#5B9AFD"/>
<path d="M35 25H38V28H35V25Z" fill="#5B9AFD"/>
<path d="M15.4069 70H18.361V70.5908H18.9518V72.3632H17.7702V71.1816H15.9978V74.7265H17.7702V73.5448H18.9518V75.3173H18.361V75.9081H15.4069V75.3173H14.8161V70.5908H15.4069V70Z" fill="#5B9AFD"/>
<path d="M21.9062 70H20.1338V75.9081H21.9062V74.1357H23.0878V75.9081H24.8602V74.1357H24.2694V72.3632H24.8602V70H23.0878V72.3632H21.9062V70Z" fill="#5B9AFD"/>
<path fill-rule="evenodd" clip-rule="evenodd" d="M3 70V75.9081H4.77242V73.5448H7.13565V72.954H7.72646V70.5908H7.13565V70H3ZM4.77319 72.3634V71.1818H6.54561V72.3634H4.77319Z" fill="#5B9AFD"/>
<path fill-rule="evenodd" clip-rule="evenodd" d="M9.49888 70H13.0437V70.5908H13.6345V75.3173H13.0437V75.9081H9.49888V75.3173H8.90807V70.5908H9.49888V70ZM10.6811 71.1818H11.8627V74.7267H10.6811V71.1818Z" fill="#5B9AFD"/>
<path d="M26.0419 70H30.7683V71.1816H27.2235V72.3632H30.1775V73.5448H27.2235V74.7265H30.7683V75.9081H26.0419V70Z" fill="#5B9AFD"/>
<path d="M36.0856 70H31.9499V71.1816H33.1315V75.9081H34.904V71.1816H36.0856V70Z" fill="#5B9AFD"/>
<path fill-rule="evenodd" clip-rule="evenodd" d="M81.7744 70H78.2296V70.5908H77.6387V75.3173H78.2296V75.9081H81.7744V75.3173H82.3652V70.5908H81.7744V70ZM80.5936 71.1818H79.4119V74.7267H80.5936V71.1818Z" fill="#5B9AFD"/>
<path d="M83.548 70H88.2744V71.1816H85.3204V72.3632H87.6836V73.5448H85.3204V75.9081H83.548V70Z" fill="#5B9AFD"/>
<path d="M77.0487 70H72.9131V70.5908H72.3223V72.954H72.9131V73.5448H75.8671V74.1357H72.3223V75.9081H76.4579V75.3173H77.0487V72.954H76.4579V72.3632H73.5039V71.1816H77.0487V70Z" fill="#5B9AFD"/>
<path d="M93.0013 70H88.8656V71.1816H90.0472V75.9081H91.8197V71.1816H93.0013V70Z" fill="#5B9AFD"/>
<path d="M58.3381 70H63.0645V71.1816H59.5197V72.3632H62.4737V73.5448H59.5197V74.7265H63.0645V75.9081H58.3381V70Z" fill="#5B9AFD"/>
<path d="M64.2465 70H68.3822V71.1816H64.8373V72.3632H67.7914V72.954H68.3822V75.3173H67.7914V75.9081H63.6557V74.1357H67.2006V73.5448H64.2465V72.954H63.6557V70.5908H64.2465V70Z" fill="#5B9AFD"/>
<path d="M44.1591 70H41.2051V70.5908H40.0234V75.3173H41.2051V75.9081H44.1591V75.3173H44.7499V72.3632H42.3867V73.5448H43.5683V74.1357H41.7959V71.1816H44.1591V70Z" fill="#5B9AFD"/>
<path fill-rule="evenodd" clip-rule="evenodd" d="M46.5223 70V70.5908H45.9315V75.9081H47.1131V74.1357H49.4764V75.9081H50.658V70.5908H50.0672V70H46.5223ZM47.7047 71.1818V72.3634H48.8863V71.1818H47.7047Z" fill="#5B9AFD"/>
<path d="M51.2492 70V75.9081H53.0216V73.5448H53.6124V74.1357H54.794V73.5448H55.3848V75.9081H57.1572V70H55.9756V70.5908H55.3848V71.1816H54.794V71.7724H53.6124V71.1816H53.0216V70.5908H52.4308V70H51.2492Z" fill="#5B9AFD"/>
<path d="M96.75 65V65.75H98.25V65H99V68H98.25V67.25H96.75V68H96V65.75H95.25V68H93.75V65.75H93V65H96.75Z" fill="#5B9AFD"/>
</svg>
