<?xml version="1.0" encoding="UTF-8"?>
<svg width="100px" height="100px" viewBox="0 0 100 100" version="1.1" xmlns="http://www.w3.org/2000/svg" xmlns:xlink="http://www.w3.org/1999/xlink">
    <title>开元</title>
    <g id="开元" stroke="none" stroke-width="1" fill="none" fill-rule="evenodd">
        <g transform="translate(10.000000, 18.000000)" fill="#5B9AFD" fill-rule="nonzero" id="形状">
            <path d="M28.6163678,46.4214203 L43.2117186,42.8258017 L42.811846,41.0279924 C40.6125465,41.6272622 39.0130561,41.0279924 38.2133108,39.8294529 L25.2174505,24.0486825 L30.4157947,15.2593926 C31.2155399,13.6613399 33.0149667,12.4628004 35.4142025,11.2642609 L35.0143298,9.46645157 L22.4183422,12.0632872 L22.8182148,13.8610965 L24.217769,13.4615833 C25.6173232,13.2618267 26.4170684,13.6613399 26.6170048,14.6601229 C26.8169411,15.6589058 26.6170048,16.4579322 26.0171958,17.0572019 L19.4192975,29.2423538 L17.2199981,18.6552546 C16.4202528,16.4579321 17.4199344,15.059636 20.0191064,14.6601229 L19.6192338,12.8623135 L4.82394678,16.0584189 L5.22381941,18.0559848 C8.22286405,17.2569585 9.62241827,18.0559848 10.0222909,20.4530639 L15.0206986,44.0243412 C15.6205076,46.4214202 14.4208897,47.8197164 11.421845,48.2192295 L11.8217176,50.0170389 L26.0171958,47.0206901 L25.6173232,45.2228807 C23.61796,45.8221505 22.4183422,45.0231242 22.0184696,42.6260451 L20.0191064,32.8379723 L21.2187243,31.040163 C28.2164952,40.0292095 31.2155399,44.0243412 30.2158583,43.0255583 C30.2158583,43.6248281 29.6160494,44.2240979 28.2164953,44.623611 L28.6163678,46.4214203 L28.6163678,46.4214203 Z M47.4103811,52.6138745 C47.6103175,54.2119273 46.6106359,55.6102233 45.0111454,56.0097365 L12.2215903,62.2021907 C10.8220361,62.6017039 9.22254563,61.4031643 9.02260932,60.0048683 L0.0254752852,9.66620817 C-0.174461031,8.06815543 0.825220549,6.66985938 2.22477467,6.47010279 L35.2142662,0.0778919489 C36.6138204,-0.321621234 38.2133108,0.876918315 38.4132471,2.27521437 L47.4103811,52.6138745 Z M77.400828,7.66864225 C79.0003185,7.86839884 80,9.06693839 80,10.6649911 L74.4017833,61.4031644 C74.201847,63.0012171 72.8022928,64 71.4027386,64 L38.0133745,60.0048683 C37.2136292,59.8051117 36.6138203,59.4055985 36.0140114,58.8063287 L45.4110181,57.0085195 C47.6103176,56.6090063 49.0098717,54.4116839 48.609999,52.2143614 L48.0101901,48.6187427 L62.2056683,50.8160652 L62.4056046,48.8184993 C58.806751,48.6187427 57.4071968,47.2204466 58.206942,44.8233676 L59.4065599,35.8343211 L67.6039487,22.0511166 C68.403694,20.2533073 70.0031844,19.2545244 72.8022928,19.2545244 L73.0022291,17.2569585 L62.2056683,15.6589058 L62.0057319,17.6564716 C64.2050314,18.2557414 65.6045855,19.2545244 65.4046492,20.4530639 C65.2047129,21.0523337 65.0047766,22.0511167 64.4049677,23.0498995 L59.0066873,31.8391894 L55.8077063,21.0523336 C55.60777,20.852577 55.60777,20.6528204 55.60777,20.4530639 C55.4078337,19.2545244 55.4078337,18.6552546 55.4078337,18.2557414 C55.60777,17.2569585 56.8073879,16.8574453 59.0066873,17.2569585 L59.2066236,15.2593926 L45.0111454,13.0620701 L44.8112091,15.059636 C46.610636,15.059636 48.0101901,17.057202 49.0098717,21.2520902 L52.8086616,34.6357816 L51.4091075,43.8245846 C51.2091711,45.8221505 50.0095533,46.8209334 47.6103175,46.6211769 L41.0124192,8.8671818 L41.2123555,6.2703462 C41.4122919,4.67229347 42.8118461,3.67351051 44.2114002,3.67351051 L77.400828,7.66864225 L77.400828,7.66864225 Z"></path>
        </g>
    </g>
</svg>