<?xml version="1.0" encoding="UTF-8"?>
<svg width="100px" height="100px" viewBox="0 0 100 100" version="1.1" xmlns="http://www.w3.org/2000/svg" xmlns:xlink="http://www.w3.org/1999/xlink">
    <title>BG</title>
    <g id="BG" stroke="none" stroke-width="1" fill="none" fill-rule="evenodd">
        <g transform="translate(11.000000, 16.000000)" fill="#5B9AFD">
            <path d="M22.1987189,31.2538055 L23.1611189,23.7098055 L29.6395189,23.7098055 C31.7228189,23.7098055 33.4116189,25.3985055 33.4116189,27.4818055 C33.4116189,29.5650055 31.7228189,31.2538055 29.6395189,31.2538055 L22.1987189,31.2538055 Z" id="路径" fill-rule="nonzero"></path>
            <path d="M20.6863189,43.1087055 L21.6487189,35.5647055 L28.5618189,35.5647055 C30.6451189,35.5647055 32.3338189,37.2535055 32.3338189,39.3367055 C32.3338189,41.4199055 30.6451189,43.1087055 28.5618189,43.1087055 L20.6863189,43.1087055 Z" id="路径" fill-rule="nonzero"></path>
            <path d="M38.6956189,0.996805462 C79.1100189,-3.31409454 74.7991189,27.4009055 74.7991189,27.4009055 C88.2706189,58.1159055 54.8614189,61.8879055 54.8614189,61.8879055 C33.8458189,76.4371055 13.9080189,62.9656055 13.9080189,62.9656055 C1.51531888,54.3438055 4.20851888,37.6392055 4.20851888,37.6392055 C-7.10815112,19.3180055 7.98161888,7.46300546 7.98161888,7.46300546 C11.3943189,3.87070546 22.3148189,-2.45179454 38.6956189,0.996805462 Z M17.7237189,19.3990055 L14.0115189,48.4975055 L28.5619189,48.4975055 C33.6212189,48.4975055 37.7225189,44.3961055 37.7225189,39.3368055 C37.7225189,36.9982055 36.8462189,34.8643055 35.4040189,33.2455055 C37.4501189,31.8962055 38.8002189,29.5773055 38.8002189,26.9431055 C38.8002189,22.7766055 35.4227189,19.3990055 31.2562189,19.3990055 L17.7237189,19.3990055 Z M49.4542189,48.2188055 C57.0225189,49.7759055 64.5636189,44.6490055 66.2977189,36.7675055 C66.6157189,35.3219055 66.7163189,33.8841055 66.6219189,32.4901055 L52.8083189,32.4900055 L51.7306189,36.6586055 L60.9468189,36.6586055 C59.5053189,41.2104055 55.1116189,44.0938055 50.7372189,43.1939055 C46.0798189,42.2357055 43.2079189,37.3516055 44.3226189,32.2849055 C45.4374189,27.2183055 50.1167189,23.8877055 54.7741189,24.8459055 C57.3345189,25.3727055 59.3553189,27.0859055 60.4707189,29.3637055 L66.0665189,29.3637055 C64.6611189,24.5598055 60.8447189,20.7291055 55.7339189,19.6776055 C48.1655189,18.1205055 40.6245189,23.2475055 38.8904189,31.1289055 C37.1563189,39.0104055 41.8859189,46.6618055 49.4542189,48.2188055 Z" id="形状"></path>
        </g>
    </g>
</svg>