<?xml version="1.0" encoding="UTF-8"?>
<svg width="100px" height="100px" viewBox="0 0 100 100" version="1.1" xmlns="http://www.w3.org/2000/svg" xmlns:xlink="http://www.w3.org/1999/xlink">
    <title>DG</title>
    <g id="DG" stroke="none" stroke-width="1" fill="none" fill-rule="evenodd">
        <g transform="translate(4.300000, 24.000000)" fill="#5B9AFD" fill-rule="nonzero" id="形状结合">
            <path d="M45.3652048,0 C49.1945679,5.84377593 56.8024619,6.88153527 63.2073258,7.07717842 C62.9870527,11.6195021 63.1480215,16.2213693 62.1483205,20.6871369 C70.6203628,19.6068465 79.4567029,21.6228216 87.7,18.9263485 C86.4800259,21.6738589 83.8198046,23.5792531 80.8630619,23.9450207 C75.2460979,24.1746888 69.6206618,23.7408714 64.0121698,24.1406639 C59.7089669,24.8927932 58.7993788,30.7599881 61.138795,33.8856369 L61.2672281,34.0504149 C62.249985,35.4114108 64.037586,35.5815353 65.5286654,36.0068465 C65.5286654,34.203527 65.4863052,32.4002075 65.443945,30.596888 C66.6808632,30.5628631 67.9177813,30.5373444 69.1546995,30.5118257 C69.264836,33.4719917 69.264836,36.4321577 69.1631715,39.3923237 C68.640169,39.3646051 68.1052271,39.3675522 67.5650313,39.3797663 L66.4018634,39.4123251 C64.3283755,39.4676963 62.2479401,39.4357347 60.5301605,38.1334025 C58.7001993,37.0701245 57.7004984,35.1307054 56.7770457,33.3103734 C53.8541912,37.2147303 49.6520582,40.6937759 44.6281371,41 C40.0955945,40.0047718 36.0883185,37.129668 33.5043457,33.2848548 C32.4283963,35.9813278 30.4374664,38.4481328 27.5315559,39.2136929 C25.3796571,39.5539419 23.1938702,39.3412863 21.0250274,39.366805 C21.1012758,36.4321577 21.0928037,33.4890041 21.0419715,30.5543568 C22.3212499,30.5458506 23.6005283,30.5543568 24.8798066,30.5628631 C24.8459185,32.383195 24.8035583,34.2120332 24.8205023,36.0323651 C27.4976677,35.760166 30.0562245,34.01639 30.36969,31.166805 C31.0220373,28.1045643 29.2852686,24.2852697 25.8625635,24.0811203 C23.4866264,23.9639235 21.1056687,23.9593028 18.7234094,23.9761519 L15.1495092,24.0061395 C13.3625359,24.0177962 11.5758763,24.0159059 9.79109937,23.9620332 C6.75810824,23.7323651 3.9623343,21.8184647 2.7,19.019917 C7.27244716,20.4018702 11.9964978,20.452586 16.7363009,20.3925522 L18.9480849,20.3611012 C22.0787814,20.3182058 25.2071355,20.3097699 28.2940397,20.6871369 C27.1842021,16.2128631 27.2943387,11.5854772 27.4298914,7.01763485 L28.1494347,6.99361492 C34.4192333,6.74771101 41.5145047,5.47989857 45.3652048,0 Z M79.2781657,34.4086809 C77.5638249,37.4019166 74.5509982,39.5411499 70.9525798,38.9661781 L70.9695535,35.2965051 L71.3561382,35.2995857 L72.5214603,35.3191237 C74.4677284,35.3512431 76.4234621,35.331217 78.2257981,34.5101466 L79.2781657,34.4086809 Z M11.3749928,34.3241263 C14.0907802,35.313416 16.9593307,35.4148816 19.8193943,35.3303269 C19.8109075,36.5310034 19.8024207,37.7316798 19.785447,38.9323563 C16.1276208,39.6003382 13.0384126,37.4357384 11.3749928,34.3241263 Z M45.390621,4.55082988 C41.1545998,8.20850622 35.5969401,9.58651452 30.2084531,10.4116183 C30.1917771,17.4207469 31.767577,24.5149378 35.4190272,30.5373444 C39.595744,28.2576763 44.4502243,27.5006224 48.4913884,24.9742739 C51.2702183,22.9923237 49.9401076,18.1948133 46.4496262,18.1012448 C45.8531625,18.1012448 45.3226451,18.7886581 46.0032308,19.50218 C45.4696594,19.4301524 44.2801656,20.1068395 45.0972229,21.5991842 L44.6769146,21.5617115 C43.1665207,21.4379156 42.7930583,21.5468726 42.7930583,22.0433014 L42.1007182,22.0202668 C40.5810278,21.9782706 39.7107822,22.0573835 39.0501526,23.0735016 C38.7091756,23.8493418 38.8971008,25.3356252 40.7377146,25.2957662 C38.5621549,26.1024597 37.1325857,25.3356252 35.8006826,23.9985713 C35.4190272,23.7847132 35.2187147,24.1642426 34.8711365,23.9208745 C34.6234639,23.536722 35.0474269,20.748321 35.7285817,20.1444229 C35.9770996,20.39098 36.1756246,21.1547745 36.7012904,20.9713175 C37.565391,20.310377 38.1182485,18.734642 38.7271759,17.9512334 C38.9177273,17.6797914 38.7042218,17.6291106 38.3166345,17.6227795 L37.7581187,17.6252032 C38.4563744,17.4050293 38.7726858,17.1187556 39.0501526,16.9035502 C40.9188741,15.4252238 39.0501526,14.6579519 39.8349152,12.7847483 C41.183608,10.3178289 44.2275757,10.00348 47.2275411,10.0684357 L46.9281086,10.1233816 C45.0776408,10.4420443 41.5055187,10.7677758 41.1712362,13.1761411 C41.1959796,13.4744532 41.7438207,13.3959834 41.8250102,13.2282771 L41.8806795,13.0847709 C41.990159,12.8144444 42.2205163,12.339876 42.625592,12.2491269 C42.89357,12.1890919 42.7199987,12.5593384 42.7930583,12.9551137 C42.8461156,13.0901688 43.2917379,13.0267883 43.3372538,12.8911072 C43.4664276,12.4008738 43.795047,12.2048737 44.0015869,12.2048737 C44.1081899,12.2048737 44.0658803,12.566806 44.0658803,12.9185404 C44.1911753,12.9185404 44.4134013,12.9071326 44.5946121,12.8911072 C44.6725623,11.758143 45.2870912,10.6186126 48.436294,10.6539686 L48.7124797,10.659904 C52.6293416,10.659904 54.8740967,13.0328247 56.9395172,11.3663422 C55.84475,14.3197652 52.724118,11.1979619 47.584345,11.5838526 C46.5303024,11.7130705 45.7570862,12.5259216 45.610894,13.1761411 C49.7987437,12.7847483 52.3984782,13.9329183 54.590154,16.5647863 C53.9985921,16.6228155 53.7659515,16.3545664 53.3231333,16.438976 C53.4505615,17.7165487 55.7473104,19.0501892 57.62046,19.573053 C57.0422109,19.8995799 55.5394104,19.8995799 54.6925985,19.6214732 C56.9122735,25.1845437 51.6599322,30.7755187 46.4750424,31.6771784 C47.4977285,31.8712265 48.5754822,32.3812368 49.1267916,33.0041494 C45.8592539,32.4357646 42.5511892,33.0041494 39.8349152,35.3253179 C40.5158529,36.2014109 42.6000163,37.5625722 45.4427755,37.6592295 C48.9671451,37.0042503 51.9564537,34.8244813 54.0829363,32.0174274 C58.6747832,25.7568465 59.8015648,17.7950207 60.436968,10.25 C54.9725007,10.0118257 49.5673378,8.13195021 45.390621,4.55082988 Z M82.2315845,29.3269448 C80.0334941,33.4024803 75.2044845,34.3664036 70.9525798,33.867531 C70.9525798,32.6076663 70.9610666,31.3393461 70.9695535,30.0794814 C71.3662014,30.0794814 71.7635075,30.0829479 72.1612146,30.0879085 L73.3552811,30.1053002 C76.3421672,30.1501232 79.3371269,30.1680413 82.2315845,29.3269448 Z M8.53190279,29.276212 C11.1385738,30.1096795 13.8405052,30.1450544 16.5449108,30.1188006 L17.6265851,30.1067578 C18.3474961,30.0988657 19.0677032,30.0935738 19.785447,30.1048478 C19.7939338,31.3478016 19.8024207,32.5992108 19.8024207,33.8421646 C15.5929501,34.3410372 10.534796,33.5293123 8.53190279,29.276212 Z M85.0407272,24 C83.6064519,26.7142052 80.865204,28.6166855 77.7590221,28.7604284 C73.7277751,28.8449831 69.7050149,28.7857948 65.673768,28.7773393 C65.663886,27.5372268 65.6582281,26.2970843 65.6567943,25.0569335 C67.5269096,24.9292832 69.4184849,24.9569988 71.3142829,25.0111759 L73.7280807,25.0845735 C77.5589466,25.1925103 81.3772016,25.1852533 85.0407272,24 Z M5.62940496,24.0169109 C11.8757161,25.9870349 18.5378821,24.651071 24.9709037,25.0400225 C24.9793905,26.2829763 24.9878773,27.5259301 24.9878773,28.7688839 C21.0669592,28.8027057 17.1460411,28.8196167 13.2336098,28.7773393 C10.0425596,28.7266065 7.0636802,26.8748591 5.62940496,24.0169109 Z M41.6630737,15.8468409 C41.1989944,16.500859 41.1062375,17.446615 41.5625161,17.5734247 C41.9598732,17.6838589 42.6878116,17.3949912 43.198754,16.9322991 C43.7096965,16.4696071 44.0204374,15.742079 43.6693974,15.4081247 C43.3187744,15.074567 42.1271531,15.1928227 41.6630737,15.8468409 Z M42.4586994,15.787601 C42.7493808,15.6610609 43.2547428,15.6532175 43.2547428,15.9293599 C43.2547428,16.1748198 43.0551718,16.3346982 42.7993152,16.4746849 L42.4848453,16.6354038 C42.2018822,16.7728378 41.882478,16.8932155 41.882478,16.6404257 C41.882478,16.3186932 42.1680181,15.9141411 42.4586994,15.787601 Z M1.35633803,47.1670647 C1.35633803,46.9458202 1.33098592,46.7891054 1.28028169,46.6969202 C1.22957746,46.604735 1.13239437,46.5448146 0.988732394,46.517159 L0.126760563,46.3512256 L0.126760563,46.1299811 C0.405633803,46.1391997 0.737323944,46.136895 1.12183099,46.1230673 C1.50633803,46.1092395 1.90140845,46.0908024 2.30704225,46.0677561 C2.71267606,46.0447098 3.1056338,46.0262728 3.48591549,46.012445 C3.86619718,45.9986172 4.19577465,45.9963126 4.47464789,46.0055311 C5.1084507,46.0239682 5.7,46.1322858 6.24929577,46.330484 C6.79859155,46.5286822 7.27605634,46.8121517 7.68169014,47.1808925 C8.08732394,47.5496334 8.4084507,47.9990362 8.64507042,48.5291012 C8.88169014,49.0591661 9,49.6606746 9,50.3336266 C9,51.0250157 8.88591549,51.6472659 8.65774648,52.2003771 C8.42957746,52.7534884 8.11690141,53.2236329 7.71971831,53.6108108 C7.32253521,53.9979887 6.8556338,54.2929814 6.31901408,54.4957888 C5.78239437,54.6985963 5.2056338,54.8 4.58873239,54.8 L2.53521127,54.7446889 L0,54.7446889 L0,54.5234444 L0.988732394,54.2883721 C1.12394366,54.2607165 1.21901408,54.2007961 1.27394366,54.1086109 C1.32887324,54.0164257 1.35633803,53.8412738 1.35633803,53.5831552 L1.35633803,47.1670647 Z M2.39577465,53.2512885 C2.39577465,53.3987848 2.43169014,53.5439765 2.50352113,53.6868636 C2.57535211,53.8297507 2.68309859,53.95881 2.82676056,54.0740415 C2.97042254,54.189273 3.14788732,54.2814582 3.35915493,54.3505971 C3.57042254,54.419736 3.81549296,54.4543055 4.0943662,54.4543055 C4.57605634,54.4543055 5.03873239,54.3667295 5.48239437,54.1915776 C5.92605634,54.0164257 6.31478873,53.7560025 6.64859155,53.410308 C6.98239437,53.0646135 7.24859155,52.6290383 7.4471831,52.1035827 C7.64577465,51.578127 7.74507042,50.9697046 7.74507042,50.2783155 C7.74507042,49.6606746 7.64577465,49.109868 7.4471831,48.6258957 C7.24859155,48.1419233 6.96338028,47.7316991 6.5915493,47.3952231 C6.21971831,47.0587471 5.76760563,46.8006285 5.23521127,46.6208674 C4.7028169,46.4411062 4.1028169,46.3512256 3.43521127,46.3512256 C2.97887324,46.3512256 2.6915493,46.4019275 2.57323944,46.5033312 C2.45492958,46.604735 2.39577465,46.8259795 2.39577465,47.1670647 L2.39577465,53.2512885 Z M10.204,54.498 L10.829625,54.42975 C11.0495417,54.407 11.1955208,54.3633958 11.2675625,54.2989375 C11.3396042,54.2344792 11.375625,54.0809167 11.375625,53.83825 L11.375625,48.51475 C11.375625,48.401 11.3699375,48.3024167 11.3585625,48.219 C11.3471875,48.1355833 11.3225417,48.0673333 11.284625,48.01425 C11.2467083,47.9611667 11.1841458,47.9156667 11.0969375,47.87775 C11.0097292,47.8398333 10.8940833,47.8095 10.75,47.78675 L10.2495,47.69575 C10.2495,47.6654167 10.2476042,47.6369792 10.2438125,47.6104375 C10.2400208,47.5838958 10.2737779,47.4017083 10.2737779,47.371375 C10.4330279,47.371375 10.5695279,47.3732708 10.6832779,47.3770625 C10.7970279,47.3808542 10.8956113,47.3751667 10.9790279,47.36 L12.4278125,47.3770625 C12.6173958,47.3543125 13.263875,47.371375 13.468625,47.371375 C14.3407083,47.371375 14.8041641,47.65025 15.0313599,47.87775 C15.2585556,48.10525 15.6185,48.492 15.6185,49.129 C15.6185,49.5764167 15.4097206,50.0977472 15.2480366,50.4 C15.0863525,50.7022528 14.7160833,51.0017783 14.2535,51.2216949 L15.7356178,52.9891415 C15.9100345,53.2924748 16.2039102,53.6581458 16.3328269,53.8211875 C16.4617435,53.9842292 16.5887644,54.1093542 16.7138894,54.1965625 C16.8390144,54.2837708 16.9717227,54.3406458 17.1120144,54.3671875 C17.252306,54.3937292 17.4248269,54.4221667 17.6295769,54.4525 L17.6295769,54.6345 C17.4703269,54.6269167 17.297806,54.623125 17.1120144,54.623125 C16.9262227,54.623125 16.7271602,54.623125 16.5148269,54.623125 C16.3024935,54.623125 16.1242852,54.623125 15.9802019,54.623125 C15.8361185,54.623125 15.7223685,54.6269167 15.6389519,54.6345 L13.5255,51.7335699 C13.4041667,51.4984866 13.2145833,51.3809449 12.95675,51.3809449 L12.31975,51.3809449 L12.31975,53.77 C12.31975,53.952 12.3557708,54.0847083 12.4278125,54.168125 C12.4998542,54.2515417 12.626875,54.316 12.808875,54.3615 L13.36625,54.498 L13.36625,54.68 C12.82025,54.6496667 12.2704583,54.6345 11.716875,54.6345 C11.1632917,54.6345 10.659,54.6496667 10.204,54.68 L10.204,54.498 Z M12.31975,51.0738199 C13.8515833,51.1269033 14.6175,50.33475 14.6175,49.311 C14.6175,48.83325 14.446875,48.4502917 14.105625,48.162125 C13.764375,47.8739583 13.298,47.729875 12.7065,47.729875 C12.6458333,47.729875 12.5832708,47.7317708 12.5188125,47.7355625 C12.4543542,47.7393542 12.388,47.7450417 12.31975,47.752625 L12.31975,51.0738199 Z M22.8043129,53.1514821 C22.6598023,53.8096966 22.6907389,54.1179292 22.6710345,54.68 C21.8500164,54.657813 22.0514463,54.6467195 20.9545662,54.6467195 C19.8511179,54.6467195 18.8921688,54.657813 18.0777189,54.68 L18.0777189,54.4914105 L18.7870785,54.4359429 C18.898737,54.4285473 18.9759127,54.4026624 19.0186056,54.3582884 C19.0612985,54.3139144 19.082645,54.2103751 19.082645,54.0476704 L19.082645,47.9466284 C19.082645,47.7691324 19.0645826,47.6415571 19.0284578,47.5639026 C18.992333,47.4862481 18.9282936,47.443723 18.8363396,47.4363273 L18.1171278,47.3586728 L18.1171278,47.1589898 C18.6491475,47.1811768 19.535847,47.1922703 20.7772263,47.1922703 C22.0120375,47.1922703 22.0550786,47.1811768 22.5805302,47.1589898 C22.5608257,47.3882555 22.5509735,47.643406 22.5509735,47.9244414 C22.5509735,48.2054768 22.5575417,48.4643252 22.5706779,48.7009866 L22.4425991,48.7009866 C22.3309407,48.3903685 22.2406287,48.1518582 22.1716632,47.9854557 C22.1026977,47.8190532 22.0419423,47.6933268 21.9893972,47.6082766 C21.936852,47.5232264 21.8843068,47.4714568 21.8317617,47.4529676 C21.7792165,47.4344784 21.710251,47.421536 21.6248651,47.4141403 L20.1762411,47.4141403 C20.0645826,47.4141403 19.989049,47.4492698 19.9496401,47.5195286 C19.9102312,47.5897874 19.8905268,47.7099671 19.8905268,47.8800674 L19.8905268,50.5765832 L21.7695567,50.5765832 C21.8812151,50.5765832 21.9633169,50.5562451 22.0158621,50.5155689 C22.0684072,50.4748928 22.1078161,50.3842958 22.1340887,50.2437781 L22.2621675,49.7987423 L22.4592118,49.7987423 C22.419803,50.6788268 22.419803,50.8127057 22.4592118,51.7075815 L22.3409852,51.7075815 L22.1242365,51.2643803 C22.0913957,51.1534453 22.0519869,51.0683951 22.0060099,51.0092298 C21.9600328,50.9500644 21.8992775,50.9075394 21.8237438,50.8816545 C21.7482102,50.8557697 21.6562562,50.8409783 21.5478818,50.8372805 C21.4395074,50.8335827 21.3065025,50.8317338 21.148867,50.8317338 L19.8905268,50.8317338 L19.8905268,53.9700158 C19.8905268,54.1327205 19.9167994,54.2455045 19.9693445,54.3083677 C20.0218897,54.3712309 20.1335481,54.4026624 20.3043199,54.4026624 L21.331133,54.4026624 C21.4756322,54.4026624 21.5989772,54.3971157 21.7153695,54.3527417 C21.8317617,54.3083677 22.2326108,54.0819033 22.3409852,53.8785224 C22.4493596,53.6751416 22.4758942,53.4916829 22.6072571,53.1514821 L22.8043129,53.1514821 Z M25.8207964,51.5566817 L24.9278854,54.1461237 C24.8906807,54.2577376 24.8832398,54.3433082 24.9055626,54.4028356 C24.9278854,54.462363 25.0394992,54.4995676 25.2404042,54.5144495 L26.0217014,54.5702564 L26.0217014,54.7488386 C25.9472921,54.7413977 25.7966134,54.735817 25.5696652,54.7320965 C25.3427169,54.7283761 25.0357788,54.7265158 24.6488507,54.7265158 C24.2619226,54.7265158 23.9549844,54.7283761 23.7280362,54.7320965 C23.501088,54.735817 23.3504093,54.7413977 23.276,54.7488386 L23.276,54.5702564 L23.9791674,54.5144495 C24.2247179,54.4921267 24.3958592,54.3544696 24.4925913,54.1014781 L26.9927421,47.1589898 L27.3164223,47.1589898 L29.783089,54.0233484 C29.8351755,54.1498441 29.8835415,54.2354148 29.928187,54.2800603 C29.9728326,54.3247059 30.0546828,54.365631 30.1737376,54.4028356 L30.7876139,54.5925792 L30.7876139,54.76 C30.4081267,54.7376772 29.9207461,54.7265158 29.3254721,54.7265158 L28.7674027,54.7265158 C28.5962614,54.7265158 28.4344213,54.7302363 28.2818824,54.7376772 C28.1293434,54.7451181 27.989826,54.7525591 27.8633303,54.76 L27.8633303,54.5925792 L28.5999819,54.4809653 C28.7041549,54.4660835 28.786005,54.4493414 28.8455324,54.4307391 C28.9050598,54.4121368 28.9441247,54.3860935 28.962727,54.3526094 C28.9813293,54.3191252 28.98691,54.2782001 28.9794691,54.2298341 C28.9720282,54.1814681 28.9534258,54.1200804 28.9236621,54.0456712 L28.0195897,51.5566817 L25.8207964,51.5566817 Z M27.9302986,51.3111312 L26.8922896,48.4197474 L25.9100875,51.3111312 L27.9302986,51.3111312 Z M40.9028389,54.772 C40.1348389,54.748 40.1326703,54.736 39.6926703,54.736 L39.4526703,54.736 C39.2446703,54.736 39.0306703,54.74 38.8106703,54.748 C38.5906703,54.756 38.7521018,54.764 38.4801018,54.772 L38.4801018,54.46 C38.9364808,54.3813333 39.1806703,54.3153333 39.2126703,54.262 C39.2446703,54.2086667 39.1623708,52.4780082 38.9657719,49.0700245 L35.983886,54.832 L33.2213757,49.0700245 L32.816,53.86 C32.816,54.236 32.8576918,54.436 33.0976918,54.46 L33.4789688,54.58 L33.4789688,54.772 C32.9989688,54.748 33.2416918,54.736 32.7616918,54.736 C32.2816918,54.736 32.1653168,54.748 31.5333168,54.772 L31.5333168,54.58 L31.7536918,54.46 C31.9056918,54.436 31.9543575,54.408 32.0383575,54.376 C32.1223575,54.344 32.1863575,54.306 32.2303575,54.262 C32.2743575,54.218 32.3003575,54.164 32.3083575,54.1 C32.3163575,54.036 32.3203575,53.956 32.3203575,53.86 L32.816,47.236 C33.0451485,47.228 33.229056,47.216 33.3677227,47.2 L36.271886,53.152 L39.08,47.2 C39.3413333,47.216 39.5455568,47.228 39.6926703,47.236 L40.1366703,53.704 C40.1366703,53.952 40.0943215,54.028 40.2026703,54.202 C40.2749029,54.318 40.5082924,54.404 40.9028389,54.46 L40.9028389,54.772 Z M50.5126011,50.4802225 C50.0178082,50.4802225 49.7704117,50.6310465 49.7704117,50.9326944 L49.8671859,53.1696774 C49.8671859,53.4019355 49.8628848,53.5868817 49.8542826,53.7245161 C49.8456805,53.8621505 49.8177235,53.971828 49.7704117,54.0535484 C49.7230999,54.1352688 49.647831,54.2019355 49.5446052,54.2535484 C49.4413794,54.3051613 49.2951429,54.3653763 49.1058956,54.4341935 C48.7704117,54.5632258 48.4583656,54.6664516 48.0153548,54.743871 C47.5723441,54.8212903 47.1903226,54.832 46.7,54.832 C46.0032258,54.832 45.0553314,54.6073208 44.4710991,54.2535484 C43.054284,53.395619 42.3025381,52.3155003 42.1421864,50.5374622 C41.9818346,48.7594242 42.9637419,47.4579858 43.4024516,47.0751902 C43.8411613,46.6923945 44.3637419,46.3956203 44.9701935,46.1848676 C45.5766452,45.9741149 46.2368602,45.8687385 46.9508387,45.8687385 C48.0949247,45.8687385 49.0497634,46.0751902 49.8153548,46.4880934 L49.9185806,48.0364805 L49.7379355,48.0751902 C49.2046022,46.7934697 48.3357849,46.1526095 47.1314839,46.1526095 C46.5379355,46.1526095 45.7980205,46.3528059 45.3040955,46.4880934 C44.1765396,46.7969341 42.7937281,48.3108926 43.1079037,50.6534052 C43.3234303,52.2603846 44.3159916,53.2677631 44.7978432,53.6167231 C45.2796947,53.965683 46.4261075,54.2535484 46.9508387,54.2535484 C48.2411613,54.2535484 48.8863226,54.0901075 48.8863226,53.1696774 L48.7895484,50.9326944 C48.7895484,50.8036622 48.8509212,50.7859912 48.6927742,50.6617267 C48.5873428,50.5788837 48.2596905,50.5487762 47.7098171,50.5714041 L47.7098171,50.2479644 C48.3664181,50.2479644 49.8416333,50.282373 50.5126011,50.2479644 L50.5126011,50.4802225 Z M53.3318557,51.8305969 L52.5628844,53.99819 C52.5228844,54.1128205 52.5148844,54.2007039 52.5388844,54.2618401 C52.5628844,54.3229764 52.6828844,54.3611865 52.8988844,54.3764706 L53.6,54.4051282 L53.6,54.588537 C53.52,54.5808949 53.358,54.5751634 53.114,54.5713424 C52.87,54.5675214 52.54,54.5656109 52.124,54.5656109 C51.708,54.5656109 51.378,54.5675214 51.134,54.5713424 C50.89,54.5751634 50.728,54.5808949 50.648,54.588537 L50.648,54.4051282 L51.404,54.347813 C51.668,54.3248869 51.852,54.1835093 51.956,53.9236802 L54.644,47 L54.992,47 L57.644,53.8434389 C57.7,53.9733534 57.752,54.0612368 57.8,54.107089 C57.848,54.1529412 57.936,54.1949723 58.064,54.2331825 L58.724,54.4280543 L58.724,54.6 C58.316,54.5770739 57.792,54.5656109 57.152,54.5656109 L56.552,54.5656109 C56.368,54.5656109 56.194,54.5694319 56.03,54.5770739 C55.866,54.5847159 55.716,54.592358 55.58,54.6 L55.58,54.4280543 L56.372,54.3134238 C56.484,54.2981398 56.572,54.2809452 56.636,54.2618401 C56.7,54.242735 56.742,54.2159879 56.762,54.1815988 C56.782,54.1472097 56.788,54.1051785 56.78,54.0555053 C56.772,54.0058321 56.752,53.9427853 56.72,53.866365 L55.9504952,51.8305969 L53.3318557,51.8305969 Z M55.8544952,51.5784099 L54.6411755,48.2897549 L53.4278557,51.5784099 L55.8544952,51.5784099 Z M68.5995221,54.772 C67.8315221,54.748 67.8293535,54.736 67.3893535,54.736 L67.1493535,54.736 C66.9413535,54.736 66.7273535,54.74 66.5073535,54.748 C66.2873535,54.756 66.448785,54.764 66.176785,54.772 L66.176785,54.46 C66.633164,54.3813333 66.8773535,54.3153333 66.9093535,54.262 C66.9413535,54.2086667 66.859054,52.4780082 66.6624551,49.0700245 L63.6805692,54.832 L60.9180589,49.0700245 L60.5126832,53.86 C60.5126832,54.236 60.554375,54.436 60.794375,54.46 L61.175652,54.58 L61.175652,54.772 C60.695652,54.748 60.938375,54.736 60.458375,54.736 C59.978375,54.736 59.862,54.748 59.23,54.772 L59.23,54.58 L59.450375,54.46 C59.602375,54.436 59.6510407,54.408 59.7350407,54.376 C59.8190407,54.344 59.8830407,54.306 59.9270407,54.262 C59.9710407,54.218 59.9970407,54.164 60.0050407,54.1 C60.0130407,54.036 60.0170407,53.956 60.0170407,53.86 L60.5126832,47.236 C60.7418317,47.228 60.9257392,47.216 61.0644059,47.2 L63.9685692,53.152 L66.7766832,47.2 C67.0380165,47.216 67.24224,47.228 67.3893535,47.236 L67.8333535,53.704 C67.8333535,53.952 67.7910047,54.028 67.8993535,54.202 C67.9715861,54.318 68.2049756,54.404 68.5995221,54.46 L68.5995221,54.772 Z M70.8784072,53.9844445 L70.8784072,47.7804445 C70.8784072,47.6444445 70.8844072,47.6091399 70.8124072,47.4924445 C70.7644072,47.4146475 70.5382097,47.3506475 70.1338147,47.3004445 L70.1338147,47.0964445 C70.2138147,47.1204445 72.2734609,47.1204445 72.5534609,47.0964445 L72.5534609,47.3004445 C72.2020918,47.3791111 72.0077406,47.4251111 71.9704072,47.4384445 C71.9144072,47.4584445 71.8744072,47.4944445 71.8504072,47.5464445 C71.8264072,47.5984445 71.8144072,47.6764445 71.8144072,47.7804445 L71.8144072,53.9844445 C71.8144072,54.1204445 71.8344072,54.2104445 71.8744072,54.2544445 C71.9144072,54.2984445 71.9944072,54.3244445 72.1144072,54.3324445 L72.5534609,54.3924445 L72.5534609,54.6804445 C72.3934609,54.6644445 70.2938147,54.6644445 70.1338147,54.6804445 L70.1338147,54.3924445 C70.3462097,54.3577778 70.4804072,54.3377778 70.5364072,54.3324445 C70.6204072,54.3244445 70.6884072,54.3124445 70.7404072,54.2964445 C70.7924072,54.2804445 70.8284072,54.2484445 70.8484072,54.2004445 C70.8684072,54.1524445 70.8784072,54.0804445 70.8784072,53.9844445 Z M75.4868295,53.9217522 C75.4868295,54.1217522 75.5108295,54.2557522 75.5588295,54.3237522 C75.5908295,54.3690855 75.7835702,54.4510855 76.1370517,54.5697522 L76.1370517,54.7617522 L74.2830494,54.7617522 C74.2830494,54.707547 74.2830494,54.643547 74.2830494,54.5697522 C74.6756117,54.4971019 74.7812412,54.3956551 74.8770209,54.2817522 C74.9728006,54.1678492 74.9910209,54.0977522 74.9910209,53.9217522 L74.9910209,47.2257522 L75.2717416,47.2257522 L81.1489697,53.3470301 L81.0349697,48.0494629 C81.0269697,47.8254629 80.8609697,47.5134629 80.7169697,47.4974629 L80.1330676,47.3774629 L80.1330676,47.1854629 L82.1194494,47.1854629 L82.1194494,47.3774629 C81.7417963,47.4521296 81.5423031,47.5161296 81.5209697,47.5694629 C81.4889697,47.6494629 81.4769697,47.8094629 81.4849697,48.0494629 L81.6049697,54.8774629 L81.3299102,54.8774629 L75.4868295,48.6897522 L75.4868295,53.9217522 Z M90.7320014,51.428504 C90.416757,51.516504 90.2426791,51.576504 90.2097677,51.608504 C90.1604006,51.656504 90.1357171,51.736504 90.1357171,51.848504 L90.1357171,53.180504 C90.1357171,53.396504 90.1319196,53.568504 90.1243247,53.696504 C90.1167297,53.824504 90.0920462,53.926504 90.050274,54.002504 C90.0085019,54.078504 89.9420462,54.140504 89.8509069,54.188504 C89.7597677,54.236504 89.6306538,54.292504 89.4635652,54.356504 C89.1673626,54.476504 88.8236918,54.572504 88.4325525,54.644504 C88.0414133,54.716504 87.629388,54.752504 87.1964766,54.752504 C86.5812867,54.752504 86.0230588,54.660504 85.521793,54.476504 C85.0205272,54.292504 84.7740276,54.036504 84.4170656,53.708504 C84.0601036,53.380504 83.7847871,52.984504 83.5911162,52.520504 C83.3974453,52.056504 83.3006099,51.544504 83.3006099,50.984504 C83.3006099,50.384504 83.4107365,49.836504 83.6309897,49.340504 C83.8512428,48.844504 84.1550403,48.418504 84.5423821,48.062504 C84.9297238,47.706504 85.2085019,47.430504 85.7439449,47.234504 C86.279388,47.038504 86.8622993,46.940504 87.4926791,46.940504 C88.5028057,46.940504 89.3458437,47.132504 90.021793,47.516504 L90.1129323,48.956504 L89.9534386,48.992504 C89.4825525,47.800504 88.7154639,47.204504 87.6521728,47.204504 C87.1281221,47.204504 86.6553373,47.290504 86.2338183,47.462504 C85.8122993,47.634504 85.6360529,47.878504 85.3398504,48.194504 C85.0436479,48.510504 84.8176985,48.892504 84.6620023,49.340504 C84.5063061,49.788504 84.428458,50.288504 84.428458,50.840504 C84.428458,51.312504 84.5101036,51.766504 84.6733947,52.202504 C84.8366859,52.638504 85.064534,53.024504 85.356939,53.360504 C85.6493441,53.696504 85.8104006,53.964504 86.2053373,54.164504 C86.600274,54.364504 87.029388,54.464504 87.4926791,54.464504 C88.6319196,54.464504 89.2015399,54.036504 89.2015399,53.180504 L89.2015399,51.848504 C89.2015399,51.728504 89.1730588,51.644504 89.1160968,51.596504 C89.0781221,51.564504 88.850274,51.508504 88.4325525,51.428504 L88.4325525,51.212504 C89.0249576,51.244504 90.1395963,51.244504 90.7320014,51.212504 L90.7320014,51.428504 Z"></path>
        </g>
    </g>
</svg>