<svg width="100" height="100" viewBox="0 0 100 100" fill="none" xmlns="http://www.w3.org/2000/svg">
<path d="M21.7184 34.0016L24.812 34.5459C26.5946 35.0825 28.2689 35.772 29.8057 36.8389C30.4844 37.3099 32.2855 38.7496 32.7045 39.3767C32.8112 39.5374 32.8823 39.5919 32.8266 39.8134C32.5993 40.7259 30.9466 42.4137 30.993 43.674C30.7271 43.9142 29.8814 42.4885 29.682 42.2686C20.024 31.5994 3.81082 43.8237 10.8159 55.9981C15.0535 63.362 23.7514 62.7771 30.3251 59.1411C30.7735 58.8931 33.7975 57.0869 33.9042 56.9028C34.0696 56.6205 33.3662 55.2166 33.2363 54.7456C30.8601 46.1307 35.1286 37.7139 43.4834 34.8251L47.5355 34H49.2361L52.9095 34.7394C61.9429 37.402 66.6737 47.7592 62.8396 56.4598C64.6345 57.2709 66.2517 58.4205 68.042 59.2488C76.1014 62.9799 86.6082 63.6506 90.2073 53.7348L88.114 55.6783C71.5112 67.7841 54.3473 42.4714 75.248 34.5849L78.3029 34.0016H80.0036L83.4388 34.6692C88.751 36.1432 93.1139 40.6058 94.4604 46.0106C94.7047 46.9886 94.7665 47.9994 95 48.9758V51.0036L94.3383 54.4695C93.4648 57.3661 91.7951 60.0973 89.5162 62.083C81.2466 69.2909 68.8691 65.3274 60.7556 59.8977C54.7848 67.4675 43.9935 67.99 37.0952 61.3046C36.854 61.0706 36.5819 60.3469 36.2 60.3843C30.9003 64.0062 24.8754 66.8279 18.2832 65.7782C12.3371 64.8314 7.03583 60.0256 5.56092 54.1248C5.33056 53.1998 5.27027 52.2312 5.02136 51.3155C5.06928 50.4998 4.95488 49.6278 5.02136 48.8198C5.67378 40.807 12.1454 34.6083 20.0178 34.0016H21.7184ZM59.2837 54.2792C62.8473 44.5428 53.3887 35.1121 43.7709 39.1708C37.6997 41.732 34.9632 49.1115 37.8187 55.1137C41.1148 62.0408 50.2982 64.0281 56.0417 58.8807C56.2242 58.7169 57.11 57.9073 56.9678 57.7108C52.9064 55.6737 48.8543 54.9078 44.3801 56.0043C43.7864 56.1494 42.7196 56.7297 42.2388 56.5908C41.758 56.452 39.9971 53.7598 40.13 53.2871C40.2769 52.763 44.5934 51.6275 45.3386 51.5121C50.2565 50.7556 54.9611 51.9504 59.2853 54.2761L59.2837 54.2792ZM78.1159 38.2583C72.2518 38.798 67.4668 44.6302 70.8774 50.3048C74.2925 55.9872 83.9444 56.048 87.3348 50.3656C91.2756 43.7613 84.7607 37.6453 78.1159 38.2567V38.2583Z" fill="#5B9AFD"/>
</svg>
