<svg width="100" height="100" viewBox="0 0 100 100" fill="none" xmlns="http://www.w3.org/2000/svg">
<path d="M46.8587 50.5201H43.4133V54.56H46.8587C47.2893 54.5077 47.705 54.3351 48.0747 54.055C48.48 53.55 48.48 53.2975 48.48 52.54C48.438 52.0035 48.2995 51.4857 48.0747 51.025C47.9145 50.8342 47.7224 50.6899 47.5121 50.6025C47.3019 50.5152 47.0787 50.4871 46.8587 50.5201Z" fill="#5B9AFD"/>
<path d="M23.7292 52.9686C23.7284 56.9144 24.2129 60.8476 25.1733 64.6933C23.7292 63.5872 22.5258 62.4811 21.3224 61.375C17.638 52.422 16.3181 42.7931 17.4714 33.28C19.0807 37.8852 21.3468 42.274 24.2106 46.332C23.9699 48.5442 23.7292 50.7564 23.7292 52.9686Z" fill="#5B9AFD"/>
<path d="M24.1742 53.4238C24.1264 51.7729 24.1992 50.1206 24.392 48.48C29.3099 55.3893 35.7821 61.0807 43.3016 65.1083C50.8211 69.1359 59.1834 71.3902 67.7333 71.6945C63.7813 73.9758 59.531 75.7115 55.1012 76.8533C52.8359 76.8325 50.5768 76.6167 48.3495 76.2085C40.0303 74.866 32.2171 71.3812 25.6988 66.1058C24.7454 61.9423 24.2344 57.692 24.1742 53.4238Z" fill="#5B9AFD"/>
<path d="M25.5787 70.6912C24.3069 68.4274 23.1566 66.0865 22.1333 63.68C22.5678 64.1497 23.0604 64.6193 23.5177 65.0553C23.9137 65.4328 24.2832 65.785 24.5653 66.0901C24.9856 68.0265 25.5273 69.9298 26.1867 71.7867C26.0853 71.5676 25.984 71.4032 25.8827 71.2389C25.7813 71.0746 25.68 70.9103 25.5787 70.6912Z" fill="#5B9AFD"/>
<path d="M26.1867 67.7333C26.9274 70.2525 27.9117 72.701 29.1271 75.0475C33.7784 76.6629 38.658 77.6056 43.6033 77.8441C46.2504 77.9267 48.9 77.7827 51.52 77.4138C50.6754 77.3665 49.84 77.2221 49.0319 76.9836C40.7399 75.7106 32.8988 72.5357 26.1867 67.7333Z" fill="#5B9AFD"/>
<path fill-rule="evenodd" clip-rule="evenodd" d="M28.8883 18.4042C35.1374 14.2287 42.4843 12 50 12C60.0765 12.0058 69.7385 16.0112 76.8636 23.1364C83.9888 30.2615 87.9942 39.9235 88 50C88 57.5157 85.7713 64.8626 81.5958 71.1116C77.4204 77.3607 71.4856 82.2313 64.542 85.1074C57.5984 87.9835 49.9579 88.7361 42.5866 87.2698C35.2153 85.8036 28.4444 82.1844 23.13 76.87C17.8156 71.5556 14.1964 64.7847 12.7302 57.4134C11.2639 50.0421 12.0165 42.4016 14.8926 35.458C17.7687 28.5144 22.6393 22.5796 28.8883 18.4042ZM73.2832 58.7861H77.896L65.815 37.0405L57.0289 53.0751L68.0116 49.1214L73.2832 58.7861ZM74.8208 40.3353L64.4971 21.4451L57.2486 34.6243L65.5954 31.9884L70.2081 40.3353H74.8208ZM61.2023 35.7225L55.4913 37.4798L54.1734 40.3353H58.7861L61.2023 35.7225ZM60.9827 54.1734L55.2717 55.9306L53.9538 58.7861H58.5665L60.9827 54.1734ZM51.9769 49.1214C52.8646 47.9979 53.3309 46.599 53.2948 45.1676C53.2693 43.9451 52.969 42.7439 52.4162 41.6532C51.3743 42.6855 50.0906 43.4407 48.6821 43.8497C48.9672 44.2299 49.1214 44.6924 49.1214 45.1676C49.1214 45.8266 49.1214 46.0462 48.6821 46.4855C48.2814 46.7292 47.8309 46.8793 47.3642 46.9248H43.4104V43.8497H39.237V58.7861H47.3642C48.699 58.7858 49.9936 58.3285 51.0324 57.4902C51.6442 57.0029 52.154 56.3998 52.5326 55.7154C52.9112 55.031 53.1512 54.2787 53.2389 53.5015C53.3267 52.7243 53.2603 51.9374 53.0438 51.1858C52.8272 50.4343 52.4647 49.7328 51.9769 49.1214ZM50.8786 25.6185V21.2254H44.0694C43.2574 21.2138 42.4511 21.3631 41.6971 21.6647C40.9431 21.9663 40.2563 22.4142 39.6763 22.9827C38.5669 24.179 37.9408 25.7443 37.9191 27.3757C37.9075 28.1877 38.0567 28.994 38.3583 29.748C38.66 30.502 39.1079 31.1888 39.6763 31.7688C40.8726 32.8782 42.438 33.5043 44.0694 33.526H46.2659C46.5044 33.4973 46.7463 33.5218 46.9742 33.5978C47.202 33.6737 47.4103 33.7993 47.5838 33.9653C47.8275 34.366 47.9776 34.8165 48.0231 35.2832C48.0231 35.9422 48.0231 36.1618 47.5838 36.6011C47.1831 36.8448 46.7327 36.995 46.2659 37.0405H39.4567V41.4335H46.2659C47.0779 41.4452 47.8842 41.2959 48.6382 40.9943C49.3922 40.6927 50.079 40.2447 50.659 39.6763C51.7684 38.48 52.3945 36.9146 52.4162 35.2832C52.4278 34.4712 52.2785 33.665 51.9769 32.911C51.6753 32.157 51.2274 31.4701 50.659 30.8902C49.4627 29.7808 47.8973 29.1546 46.2659 29.1329H44.0694C43.4104 29.1329 43.1908 29.1329 42.7515 28.6936C42.5078 28.2929 42.3577 27.8425 42.3122 27.3757C42.3122 26.7168 42.3122 26.4971 42.7515 26.0578C43.1522 25.8142 43.6026 25.664 44.0694 25.6185H50.8786ZM79.763 71.9653C80.0376 71.5809 80.3121 71.1965 80.5318 70.867C74.3602 74.4482 67.4439 76.5532 60.3237 77.0173C63.9934 75.7489 67.4681 73.9746 70.6474 71.7456C73.9699 71.6987 77.2801 71.3309 80.5318 70.6474C84.6592 64.5506 86.8768 57.3624 86.9017 50C86.9492 48.1667 86.8759 46.3323 86.6821 44.5087C85.9406 49.7567 84.1119 54.7922 81.313 59.2931C78.5141 63.794 74.8067 67.6612 70.4278 70.6474H69.3295C60.556 70.691 51.9166 68.4948 44.2291 64.2666C36.5416 60.0385 30.0603 53.9183 25.3989 46.4855C27.0655 33.7349 33.3108 22.025 42.9711 13.5376L40.5549 14.1965C31.7699 22.2791 26.031 33.1365 24.3006 44.948C21.6629 40.5691 19.6657 35.8351 18.37 30.8902C14.943 36.597 13.1216 43.1237 13.0983 49.7803V52.1965C13.5577 53.2888 14.1477 54.3213 14.8555 55.2717C16.4114 57.6904 18.1753 59.9688 20.1272 62.0809C21.461 65.5433 23.1543 68.8562 25.1792 71.9653C25.5087 72.4046 25.7833 72.789 26.0578 73.1734C26.3324 73.5578 26.607 73.9422 26.9364 74.3815C23.963 73.1261 21.1589 71.5026 18.5896 69.5491C22.3872 75.3971 27.7016 80.104 33.9653 83.1676C33.4011 82.473 32.8873 81.739 32.4278 80.9711C33.4903 82.18 34.6673 83.2834 35.9422 84.2659C37.0405 84.7052 38.1387 85.1445 39.4567 85.5838C36.0983 83.2126 33.0699 80.4058 30.4509 77.237C34.6139 78.7297 38.9892 79.5454 43.4104 79.6532H45.1676C48.868 79.6537 52.5551 79.2112 56.1503 78.3352H56.8093C64.504 78.2479 72.0827 76.447 78.9942 73.0636C79.2139 72.7341 79.4884 72.3497 79.763 71.9653Z" fill="#5B9AFD"/>
</svg>
