<?xml version="1.0" encoding="UTF-8"?>
<svg width="100px" height="100px" viewBox="0 0 100 100" version="1.1" xmlns="http://www.w3.org/2000/svg" xmlns:xlink="http://www.w3.org/1999/xlink">
    <title>EVO</title>
    <g id="EVO" stroke="none" stroke-width="1" fill="none" fill-rule="evenodd">
        <g transform="translate(19.000000, 6.000000)" fill="#5B9AFD" fill-rule="nonzero" id="形状结合">
            <path d="M47.9724576,45.520274 C52.4838827,45.3308701 57.4272446,45.4233697 63,45.7977728 C60.3947368,81.9183091 26.3684211,96.8757119 0,82.7139157 C2.68421053,76.6673061 5.05263158,70.2228932 8.84210526,64.4149655 C8.85845425,64.4162329 8.87480323,64.4175003 8.89115221,64.4187674 C15.2108521,54.5880567 25.4769848,46.6700704 47.1315789,45.5590908 Z M0,5.30140051 C18.7105263,-4.80280239 41.3684211,-0.108723877 53.8421053,16.3603312 C54.0112782,17.7242282 54.1401719,19.0475329 54.2000153,20.3882343 L54.2274052,21.1910314 C54.1901182,19.5557469 54.0451128,17.9288127 53.8421053,16.3603312 C58.8947368,23.0434261 62.2894737,31.7155372 63,42.1379827 C57.8684211,42.535786 53.2105263,42.6949073 48.9473684,42.535786 L48.989,42.536 L48.9473684,42.6153467 C16.4052632,41.5412779 8.73868421,25.6450594 2.17839474,10.3546158 L1.74242021,9.33631965 L1.30815853,8.32083421 C0.874231579,7.30709274 0.440526316,6.2990911 0,5.30140051 Z"></path>
        </g>
    </g>
</svg>