<svg width="100" height="100" viewBox="0 0 100 100" fill="none" xmlns="http://www.w3.org/2000/svg">
<path d="M35.3636 28.56C35.3636 28.56 29 22.16 23.2727 20.88C28.3636 24.464 33.0303 32.6133 34.7273 36.24C34.7273 36.24 40.4545 32.4 47.4545 31.76C47.4545 31.76 46.1818 23.44 47.4545 15.76C47.4545 15.76 43.6364 21.52 42.3636 27.28C42.3636 27.28 39.1818 16.4 34.0909 10C34.0909 10 35.1515 23.8667 35.3636 28.56Z" fill="#5B9AFD"/>
<path d="M54.8494 51.1446C59.1414 52.9514 63.5853 52.0985 64.7752 49.2395C65.9651 46.3806 63.4503 42.5983 59.1584 40.7915C54.8664 38.9847 50.4225 39.8376 49.2326 42.6965C48.0427 45.5554 50.5574 49.3378 54.8494 51.1446Z" fill="#5B9AFD"/>
<path d="M60.8952 54.8581H64.5381L66.8883 59.7745H66.9823L69.3325 54.8581H72.9753L68.5569 63.1545V69.5199H65.3136V63.1545L60.8952 54.8581Z" fill="#5B9AFD"/>
<path fill-rule="evenodd" clip-rule="evenodd" d="M49.0504 69.5199H52.5757L53.7087 64.6436H56.8012L57.9342 69.5199H61.4595L57.4877 54.8581H53.0223L49.0504 69.5199ZM56.2301 62.1854L55.302 58.1909H55.208L54.2799 62.1854H56.2301Z" fill="#5B9AFD"/>
<path d="M39.9972 69.5199V54.8581H43.2639V66.8727H48.1289V69.5199H39.9972Z" fill="#5B9AFD"/>
<path fill-rule="evenodd" clip-rule="evenodd" d="M27.8665 54.8581V69.5199H31.1333V63.3672H32.9429C33.8595 63.3672 34.6605 63.1959 35.346 62.8531C36.0354 62.5104 36.5701 62.0219 36.95 61.3877C37.3339 60.7534 37.5258 60.003 37.5258 59.1363C37.5258 58.2775 37.3398 57.5271 36.9677 56.8849C36.5955 56.2428 36.0746 55.7445 35.4048 55.3899C34.735 55.0354 33.9535 54.8581 33.0604 54.8581H27.8665ZM31.1333 60.8145V57.4818H32.2849C32.6687 57.4818 32.9958 57.5487 33.2661 57.6827C33.5403 57.8127 33.7498 58.0018 33.8948 58.2499C34.0436 58.4942 34.118 58.7896 34.118 59.1363C34.118 59.479 34.0436 59.7765 33.8948 60.0286C33.7498 60.2807 33.5403 60.4757 33.2661 60.6136C32.9958 60.7475 32.6687 60.8145 32.2849 60.8145H31.1333Z" fill="#5B9AFD"/>
<path fill-rule="evenodd" clip-rule="evenodd" d="M50 90C65.464 90 78 77.3923 78 61.84C78 46.2877 65.464 33.68 50 33.68C34.536 33.68 22 46.2877 22 61.84C22 77.3923 34.536 90 50 90ZM50 87.44C64.0582 87.44 75.4545 75.9785 75.4545 61.84C75.4545 47.7015 64.0582 36.24 50 36.24C35.9418 36.24 24.5455 47.7015 24.5455 61.84C24.5455 75.9785 35.9418 87.44 50 87.44Z" fill="#5B9AFD"/>
</svg>
