<?xml version="1.0" encoding="UTF-8"?>
<svg width="100px" height="100px" viewBox="0 0 100 100" version="1.1" xmlns="http://www.w3.org/2000/svg" xmlns:xlink="http://www.w3.org/1999/xlink">
    <title>JDB</title>
    <g id="JDB" stroke="none" stroke-width="1" fill="none" fill-rule="evenodd">
        <g transform="translate(8.000000, 27.000000)" fill="#5B9AFD">
            <path d="M17,0 L31,0 L23,36 C22.3333,39.5 19.3,46.5 12.5,46.5 L0,46.5 L5,39 L8,39 C11,39 13.8,38.2 15,33 L21,7 L17,0 Z" id="路径" fill-rule="nonzero"></path>
            <path d="M31,0 L74.1786,0 C79.0505,0 83,3.9495 83,8.8214 C83,13.2055 80.2283,16.9423 76.3416,18.3749 C79.0524,19.3084 81,21.8813 81,24.9091 C81,31.5867 75.5867,37 68.9091,37 L28,37 L35,7 L31,0 Z M38,30 L42.7956,7 L50.4687,7 C56.2234,7 56.3833,13.3333 55.7439,16.5 C55.7439,16.5 53.346,30 42.7956,30 L38,30 Z M62,21.4999999 C61.5,25.4999999 57,29.9999999 57,29.9999999 L70,29.9999999 C71.3333,29.9999999 74,29.1 74,25.4999999 C74,21.9 71,21.4998 70.5,21.4999999 L62,21.4999999 Z M63,15.5 C63,15.5 64,11 62,7 L72,7 C73,7 75.5,7 75.5,11 C75.5,13.8 73.1667,15.1667 72,15.5 L63,15.5 Z" id="形状"></path>
        </g>
    </g>
</svg>