<?xml version="1.0" encoding="UTF-8"?>
<svg width="100px" height="100px" viewBox="0 0 100 100" version="1.1" xmlns="http://www.w3.org/2000/svg" xmlns:xlink="http://www.w3.org/1999/xlink">
    <title>SEXY</title>
    <g id="SEXY" stroke="none" stroke-width="1" fill="none" fill-rule="evenodd">
        <g transform="translate(22.532170, 12.000000)" fill="#5B9AFD" fill-rule="nonzero" id="形状">
            <path d="M38.5816771,0.649584637 C40.8278125,2.07092744 41.3898643,5.06665956 42.0197472,7.48441676 L42.0197472,8.25817134 L43.8152741,8.21787247 C50.3273533,8.08481618 52.8782274,8.34426242 54.1202352,9.77911377 C54.6868856,10.7620239 54.5264062,11.4999344 54.3582421,12.6427806 C53.2460897,16.5374146 51.9283407,18.5814209 49.2224996,21.0357056 C48.8283958,21.3931703 48.5231546,21.8493315 48.1377851,22.223031 L47.6249991,22.7094612 L47.3043671,23.0619174 C46.7412089,23.690345 46.3222518,24.2465551 46.1882894,25.1490479 C46.1882894,26.4477166 46.4708971,26.5198649 46.9772396,27.0983587 L47.7874795,28.0454018 C49.0679304,29.5560528 50.6684599,31.5137951 51.1782796,32.2445633 C50.4610921,32.9409424 50.1130149,33.3838625 49.3803191,34.0108836 L49.1208081,34.2273094 C48.8749419,34.4304502 48.2386152,35.079895 47.380306,35.6810303 L46.9889023,35.0624608 C46.4790421,34.2652784 46.1849744,33.8611288 45.7854574,33.5341543 C45.6157796,34.2273094 44.7860683,35.6661987 43.3050071,36.3712544 L42.3579173,36.7503052 L42.0197472,37.9187636 C40.3402059,43.0529476 37.7355916,44.2013749 36.7547567,46.0059094 L35.5713574,48.2176083 C33.9316976,51.6411133 32.500118,52.428772 33.9316976,56.185791 L34.1395482,56.833609 C35.1306746,60.528077 35.8618183,67.2749106 34.6467855,70.9322923 C37.4892061,70.3664551 41.6622209,67.1548448 42.3579173,67.0410156 C44.0284217,69.4285371 44.9268351,70.9104766 45.0531576,71.4868343 C42.8027744,72.9308827 40.0060439,75.0316561 34.9282796,76.4088135 C30.4795492,77.2786763 23.572368,77.6024417 17.4712834,75.0985107 C11.8664189,72.6495742 6.28952244,67.4503967 3.71900267,62.6789101 C1.46945584,58.5705423 0.0650009332,53.0928315 0.00357228084,48.4933103 C-0.0578563716,43.8937891 0.680554808,42.009296 1.63225913,38.7514648 C2.58396344,35.4936337 4.60332874,32.4741311 6.70686314,29.8434499 L7.70029598,28.6276637 C11.3938451,24.2848415 16.1172445,21.5786133 21.969693,20.1678467 C21.969693,19.4129232 22.002377,18.9012858 22.067745,18.6329346 C22.2866245,17.7544661 22.413774,17.7194319 22.993062,17.0761089 C23.3792539,16.647227 24.0098815,16.1461086 24.8849447,15.5727539 C24.4570475,15.5159098 23.828033,15.4567464 22.9979009,15.3952637 C24.6265218,14.6217041 24.7972648,14.3908691 25.3113687,13.9323716 C25.6798957,13.5809074 25.9580339,13.067826 26.1457836,12.3931274 C26.324703,11.7885742 26.1924447,10.816384 26.2273519,10.1110229 C26.3711331,8.51238675 26.96999,7.64671319 27.785494,6.29154512 L28.1821172,5.59637499 C30.4519428,1.71496489 33.7548794,-1.39975704 38.5816771,0.649584637 Z M41.494929,68.9076524 C40.7737391,68.9076524 40.415591,69.231507 39.8080254,69.6169274 C37.1601682,71.2260693 34.4452105,71.9906413 31.4699019,72.7764253 L31.7269539,75.6135254 C35.815362,75.3937655 39.5955283,73.601106 43.0372409,71.4868343 C42.6851525,70.4564495 42.1999649,69.7329661 41.494929,68.9076524 Z M23.6415975,73.3042603 L22.9526788,72.5275574 L22.7929037,73.670929 L21.7635457,74.229187 L22.8401144,74.6302795 L22.7349813,76.0476685 L23.6415975,74.9995117 L24.8399007,75.4006042 L24.2598531,74.229187 L24.7972648,73.259552 L23.6415975,73.3042603 Z M9.23229575,63.116333 C8.34593826,63.7233276 7.57879233,64.3110962 6.61895346,65.2520142 C8.34593826,67.9603271 14.3024251,72.7764253 16.4146688,73.3825152 C16.9905526,72.1187279 17.4456103,71.138399 17.7798421,70.4415283 C12.3797567,67.1607666 11.3810103,65.7781985 9.23229575,63.116333 Z M21.969693,57.0484009 C20.1127279,60.5400391 18.637334,66.0271942 18.8029134,69.9353781 C20.5739095,70.8221436 22.740849,71.4868343 26.2273519,71.9639651 C26.0827886,70.9107729 25.4199609,68.7285569 25.0020101,67.7631226 C23.5760729,64.4462817 22.5964775,61.3092041 21.969693,57.0484009 Z M12.9625204,45.2819214 C12.4770874,45.6229858 12.0521186,45.9662272 11.687614,46.3116455 C10.4370417,47.4092517 9.9621515,48.0048384 8.34593826,48.5892944 C7.66993222,48.8788543 7.33510602,48.6184 6.83422446,49.1322632 C6.64973553,49.4425252 6.47118735,49.6459147 6.29857993,49.7424316 C5.95367026,49.8666992 5.74221536,49.9541016 5.19683432,50.0598755 C5.63805747,55.4214478 7.45489096,60.329895 11.4335897,64.4843375 C11.3527791,60.9970703 11.2569502,59.7096248 11.2058065,56.0820313 C11.1546628,52.4544377 10.7206567,49.6528473 12.9625204,45.2819214 Z M4.56139731,57.0484009 L3.76897788,56.2714539 L3.60114484,57.4270325 L2.55614829,57.9829102 L3.60114484,58.4123535 L3.60114484,59.6943665 L4.61620688,58.8005371 L5.73293662,59.1122131 L5.19683432,57.9873657 L5.79363608,57.0484009 L4.56139731,57.0484009 Z M17.1637335,40.4831543 C16.5176351,41.0238037 15.2511556,41.6799316 14.3024251,43.2758789 C17.0884161,42.6688232 18.7360189,44.1088002 20.3175619,46.8145752 C21.8157327,49.6008773 22.9584817,53.2859485 22.4260213,56.4566337 C25.8887316,56.7467917 28.937558,55.6369609 32.1093099,54.5544871 L32.500118,53.6290894 L31.7269539,53.2593394 C27.9461034,51.4250962 24.6467089,49.1173979 21.5120199,46.3116455 C20.8738186,45.7479777 17.4712834,42.7512817 17.1637335,40.4831543 Z M2.97271323,37.9187636 C1.11554997,41.7685736 0.974563388,46.3459089 1.0910604,50.5322876 C2.55350343,50.4019165 3.64627687,50.336731 4.36938071,50.336731 C4.36938071,44.6213989 4.69841742,42.7226562 6.1414144,39.0471191 C4.52647325,38.4383138 3.47023952,38.0621953 2.97271323,37.9187636 Z M21.2831991,25.7061768 C13.9368246,27.914856 7.01209439,34.9392735 5.45574545,44.3995972 L8.08888628,44.7947388 C9.27830945,44.7628019 9.86489982,43.8561437 10.7206567,43.0529476 L11.8492756,41.7432068 C12.9648897,40.4080726 16.4491537,36.2854566 18.5134847,34.2273094 C18.86111,32.7444889 19.7076375,30.8151769 20.6538045,29.4035645 C20.6538045,28.1643444 21.106075,26.8082628 21.2831991,25.7061768 Z M25.6126015,34.343811 C25.1497071,34.6505127 24.5402128,34.7855835 23.906368,34.9255371 C24.7972648,34.0108836 25.3793669,33.3179693 25.7182577,32.487854 C25.9755208,31.857686 25.8132894,30.361145 25.5684207,29.6245728 C24.4066732,32.3954163 22.9526788,35.3467712 21.106075,38.0519104 C22.4300497,37.9187636 23.7262838,37.53125 24.7972648,36.6291726 C25.3671834,36.1282349 25.6567823,35.434906 25.6126015,34.343811 Z M31.828304,19.8480225 C31.6479452,21.996521 31.7650994,23.0426983 31.397579,24.3336792 C31.0300585,25.6246601 30.1312665,26.0611306 29.3117635,27.0983587 C28.1797322,28.5954575 27.5901449,30.53125 27.8344381,33.2943367 C29.8551595,34.0826721 31.2260396,34.3079089 33.5457723,34.2273094 C36.2607381,34.0108836 37.6686163,33.8533072 38.262325,34.0108836 C38.8560338,34.1684601 39.6684725,34.7433015 40.2203834,35.2589822 C40.9356084,35.9055138 41.3104818,36.3187256 42.1950033,36.199707 C43.42089,35.9690787 43.8919163,35.5072767 44.6961629,34.5658271 C45.1741903,33.9503784 45.5683756,32.7500555 45.5182455,31.626709 C46.1968627,32.2225 46.5802945,32.920309 47.2794759,33.5341543 L47.4170041,33.4540276 C47.9306295,33.1425635 49.4168024,32.1521228 49.8066366,31.4708087 L49.1444967,30.6848974 C48.121629,29.4923199 46.2690087,27.3969438 45.5182455,26.8282813 C45.3504293,26.7093811 45.0531576,26.6187227 44.8636739,26.7490234 L44.6853232,27.0054393 C44.5646388,27.1788172 44.4512715,27.3534135 44.4105315,27.5073315 C44.063381,30.6430969 43.0060987,31.3652488 40.7254504,32.7654372 L40.4432997,32.9043026 C40.1685886,33.0342801 40.04141,33.0668697 39.6092794,33.1566772 L39.5268133,32.95087 C39.4125094,32.6463849 39.2093543,32.0554246 39.062557,31.4424258 C38.8542402,30.572533 38.7495793,29.6594342 38.6592061,29.519043 C38.2142343,30.577486 38.5507438,32.1884484 38.8423116,33.3851624 L37.0610311,32.8289795 L38.0228231,29.2732849 L37.1003377,26.6318665 L37.4892061,29.2732849 L36.6274736,31.3539124 C35.9336279,30.72293 35.6710154,29.6501174 35.1862142,28.8494568 C34.7270675,28.1096136 33.5457723,27.0983587 33.0433614,26.314209 C32.0648763,24.7807007 32.0648763,22.0513916 31.828304,19.8480225 Z M7.61718344,30.2871704 L7.43291831,31.5410461 L6.36303305,31.9311523 L7.37096762,32.487854 L7.43291831,33.8382416 L8.25823569,32.9043026 L9.58660483,33.1566772 L8.93743491,32.062706 L9.54326987,30.981781 L8.51324057,31.2128906 L7.61718344,30.2871704 Z M21.969693,21.4119992 C19.0555316,21.4119992 14.5925021,23.9855347 12.5872959,25.5838623 L14.4253499,28.3189087 C16.9592245,26.314209 19.1421213,25.4015503 21.7635457,24.6359766 L21.969693,21.4119992 Z M42.4391439,11.6068115 L42.3579173,12.0609948 C42.0625375,13.5927069 41.7873901,13.7070058 41.3104818,14.1357422 C41.239742,14.3944397 41.3104818,14.7868347 41.5056433,15.0354004 C42.1950033,15.737799 43.0985137,17.1686118 43.4121358,17.6365967 C44.2838897,16.9047333 45.156307,16.6276855 46.3987997,16.7073669 C46.7347372,16.074646 47.2194479,15.4989435 47.7759664,14.8138428 C48.1183677,14.3957332 48.7083957,14.0175454 49.2224996,13.501709 C47.4213521,11.9666138 44.6467441,11.7883721 42.4391439,11.6068115 Z"></path>
        </g>
    </g>
</svg>