<?xml version="1.0" encoding="UTF-8"?>
<svg width="100px" height="100px" viewBox="0 0 100 100" version="1.1" xmlns="http://www.w3.org/2000/svg" xmlns:xlink="http://www.w3.org/1999/xlink">
    <title>OG</title>
    <g id="OG" stroke="none" stroke-width="1" fill="none" fill-rule="evenodd">
        <g transform="translate(7.188657, 15.715881)" fill="#5B9AFD" id="形状">
            <path d="M31.3572418,53.1264038 L32.5560433,53.306373 C33.3089951,53.4113996 34.1533757,53.4983521 35.2556183,53.4983521 C34.7282746,54.4836426 33.3564789,55.7453918 32.6306793,56.4292276 C31.8304474,57.126902 30.5321141,58.8533401 30.3989899,61.118988 C30.3324616,62.9902649 31.8228485,64.9129233 33.8777802,66.7391052 L32.6668539,66.2465018 L32.2457697,66.0661773 C30.5575612,65.3221784 29.6659577,64.6252794 28.3613312,62.2949524 C27.7914632,61.1985712 27.6273834,59.6167297 28.2226898,58.3394165 C24.2775299,58.3394165 21.8543732,58.737793 20.7578854,59.7431811 C19.8891132,60.4923169 19.1816849,61.961955 19.1580965,63.5024166 L19.1605866,63.7597046 C19.1605866,64.3871155 19.3154181,65.7492371 19.7961456,68.1557922 C17.5063507,65.1716003 16.6886627,63.3835144 16.6886627,60.7720337 C16.6886627,59.3271179 17.5063507,57.5162048 19.1199066,56.6694641 C21.3065827,55.6965942 23.0299713,56.1006775 25.3119538,55.8921509 C28.9509436,55.7002082 30.482486,54.0840454 31.3572418,53.1264038 Z M24.760379,50.329243 C25.1394684,50.7648926 27.5161164,51.968811 28.4158966,52.2533569 C27.0805695,53.8060303 24.3475372,54.0843506 22.1622345,54.2928467 L21.5036165,54.340792 L20.8522834,54.3961712 C17.5517887,54.7018038 16.9530622,55.1833051 15.6608917,56.3900757 L15.3851123,56.7094537 L15.2743918,56.8501687 C14.7767119,57.5128249 14.3085965,58.6017257 14.76015,61.2841187 L14.5446878,60.8994974 L14.3227196,60.4877804 C13.5043994,58.9310176 12.6784746,56.8697651 13.2045319,54.7653809 C13.6906769,53.3272705 15.2356663,51.8080205 16.8496735,51.3499146 C17.8624909,51.1039429 19.8641998,50.9789429 20.9696686,50.883606 L21.7841511,50.7939821 C22.4047854,50.7236748 23.1166732,50.6312005 23.5355866,50.5102539 C24.4058242,50.3655291 24.4976227,50.1228027 24.760379,50.329243 Z M68.6035239,55.0991187 C69.6259239,55.0991187 70.154422,55.348053 70.6865875,55.9915771 L70.0367157,56.5220187 C69.6748688,55.9915771 69.1759239,55.9307187 68.6251239,55.9307187 C68.068828,55.9479237 67.2557055,56.5247187 67.2412445,57.3779187 C67.2412445,57.9502258 67.482486,58.4427149 67.7175629,58.6253187 C67.9526398,58.8079224 68.3679873,59.0065918 68.7171873,59.0065918 C69.2571873,59.0065918 69.9617012,58.8629187 69.9859239,58.1555187 L69.6560571,58.1504562 L68.7463296,58.1555187 L68.7463296,57.4157187 L71.0049469,57.4157187 L71.0052477,57.7893219 C70.9967145,58.3681251 70.8953311,58.7585187 69.9859239,59.4245187 C69.3329193,59.819397 69.1782257,59.7481681 68.7007239,59.7481681 C68.0203239,59.7373681 67.4551239,59.4713187 67.0699239,59.0573187 C66.6883239,58.6397187 66.4356393,58.0781187 66.4284393,57.3725187 C66.4284393,56.6885187 66.6724884,56.1801551 67.1107819,55.7903187 C67.5490753,55.4004822 68.026767,55.0991187 68.6035239,55.0991187 Z M38.6098434,55.1099187 C39.2686434,55.1099187 39.7996434,55.3367187 40.2028434,55.7903187 C40.5880434,56.2223187 40.7806434,56.7641187 40.7806434,57.4157187 C40.7806434,58.1033187 40.5790434,58.6577187 40.1758434,59.0789187 C39.7762434,59.4965187 39.2506434,59.7053187 38.5990434,59.7053187 C37.9582434,59.7053187 37.4362434,59.4965187 37.0330434,59.0789187 C36.6226434,58.6541187 36.4174434,58.0997187 36.4174434,57.4157187 C36.4174434,56.7317187 36.6082434,56.1809187 36.9898434,55.7633187 C37.3894434,55.3277187 37.9294434,55.1099187 38.6098434,55.1099187 Z M76.4078476,55.1801187 L77.7740476,55.1801187 L78.6434476,58.1447187 C78.6794476,58.3139187 78.7010476,58.4741187 78.7082476,58.6253187 L78.7190476,58.6253187 C78.7298476,58.4993187 78.7568476,58.3409187 78.8000476,58.1501187 C79.0736476,57.1601187 79.3454476,56.1701187 79.6154476,55.1801187 L81.0356476,55.1801187 L81.0356476,59.6243187 L80.1230476,59.6243187 L80.1230476,56.8973187 C80.1230476,56.5445187 80.1374476,56.2169187 80.1662476,55.9145187 L80.1500476,55.9145187 L80.0582476,56.3289687 C80.0294476,56.4540687 80.0024476,56.5661187 79.9772476,56.6651187 L79.1186476,59.6189187 L78.3302476,59.6189187 L77.4176476,56.6381187 L77.2947976,56.2007187 C77.2632976,56.0801187 77.2412476,55.9847187 77.2286476,55.9145187 L77.2070476,55.9199187 C77.2286476,56.2439187 77.2394476,56.6201187 77.2394476,57.0485187 L77.2394476,59.6243187 L76.4078476,59.6243187 L76.4078476,55.1801187 Z M63.0604718,55.1801187 L63.0604718,58.8737187 L64.2091705,58.8737187 L64.2091705,59.6243187 L62.1424718,59.6243187 L62.1424718,55.1801187 L63.0604718,55.1801187 Z M57.0042145,55.1801187 L57.0042145,55.9307187 L56.1956818,55.9307187 L56.1956818,59.6243187 L55.2722818,59.6243187 L55.2722818,55.9307187 L54.5079071,55.9307187 L54.5079071,55.1801187 L57.0042145,55.1801187 Z M51.1593402,55.1801187 C51.7461402,56.1197187 52.2686914,56.7677187 52.8554914,57.7073187 C52.9670914,57.8909187 53.0462914,58.0367187 53.0930914,58.1447187 L53.1038914,58.1447187 L53.0935234,57.9373587 C53.0896354,57.8142387 53.0876914,57.6619587 53.0876914,57.4805187 L53.1038914,55.1801187 L53.8776886,55.1801187 L53.8776886,59.6243187 L53.0876914,59.6243187 L52.849239,59.2518937 C52.7632129,59.1197188 52.6715867,58.9807618 52.5771868,58.8387764 L51.265919,56.8889731 C51.21563,56.8113347 51.1805802,56.7547587 51.1647402,56.7245187 L51.1746947,56.8949863 L51.1755402,59.6243187 L50.4019043,59.6243187 L50.4019043,55.1801187 L51.1593402,55.1801187 Z M46.1626007,55.1801187 L46.1626007,59.6243187 L45.3916434,59.6243187 L45.3916434,55.1801187 L46.1626007,55.1801187 Z M43.1535134,55.1801187 C43.6827134,55.1801187 43.8605363,55.3043187 44.1557363,55.5527187 C44.4329363,55.7867187 44.5715363,56.0963187 44.5715363,56.4815187 C44.5715363,56.8451187 44.4869363,57.1331187 44.3177363,57.3455187 L44.1601007,57.5465187 C44.0607458,57.6633187 43.9497134,57.7457187 43.6881134,57.7937187 L44.8059134,59.6189187 L43.8717134,59.6189187 L42.8404434,57.8477187 L42.7256217,57.8477187 L42.7256217,59.6243187 L41.8022217,59.6243187 L41.8022217,55.1801187 L43.1535134,55.1801187 Z M74.2058602,55.1747187 L75.8960602,59.6189187 L74.8916602,59.6189187 L74.5244602,58.5767187 L72.7856602,58.5767187 L72.4292602,59.6189187 L71.4302602,59.6189187 L73.1204602,55.1747187 L74.2058602,55.1747187 Z M59.8896981,55.1747187 L61.5798981,59.6189187 L60.5754981,59.6189187 L60.2082981,58.5767187 L58.4694981,58.5767187 L58.1130981,59.6189187 L57.1140981,59.6189187 L58.8042981,55.1747187 L59.8896981,55.1747187 Z M84.4302399,55.1693187 L84.4302399,55.9253187 L82.8201325,55.9253187 L82.8201325,56.9675187 L84.2790399,56.9675187 L84.2790399,57.7181187 L82.8201325,57.7181187 L82.8201325,58.8629187 L84.5058399,58.8629187 L84.5058399,59.6135187 L82.0060434,59.6135187 L82.0060434,55.1693187 L84.4302399,55.1693187 Z M49.4204968,55.1693187 L49.4204968,55.9253187 L47.8996434,55.9253187 L47.8996434,56.9675187 L49.4960968,56.9675187 L49.4960968,57.7181187 L47.8996434,57.7181187 L47.8996434,58.8629187 L49.4960968,58.8629187 L49.4960968,59.6135187 L47.1505768,59.6135187 L47.1505768,55.1693187 L49.4204968,55.1693187 Z M38.5774434,55.8983187 C38.2282434,55.8983187 37.9420434,56.0351187 37.7188434,56.3087187 C37.4920434,56.5895187 37.3786434,56.9567187 37.3786434,57.4103187 C37.3786434,57.8783187 37.4956434,58.2491187 37.7296434,58.5227187 C37.9492434,58.7783187 38.2300434,58.9061187 38.5720434,58.9061187 C38.9500434,58.9061187 39.2452434,58.7747187 39.4576434,58.5119187 C39.6700434,58.2491187 39.7762434,57.8837187 39.7762434,57.4157187 C39.7762434,56.9513187 39.6682434,56.5823187 39.4522434,56.3087187 C39.2362434,56.0351187 38.9446434,55.8983187 38.5774434,55.8983187 Z M73.6550602,55.9145187 L73.6442602,55.9145187 L73.6157482,56.0311587 C73.6025002,56.0786787 73.5855082,56.1348387 73.5647722,56.1996387 L73.5308602,56.3033187 C73.3544602,56.8253187 73.1762602,57.3455187 72.9962602,57.8639187 L74.3408602,57.8639187 L73.7684602,56.2979187 L73.6550602,55.9145187 Z M59.3388981,55.9145187 L59.3280981,55.9145187 L59.2995861,56.0311587 C59.2863381,56.0786787 59.2693461,56.1348387 59.2486101,56.1996387 L59.2146981,56.3033187 C59.0382981,56.8253187 58.8600981,57.3455187 58.6800981,57.8639187 L60.0246981,57.8639187 L59.4522981,56.2979187 L59.3388981,55.9145187 Z M9.01721498,40.6574097 C9.74796432,41.1660567 13.6704743,45.0419312 15.9806549,45.3800049 L16.6270659,45.4840708 L16.9195232,45.5261791 C17.5823839,45.6148151 18.4503327,45.6811798 19.821109,45.6203613 C20.0277741,46.1296997 21.4639923,47.6191406 22.0607941,48.1969604 C21.0688619,48.6963783 19.4175911,48.7556044 18.3348419,48.8201294 L16.9978185,48.9107485 L16.5588729,48.9463432 C14.9841149,49.0889804 14.5681159,49.331732 12.4919501,50.6722558 C10.9199651,52.5944808 11.1119649,54.9199046 11.176434,57.2841187 C11.05945,57.2841187 9.34394565,53.3295507 10.0072663,50.8748169 C10.5500334,49.2021325 11.4218714,48.2862428 12.8860504,47.3547974 L11.8173573,46.3738964 L11.3146308,45.9244873 C9.26019213,44.1122265 7.69368928,43.0670757 6.04303285,43.3007813 C2.96277162,43.8395386 2.45398256,45.1946411 0,48.6950684 C0.116763323,45.7495117 1.02398989,43.3881226 2.45398256,41.5727539 C4.14392397,39.7150269 6.54256893,39.1114733 9.01721498,40.6574097 Z M42.9861134,55.8929187 L42.7256217,55.8929187 L42.7256217,57.1511187 L42.9861134,57.1511187 C43.2813134,57.1511187 43.4973134,57.0989187 43.6341134,56.9945187 C43.7673134,56.8937187 43.8339134,56.7371187 43.8339134,56.5247187 C43.8339134,56.3123187 43.7709134,56.1557187 43.6449134,56.0549187 C43.5117134,55.9469187 43.2921134,55.8929187 42.9861134,55.8929187 Z M80.7590973,37.1735229 C78.980716,46.418396 71.7838776,51.4989726 63.9664948,51.4989726 C57.388782,51.4135147 54.0357086,48.7373657 50.9185822,45.5219116 L50.8549211,45.3602672 L50.7561419,45.0781153 C50.744936,45.0433526 50.7383889,45.0203154 50.7394141,45.017395 C51.4440949,43.3092041 52.6685822,41.1607666 53.3186066,39.8034058 C53.9861481,41.8187866 57.5789826,46.3236084 63.6770661,46.418396 C69.1229279,46.418396 72.2160675,43.2330322 72.8163483,42.3303833 L67.8425934,42.3303833 L67.8425934,38.1060181 C67.8425934,37.7985229 67.9927094,37.1735229 68.685611,37.1735229 L80.7590973,37.1735229 Z M48.1781647,23.6661987 C48.5143463,24.2564087 47.2330963,25.9988403 45.5952789,28.8424683 C42.8113434,23.944397 37.7456696,21.9182739 32.7107575,22.8705444 C26.1937897,24.3672485 22.814151,29.6216431 23.2389557,35.5150757 C23.5973721,41.1645844 28.5210602,46.1412964 34.4016754,46.4210815 C40.4229126,46.4210815 45.9502594,42.8410034 46.9031403,35.5150757 C46.640445,25.2536011 53.9827301,17.9902954 63.0327789,17.5177612 C71.3950836,17.2373657 77.9157135,21.9641724 80.4871247,30.1342163 C77.623233,30.1342163 75.2691752,30.593811 74.9783356,29.8366089 L74.624,29.1796047 L74.3704646,28.7373443 C72.9596807,26.3496697 70.1507854,22.8326716 64.1206696,22.6101685 C58.4250293,22.6101685 54.5794148,26.0128159 52.8090241,30.1342163 C52.1079889,31.7661987 52.012317,33.2611327 52.0028985,34.5909722 L52.0025919,35.91145 C51.9957233,36.6107861 51.9577545,37.2519409 51.7890045,37.8295288 L51.6966473,38.2858548 C50.4891155,43.8130717 45.6903387,51.107018 35.3092682,51.4989718 C26.3771393,51.4989718 18.7376129,45.0582886 18.0448778,35.5150757 C17.5864494,26.638434 24.2060038,18.1043652 33.8716231,17.5344013 L34.210025,17.5177612 C40.7493317,17.1440204 45.395694,20.2063599 48.1781647,23.6661987 Z M10.0468781,34.37323 C11.2904694,35.0917969 12.7905304,36.6956147 15.0435822,38.2653198 L15.5266962,38.5459945 C15.9150023,38.7669002 16.0955431,38.8435931 16.7582428,39.0919189 C16.7582428,39.4772668 17.6446564,42.3748246 18.2357208,43.0774536 C17.7417023,43.0774536 17.2015412,43.0774536 16.7582428,42.9956055 C14.0388901,42.4455465 13.2297079,41.1986976 11.2332224,39.7400629 L9.62043465,38.5915239 C8.34232407,37.6934432 7.45647338,37.1981201 5.90643617,37.1981201 C3.75378725,37.1981201 2.35779115,38.6813354 1.3804352,40.3121338 C1.6929352,38.0041907 2.89630434,36.3532104 3.82361147,35.2310791 C5.38434145,33.5654907 8.19153139,33.3683472 10.0468781,34.37323 Z M10.4906037,17.5752563 C13.0407746,19.4969482 12.2940399,21.0606079 12.7028229,24.6544189 C12.8538271,27.1564142 13.6254303,29.3870239 15.4184804,31.0414933 C15.9844391,31.6613159 16.4970123,31.6613159 16.3483307,32.4103394 C16.1544525,33.2035217 16.4291107,34.8153381 16.111988,35.3993098 L15.4015976,35.0148149 C15.1179169,34.8577307 14.913205,34.7330688 14.6600983,34.5493774 C13.7381622,33.8944092 12.9266998,33.0315857 12.2940399,32.4706116 C10.923269,31.1463833 9.20004579,30.2393188 7.75253603,30.3190613 C5.05490419,30.4671936 3.27617766,32.0467141 1.67836105,33.8495483 C2.71823427,30.9131165 3.82965395,29.3249207 6.46936342,28.1525574 C7.43541269,27.7839164 8.98770448,27.589386 10.1571076,28.0963745 L10.1714874,27.3504411 L10.1751118,26.6437542 C10.165793,23.6652832 9.81996563,21.7689473 8.70129701,20.6517334 C6.80268502,18.9092515 4.01440468,19.2495578 1.74559537,19.6847677 L0.334690076,19.9653765 C2.14465639,18.2429504 6.7823517,15.3233643 10.4906037,17.5752563 Z M15.9627716,14.4736938 C17.1703199,15.4597257 17.6900055,16.2120972 17.9124787,18.8255005 L17.9428608,19.3887138 C18.0806914,21.5224743 18.4495765,23.338691 18.54407,23.8897158 L18.5619538,24.0025635 C18.70853,24.8702393 18.70853,25.2778859 18.2799103,26.0237712 C17.8187605,26.8699653 17.3174782,27.8801861 17.0414459,28.8026733 C15.9627716,27.9909058 15.5771515,27.1557617 15.2677643,26.0237712 C14.8432413,24.3805282 14.6906072,22.6765662 14.6024769,21.380494 L14.5816681,21.0652448 C14.4792511,19.1268921 13.8464386,17.2922974 13.1735871,16.4459839 L12.9420036,16.1739301 L12.7830351,16.0002249 L12.6168698,15.8339491 C11.7914667,15.0500292 10.6077606,14.5654331 7.52704164,14.9454956 C11.9809631,12.6515503 13.9785016,13.0830073 15.9627716,14.4736938 Z M21.5338644,0 C24.1844513,0.319641113 26.9578888,0.981933594 28.7070343,2.62817383 C30.1767609,3.98083496 30.5470329,5.34202853 30.501651,6.80297852 C30.4164561,8.26772054 29.078504,9.79405879 27.8545425,11.0373385 L27.1447785,11.746582 C25.5254889,13.370022 24.2868073,14.8079834 23.9822418,18.2120972 L23.9842452,18.4648581 C23.9815674,18.7908854 23.9412109,19.2846375 23.6504547,19.4774475 C23.2927305,19.7359644 22.4848664,20.3472595 22.1676666,20.7237549 L22.0221948,20.9114022 C21.7612038,21.2389272 21.4146071,21.6104024 21.0886566,21.5766296 C20.8533435,20.8658411 20.7948729,20.1102246 20.7726663,19.3540066 L20.750827,18.2933044 C20.6907577,14.8432232 20.3356964,13.5145874 18.7864875,12.1785458 C16.1186554,10.1300964 13.1293671,10.7336426 12.4563547,10.7922754 C15.5428497,9.20904988 18.050445,9.20904988 19.9135468,10.1158752 C20.9673352,10.7057864 21.9128143,11.4078369 22.5255768,12.6733398 C24.2982515,11.3045481 26.3582472,9.00913439 26.9578888,6.80297852 C26.9808506,5.44192376 26.8208035,4.70056445 26.0476715,3.62072754 C25.9603289,3.35294065 24.621463,1.80981445 21.5338644,0 Z M54.7241852,7.80230713 C55.3481171,8.64990234 55.8603851,10.106781 56.0850861,10.6479187 C56.6239044,12.0807495 56.6239044,13.8688354 56.0152619,15.1223791 C55.3608381,16.289696 54.4993758,17.291185 53.1608789,17.7992408 C52.2738609,18.1163412 51.4872511,18.2114714 50.6721148,18.2641649 L49.5982143,18.3226628 C49.2489515,18.3449529 47.9381926,18.3464389 47.0964939,18.4957067 L46.5444849,18.6094462 C45.8615813,18.7365048 45.5940729,18.6692188 45.0339583,18.3439638 L44.4466078,17.9924637 L44.0867072,17.7929874 C43.4270195,17.435642 42.2338933,16.8322841 41.4497982,16.6837533 C42.3538707,15.6100423 43.7318118,15.3080555 45.1468408,15.1223791 C45.9354828,15.0319972 46.7261205,14.9614444 47.5173016,14.893093 L49.6487804,14.7760807 L50.1286838,14.7394129 C51.5771569,14.6082943 52.3904537,14.3077682 53.7490875,13.0720825 C55.5123322,11.3069458 54.9581635,8.74227905 54.7241852,7.80230713 Z M30.1170685,1.58349609 C32.5101044,2.29989624 33.3537323,2.8795166 34.0948822,3.38787842 C35.4548065,4.25036621 36.3050568,5.47241211 36.4612152,7.01715088 C36.6516699,8.97378263 36.2559431,9.9550506 35.0802926,11.2912647 L34.6547966,11.765582 L34.211931,12.2707458 C33.4106905,13.1920755 32.1757939,14.6477834 31.7754992,15.2652384 C31.1826203,16.07901 30.7692902,16.0216675 29.8101227,16.2792969 C28.7274811,16.5730591 27.8966705,16.9611816 26.6788056,17.4867652 C26.6375763,15.2652384 30.1678492,11.4219198 30.2556565,11.3252157 C32.3531505,9.07828881 33.1372406,7.76464844 33.1372406,6.2902832 C33.1372406,4.88879395 32.8329804,3.28442383 30.1170685,1.58349609 Z M49.8102753,0.406433105 C51.725226,2.3807373 52.9920464,5.05353605 53.1311676,7.76794434 C53.0807208,9.0830948 52.6167886,10.4634315 51.62659,11.4100342 C50.0966693,12.5929757 47.6564812,12.684515 45.7263204,12.8289329 L45.440799,12.8511353 C42.0962413,13.0978139 41.1818878,13.6445312 39.9548065,14.4060364 L39.8508425,14.4849377 L39.6443672,14.6544087 C39.4047936,14.8570826 39.0816129,15.1491069 38.816018,15.4381559 C38.5124123,15.6761167 38.2843978,15.7208499 37.985119,15.7152645 L34.6394684,15.571106 C35.1581146,14.4060364 37.3574249,12.4386902 38.0996124,11.4100342 C39.0899994,10.0088196 39.4475747,9.19385417 39.4136078,7.54318237 C39.2498765,5.62887029 37.9116547,3.9342041 35.7240631,2.18023682 C38.0215485,2.7406311 39.2885382,3.66053776 40.4141876,4.93048096 L40.7531702,5.39137901 C41.5041017,6.44313284 41.9665533,7.35816308 41.9665533,8.74549262 C41.9665533,9.21832275 41.9008209,9.70425415 41.568393,10.3641968 C44.6460297,10.5254211 47.6897309,10.1087646 49.0624726,8.97161865 C50.1163271,8.02644976 50.5137047,6.82045822 50.5415783,5.42992264 L50.5400884,4.87618388 L50.5306012,4.55144448 C50.4913758,3.6003464 50.3371167,2.36813807 49.8102753,0.406433105 Z"></path>
        </g>
    </g>
</svg>