<?xml version="1.0" encoding="UTF-8"?>
<svg width="100px" height="100px" viewBox="0 0 100 100" version="1.1" xmlns="http://www.w3.org/2000/svg" xmlns:xlink="http://www.w3.org/1999/xlink">
    <title>FG</title>
    <g id="FG" stroke="none" stroke-width="1" fill="none" fill-rule="evenodd">
        <g transform="translate(14.000000, 12.000000)" fill="#5B9AFD" fill-rule="nonzero" id="路径">
            <path d="M8.23179582,37.3060891 C11.8256958,30.9220891 28.6057958,16.8588891 33.9833958,28.0539891 C41.3560958,43.3727891 15.8158958,38.2576891 13.5432958,51.2767891 C10.1211958,70.9308891 41.0918958,71.5652891 43.6947958,61.5333891 C45.8880958,53.1139891 31.8297958,61.8505891 29.5306958,54.9246891 C24.9458958,41.1786891 54.6084958,33.4333891 66.3942958,43.2141891 C81.0339958,55.3740891 60.8052958,72.5962891 47.9096958,75.0414891 C-11.8780042,86.3421891 -18.7221942,-6.13918087 44.5271958,0.324089134 C56.4979958,1.54008913 79.4352958,15.6428891 69.6181958,29.3624891 C59.8010958,43.0819891 45.3067958,20.9297891 36.8637958,17.2553891 C20.5592958,10.1577891 10.8875958,22.1325891 8.21859582,37.3324891 L8.23179582,37.3060891 Z"></path>
        </g>
    </g>
</svg>