<?xml version="1.0" encoding="UTF-8"?>
<svg width="100px" height="100px" viewBox="0 0 100 100" version="1.1" xmlns="http://www.w3.org/2000/svg" xmlns:xlink="http://www.w3.org/1999/xlink">
    <title>BOYA</title>
    <g id="BOYA" stroke="none" stroke-width="1" fill="none" fill-rule="evenodd">
        <g transform="translate(13.000000, 13.000000)" fill="#5B9AFD" id="形状">
            <path d="M54,0 C65.045695,0 74,8.954305 74,20 L74,54 C74,65.045695 65.045695,74 54,74 L20,74 C8.954305,74 0,65.045695 0,54 L0,20 C0,8.954305 8.954305,0 20,0 L54,0 Z M24.3529053,51.62146 L23.9363267,52.1106487 C23.215808,52.9711531 22.6944862,53.6689265 21.737915,54.8168945 C32.2675781,62.4412842 42.2091064,62.4412842 53.0579834,54.8168945 C52.1483154,53.8398437 51.2369385,52.7192383 50.5308838,51.8339844 C41.8635254,56.6221924 32.276001,56.6221924 24.3529053,51.62146 Z M50,24 C43.9248678,24 39,28.9248678 39,35 C39,41.0751322 43.9248678,46 50,46 C56.0751322,46 61,41.0751322 61,35 C61,28.9248678 56.0751322,24 50,24 Z M18,18 L13,18 L13,35 C13,41.0751322 17.9248678,46 24,46 C30.0751322,46 35,41.0751322 35,35 C35,28.9248678 30.0751322,24 24,24 C21.7867469,24 19.726162,24.65365 18.0007597,25.7784354 L18,18 Z M50,29 C53.3137085,29 56,31.6862915 56,35 C56,38.3137085 53.3137085,41 50,41 C46.6862915,41 44,38.3137085 44,35 C44,31.6862915 46.6862915,29 50,29 Z M24,29 C27.3137085,29 30,31.6862915 30,35 C30,38.3137085 27.3137085,41 24,41 C20.6862915,41 18,38.3137085 18,35 C18,31.6862915 20.6862915,29 24,29 Z"></path>
        </g>
    </g>
</svg>