<svg width="100" height="100" viewBox="0 0 100 100" fill="none" xmlns="http://www.w3.org/2000/svg">
<path d="M34.3804 25H24.7609C21.2543 25 18.0355 26.9665 16.4077 30.1049L7.80815 46.6855C6.73062 48.7613 6.73062 51.2387 7.80815 53.3145L16.0761 69.2575C17.9089 72.7876 21.5283 75 25.4746 75H33.2015C35.8056 75 37.9169 72.8678 37.9169 70.2381V45.8333L47.3269 53.5267C49.0583 54.9409 51.5311 54.9409 53.2625 53.5267L62.6725 45.8333V70.2381C62.6725 72.8678 64.7838 75 67.3879 75H74.5254C78.4717 75 82.0911 72.7876 83.9239 69.2575L92.1919 53.3145C93.2694 51.2387 93.2694 48.7613 92.1919 46.6855L83.5923 30.1049C81.9645 26.9665 78.7457 25 75.2391 25H66.209C64.2566 25 62.6725 26.5991 62.6725 28.5714C62.6725 30.5437 64.2566 32.1429 66.209 32.1429H75.4049C76.2752 32.1429 77.0742 32.6277 77.484 33.4031L85.0659 47.7591C85.8049 49.1595 85.8049 50.8405 85.0659 52.2409L77.484 66.5969C77.0742 67.3723 76.2752 67.8571 75.4049 67.8571H69.7456V38.9683C69.7456 35.9747 66.3242 34.3157 64.0148 36.1944L60.8559 38.773L58.9265 40.353C56.2603 42.5444 53.6701 44.6934 51.9202 46.1914C50.9877 46.9901 49.5971 47 48.6577 46.2112C48.0291 45.6834 47.2624 45.0486 46.4082 44.3441C43.6822 42.0957 40.0535 39.1386 37.0512 36.6984C34.7626 34.8377 31.3619 36.4531 31.3136 39.4206L30.8439 67.8571H25.1845C24.3142 67.8571 23.5153 67.3723 23.1054 66.5969L15.5236 52.2409C15.3256 51.8654 15.1805 51.4695 15.0884 51.0643C15.0308 50.8115 14.994 50.5551 14.9779 50.2976C14.9249 49.4292 15.1068 48.5497 15.5236 47.7591L23.1054 33.4031C23.5153 32.6277 24.3142 32.1429 25.1845 32.1429H34.3804C36.3328 32.1429 37.9169 30.5437 37.9169 28.5714C37.9169 26.5991 36.3328 25 34.3804 25Z" fill="#5B9AFD"/>
</svg>
