<svg width="100" height="100" viewBox="0 0 100 100" fill="none" xmlns="http://www.w3.org/2000/svg">
<path d="M45.9003 40.8294H49.8302L48.1806 48.3416H44.2992L45.9003 40.8294Z" fill="#5B9AFD"/>
<path d="M48.4012 62.0977H44.4713L42.8702 69.6099H46.7516L48.4012 62.0977Z" fill="#5B9AFD"/>
<path d="M32.2183 64.1953L32.558 62.0489H36.0997L35.8086 64.1953H32.2183Z" fill="#5B9AFD"/>
<path d="M33.3828 40.7806L33.0431 42.927H36.6334L36.9245 40.7806H33.3828Z" fill="#5B9AFD"/>
<path fill-rule="evenodd" clip-rule="evenodd" d="M19.7008 26.1463C19.7008 26.5057 19.6129 26.8444 19.4577 27.1421L20.7682 29.0244L21.528 27.624C21.4141 27.3831 21.3504 27.1137 21.3504 26.8293C21.3504 25.8055 22.1758 24.9756 23.1941 24.9756C24.2124 24.9756 25.0377 25.8055 25.0377 26.8293C25.0377 27.2809 24.877 27.6947 24.6102 28.0163L25.3288 29.3171L26.0536 28.7035C26.0416 28.6504 26.032 28.5963 26.0246 28.5415C26.0138 28.4602 26.0081 28.3771 26.0081 28.2927C26.0081 27.269 26.8335 26.439 27.8518 26.439C28.8701 26.439 29.6954 27.269 29.6954 28.2927C29.6954 28.9563 29.3486 29.5385 28.8272 29.866L28.6766 30.9268C28.6766 30.9268 31.7411 31.3601 30.9717 35.0496L95 34.3902L88.5472 37.3658L85.2965 52.2439H93.6415L87.9164 73.6097L93.6415 75.5122L7.18329 76L8.78437 64.9268L5 52.9756H9.51213L7.7655 50.8292L10.5795 51.5121L5 35.317L9.74335 35.2681L9.72875 35.0206L9.69919 35.0223C9.66943 35.0236 9.6393 35.0244 9.60916 35.0244C8.59087 35.0244 7.7655 34.1945 7.7655 33.1707C7.7655 32.147 8.59087 31.3171 9.60916 31.3171C10.4732 31.3171 11.1983 31.9146 11.3982 32.721L12.5687 32.8779L12.4787 31.3845C12.3445 31.36 12.2155 31.3208 12.093 31.2688C12.0187 31.2372 11.9469 31.2008 11.8779 31.16C11.852 31.1478 11.8258 31.1343 11.7997 31.1195C11.6634 31.0421 11.5245 30.927 11.402 30.7562C11.131 30.4335 10.9677 30.0164 10.9677 29.561C10.9677 28.5373 11.793 27.7073 12.8113 27.7073C13.8296 27.7073 14.655 28.5373 14.655 29.561L14.6544 29.6093L16.2075 30.3901L16.3036 27.8774C15.7747 27.4868 15.4313 26.8569 15.4313 26.1463C15.4313 24.9609 16.387 24 17.566 24C18.7451 24 19.7008 24.9609 19.7008 26.1463ZM18.0976 26.8431C18.3054 26.6826 18.4394 26.4303 18.4394 26.1464C18.4394 25.6615 18.0484 25.2684 17.566 25.2684C17.0837 25.2684 16.6927 25.6615 16.6927 26.1464C16.6927 26.5701 16.9912 26.9237 17.3883 27.0063L17.0809 31.9513L13.7373 30.1378C13.8268 30 13.8787 29.8355 13.8787 29.6586C13.8787 29.1737 13.4877 28.7806 13.0054 28.7806C12.5231 28.7806 12.1321 29.1737 12.1321 29.6586C12.1321 30.1436 12.5231 30.5367 13.0054 30.5367C13.0528 30.5367 13.0992 30.5329 13.1447 30.5256L13.6361 33.805L10.6701 33.4736C10.6743 33.4384 10.6766 33.4025 10.6766 33.366C10.6766 32.881 10.2856 32.4879 9.80323 32.4879C9.3209 32.4879 8.92992 32.881 8.92992 33.366C8.92992 33.8509 9.3209 34.244 9.80323 34.244C9.95239 34.244 10.0926 34.2065 10.2154 34.1402L11.1132 35.2684H13.1024L27.3666 31.4635L27.7661 29.3659C28.2431 29.3598 28.628 28.969 28.628 28.4879C28.628 28.003 28.237 27.6099 27.7547 27.6099C27.2724 27.6099 26.8814 28.003 26.8814 28.4879C26.8814 28.7254 26.9752 28.9408 27.1276 29.0989L24.9892 31.0733L23.4416 27.8668C23.8034 27.7595 24.0674 27.423 24.0674 27.0245C24.0674 26.5395 23.6764 26.1464 23.1941 26.1464C22.7117 26.1464 22.3208 26.5395 22.3208 27.0245C22.3208 27.1708 22.3564 27.3088 22.4193 27.4302C22.464 27.5162 22.5224 27.5939 22.5918 27.6603L20.9623 31.0733L18.0976 26.8431ZM27.8032 37.3172L28.628 33.3172H24.6496L15.3827 35.9513L12.9063 49.0129C12.6555 50.3356 13.664 51.5611 15.0033 51.5611H24.6496L25.4744 47.6099H17.9906C17.7457 47.6099 17.5621 47.3849 17.6098 47.1434L19.5553 37.3172H27.8032ZM44.6362 37.7562C43.9023 37.7562 43.2688 38.2727 43.1171 38.9945L40.862 49.7262C40.6581 50.6968 41.3946 51.6099 42.381 51.6099H49.855C50.6006 51.6099 51.241 51.0769 51.3803 50.3405L53.4097 39.6087C53.5916 38.647 52.8582 37.7562 51.8846 37.7562H44.6362ZM41.6882 60.2628C41.8398 59.541 42.4733 59.0245 43.2072 59.0245H50.4554C51.4292 59.0245 52.1626 59.9154 51.9807 60.8771L49.9511 71.6088C49.8118 72.3453 49.1716 72.8782 48.4258 72.8782H40.9521C39.9654 72.8782 39.2291 71.9651 39.433 70.9946L41.6882 60.2628ZM55.1671 51.6099V37.805H58.4663V46.7318L61.6199 40.927H65.0162L65.5984 46.7318L69.7224 37.805H73.0216L66.6658 51.6099H63.1725L62.1536 46.3416L59.1941 51.6099H55.1671ZM71.1779 51.5611L74.089 37.7074H77.7278L80.6873 45.4635L82.434 37.7074H85.6361L82.7736 51.5611H79.2803L76.1267 43.4148L74.6226 51.5611H71.1779ZM17.1362 54.6343H27.3666L26.5903 58.4392H17.8086L17.372 61.4148H23.7259C25.0302 61.4148 26.0295 62.5803 25.8373 63.8774L24.997 69.5507C24.7137 71.4628 23.0807 72.8782 21.1579 72.8782H11.0647L11.7439 69.2685H19.9434L20.8167 65.4148H15.2603C13.75 65.4148 12.5782 64.0898 12.7547 62.5818L13.2813 58.0808C13.5114 56.1154 15.168 54.6343 17.1362 54.6343ZM88.4016 59.0245H80.91C79.2375 59.0245 77.8295 60.2828 77.6336 61.9528L77.2466 65.2488C77.1239 66.293 77.9353 67.2108 78.9811 67.2108H83.4113L82.7459 70.1371H76.4987L75.9811 72.8782H83.3778C85.0116 72.8782 86.3993 71.676 86.6408 70.0514L87.2148 66.189C87.3727 65.1276 86.5549 64.1734 85.4873 64.1734H80.7866L81.1194 61.9138H87.8101L88.4016 59.0245ZM29.7925 59.0245H37.8187C38.9733 59.0245 39.8725 60.032 39.748 61.1861L39.4082 64.3367C39.2373 65.9214 37.9066 67.1221 36.3213 67.1221H31.7114L30.4232 72.8782H27.027L28.2399 67.1221L29.7925 59.0245ZM38.7663 37.7562H30.6173L29.0647 45.8538L27.8518 51.6099H31.248L32.5362 45.8538H33.9242L35.0323 51.6099H38.8167L37.6934 45.7747C39.1506 45.4584 40.2827 44.2259 40.4311 42.6786L40.6979 39.8947C40.8078 38.7483 39.9116 37.7562 38.7663 37.7562ZM56.7197 55.5611L54.1482 57.3172L53.9057 60.0977L55.5553 61.8538L58.4663 60.0977L58.6119 57.0733L56.7197 55.5611ZM57.2049 55.0733L58.8059 56.3416L62.3477 55.9514L62.6873 53.8538L60.407 52.6831L57.8841 53.5611L57.2049 55.0733ZM63.3666 54.2928L63.1735 56.3416L65.0162 59.0733L66.7143 59.6587V57.6587C66.2291 56.3416 64.7736 54.7806 64.7736 54.7806L63.3666 54.2928ZM62.3477 62.1465L64.8221 59.805L66.7143 60.6343V63.1221L64.628 65.2685L62.3477 65.3172V62.1465ZM53.566 57.0245C52.5472 58.0977 52.5472 60.6343 52.5472 60.6343L53.2264 59.6587L53.566 57.0245ZM54.973 65.3172C56.4286 67.2197 58.8059 67.2197 58.8059 67.2197C57.9972 66.6018 56.0986 65.3563 54.973 65.3172ZM53.566 65.3172L52.062 72.8782H55.6038L56.4771 67.5611C56.008 67.3823 54.7693 66.6831 53.566 65.3172ZM62.0081 68.1465H58.3693L59.4852 72.8782H63.3666L62.0081 68.1465ZM67.8302 58.927V62.1465H69.3828L67.345 72.8295H71.0323L73.0216 62.1465H76.7574L77.1456 58.927H67.8302ZM58.6604 60.6831L55.8464 62.4392L56.1375 64.8294C56.1375 64.8294 57.8841 66.4392 59.097 66.4392L61.4744 65.2685V62.1953L58.6604 60.6831Z" fill="#5B9AFD"/>
</svg>
