<?xml version="1.0" encoding="UTF-8"?>
<svg width="100px" height="100px" viewBox="0 0 100 100" version="1.1" xmlns="http://www.w3.org/2000/svg" xmlns:xlink="http://www.w3.org/1999/xlink">
    <title>ALLBET</title>
    <g id="ALLBET" stroke="none" stroke-width="1" fill="none" fill-rule="evenodd">
        <g transform="translate(6.000000, 7.000000)" fill="#5B9AFD" fill-rule="nonzero" id="形状">
            <path d="M17.8244958,9.70530333 C18.525734,9.70530333 18.9334306,9.42940006 19.0802014,8.87759351 C18.6561969,9.15349679 18.2485003,9.42940006 17.8244958,9.70530333 Z M60.0455568,26.0647444 L60.0455568,26.2108108 L61.8557298,26.9086838 L61.8557298,26.7626174 C61.3012624,26.4867141 60.6000242,26.3406477 60.0455568,26.0647444 Z M87.4916926,33.6926584 C87.2307668,33.9685617 86.8067623,34.3905314 86.3827579,34.9423379 C87.2144589,34.9423379 87.4916926,34.5203682 87.4916926,33.6926584 Z M33.0234255,5.40445821 C33.0234255,5.25839177 33.0234255,4.9824885 32.8766547,4.9824885 C32.599421,4.70658523 32.1754165,4.56051879 31.6209491,4.9824885 C32.0449536,5.27462137 32.3221873,5.40445821 32.599421,5.55052465 C32.7461918,5.55052465 33.0234255,5.55052465 33.0234255,5.40445821 Z M44.4552384,6.10233119 C44.4552384,5.95626475 44.6020092,5.68036148 44.4552384,5.68036148 C44.1780047,5.25839177 43.7540003,4.70658523 43.4767666,4.15477868 C43.183225,4.9824885 43.7376924,5.40445821 44.0312339,5.82642792 C44.0312339,5.97249436 44.3084676,5.97249436 44.4552384,6.10233119 Z M43.6072295,1.80148607 C42.7755284,0.551806544 42.7755284,0.551806544 43.6072295,0 C42.9059913,0.129836834 42.6287576,0.275903272 42.4982947,0.697872982 C42.4982947,1.11984269 43.0527621,1.80148607 43.6072295,1.80148607 Z M34.1160524,3.73280897 C33.9692816,3.58674253 33.8388187,3.58674253 33.6920479,3.58674253 C33.4148142,3.73280897 33.2680434,4.00871224 33.1375805,4.28461552 L33.561585,4.70658523 C33.7083558,4.85265166 33.8388187,4.85265166 33.9855895,4.85265166 C34.1323602,4.70658523 34.2628232,4.43068195 34.2628232,4.15477868 C34.2628232,4.00871224 34.2628232,3.87887541 34.1160524,3.73280897 Z M31.3437154,7.07610744 C31.3437154,6.93004101 31.4904862,6.80020417 31.4904862,6.65413773 C31.4904862,6.10233119 31.2132525,5.40445821 31.4904862,4.85265166 C31.4904862,4.85265166 31.3437154,4.70658523 31.3437154,4.57674839 C30.6424773,5.27462137 30.6424773,5.95626475 31.0664817,6.80020417 C31.0664817,6.94627061 31.3437154,6.94627061 31.3437154,7.07610744 Z M18.2321924,84.0368907 C18.5094261,84.0368907 18.9334306,84.0368907 18.9334306,83.614921 C18.9334306,83.3390177 18.5094261,83.0631144 18.3789632,83.0631144 L16.9927947,83.0631144 C16.846024,83.0631144 16.715561,83.2091809 16.5687903,83.3390177 C16.715561,83.4850842 16.846024,83.7609874 16.9927947,83.8908243 C16.9927947,84.0368907 17.4004913,84.0368907 17.677725,84.0368907 L18.2321924,84.0368907 Z M38.731178,54.0932709 C38.4539443,54.2393373 38.0299398,53.9472045 38.0299398,53.5414644 C38.0299398,53.2655611 38.0299398,52.8435914 38.1767106,52.5676881 C38.3234814,52.0158816 38.1767106,51.3180086 38.731178,50.8960389 C39.2856454,50.4740692 39.2856454,50.1981659 38.731178,49.6463593 C38.4539443,49.3704561 38.1767106,48.9484864 37.7527061,48.5427462 C37.6059354,48.266843 37.4754724,47.9909397 37.1982388,47.8448733 C36.7742343,47.56897 36.3665377,47.56897 35.8120703,47.2930667 C35.6652995,47.7150364 35.3880658,48.1207765 35.2576029,48.5427462 C35.1108321,49.5165225 35.2576029,50.3442323 35.1108321,51.3180086 C34.9640613,52.9896578 34.6868276,54.5152406 34.5563647,56.1706602 C34.5563647,56.5926299 34.4095939,56.7224668 34.0018973,56.8685332 C33.3006592,57.1444365 32.6157288,57.5664062 31.9144907,57.8423095 C31.7677199,57.8423095 31.4904862,57.696243 31.3600233,57.5664062 C31.2132525,57.4203398 31.3600233,57.2905029 31.3600233,56.8685332 C30.6587851,57.5664062 30.1043177,58.2480496 29.5498503,58.8160857 C29.5498503,59.091989 29.6966211,59.3678923 29.6966211,59.6437955 C29.8433919,60.0657653 29.8433919,60.6175718 29.9738548,61.0233119 C29.9738548,61.1693783 29.9738548,61.2992152 30.1206256,61.4452816 C30.2673964,61.7211849 30.3978593,61.9970882 30.675093,62.1431546 C30.9523267,62.289221 31.0990975,62.1431546 31.0990975,61.7211849 L31.2458682,61.7211849 C31.8003356,61.5751184 32.5015738,61.2992152 33.0560412,61.1693783 L34.164976,61.1693783 C34.164976,61.8672513 34.3117467,62.4190579 34.164976,62.9708644 C33.8877423,64.3503808 33.8877423,65.8759636 34.0182052,67.2717095 C34.0182052,67.8235161 34.164976,68.3753226 33.8714344,68.7972923 C33.4474299,69.6250021 33.5942007,70.5987784 33.8714344,71.2966514 C34.1486681,72.1243612 34.8499063,72.9683006 35.8283781,73.3740407 C36.1056118,73.5201072 36.2523826,73.5201072 36.5296163,73.5201072 C36.5296163,73.2442039 36.6763871,72.9683006 36.6763871,72.6923973 C36.6763871,72.2704276 36.3991534,71.8646875 36.3991534,71.4427178 C36.5459242,69.917135 35.9751489,68.2454858 36.9536208,66.8659694 C37.2308545,66.4439997 37.2308545,65.8921932 37.3776253,65.3403866 C37.3776253,65.1943202 37.524396,65.1943202 37.654859,65.1943202 C37.5080882,65.0482537 37.5080882,64.9184169 37.2308545,64.7723505 C38.3397893,64.9184169 37.654859,63.9446407 38.2093263,63.6687374 C38.0625556,63.522671 37.9320927,63.522671 37.7853219,63.522671 C38.0625556,63.1007012 38.2093263,62.824798 38.48656,62.5488947 L38.48656,61.8510217 C38.48656,61.8510217 38.3397893,61.8510217 38.2093263,61.9970882 C38.3560971,61.5751184 38.48656,61.1693783 38.6333308,60.7474086 L38.48656,60.7474086 C37.654859,62.126925 36.80685,63.522671 36.1219197,64.9021873 C36.1219197,64.4802176 35.9751489,64.0744775 35.9751489,63.522671 C35.9751489,62.1431546 35.9751489,60.8934751 36.1219197,59.4977291 C36.1219197,59.2218258 35.9751489,58.6700193 36.5459242,58.5239528 L36.5459242,58.1019831 L36.692695,58.1019831 C37.524396,57.6800134 38.372405,57.1282069 39.334569,56.7224668 C39.6118027,56.5764003 39.8890364,56.3004971 40.0358072,56.4465635 C40.4598116,56.7224668 40.4598116,56.4465635 40.4598116,56.1706602 C40.4598116,55.7486905 40.6065824,55.4727873 40.6065824,55.196884 C40.7533532,55.196884 41.0305869,55.3429504 41.1610498,55.3429504 C41.1610498,55.0670471 41.014279,54.9209807 41.1610498,54.7911439 L41.5850543,54.3691742 L41.4382835,54.2231077 C41.1610498,54.499011 41.014279,54.7749143 40.7370453,55.0508175 C40.2641173,54.6450774 40.1173465,54.499011 40.1173465,54.3691742 C39.8401128,53.6713012 39.2856454,53.6713012 38.731178,54.0932709 Z M44.1616969,65.1780906 C45.1401687,65.1780906 45.2706316,65.1780906 45.4174024,64.626284 C44.9933979,64.7723505 44.5857013,65.0482537 44.1616969,65.1780906 Z M44.5857013,54.0932709 C44.862935,53.801138 45.2706316,53.5252347 45.6946361,53.1194946 C44.7161643,53.3953979 44.5857013,53.5414644 44.5857013,54.0932709 Z M47.2275754,56.8685332 C46.9503417,56.5926299 46.673108,56.4465635 46.5263372,56.3167267 C46.3958743,56.7224668 46.1186406,56.9983701 45.8414069,57.4203398 C46.2654114,57.2742733 46.673108,57.1444365 47.2275754,56.8685332 Z M46.1186406,59.7736324 C46.2654114,60.0495356 46.5426451,60.1956021 46.673108,60.3254389 L46.673108,60.0495356 C46.8198788,60.0495356 46.9503417,60.1956021 47.0971125,60.1956021 C47.5048091,59.2218258 46.9503417,58.6700193 45.8414069,58.9459226 C45.9881777,59.2218258 45.9881777,59.4977291 46.1186406,59.7736324 Z M49.4617528,58.5239528 C49.1845191,58.7998561 49.314982,59.3516627 49.0377483,59.7736324 C49.7389865,59.3516627 50.8479213,59.0757594 50.8479213,57.696243 C50.2934539,57.9721463 49.7389865,58.1182127 49.4617528,58.5239528 Z M46.3958743,52.9896578 C46.2491035,53.8173676 45.6946361,54.3691742 45.4174024,55.0670471 L45.4174024,55.2131136 C45.8414069,54.9372103 46.1186406,54.3854038 46.5263372,54.2393373 C47.2275754,53.801138 47.3743462,53.2493315 47.3743462,52.5676881 C46.9503417,52.4216217 46.3958743,52.5676881 46.3958743,52.9896578 Z M51.6959302,54.2231077 C51.6959302,53.6713012 51.5491594,53.5252347 50.8642291,53.801138 C50.5869954,53.9472045 50.4402247,53.9472045 50.162991,53.9472045 C49.6085236,53.9472045 49.3312899,54.2231077 49.3312899,54.7749143 L49.6085236,54.7749143 C49.6085236,55.3267208 49.8857573,55.196884 50.162991,55.196884 L51.6959302,55.196884 L51.6959302,54.2231077 Z M44.5857013,60.6013422 C44.4389306,61.1531487 44.3084676,61.429052 44.3084676,61.7049553 C44.4552384,61.8510217 44.5857013,61.8510217 44.5857013,61.9808586 C44.5857013,62.126925 44.5857013,62.2567618 44.4389306,62.4028283 C44.0149261,62.5488947 44.1616969,62.824798 44.2921598,63.1007012 C44.2921598,63.2467677 44.4389306,63.3766045 44.4389306,63.6525078 C45.1401687,63.522671 45.8414069,63.2467677 46.3958743,62.824798 C45.8414069,62.126925 45.2869395,61.4452816 44.5857013,60.6013422 Z M44.1780047,68.0994193 C43.6235373,68.7972923 43.900771,69.6250021 44.3247755,70.1768087 C44.74878,70.8746817 45.1564766,71.4264882 45.710944,71.8484579 C46.1349485,72.1243612 46.8198788,72.1243612 47.2438832,72.4002645 C47.6678877,72.5463309 47.9451214,72.6761677 48.2223551,72.8222342 C48.4995888,72.9683006 50.4565325,72.6761677 50.5869954,72.4002645 L50.7337662,72.254198 C50.880537,71.7023915 51.0109999,71.2804218 51.0109999,70.7286152 C51.1577707,69.056966 51.1577707,67.5313832 51.2882336,65.8759636 L51.2882336,65.0482537 C51.5654673,64.2205439 51.4350044,63.2467677 51.1414628,62.4190579 C51.1414628,62.2729914 50.8642291,62.1431546 50.7174584,62.1431546 C50.162991,62.289221 49.7389865,62.4190579 49.1845191,62.5651243 C48.6300517,62.8410276 47.9288135,62.987094 47.3743462,63.2629973 C47.2275754,63.2629973 47.0971125,63.4090637 46.9503417,63.5389006 C46.673108,63.684967 46.3958743,63.9608703 45.9718698,64.0907071 C45.825099,64.2367735 45.5478653,64.2367735 45.4174024,64.3666104 L45.4174024,64.5126768 C45.8414069,64.5126768 46.1186406,64.5126768 46.5263372,64.3666104 L46.5263372,64.5126768 L46.1023327,64.5126768 C47.0808046,64.5126768 48.0592765,64.7885801 48.7442068,65.4864531 C49.1682112,65.7623563 49.4454449,66.0382596 49.4454449,66.5900662 C49.4454449,66.8659694 49.4454449,67.1418727 49.5922157,67.2879391 C49.7389865,67.8397457 49.314982,68.5376187 48.6137438,68.5376187 C47.9125057,68.6836851 47.635272,68.1156489 47.2275754,67.7099088 C46.8198788,67.3041687 46.5263372,66.7361326 45.8414069,66.6062958 C45.5641732,66.6062958 45.2869395,66.184326 45.0097058,65.9084228 C44.862935,66.0544892 44.5857013,66.184326 44.3084676,66.4602293 C44.0312339,66.6062958 43.7540003,66.882199 43.4767666,67.1581023 C43.3299958,67.4340056 43.3299958,67.8559753 43.1995329,68.1318786 L43.3463036,68.1318786 C44.0312339,68.3753226 44.0312339,68.2292562 44.0312339,68.0994193 L44.1780047,68.0994193 Z M40.8185847,67.1256431 C40.8185847,67.1256431 40.8185847,66.9795767 40.6718139,66.9795767 C40.8185847,66.8335102 41.0958183,66.7036734 41.373052,66.5576069 C39.0084117,67.2554799 38.8616409,67.1094135 37.6059354,65.3079274 C38.4376364,64.6100544 39.4161083,63.9284111 40.3945802,63.3603749 L40.541351,63.3603749 C40.2641173,63.7823446 39.9868836,64.0582479 39.7096499,64.463988 L39.7096499,64.6100544 C40.6881217,64.1880847 41.6665936,63.7823446 42.4982947,63.3603749 C42.221061,62.6625019 42.0742902,62.1106954 41.7970565,61.5588888 C41.5198228,60.8610159 41.2425891,60.1793725 40.9653554,59.6113363 L40.9653554,59.3354331 C41.6665936,59.0595298 41.5198228,58.5077232 41.6665936,57.9559167 C41.9438273,57.2580437 42.0905981,56.4303339 42.3678318,55.7324609 C42.7918362,54.7586847 42.7918362,54.3529446 42.6450655,53.2331019 C42.4982947,53.2331019 42.3678318,53.2331019 41.9438273,53.3791683 C42.4982947,52.9571986 42.9222992,52.6812953 43.3299958,52.2755552 C43.4767666,52.1294888 43.7540003,51.9996519 43.7540003,51.7237487 C44.1780047,50.4740692 44.5857013,49.2243896 44.862935,47.9747101 C44.862935,47.6988068 45.0097058,47.5527404 45.1401687,47.2768371 C44.862935,48.6563535 44.1616969,50.0520994 44.3084676,51.7075191 L44.4552384,51.7075191 C45.2869395,51.1557125 46.1349485,50.7337428 47.0971125,50.1819363 C47.2438832,50.0358698 47.5211169,49.7599666 47.5211169,49.6301297 C47.6678877,48.6563535 47.6678877,47.6825772 47.7983506,46.8548674 C47.7983506,46.0271576 47.3743462,45.7512543 46.6894158,45.8810912 C46.4121822,45.8810912 46.2654114,46.0271576 45.9881777,46.0271576 C46.2654114,45.1994478 47.3743462,44.9235445 48.0755843,45.3292846 C48.6300517,45.7512543 49.3312899,46.3030609 49.8857573,46.708801 C50.162991,46.9847042 50.4402247,47.2606075 50.5869954,47.5365108 C50.8642291,47.8124141 50.8642291,48.0883173 50.4402247,48.3642206 C50.2934539,48.510287 50.2934539,48.7861903 50.2934539,49.0620936 C50.2934539,49.20816 50.7174584,49.3379969 50.7174584,49.3379969 C51.5491594,48.7861903 52.3971684,48.7861903 53.2288695,49.4840633 C53.3756403,49.6301297 53.5061032,49.6301297 53.7833369,49.7599666 L53.7833369,48.7861903 C53.9301077,48.510287 54.0605706,48.2343838 54.3378043,48.0883173 C54.484575,47.9422509 54.8922717,48.2343838 55.0390424,48.3642206 C56.294748,49.4678337 57.1264491,50.7175132 56.9959862,52.3891625 C56.9959862,52.940969 56.7187525,53.4927755 56.5719817,54.0608117 C56.0175143,54.0608117 55.4630469,54.0608117 55.3162761,53.3629387 C55.3162761,53.2168723 55.0390424,53.0870354 54.7618087,52.940969 C54.615038,52.7949026 54.2073413,52.5189993 54.2073413,52.243096 C54.6313458,51.4153862 54.2073413,51.4153862 53.7833369,51.4153862 C53.2288695,51.4153862 52.5276313,51.2693198 51.9731639,51.2693198 L51.2719257,51.2693198 C51.125155,52.0970296 51.125155,51.9671927 51.8263931,52.3729328 C52.9353279,53.0708058 54.0605706,53.7524492 54.7455009,54.8722919 C55.1695053,55.5701649 54.7455009,56.1219714 54.5987301,56.673778 C54.3214964,57.5014878 54.0442627,58.1993608 53.767029,59.0270706 C53.9137998,59.0270706 53.9137998,59.173137 53.767029,59.3029739 L53.767029,60.2767501 C54.5987301,60.1306837 55.446739,60.1306837 56.2784401,60.0008468 C57.256912,59.8547804 58.0886131,60.2767501 58.9203142,60.5526534 C59.0670849,60.6987198 59.1975479,60.9746231 59.3443186,61.2505264 C59.3443186,61.2505264 59.0670849,61.5264296 58.9203142,61.5264296 C58.219076,61.5264296 57.3873749,61.6724961 56.6861367,61.6724961 L55.4304312,61.6724961 C54.8759638,61.6724961 54.4519593,61.6724961 53.8974919,61.8185625 C54.0442627,62.2405322 54.1747256,62.6462723 54.1747256,63.068242 C53.4734874,63.3441453 53.1962538,63.766115 53.1962538,64.4477584 C53.1962538,65.8272748 53.049483,67.2230207 53.049483,68.7486035 C53.049483,68.89467 53.1962538,69.0245068 53.3267167,69.1705732 C53.4734874,69.4464765 53.6039504,69.5925429 53.4734874,69.8684462 C53.4734874,70.2904159 53.1962538,70.8422225 53.1962538,71.2479626 C53.1962538,71.7997691 53.3430245,72.4976421 53.1962538,73.0494486 C53.1962538,73.1955151 52.9190201,73.3253519 52.7722493,73.6012552 C52.7722493,73.6012552 52.7722493,73.7473216 52.9190201,73.8771585 C51.1088471,74.0232249 49.4291371,74.0232249 47.7657349,73.6012552 C47.3417304,73.4551887 46.9340338,73.3253519 46.5100293,73.0494486 C45.8087912,72.6274789 44.9770901,72.0756724 44.2758519,71.6699323 C43.5746137,71.2479626 43.29738,70.4202527 42.8896834,69.5925429 C42.7429127,69.1705732 42.335216,68.7648331 42.1884453,68.3428634 C42.0416745,68.0669601 42.0416745,67.6449904 42.0416745,67.3690872 C41.9275194,67.2554799 41.7970565,66.8497398 41.6502857,66.5738365 C41.7970565,66.5738365 41.9275194,66.719903 41.9275194,66.719903 C42.2047531,66.2979333 42.3515239,66.02203 42.6287576,65.7461267 C42.4982947,65.6000603 41.7970565,66.1518668 41.6502857,66.5738365 C41.373052,66.719903 41.0958183,66.9958063 40.8185847,67.1256431 Z M19.9119025,32.0372387 C20.7436035,31.7613355 20.8903743,31.615269 20.8903743,30.7875592 C19.7814395,31.0634625 19.5042059,31.4854322 19.9119025,32.0372387 Z M26.467664,36.8898904 C26.7448977,36.4679207 26.467664,35.7862773 26.0436595,35.6402109 C25.7664258,35.4941444 25.3424213,35.3643076 24.9347247,35.2182412 C24.7879539,35.6402109 25.3424213,37.1657937 25.9131966,37.7176002 C26.0599673,37.441697 26.337201,37.1657937 26.467664,36.8898904 Z M18.3789632,34.3905314 C17.8244958,33.9685617 17.4004913,34.1146281 17.1232576,34.5365978 C16.846024,34.8125011 16.6992532,34.9585675 16.1447858,34.8125011 C15.998015,34.8125011 15.7207813,34.9585675 15.4435476,35.0884043 C15.5903184,35.2344708 15.5903184,35.5103741 15.8675521,35.6402109 C16.1447858,35.7700477 16.4220195,35.9161142 16.6992532,36.0621806 C16.846024,36.0621806 17.1232576,36.208247 17.1232576,36.0621806 C17.677725,35.6402109 18.1017295,35.3643076 18.6561969,34.9585675 C18.9334306,34.9423379 19.0802014,34.8125011 19.2106643,34.6664346 C18.9334306,34.5203682 18.6561969,34.5203682 18.3789632,34.3905314 Z M33.7083558,33.5465919 C33.0071176,33.9685617 32.4526502,34.3743018 31.751412,34.7962715 C31.4741783,34.9423379 31.3274076,35.2182412 31.6046413,35.4941444 C31.8818749,35.7700477 32.1591086,36.3218543 32.5831131,35.9161142 L34.6705198,33.8387248 C34.9477535,33.5628215 34.8172905,33.5628215 34.3932861,33.4167551 C34.5400569,33.4167551 34.4095939,33.5628215 34.4095939,33.6926584 C34.1323602,33.6926584 33.8551265,33.4167551 33.7083558,33.5465919 Z M19.3574351,40.3630257 C19.5042059,40.7849954 19.6346688,41.336802 19.7814395,41.7425421 C19.9282103,42.4404151 20.3359069,42.7163183 20.8903743,42.4404151 C21.9993091,41.8886085 22.977781,41.336802 23.9562528,40.3630257 C22.2765428,40.4928626 20.8903743,39.7949896 19.3574351,39.3892495 L19.3574351,40.3630257 Z M21.9993091,34.6664346 C21.167608,35.0884043 20.3195991,35.6402109 19.9119025,36.6139871 C19.6346688,37.3118601 19.9119025,37.8636667 20.6131406,37.9935035 C21.8688462,38.1395699 23.6790191,37.0197272 23.5322484,35.6402109 C23.6790191,34.8125011 22.8310102,34.1146281 21.9993091,34.6664346 Z M18.525734,42.8461552 C17.6940329,41.7425421 16.4383273,40.8986027 16.715561,39.243183 L16.715561,38.9672798 C16.2915566,38.2694068 16.2915566,37.7176002 16.4383273,36.8898904 C16.4383273,36.743824 16.2915566,36.4679207 16.1610936,36.3380839 C16.1610936,36.3380839 15.7370892,36.4841503 15.6066263,36.6139871 C15.4761633,36.743824 15.3293926,37.0359569 15.1826218,37.1657937 C14.4813836,38.1395699 14.4813836,39.3892495 14.3509207,40.4928626 C14.2041499,41.1907355 14.073687,41.7425421 14.4976915,42.4404151 C14.7749252,42.8623848 15.0521589,43.4141913 15.4761633,43.8199314 C15.4761633,43.9659979 15.6229341,44.0958347 15.753397,43.9659979 C16.3078644,43.8199314 16.8623318,43.8199314 17.4331071,43.6900946 C17.7103408,43.6900946 17.9875745,43.4141913 18.1343452,43.4141913 C18.2485003,43.4141913 18.6561969,43.2681249 19.0802014,43.1220584 C18.8029677,42.975992 18.525734,42.975992 18.525734,42.8461552 Z M14.6281544,30.0896862 C14.3509207,29.5378797 14.2041499,28.9860732 14.073687,28.2882002 C13.9269162,28.0122969 13.9269162,27.7363936 13.9269162,27.3144239 C13.7801454,26.7626174 14.073687,26.3406477 14.6281544,26.2108108 C15.1826218,25.9349076 15.7370892,25.6590043 16.3078644,25.383101 C17.4167992,24.685228 18.6725048,24.0035847 19.9282103,23.4355485 C20.9066822,23.0135788 21.8851541,22.883742 22.9940888,22.7376755 C23.4180933,22.5916091 23.9725607,22.5916091 24.3802573,22.4617723 C25.7664258,22.0398025 26.337201,22.883742 27.0221314,23.8412886 C27.1689021,24.1171919 27.299365,24.5391616 27.4461358,24.9449017 C26.7448977,24.9449017 26.1904303,25.0909681 25.6359629,25.0909681 C24.8042618,25.2370346 23.9562528,25.3668714 23.2713225,25.5129378 C22.1623878,25.5129378 21.3143788,26.2108108 20.4826777,26.8924542 C19.7814395,27.4442608 18.9497385,27.9960673 18.2485003,28.6939403 C18.525734,28.5478738 18.8029677,28.5478738 18.9497385,28.418037 C19.0965092,28.2719706 19.3737429,28.2719706 19.5042059,28.1421337 C20.4826777,27.720164 21.4611496,27.3144239 22.5700844,26.8924542 C22.8473181,26.7463878 23.2713225,26.7463878 23.5485562,26.8924542 C24.2497944,27.1683575 24.9347247,27.5903272 25.6359629,27.9960673 C25.9131966,28.1421337 26.0599673,28.418037 26.1904303,28.5478738 C25.6359629,29.3755837 25.0814955,30.0734566 24.3802573,30.9011665 C25.3587292,31.3231362 25.3587292,32.150846 25.4891921,32.9785558 C25.9131966,32.9785558 26.5981269,32.2806828 26.7448977,31.7288763 C27.0221314,30.9011665 27.299365,29.9273902 27.7233695,29.0996804 C28.0006032,28.5478738 28.4246077,27.8500009 28.7018414,27.2981943 C29.4030796,26.1945812 29.8107762,24.9449017 30.3815514,23.6952222 C30.8055559,22.5916091 30.8055559,21.4717664 30.6587851,20.2220869 C31.4904862,20.0760204 32.0449536,20.4979901 32.4689581,21.3257 C32.7461918,21.8775065 33.0234255,22.5753795 33.3006592,23.127186 C33.5778928,23.5491557 33.7246636,23.9548958 33.3006592,24.3768656 C32.8766547,24.6527688 32.7461918,25.2045754 32.7461918,25.7563819 C32.7461918,26.3081885 32.3221873,26.7301582 32.0449536,27.2819647 C31.7677199,27.8337713 31.4904862,28.3855778 31.2132525,28.9536139 C31.0664817,29.2295172 30.6587851,29.5054205 30.5120143,29.9273902 C30.3652436,30.2032935 30.2347806,30.6252632 30.0880099,30.9011665 C29.8107762,31.452973 29.3867717,32.0047795 29.109538,32.7026525 L29.2563088,32.848719 C29.9575469,32.4267492 30.6424773,32.0210091 31.3437154,31.5990394 C32.4526502,30.9011665 33.7083558,30.3493599 34.9640613,29.7975534 C36.4970006,29.2457468 38.1767106,30.0734566 38.5844072,31.5990394 C38.8616409,32.4267492 39.2856454,32.848719 39.8401128,33.2706887 L40.2641173,33.6926584 C40.6881217,34.2444649 40.541351,34.5203682 39.9868836,34.6664346 C39.5628791,34.8125011 39.1551825,34.6664346 38.8779488,34.6664346 C38.3234814,34.6664346 37.8994769,35.0884043 37.3450095,35.2182412 C37.1982388,35.2182412 37.1982388,35.3643076 37.1982388,35.4941444 C36.2197669,36.045951 35.241295,36.5977575 34.279131,37.0197272 C34.7031355,37.7176002 34.7031355,37.9935035 33.7246636,38.3992436 C33.3006592,38.6751469 33.0234255,39.3730199 33.4474299,39.77876 C33.8714344,40.1845001 34.1486681,40.6064698 34.7031355,41.0284395 C34.9803692,41.3043428 35.5348366,41.3043428 35.9588411,41.4504092 C37.0677758,41.7263125 38.0462477,41.8723789 39.1714903,42.1482822 C39.8727285,42.2943486 40.4271959,42.5702519 41.1284341,42.8461552 C41.2752049,42.8461552 41.2752049,42.9922216 41.2752049,43.1220584 C41.8296722,44.371738 42.3841396,45.6214175 42.9549149,46.871097 C43.1016857,47.4229036 43.2321486,47.9747101 43.3789194,48.5427462 C42.1232138,48.6888127 41.1447419,48.1207765 40.3130409,47.56897 C39.2041061,46.871097 38.2256342,46.0433872 37.2471623,45.3455142 C36.9699286,45.1994478 36.692695,45.0696109 36.2686905,44.9235445 C35.2902186,44.5015748 34.4585175,43.673865 33.7572794,42.8461552 C33.3332749,42.2943486 33.0560412,41.5964756 32.7788075,41.0446691 C32.6320367,40.8986027 32.6320367,40.7687658 32.5015738,40.3467961 C32.0775693,40.8986027 31.8003356,41.4504092 31.5231019,41.8723789 C31.2458682,42.4241855 30.9686345,42.975992 30.6914008,43.5440281 C30.6914008,43.6900946 30.5446301,43.8199314 30.5446301,43.9659979 C29.9901627,44.7937077 29.2889245,45.6376471 28.7344571,46.4653569 C28.1799897,47.4391332 27.2015179,47.9909397 26.5002797,48.8186495 C25.9458123,49.3704561 25.2445741,49.3704561 24.412873,49.3704561 C23.1571675,49.2243896 22.1786956,48.8186495 21.0697608,48.266843 L20.6457564,47.8448733 C20.7925271,47.56897 20.7925271,47.1470003 21.3469945,47.1470003 C21.4937653,47.1470003 21.770999,47.0009338 22.0482327,46.871097 C22.7494709,46.5951937 23.581172,46.3192905 24.2824101,46.173224 C25.1141112,45.8973208 25.5381157,45.1994478 25.9621202,44.6476412 C26.3861246,44.2256715 26.7938212,43.8199314 27.2178257,43.2681249 C27.9190639,42.1645118 28.6039942,40.9148323 29.3052324,39.7949896 C29.5824661,39.243183 30.0064705,38.54531 30.1369335,37.8474371 C30.2837042,37.2956305 30.8381716,36.743824 30.2837042,36.1757878 C30.1369335,35.8998846 30.2837042,35.4779148 30.2837042,35.2020116 C30.0064705,34.9261083 29.5824661,34.7800419 29.3052324,34.5041386 C28.8812279,34.0821689 28.4735313,34.2282353 28.0495268,34.650205 C27.3482886,35.2020116 27.4950594,36.0297214 27.4950594,36.7275944 L27.4950594,38.3992436 C27.4950594,38.6751469 27.6418302,38.8212133 27.6418302,39.0971166 C27.6418302,39.243183 27.788601,39.243183 27.6418302,39.3730199 C27.4950594,39.9248264 27.2178257,40.3467961 27.0873628,40.8986027 C26.940592,41.4504092 26.8101291,41.8723789 26.6633583,42.4241855 C26.6633583,42.5702519 26.5165876,42.8461552 26.5165876,42.8461552 C25.6848865,43.2681249 24.9836483,43.5440281 24.1519472,43.9497683 C22.8962417,44.6476412 21.6405361,45.3292846 20.3848305,45.8973208 C19.4063587,46.3192905 18.2974239,46.871097 17.318952,47.0009338 C16.3404802,47.1307707 15.3620083,46.5789641 14.677078,45.8973208 C13.8453769,45.1994478 13.4213724,44.5178044 13.1441387,43.5440281 C12.866905,42.8461552 12.4429006,42.1645118 12.3124376,41.4666388 C12.1656669,40.638929 12.0352039,39.7949896 12.1656669,38.9672798 C12.3124376,37.441697 12.7201343,35.9161142 13.2746016,34.5365978 C13.2746016,34.3905314 13.1278309,34.1146281 13.1278309,33.9847913 C12.5733635,33.4329847 12.0188961,32.7351117 12.4265927,32.0372387 C12.7038264,31.4854322 13.6822983,31.2095289 14.3835364,31.7613355 C14.8075409,32.0372387 15.2152375,32.313142 15.639242,32.5890453 C15.7860128,32.5890453 15.9164757,32.7351117 16.0632465,32.5890453 C16.0632465,32.5890453 16.2100172,32.4429789 16.2100172,32.313142 C16.2100172,31.8911723 16.356788,31.4854322 16.356788,31.2095289 C16.1447858,31.0634625 16.0143229,30.7875592 16.0143229,30.6414928 C15.035851,30.9173961 15.035851,30.9173961 14.6281544,30.0896862 Z M25.4891921,13.860082 C25.2119584,13.860082 24.9347247,14.0061484 24.5107202,14.0061484 L24.5107202,14.2820517 L25.4891921,14.2820517 L25.4891921,13.860082 Z M40.8185847,9.42940006 C41.2425891,9.70530333 41.5198228,9.85136977 41.7970565,9.9812066 C42.2047531,9.55923689 42.4982947,9.28333362 42.9059913,8.87759351 C42.2047531,9.02365995 41.5198228,9.29956322 40.8185847,9.42940006 Z M76.0761875,34.2444649 C75.7989538,34.6664346 75.5217201,34.9423379 75.2444865,35.348078 C75.2444865,35.348078 75.3912572,35.6239813 75.5217201,35.6239813 C76.0761875,35.6402109 76.3534212,35.2182412 76.3534212,34.6664346 C76.3534212,34.6664346 76.2066505,34.5203682 76.0761875,34.2444649 Z M48.0592765,20.9361895 C47.3743462,21.487996 47.2275754,22.185869 47.5048091,22.7376755 C48.2060472,21.9099657 48.3365102,21.487996 48.0592765,20.9361895 Z M66.3240846,31.7613355 C66.0468509,31.6314986 65.6228464,31.615269 65.7696172,32.0372387 C65.7696172,32.5890453 65.916388,33.1408518 66.1936217,33.5628215 C66.4708554,34.1146281 66.8948599,33.9847913 67.1720936,33.4167551 C66.4545475,33.1408518 66.4545475,33.011015 67.0253228,32.313142 C66.7480891,32.0372387 66.6013183,31.8911723 66.3240846,31.7613355 Z M51.8263931,12.7564689 C52.2503976,12.9025354 52.6580942,13.1784386 53.0820987,13.3082755 L53.6365661,13.3082755 C53.6365661,13.162209 53.6365661,12.8863058 53.4897953,12.7564689 C53.2125616,12.4805657 52.9353279,12.3344992 52.6580942,12.0585959 C52.3808605,11.9125295 51.9568561,11.7826927 51.6796224,11.5067894 C51.125155,10.9549829 50.7011505,11.2308861 50.2934539,11.7826927 C50.5706876,12.3344992 50.2934539,13.0323722 51.125155,13.3082755 C51.125155,12.6104025 51.4023887,12.6104025 51.8263931,12.7564689 Z M68.8354957,27.8662305 C68.8354957,28.1421337 69.1127294,28.5641034 69.2595002,28.6939403 C70.0912013,29.11591 71.0696732,29.3918133 71.9013742,29.7975534 C72.0318372,28.8400067 71.4773698,28.2882002 68.8354957,26.7626174 C68.8354957,27.1845871 68.688725,27.4604904 68.8354957,27.8662305 Z M58.1049209,13.9899188 C58.3821546,13.9899188 58.8061591,14.1359853 59.0833928,14.2658221 C59.6378602,14.4118886 59.9150939,14.6877918 59.9150939,15.2395984 C59.9150939,16.3432115 60.6163321,16.7651812 61.3012624,17.1871509 C62.0025005,17.7389574 62.9809724,18.1609271 62.6874308,19.2645402 C63.388669,19.1184738 63.6659027,18.4368304 63.2418982,17.7389574 C61.9861927,15.6615681 60.6000242,13.7140156 58.0886131,12.8863058 C57.8276872,13.0323722 57.4036828,12.9025354 56.8492154,12.6104025 C56.9959862,13.4381123 57.4036828,13.860082 58.1049209,13.9899188 Z M61.1707995,21.6340624 C60.8935658,22.0560321 60.8935658,22.4617723 61.3175702,22.883742 C61.8720376,23.4355485 62.2960421,24.1334215 62.8505095,24.5553912 C63.4049769,24.9773609 63.9594443,25.383101 64.5302195,25.9349076 C64.3834487,25.1071977 64.3834487,24.2632583 64.2529858,23.4355485 C64.2529858,23.2894821 64.1062151,23.0135788 63.9757521,22.883742 C63.6985184,22.7376755 63.6985184,22.4617723 63.6985184,22.185869 C63.6985184,21.9099657 63.6985184,21.3581592 63.4212847,21.0822559 C62.4428129,20.2545461 61.3338781,19.4106067 60.2086355,18.8588001 C59.3769344,18.4368304 58.822467,18.0310903 58.6756962,17.057314 C58.6756962,16.5055075 58.3984625,16.5055075 57.974458,16.6353443 C57.6809165,19.2807698 59.3606265,20.3843829 61.4480332,21.0822559 C61.3012624,21.2283223 61.3012624,21.5042256 61.1707995,21.6340624 Z M16.1447858,18.0310903 C17.1232576,18.3069936 17.677725,17.755187 18.3789632,17.3332173 C18.9334306,16.9112476 19.487898,16.6353443 20.0586732,16.3594411 C20.7599114,15.9374714 21.4448417,15.5317312 22.1460799,15.1097615 C22.2928507,15.1097615 22.2928507,14.6877918 22.1460799,14.6877918 C21.5916125,14.2658221 21.0371451,13.860082 20.4663699,13.5841787 C19.2106643,13.0323722 18.1017295,13.4381123 16.9764869,14.4118886 C16.1447858,15.2395984 15.1663139,15.9374714 14.3346128,16.6353443 C14.187842,16.7814108 14.0573791,16.9112476 13.9106084,17.1871509 C14.187842,17.1871509 14.4650757,17.3332173 14.6118465,17.3332173 C14.7586173,17.3332173 15.035851,17.1871509 15.1663139,17.057314 C15.4435476,17.057314 15.7207813,16.9112476 15.998015,16.9112476 C16.0143229,17.1871509 15.8675521,17.6091206 15.8675521,17.8850239 C16.0143229,17.8850239 16.0143229,18.0310903 16.1447858,18.0310903 Z M73.010309,38.2856364 C73.5647764,37.7338298 73.1570798,37.0359569 73.1570798,36.4841503 C73.1570798,36.3380839 73.1570798,36.3380839 73.010309,36.3380839 C72.4558416,36.1920174 72.3090709,35.7862773 72.3090709,35.2344708 C72.3090709,34.8125011 71.0533653,33.8549544 70.6293608,33.8549544 C69.7976597,33.8549544 69.3736553,34.406761 69.650889,35.2344708 C70.0748934,36.0621806 70.0748934,36.4841503 69.9281227,37.3118601 C69.7813519,38.0097331 69.650889,38.5615396 70.48259,38.9835094 C71.4610619,39.4054791 71.5915248,39.5353159 72.292763,38.8374429 C72.5699967,39.6651527 71.7382956,40.0871224 71.4610619,40.7849954 C71.4610619,40.9310619 71.1838282,40.9310619 71.0370574,40.9310619 C70.0585856,40.6551586 69.2268845,40.2331889 68.2484126,39.8274488 C67.9711789,39.6813823 67.8244081,39.5515455 67.5471744,39.4054791 C66.9927071,40.103352 66.2914689,40.6551586 65.7370015,41.3530316 C65.5902307,41.6289348 65.4597678,41.9048381 65.4597678,42.1807414 C65.7370015,42.3268078 66.0142352,42.3268078 66.4382397,42.4566447 C66.4382397,42.7325479 66.161006,43.0084512 65.7370015,43.0084512 C65.312997,43.0084512 64.9053004,42.8623848 64.9053004,42.4566447 C64.7585296,41.7587717 64.9053004,41.2069651 65.3293049,40.7849954 C65.7533094,40.3630257 66.161006,39.8112192 66.5850104,39.4054791 C66.161006,39.1295758 65.6065386,38.7076061 65.3293049,38.1557995 C64.9053004,37.603993 64.7748375,37.0521865 64.6280667,36.3543135 C65.1825341,36.90612 65.7370015,37.4579266 66.4382397,37.7338298 L66.5850104,37.5877634 C66.3077767,37.1657937 66.0305431,36.8898904 65.8837723,36.4841503 L65.7370015,36.3380839 C65.8837723,35.6402109 65.312997,35.6402109 64.9053004,35.3643076 C64.0735993,34.6664346 63.6495948,33.9847913 63.3723612,32.8649486 C63.9268285,33.4167551 64.6280667,33.8387248 65.1825341,34.3905314 L65.3293049,34.2444649 C65.0520712,33.5465919 64.6280667,32.9947854 64.0735993,32.5728157 C63.3723612,32.0210091 62.8178938,31.4692026 62.2634264,30.7713296 C62.1166556,30.4954263 62.1166556,30.2195231 61.9861927,29.7975534 C62.4101972,30.2195231 62.6874308,30.6252632 63.3723612,30.6252632 C63.0951275,30.2032935 62.671123,29.7975534 62.5406601,29.2457468 C62.3938893,28.8237771 62.6874308,28.2719706 62.8178938,27.720164 C62.1166556,27.8662305 62.1166556,27.8662305 62.2634264,29.0996804 C61.4317253,28.5478738 61.2849545,27.720164 61.9861927,26.7463878 C62.4101972,27.022291 62.9646645,27.4442608 63.3723612,27.720164 C63.3723612,27.720164 63.5191319,27.720164 63.5191319,27.5740976 C63.3723612,27.4280311 63.3723612,27.2981943 63.2418982,27.1521279 C62.6874308,26.6003213 62.1329635,25.9024483 61.5621882,25.3506418 C61.0077208,24.7988353 60.1760197,24.6527688 59.3280108,24.9286721 C58.9040063,25.0747385 58.7735434,25.3506418 59.0507771,25.7563819 C58.7735434,25.9024483 58.3495389,26.0322852 58.0723052,26.3081885 C57.7950715,26.4542549 57.5178378,26.4542549 57.371067,26.162122 C56.8165997,25.3344122 56.9470626,24.9124425 57.6483007,24.2145695 C57.7950715,24.0685031 57.9255344,23.7925998 58.0723052,23.5166965 C58.219076,23.5166965 58.4963097,23.662763 58.6267726,23.662763 C58.7572355,23.662763 59.0507771,23.5166965 59.3280108,23.3868597 C58.7735434,22.5591499 58.219076,22.4130834 57.5178378,23.1109564 C57.0938333,23.5329261 56.539366,23.8088294 56.1316693,24.2145695 C55.9848986,23.9386662 55.8544357,23.662763 55.7076649,23.3868597 C55.5608941,23.1109564 55.2836604,22.8350532 55.0064267,22.5591499 C54.8596559,22.2832466 54.729193,22.0073433 54.5824222,21.8612769 C55.1368896,21.3094704 55.1368896,21.3094704 54.1584178,20.7576638 C54.1584178,20.6115974 54.3051885,20.3356941 54.3051885,20.0597908 C53.7507211,20.0597908 53.3267167,19.9137244 52.7722493,20.0597908 C52.2177819,20.2058573 51.9405482,20.2058573 51.5165437,19.9137244 C51.3697729,19.9137244 51.3697729,19.767658 51.23931,19.767658 C50.6848426,20.3194645 49.9836045,20.871271 49.4291371,21.4393072 C49.1519034,21.7152105 49.0051326,22.1371802 48.8746697,22.4130834 C48.7278989,22.6889867 48.597436,22.96489 48.3202023,23.2407933 C48.0429686,23.5166965 47.6189641,23.7925998 47.3417304,24.2145695 C46.9177259,24.6365392 46.2327956,24.7663761 45.6620204,24.4904728 C45.3847867,24.3444063 45.2380159,24.2145695 44.9607822,24.0685031 C44.6835485,24.4904728 44.259544,24.8962129 43.9823104,25.3181826 C43.5583059,25.8699891 43.0038385,25.8699891 42.4493711,25.7401523 C41.8949037,25.6103155 41.7481329,25.1883458 41.61767,24.6365392 C41.61767,24.3606359 41.4708992,24.0847327 41.61767,23.8088294 C41.7644408,23.9548958 41.8949037,24.2307991 42.1721374,24.3606359 C42.4493711,24.5067024 42.7266048,24.6365392 42.8733756,24.6365392 C43.1506093,24.3606359 43.427843,24.0847327 43.7050767,23.662763 C43.427843,23.5166965 43.1506093,23.2407933 42.8733756,23.1109564 L42.7755284,23.1109564 C41.6665936,23.3868597 40.6881217,22.96489 39.5628791,22.8350532 C39.0084117,22.6889867 38.5844072,22.5591499 38.4539443,22.0073433 C38.3234814,21.4555368 38.3071735,20.9037302 38.8779488,20.4817605 C39.0247196,20.3356941 39.3019533,20.2058573 39.4324162,19.929954 C39.2856454,20.4817605 39.1551825,21.0335671 39.2856454,21.3094704 C39.4161083,21.5853736 40.1173465,21.7314401 40.541351,22.0073433 C40.6881217,20.627827 40.9653554,19.6540507 42.0742902,18.9561777 C42.6287576,18.534208 43.3299958,18.534208 44.0312339,18.8101113 C43.7540003,18.9561777 43.6072295,18.9561777 43.3299958,19.0860146 C42.7755284,19.3619178 42.221061,19.6378211 41.7970565,19.9137244 C41.2425891,20.3356941 41.373052,21.1634039 41.9438273,21.5853736 C43.0527621,22.4130834 43.0527621,22.4130834 44.1780047,21.8612769 C44.7324721,21.5853736 45.1564766,21.0335671 45.8577148,21.3094704 L46.1349485,21.0335671 C46.1349485,20.6115974 45.8577148,20.3356941 45.4337103,20.2058573 C45.1564766,20.2058573 45.0097058,20.2058573 44.7324721,20.0597908 C44.5857013,20.0597908 44.4552384,19.9137244 44.3084676,19.7838876 C44.3084676,19.6378211 44.4552384,19.5079843 44.5857013,19.3619178 C44.862935,19.2158514 45.1401687,19.0860146 45.4174024,18.9399481 C45.5641732,18.7938817 45.8414069,18.5179784 45.8414069,18.2420752 C45.9881777,17.5442022 46.3958743,17.2682989 46.8198788,16.8625588 L46.9666495,16.8625588 C48.9235933,15.6128793 50.8642291,16.1646858 52.6744021,17.1384621 C53.3756403,17.5604318 54.0605706,17.9661719 54.7618087,18.5179784 C54.9085795,18.371912 54.9085795,18.0960087 55.1858132,17.8201054 C54.7618087,17.5442022 54.3541121,17.3981357 53.652874,17.1222325 C53.5061032,16.4243595 52.6744021,16.5704259 52.1199347,16.2945226 C51.6959302,16.1484562 51.2882336,16.0186194 51.0109999,15.7427161 C50.4565325,15.3207464 49.9020651,15.3207464 49.3312899,15.4668128 C49.0540562,15.4668128 48.7768225,15.4668128 48.352818,15.6128793 L48.0755843,15.6128793 C47.0971125,16.034849 46.1186406,16.3107523 45.0097058,16.7164924 L44.7324721,16.4405891 C44.3084676,16.1646858 44.1780047,16.1646858 44.0312339,16.7164924 C43.8844632,16.9923956 44.1780047,17.4143653 43.6072295,17.4143653 C43.0364542,17.4143653 42.4982947,17.5604318 42.3515239,16.8625588 C42.2047531,16.5866555 41.9275194,16.4405891 41.7970565,16.1646858 C41.6665936,15.8887825 41.5198228,15.7427161 41.5198228,15.4668128 C41.2425891,14.4930366 41.0958183,14.2171333 39.9868836,14.2171333 C39.0084117,14.2171333 38.1767106,13.94123 37.4754724,13.1135202 C37.1982388,12.6915505 36.9210051,12.5617137 36.3665377,12.6915505 C35.9425332,12.8376169 35.5348366,12.8376169 35.1108321,12.9674538 C35.1108321,13.5192603 34.8335984,13.6653268 34.4095939,13.6653268 L33.0234255,13.6653268 C32.7461918,13.6653268 32.599421,13.8113932 32.3221873,13.94123 C31.8981828,14.2171333 31.4904862,14.3631997 31.0664817,13.94123 L30.6424773,13.94123 C30.4957065,13.94123 30.3652436,14.3631997 30.2184728,14.4930366 C29.6640054,14.639103 28.9627672,14.639103 28.261529,14.7689398 C27.5602909,14.8987767 27.0058235,14.9150063 26.1741224,15.0448431 C26.4513561,14.4930366 26.7285898,14.2171333 27.2830572,14.0710669 C27.8375246,13.9250004 28.5387627,13.7951636 28.9627672,13.5192603 C29.3867717,13.2433571 29.6640054,12.6915505 29.9412391,12.2695808 L29.7944683,12.1235144 C29.3704638,12.3994176 28.9627672,12.6753209 28.6855335,12.9512242 C28.261529,13.3731939 27.7070617,13.5030307 27.1525943,13.6490972 C26.3208932,13.7951636 25.4728842,13.9250004 25.0651876,14.8987767 C25.0651876,15.0448431 24.7879539,15.0448431 24.7879539,15.0448431 C24.6411831,15.0448431 24.5107202,15.0448431 24.3639494,15.1909096 C23.8094821,15.4668128 23.3854776,16.1646858 22.6842394,16.1646858 C21.9830012,16.3107523 21.5753046,16.5866555 21.0045294,16.8625588 C20.5805249,17.1384621 20.0260575,17.4143653 19.4715901,17.6902686 C18.9171227,18.1122383 18.2158846,18.3881416 17.6614172,18.7938817 C17.3841835,18.9399481 17.2374127,19.2158514 17.6614172,19.4917547 C17.808188,19.4917547 17.808188,19.767658 17.808188,19.9137244 C17.3841835,20.6115974 17.2537206,21.4393072 16.2752487,21.4393072 C16.1284779,21.4393072 15.998015,21.8612769 15.8512442,21.9911137 C15.7044734,22.4130834 15.4272397,22.5429203 14.8727724,22.267017 C14.0410713,21.8450473 12.2308983,22.1209506 12.0841275,23.0947268 C11.8068938,24.3444063 10.6979591,24.8962129 9.99672089,25.7239227 C9.7194872,26.1458924 9.57271642,26.2757292 9.57271642,26.4217957 C9.42594564,27.2495055 8.87147825,27.5254088 8.18654794,27.9473785 C8.03977716,28.0934449 7.90931425,28.0934449 7.76254347,28.2232818 C7.61577269,28.3693482 7.48530977,28.6452515 7.48530977,28.7750883 C7.76254347,28.9211547 7.90931425,29.0509916 8.18654794,29.197058 C8.03977716,29.7488646 7.63208055,29.894931 7.20807608,30.0247678 C6.93084238,30.1708343 6.7840716,30.3006711 6.65360869,30.4467375 C5.39790312,32.39429 4.41943126,34.4716794 3.58773017,36.5490687 C2.75602909,38.7725245 2.05479092,40.8499138 1.77755722,43.2032065 C1.35355275,45.4266622 0.945856137,47.6338884 1.22308983,50.0034106 C1.36986061,51.9509631 1.64709431,54.0283525 1.924328,55.9596754 C1.924328,56.3816451 2.07109878,56.6575484 2.07109878,57.0632885 C2.07109878,57.615095 2.34833248,58.1669016 2.62556617,58.5888713 C3.04957065,59.1406778 3.04957065,59.8385508 3.18003356,60.3903573 C3.32680434,60.6662606 3.32680434,60.9421639 3.32680434,61.2180672 C3.60403804,61.9159401 3.75080882,62.7436499 4.02804251,63.4415229 C4.02804251,63.5875894 4.17481329,63.8634926 4.30527621,63.9933295 C4.72928068,64.6912025 5.28374807,65.3728458 5.83821546,66.2167853 C6.11544916,66.4926885 6.26221994,67.0444951 6.53945363,67.1905615 C7.37115472,67.7423681 7.5179255,68.7161443 8.07239289,69.5438541 C8.34962659,69.8197574 8.49639737,70.2417271 8.90409398,70.5176304 C9.88256584,71.2155034 10.7142669,72.0432132 11.4155051,73.0169894 C11.6927388,73.2928927 12.1167433,73.568796 12.393977,73.8446992 C12.9484444,74.266669 13.5029117,74.5425722 14.073687,74.8184755 C14.6281544,75.2404452 15.0521589,76.068155 16.0306307,76.068155 L15.8838599,76.2142215 C15.6066263,76.3602879 15.3293926,76.3602879 15.0521589,76.4901247 C15.3293926,76.6361912 15.4761633,76.9120944 15.6066263,76.9120944 C16.715561,77.463901 17.8408037,78.0157075 18.8192755,78.5837437 C19.3737429,78.8596469 19.7977474,79.0057134 20.3522148,79.2816167 C21.8851541,80.1093265 23.695327,80.661133 25.2282663,81.5050724 C26.7612055,82.2029454 28.4409156,81.7809757 29.9738548,82.754752 L30.2510885,82.754752 C31.3600233,82.3327823 32.3384952,82.9008184 33.316967,82.9008184 C34.5726726,83.0468848 35.8283781,82.9008184 37.0840837,83.0468848 C38.7637937,83.1929513 40.296733,82.6249151 41.9601352,82.3490119 C44.6020092,81.9270421 47.1134203,81.0993323 49.4780607,80.1255561 C51.4350044,79.2978463 53.3756403,78.1780036 55.332584,77.2204569 C56.3110559,76.7984872 57.4199906,76.5225839 58.5452333,76.1168438 C58.6920041,76.1168438 58.822467,76.2629103 59.0997007,76.2629103 C58.5452333,76.8147168 57.9907659,77.3665234 57.4199906,77.7884931 C56.7187525,78.3402996 56.0338222,78.7622693 55.332584,79.1680094 C55.0553503,79.3140759 54.9085795,79.5899791 54.6313458,79.8658824 C54.3541121,80.0119488 54.2073413,80.2878521 53.9301077,80.417689 C51.6959302,81.2453988 49.6085236,82.219175 47.3743462,82.917048 C46.673108,83.1929513 45.8414069,83.1929513 45.1401687,83.3390177 C44.7161643,83.4850842 44.3084676,83.4850842 43.7540003,83.614921 C43.6072295,83.614921 43.3299958,83.7609874 43.1995329,83.8908243 L43.1995329,84.0368907 C43.4767666,84.1829571 43.7540003,84.312794 44.0312339,84.4588604 L44.0312339,84.6049268 C43.7540003,84.6049268 43.4767666,84.7509933 43.1995329,84.7509933 L37.769014,84.7509933 C37.3450095,84.7509933 36.7905421,84.7509933 36.5133084,85.172963 C36.3665377,85.3190294 35.9588411,85.3190294 35.8120703,85.172963 C35.1108321,84.7509933 34.4259018,84.6211564 33.7246636,85.172963 C33.1701962,85.5949327 32.6157288,85.4488663 32.0449536,85.0268966 C31.4904862,84.7509933 31.0664817,84.6049268 30.5120143,84.8808301 C30.0880099,85.0268966 29.9575469,84.8808301 29.6803133,84.6049268 C29.2563088,84.3290236 28.7018414,84.0531203 28.2941448,83.9070539 C28.0169111,83.7609874 27.5929066,83.7609874 27.3156729,83.6311506 C27.1689021,83.6311506 26.8916684,83.777217 26.7612055,83.777217 C26.9079763,83.9232835 26.9079763,84.1991867 27.0384392,84.3290236 C28.0169111,85.1567334 28.9953829,85.7085399 30.2510885,85.7085399 C30.3978593,85.7085399 30.5283222,85.8546064 30.8055559,85.8546064 C29.827084,86.1305096 28.9953829,86.0000027 28.1636819,85.5787031 C27.6092145,85.3027998 27.18521,85.0268966 26.6307426,84.7509933 C26.2067381,84.6049268 26.0762752,84.3290236 26.0762752,83.9232835 C26.0762752,83.3714769 25.9295044,83.2254105 25.375037,83.5013138 C25.375037,83.5013138 25.375037,83.6473802 25.2282663,83.5013138 C24.3965652,83.3552473 23.5485562,83.777217 22.5863922,83.3552473 C22.1623878,83.079344 21.7546911,83.079344 21.2002238,82.9332776 C21.053453,82.9332776 20.7762193,82.9332776 20.6457564,82.7872112 C19.8140553,82.5113079 18.8355834,82.0893382 18.0038823,81.8134349 C17.7266486,81.6673685 17.4494149,81.5375316 17.3026442,81.3914652 C15.6229341,79.8658824 13.9595319,78.3402996 12.2798219,76.8147168 C11.4481208,75.987007 10.469649,75.1430676 9.63794787,74.1855209 C8.9367097,73.3578111 8.52901309,72.5138717 7.95823784,71.6861619 C5.72406041,68.6349963 4.19112116,65.161861 2.9354156,61.7049553 C1.95694373,59.0757594 1.25570556,56.4303339 0.424004475,53.6550716 C0,51.9834223 0.14677078,50.3280027 0.14677078,48.6563535 C0.14677078,48.1045469 0,47.5527404 0,46.9847042 L0,46.5627345 C0.277233695,45.0371517 0.70123817,43.6576354 0.831701086,42.1320526 C1.10893478,38.9672798 2.49510326,36.1920174 3.47357512,33.2869183 C3.75080882,32.4592085 3.8975796,31.615269 4.17481329,30.7875592 C4.59881777,29.813783 5.00651438,28.9860732 5.43051885,28.1583633 C5.57728963,28.0122969 5.70775255,27.7363936 5.98498624,27.7363936 C6.96345811,27.8824601 7.66469628,26.9086838 8.21916367,26.0647444 C8.21916367,25.918678 8.36593445,25.918678 8.36593445,25.7888411 C8.08870075,25.2370346 8.51270523,24.9611313 8.78993892,24.685228 L11.8558174,21.6340624 C12.1330511,21.3581592 12.2798219,20.8063526 12.4102848,20.3843829 C12.4102848,20.2383165 12.263514,20.1084796 12.1330511,20.1084796 C11.7090467,20.1084796 11.30135,20.2545461 11.0241164,20.3843829 C9.63794787,21.487996 8.65947601,22.7376755 7.81146706,24.2632583 C7.38746258,25.0909681 6.83299519,25.9349076 6.42529858,26.7626174 C6.42529858,26.9086838 6.2785278,26.9086838 6.2785278,27.0385206 C6.00129411,27.3144239 5.72406041,27.4604904 5.44682672,27.7363936 C5.5935975,27.4604904 5.5935975,27.0385206 5.72406041,26.7626174 C6.00129411,26.2108108 6.2785278,25.6590043 6.5557615,25.0909681 C7.38746258,23.1434156 8.78993892,21.7638993 10.0456445,20.09225 C10.3228782,19.6702803 10.6001119,19.3943771 10.3228782,18.8425705 C10.3228782,18.6965041 10.469649,18.4206008 10.6001119,18.290764 C13.111523,16.2133746 15.6229341,14.1359853 18.1180374,12.0423663 C19.3737429,10.9387533 20.9066822,10.66285 22.4396214,10.3707171 C22.7168551,10.2246507 22.9940888,10.5167835 23.2713225,10.5167835 C23.2713225,10.5167835 23.4180933,10.5167835 23.4180933,10.66285 C23.8420978,10.9387533 24.3965652,10.9387533 24.5270281,10.5167835 C24.6737989,10.2408803 24.3802573,9.81891056 24.2497944,9.54300729 C24.1193315,9.26710401 23.8257899,9.26710401 23.5485562,8.99120074 C24.657491,8.8451343 25.7827337,8.8451343 26.6144347,9.68907372 C26.8916684,8.99120074 27.1689021,8.16349093 27.3156729,7.46561795 C27.3156729,7.31955151 27.0384392,7.04364824 26.8916684,7.04364824 L23.5485562,7.04364824 C24.657491,6.49184169 25.9131966,6.49184169 27.0384392,6.49184169 C27.8701403,6.49184169 28.2941448,6.9138114 28.7181493,7.59545478 C29.1421537,8.14726132 29.1421537,8.14726132 29.9738548,7.44938834 C30.2510885,7.59545478 30.3978593,7.72529161 30.675093,7.87135805 C30.9523267,8.01742449 31.0990975,8.29332776 31.3763312,8.29332776 C31.8003356,8.29332776 32.2080322,8.14726132 32.6320367,7.87135805 C32.7788075,7.87135805 32.7788075,7.44938834 32.7788075,7.31955151 C32.6320367,7.04364824 32.5015738,6.76774496 32.354803,6.49184169 C33.0560412,6.49184169 33.6105086,6.63790813 34.0345131,7.31955151 C34.1812838,7.46561795 34.3117467,7.59545478 34.4585175,7.59545478 C34.882522,7.59545478 35.4369894,7.44938834 35.9914568,7.31955151 C35.7142231,6.8975818 35.5674523,6.49184169 35.4369894,6.06987198 C36.2686905,6.06987198 36.9699286,6.34577525 37.3939331,7.04364824 C37.6711668,7.46561795 37.9484005,7.74152122 38.5028679,7.74152122 C38.7801016,7.74152122 39.0573353,7.88758766 39.334569,8.01742449 C39.6118027,7.31955151 40.0358072,6.63790813 39.6118027,5.66413188 L38.7801016,6.49184169 L38.6333308,6.34577525 C38.9105645,5.79396871 39.1877982,5.24216217 39.4650319,4.67412602 C39.6118027,4.39822275 40.0194993,4.39822275 40.0194993,4.67412602 C40.1662701,5.22593256 40.296733,5.64790227 40.296733,6.05364238 C40.296733,6.60544892 40.0194993,7.15725546 39.8727285,7.72529161 C39.8727285,8.00119488 40.0194993,8.14726132 40.0194993,8.42316459 C40.296733,8.27709816 40.4435038,8.27709816 40.7207375,8.14726132 C40.9979712,7.87135805 41.1447419,7.31955151 41.8296722,7.44938834 C42.1069059,7.44938834 42.3841396,6.34577525 42.1069059,5.92380554 C41.9601352,5.64790227 41.8296722,5.50183583 41.6829015,5.22593256 C42.6613733,5.64790227 43.4930744,6.05364238 44.0475418,6.8975818 C44.3247755,7.31955151 44.74878,7.59545478 45.1564766,7.44938834 C45.5641732,7.3033219 45.8577148,6.47561209 45.5804811,6.06987198 C45.5804811,5.92380554 45.4337103,5.79396871 45.3032474,5.64790227 C46.4121822,5.92380554 46.8361866,6.34577525 47.1134203,7.59545478 C47.5374248,7.74152122 47.9451214,8.01742449 48.4995888,8.14726132 C48.6463596,7.59545478 48.0755843,7.31955151 47.7983506,6.8975818 C47.3743462,6.34577525 47.3743462,6.19970882 47.9451214,5.79396871 C48.0918922,6.06987198 48.2223551,6.49184169 48.3691259,6.76774496 C48.5158967,7.04364824 48.9235933,7.18971467 49.200827,6.9138114 C49.4780607,6.63790813 49.3475977,6.21593842 49.0540562,6.08610159 C48.7768225,5.94003515 48.4995888,5.66413188 48.352818,5.53429504 C48.2060472,5.25839177 47.9288135,4.83642206 47.7983506,4.56051879 C47.3743462,4.00871224 46.8198788,3.58674253 46.2654114,3.03493599 C45.9881777,2.88886955 45.8414069,2.61296628 45.710944,2.48312945 L45.8577148,2.20722618 C46.5589529,2.75903272 47.390654,3.31083926 48.0918922,3.87887541 C48.5158967,4.30084512 48.7931304,4.43068195 49.3475977,4.02494185 C49.200827,3.32706887 48.9235933,2.92132876 48.0918922,3.19723203 L48.0918922,2.09361895 C48.0918922,1.5418124 48.3691259,1.39574596 48.7931304,1.67164924 C49.0703641,1.81771567 49.2171348,1.94755251 49.4943685,2.22345578 C50.0488359,2.77526232 50.1956067,2.64542549 50.4728404,2.07738934 C50.4728404,1.9313229 50.6196112,1.80148607 50.7500741,1.65541963 C51.3045415,2.20722618 51.8590089,2.62919589 52.1362426,3.4569057 C52.2830133,4.00871224 52.8374807,4.56051879 53.2451773,4.9824885 L53.522411,4.9824885 C53.3756403,4.56051879 53.2451773,4.28461552 53.0984066,3.87887541 C53.9301077,4.57674839 54.484575,5.55052465 54.6313458,6.65413773 C54.6313458,7.75775082 54.9085795,8.73152708 55.4630469,9.70530333 C56.0175143,9.28333362 56.0175143,8.87759351 55.7402806,7.90381726 C56.7187525,8.4556238 57.5504536,9.15349679 57.5504536,10.4031763 C58.6593883,11.1010493 59.5073973,10.5492427 59.784631,9.15349679 C60.3390984,9.9812066 60.3390984,10.4031763 59.9314018,11.6528558 C60.0781725,11.9287591 60.3554062,12.2046624 60.4858691,12.4805657 C60.7631028,12.9025354 61.0403365,12.9025354 61.3175702,12.6266321 C61.8720376,12.3507288 62.0188084,11.7989223 62.0188084,10.9549829 C62.7200466,12.0585959 63.274514,13.0323722 62.7200466,14.2820517 C62.5732758,14.557955 62.8668174,14.8338583 62.8668174,15.1097615 C63.5680555,14.9636951 63.6985184,14.4118886 63.8452892,13.860082 C64.5465274,14.6877918 64.5465274,15.6615681 63.8452892,16.3594411 C63.6985184,16.2133746 63.4212847,16.2133746 63.2908218,16.0835378 L63.1440511,16.0835378 C63.5680555,16.7814108 64.1225229,17.6091206 64.5302195,18.3069936 C64.8074532,17.3332173 65.2314577,16.3594411 65.2314577,15.4018944 C65.3782285,14.0223781 65.2314577,12.6266321 65.2314577,11.2471157 C65.2314577,11.1010493 65.0846869,10.825146 65.0846869,10.6953092 C65.0846869,9.99743621 64.9379161,9.31579283 64.1062151,9.02365995 C64.8074532,8.0498837 65.2151498,6.94627061 65.2151498,5.69659108 C65.6391543,7.22217388 65.916388,8.74775668 66.3240846,10.2733395 C66.878552,10.2733395 67.1557857,9.5754665 67.7102531,10.127273 C66.4545475,11.2308861 66.4545475,11.2308861 67.1557857,12.4805657 C67.4330194,13.1784386 67.7102531,13.860082 68.1342576,14.557955 C68.8354957,15.6615681 68.9659586,16.9112476 68.558262,18.1609271 C68.558262,18.4368304 68.558262,18.7127337 68.7050328,18.9886369 C68.8518036,19.6865099 69.1290373,20.2383165 68.8518036,20.9361895 C68.8518036,21.0822559 68.8518036,21.2120927 68.9985744,21.3581592 C69.5530418,21.7801289 69.9770462,22.185869 70.6782844,22.6078387 L70.6782844,22.0560321 C70.5315136,21.0822559 70.4010507,20.2545461 70.2542799,19.2807698 L70.2542799,19.1347034 C70.9555181,18.4368304 70.6782844,17.6091206 70.6782844,16.9112476 C70.6782844,16.7651812 70.6782844,16.7651812 70.8250552,16.4892779 C70.971826,16.9112476 71.1022889,17.0410844 71.2490597,17.3169877 C71.3958304,17.4630542 71.5262934,17.4630542 71.6730641,17.592891 C71.8198349,17.4468245 71.9502978,17.3169877 71.9502978,17.1709213 L71.9502978,13.5679491 C71.9502978,13.1459794 71.9502978,13.0161426 72.3743023,12.8700762 C73.2060034,12.7240097 73.6300079,12.0423663 73.9072416,11.3444934 C74.0540124,11.0685901 74.331246,10.7926868 74.461709,10.5167835 L74.6084797,10.66285 C74.461709,10.9387533 74.461709,11.360723 74.331246,11.6366262 C73.7767787,12.7402393 73.6300079,13.860082 73.9072416,15.1097615 C74.331246,16.3594411 74.0540124,17.4630542 73.4832371,18.5828968 C72.9287697,19.5566731 72.7819989,20.6602862 72.9287697,21.7801289 C72.9287697,22.4780019 72.9287697,23.0298084 72.3743023,23.4517781 C71.9502978,23.7276814 71.9502978,25.1234273 72.2275315,25.6752339 C72.5047652,26.2270404 72.651536,26.9249134 72.9287697,27.47672 C72.9287697,27.6227864 73.0755405,27.8986897 73.2060034,28.0285265 C74.0377045,28.8562363 74.0377045,29.976079 74.0377045,30.9336257 C74.1844753,31.9074019 74.7389427,32.6052749 75.5706437,33.011015 C76.2718819,33.4329847 77.103583,33.708888 77.5275875,34.3905314 C77.6743583,34.5365978 77.9515919,34.6664346 78.2288256,34.6664346 C79.4845312,34.6664346 80.4630031,33.6926584 80.7402368,32.4429789 C80.8870075,32.0210091 81.0174705,31.4692026 81.1642412,31.0634625 C81.4414749,30.3655895 81.9959423,29.9598494 82.6971805,29.9598494 C83.5288816,29.9598494 84.3768905,29.9598494 85.0618208,30.1059158 C85.763059,30.1059158 86.5947601,30.8037888 87.2959983,31.6314986 L87.1492275,31.4854322 C86.0402927,30.3818191 84.7845871,30.1059158 83.2516479,30.2357527 C82.5504097,30.2357527 82.1427131,30.7875592 81.8654794,31.3393658 C81.4414749,32.313142 81.0337783,33.2869183 80.4793109,34.1146281 C80.0553065,34.8125011 79.5008391,35.0884043 78.669138,35.2182412 C77.6906661,35.3643076 77.5602032,35.4941444 77.6906661,36.4679207 C77.8374369,37.0197272 78.2451335,37.5715338 78.5223672,38.2694068 C78.669138,38.54531 78.7996009,38.9672798 78.669138,39.0971166 C78.5223672,39.243183 78.1146706,39.3730199 77.8374369,39.3730199 C76.7285021,39.0971166 75.7500303,38.9510501 74.6247876,38.54531 C73.9887809,38.54531 73.8420101,38.4154732 73.4343135,38.1395699 C73.2875427,38.1395699 73.1570798,38.2856364 73.010309,38.2856364 Z"></path>
        </g>
    </g>
</svg>