<svg width="100" height="100" viewBox="0 0 100 100" fill="none" xmlns="http://www.w3.org/2000/svg">
<path d="M49.1504 27H33.8676L10.5648 64.9398H25.8477L33.4993 52.4819H36.1317C37.4902 52.4819 38.2071 53.6145 38.3958 54.1807C38.5849 54.5582 38.1705 56.3325 35.0007 60.4096C31.0385 65.506 31.0385 69.4699 32.7366 71.1687C34.0951 72.5277 36.6988 73.8112 37.8309 74H63.3023C63.3023 74 63.8683 63.241 68.9626 58.1446L95 33.2289V27H59.9061C56.2835 27 54.2458 28.8876 53.6797 29.8313L48.5855 38.8916H59.339C59.339 38.8916 61.0371 36.0602 64.9993 36.0602H80.8481V38.8916C80.8481 38.8916 76.3199 45.2749 66.1313 48.5181C56.1692 51.6892 49.5278 58.5221 46.8863 61.5422C46.8863 61.5422 48.0183 52.4819 41.792 50.7831C41.792 50.7831 55.3768 52.4819 58.7729 42.2892H46.8863C46.8863 42.2892 44.6222 47.3855 39.5279 47.3855H36.6295L49.1504 27Z" fill="#5B9AFD"/>
<path d="M5 74L8.47802 68.3373H23.7609L20.2828 74H5Z" fill="#5B9AFD"/>
</svg>
