<svg t="1721278725893" class="icon" viewBox="0 0 1682 1024" version="1.1" xmlns="http://www.w3.org/2000/svg" p-id="8214" width="128" height="128"><path d="M98.897384 1024a98.897384 98.897384 0 1 1 0-197.794769h659.315896a98.897384 98.897384 0 1 1 0 197.794769z m1015.511308-43.020362a98.897384 98.897384 0 0 1 0-140.104628l230.183662-230.266076H98.897384a98.897384 98.897384 0 1 1 0-197.794769h1245.69497l-230.183662-230.266076a99.062213 99.062213 0 1 1 140.104628-140.104628l398.968531 398.968531a98.897384 98.897384 0 0 1 0 140.104628l-398.968531 398.968531a98.897384 98.897384 0 0 1-140.104628 0zM98.897384 198.042012a98.897384 98.897384 0 1 1 0-197.794769h659.315896a98.897384 98.897384 0 1 1 0 197.794769z" p-id="8215"></path></svg>
