<svg width="100" height="100" viewBox="0 0 100 100" fill="currentColor" xmlns="http://www.w3.org/2000/svg">
<path fill-rule="evenodd" clip-rule="evenodd" d="M90 50C90 72.0914 72.0914 90 50 90C27.9086 90 10 72.0914 10 50C10 27.9086 27.9086 10 50 10C72.0914 10 90 27.9086 90 50ZM60.8973 47.6717C63.8068 46.3989 72.5422 37.7397 72.5422 36.2459C72.5422 34.3806 70.8995 34.4535 69.1071 36.3947C68.21 37.3658 67.0911 37.8125 65.9728 37.5897C63.9566 37.216 61.3431 39.3081 61.3431 41.1765C61.3431 41.9939 60.5198 42.2954 58.4297 42.2954C56.1185 42.2954 55.3686 42.5943 54.9947 43.7834C54.5472 45.2789 52.3812 45.9514 52.3812 44.6084C52.3812 44.2347 51.1882 42.5164 49.7703 40.8019C46.4844 36.8463 46.2576 33.4076 49.0942 31.1665C52.606 28.4059 55.3666 28.4059 60.1501 31.3156C62.7609 32.8832 65.0008 33.7812 65.8998 33.5545C67.7653 33.032 69.0343 30.7191 68.4348 28.8555C67.7633 26.6135 61.4938 21.4632 58.4297 20.639C52.0075 18.8494 43.1991 20.9376 38.3465 25.4188C32.8196 30.4241 33.3421 37.4389 39.6135 43.1908C43.497 46.7727 43.497 48.4892 39.6902 50.8801C36.1046 53.1209 31.3278 57.9716 28.7881 61.858C26.5499 65.3659 26.3991 70.7422 28.4135 74.1012C30.6555 77.6868 35.9539 79.924 42.6776 80C50.9634 80 55.8179 78.2853 61.3431 73.2059C67.019 67.9038 67.9901 65.1432 66.3465 59.3913C65.5235 56.5557 64.2564 54.4618 62.0884 52.3773C60.446 50.8079 59.1059 49.2394 59.1059 49.0165C59.1078 48.712 59.9272 48.1155 60.8973 47.6717ZM53.8778 65.7379C47.7561 72.6835 35.955 74.3999 35.955 68.3497C35.955 64.3941 39.02 59.6143 44.5423 55.1363C48.6476 51.7762 50.8885 51.9241 53.8028 55.8816C56.7124 59.8391 56.7882 62.4526 53.8778 65.7379ZM73.7667 33.9437C74.1906 34.2977 74.9647 34.0692 75.4957 33.4333C76.0266 32.7974 76.1134 31.9949 75.6895 31.6409C75.2655 31.287 74.4914 31.5155 73.9605 32.1514C73.4295 32.7873 73.3427 33.5897 73.7667 33.9437Z" />
</svg>
