<svg width="100" height="100" viewBox="0 0 100 100" fill="currentColor" xmlns="http://www.w3.org/2000/svg">
<path fill-rule="evenodd" clip-rule="evenodd" d="M50 90C72.0914 90 90 72.0914 90 50C90 27.9086 72.0914 10 50 10C27.9086 10 10 27.9086 10 50C10 72.0914 27.9086 90 50 90ZM81.4905 44.7699C82.3502 44.7704 83.1913 44.5233 83.91 44.0591C83.9445 44.3846 84.9561 54.4778 79.24 60.7558C75.8505 64.4516 69.419 67.734 65.0001 69.1544C59.3708 70.966 55.0316 71 55.0316 71L58.3783 53.5059L56.743 51.7727L54.7198 61.7804H42.7329C42.7329 61.7804 40.8263 64.4 35.4219 65.701C31.798 66.6707 26.5484 67.2222 20.5478 64.7748C19.3517 64.1354 18.4579 63.3391 17.795 62.4713C15.0553 58.8774 16.2669 54.0586 16.2669 54.0586C16.2669 54.0586 22.8578 54.0059 25.7629 54.0586C25.1524 56.6138 25.9557 58.2989 27.6314 59.0214C30.5841 59.6843 34.4044 58.3832 35.3374 56.1067C37.9581 50.4319 31.0566 47.6753 31.0566 47.6753C40.8906 43.9455 38.6067 39.4276 37.4392 38.5353C32.1717 35.2505 29.8891 41.3704 29.8891 41.3704H20.0812C20.9881 36.0656 26.515 30.6542 35.9599 30.6542C45.4035 30.5488 48.1801 35.5409 48.1801 35.5409L49.6594 29.0007H66.7067C75.6839 28.9211 80.2742 35.6944 80.3277 35.7752C78.3938 36.2939 76.9692 38.0762 76.9692 40.1958C76.9692 42.7218 78.9936 44.7699 81.4905 44.7699ZM45.1453 49.3288L45.613 49.4868L46.001 44.5228C46.001 44.5228 44.0813 45.784 42.577 47.1225C44.1337 48.0687 45.1453 49.3288 45.1453 49.3288ZM56.4384 46.1869C56.4384 51.371 60.5859 55.5704 65.6999 55.5704C70.8163 55.5704 74.9638 51.371 74.9627 46.1869C74.9627 41.0038 70.8163 36.8033 65.6999 36.8033C60.5859 36.8033 56.4384 41.005 56.4384 46.1869Z" fill="currentColor"/>
</svg>
