<svg width="100" height="100" viewBox="0 0 100 100" fill="currentColor" xmlns="http://www.w3.org/2000/svg">
<path fill-rule="evenodd" clip-rule="evenodd" d="M90 50C90 72.0914 72.0914 90 50 90C27.9086 90 10 72.0914 10 50C10 27.9086 27.9086 10 50 10C72.0914 10 90 27.9086 90 50ZM79.9978 48.4085C81.0948 47.3623 81.8724 46.0262 82.2401 44.5555C82.6077 43.0849 82.5504 41.54 82.0747 40.1007C81.602 38.6514 80.731 37.3645 79.5612 36.387C78.3914 35.4096 76.9701 34.7812 75.4599 34.5736L65.3557 33.0971C64.6149 32.9907 63.9108 32.7069 63.3032 32.2699C62.6957 31.8328 62.2027 31.2555 61.8662 30.587L57.3579 21.5213C56.6725 20.1595 55.6223 19.0149 54.3244 18.2151C53.0265 17.4153 51.5319 16.9918 50.0074 16.9918C48.4828 16.9918 46.9883 17.4153 45.6904 18.2151C44.3924 19.0149 43.3422 20.1595 42.6568 21.5213L38.1338 30.5919C37.7973 31.2604 37.3043 31.8378 36.6968 32.2748C36.0892 32.7118 35.3851 32.9956 34.6443 33.102L24.54 34.5785C23.0304 34.7857 21.6096 35.4134 20.4398 36.3899C19.2701 37.3664 18.3987 38.6523 17.9253 40.1007C17.449 41.5396 17.3909 43.0841 17.7576 44.5548C18.1244 46.0254 18.9011 47.3618 19.9973 48.4085L27.306 55.4711C27.8441 55.9878 28.2471 56.6287 28.4796 57.3376C28.7122 58.0464 28.7672 58.8014 28.6398 59.5365L26.9172 69.5029C26.6532 70.9996 26.8191 72.5405 27.3959 73.9466C27.9726 75.3527 28.9364 76.5663 30.1754 77.4465C31.414 78.3431 32.8783 78.8762 34.4034 78.9857C35.9286 79.0953 37.454 78.777 38.8081 78.0667L47.8443 73.3566C48.5099 73.0098 49.2494 72.8287 50 72.8287C50.7506 72.8287 51.49 73.0098 52.1557 73.3566L61.1919 78.0667C62.546 78.777 64.0714 79.0953 65.5966 78.9857C67.1217 78.8762 68.586 78.3431 69.8246 77.4465C71.068 76.5694 72.0367 75.3571 72.6179 73.9508C73.1991 72.5444 73.3688 71.0019 73.1074 69.5029L71.3848 59.5365C71.2574 58.8014 71.3124 58.0464 71.545 57.3376C71.7775 56.6287 72.1805 55.9878 72.7186 55.4711L79.9978 48.4085ZM48.8434 61.5248H35.919V59.6152L41.6971 52.9611C42.7881 51.8112 43.7245 50.524 44.4828 49.132C44.9043 48.3158 45.1412 47.4168 45.1767 46.4989C45.1926 45.7749 44.9342 45.0716 44.4532 44.5302C44.2235 44.2638 43.9374 44.0519 43.6156 43.9097C43.2938 43.7676 42.9445 43.6988 42.5928 43.7083C42.2217 43.7052 41.8552 43.7901 41.5232 43.956C41.1913 44.122 40.9034 44.3643 40.6832 44.6631C40.133 45.4161 39.8459 46.3293 39.8662 47.2617H36.421C36.5096 44.9846 37.1396 43.1948 38.311 41.8922C38.8713 41.2525 39.5658 40.7444 40.3451 40.4041C41.1244 40.0638 41.9692 39.8997 42.8192 39.9235C43.8779 39.9016 44.921 40.1815 45.8264 40.7306C46.7218 41.3026 47.4408 42.1119 47.9034 43.0685C48.4059 44.0286 48.6709 45.0953 48.6761 46.179C48.6429 47.5692 48.3246 48.9378 47.7409 50.2C46.8395 52.0555 45.6796 53.7739 44.2957 55.3038L42.2089 57.8188H48.8434V61.5248ZM63.3772 58.8031C62.9041 59.7809 62.1478 60.5937 61.2067 61.136C60.1433 61.6835 58.9568 61.948 57.7615 61.9038C56.5171 61.9723 55.276 61.718 54.1588 61.1655C53.2442 60.6332 52.5038 59.8467 52.0277 58.9016C51.4788 57.8374 51.2031 56.6535 51.2255 55.4564C51.2137 54.4169 51.434 53.3879 51.8702 52.4443C52.3248 51.4937 52.9816 50.6538 53.7946 49.9834C52.7004 48.8219 52.0973 47.2825 52.1114 45.6868C52.1027 44.6611 52.3407 43.6483 52.8054 42.7338C53.2455 41.857 53.929 41.1256 54.774 40.6273C55.6694 40.1064 56.6916 39.8441 57.7271 39.8693C58.7371 39.8489 59.7327 40.1114 60.6013 40.6273C61.446 41.1435 62.1283 41.8872 62.57 42.7731C63.0425 43.7024 63.2807 44.733 63.264 45.7754C63.2681 46.4864 63.1413 47.1921 62.8899 47.8573C62.5523 48.6385 62.0902 49.3599 61.5217 49.9933C62.3657 50.6073 63.0425 51.4228 63.4904 52.3655C63.9548 53.3295 64.1938 54.3864 64.1893 55.4564C64.1888 56.6207 63.9104 57.7681 63.3772 58.8031ZM58.4635 48.2054C58.2079 48.3222 57.9293 48.3798 57.6483 48.3741C57.3662 48.3773 57.0871 48.3155 56.8328 48.1935C56.5784 48.0714 56.3556 47.8924 56.1817 47.6702C55.7751 47.1957 55.5593 46.5871 55.5763 45.9624C55.5475 45.3511 55.7475 44.751 56.1374 44.2792C56.3144 44.0693 56.5364 43.902 56.7868 43.7895C57.0373 43.6771 57.3099 43.6224 57.5843 43.6295C57.8731 43.6181 58.1607 43.6704 58.427 43.7827C58.6932 43.895 58.9315 44.0645 59.1248 44.2792C59.5171 44.7408 59.7225 45.3324 59.7007 45.9378C59.7268 46.5753 59.5224 47.2008 59.1248 47.6998C58.9452 47.9159 58.7192 48.0887 58.4635 48.2054ZM56.558 52.328C56.9289 52.1773 57.3268 52.1046 57.7271 52.1145C58.1177 52.1057 58.5057 52.1792 58.8661 52.3301C59.2265 52.481 59.5511 52.7061 59.8188 52.9906C60.0983 53.2773 60.3176 53.6171 60.4638 53.9898C60.61 54.3626 60.6802 54.7608 60.6702 55.1611C60.6846 55.5537 60.6196 55.9453 60.4793 56.3123C60.3389 56.6793 60.126 57.0142 59.8532 57.2971C59.5722 57.5778 59.2359 57.7972 58.8657 57.9412C58.4954 58.0852 58.0993 58.1508 57.7025 58.1338C57.298 58.1491 56.895 58.0776 56.5206 57.9239C56.1461 57.7702 55.809 57.538 55.532 57.243C54.9839 56.6589 54.687 55.8831 54.7051 55.0823C54.7001 54.6931 54.7743 54.307 54.9232 53.9474C55.0721 53.5878 55.2927 53.2623 55.5714 52.9906C55.8512 52.7043 56.1871 52.4788 56.558 52.328Z" />
</svg>
