<svg width="100" height="100" viewBox="0 0 100 100" fill="currentColor" xmlns="http://www.w3.org/2000/svg">
<path fill-rule="evenodd" clip-rule="evenodd" d="M50 90C72.0914 90 90 72.0914 90 50C90 27.9086 72.0914 10 50 10C27.9086 10 10 27.9086 10 50C10 72.0914 27.9086 90 50 90ZM50.0002 17.0001C31.7746 17.0001 17 31.7746 17 50.0003C17 68.2254 31.7745 83 50.0002 83C68.2255 83 83 68.2255 83 50.0003C83 31.7746 68.2254 17.0001 50.0002 17.0001ZM45.8749 70.6253C32.206 70.6253 21.125 59.5442 21.125 45.8749C21.1249 32.206 32.2059 21.125 45.8748 21.125C59.5442 21.125 70.6252 32.206 70.6252 45.8749C70.6251 59.5442 59.5441 70.6253 45.8749 70.6253ZM75.1732 33.4317C77.5534 34.958 80.8821 42.6757 80.4283 48.158C76.3156 46.3346 74.5214 35.4984 75.1732 33.4317ZM45.5543 26.6349C45.5543 25.8686 44.9073 25.25 44.1059 25.25C43.3044 25.25 42.6575 25.8686 42.6575 26.6349V44.2707C42.162 44.7183 41.8475 45.3186 41.7692 45.966C41.6909 46.6135 41.8539 47.2666 42.2295 47.8104C42.6051 48.3543 43.1693 48.7541 43.8228 48.9395C44.4763 49.1249 45.1772 49.084 45.8022 48.824L55.8115 56.8446C55.9551 56.9732 56.1246 57.0725 56.3096 57.1364C56.4946 57.2003 56.6913 57.2275 56.8877 57.2163C57.0841 57.2051 57.276 57.1558 57.4518 57.0714C57.6276 56.9869 57.7835 56.8691 57.9102 56.7252C58.0368 56.5812 58.1314 56.4141 58.1882 56.234C58.2451 56.0539 58.2629 55.8647 58.2408 55.6778C58.2186 55.4909 58.1568 55.3103 58.0593 55.1469C57.9617 54.9836 57.8303 54.841 57.6732 54.7278L47.5274 46.5834C47.6011 45.9515 47.4453 45.3146 47.086 44.7796C46.7267 44.2446 46.1859 43.8441 45.5543 43.6453V26.6349Z" />
</svg>
