<svg width="100" height="100" viewBox="0 0 100 100" fill="currentColor" xmlns="http://www.w3.org/2000/svg">
<path fill-rule="evenodd" clip-rule="evenodd" d="M50 90C72.0914 90 90 72.0914 90 50C90 27.9086 72.0914 10 50 10C27.9086 10 10 27.9086 10 50C10 72.0914 27.9086 90 50 90ZM75.7129 29.9895C76.1692 30.1572 76.5729 30.4429 76.8829 30.8174H76.8739C77.5338 31.6814 77.1319 32.7883 75.9949 33.2683C75.5689 33.4478 75.1463 33.6308 74.7237 33.8138C73.84 34.1965 72.9564 34.5791 72.0411 34.9302C69.5583 35.9779 67.08 37.0256 64.6014 38.0735C60.1323 39.9628 55.6622 41.8526 51.1623 43.7437C50.7934 43.9315 50.3853 44.0294 49.9714 44.0294C49.5574 44.0294 49.1493 43.9315 48.7804 43.7437C42.7523 41.1812 36.701 38.6368 30.661 36.0971C28.5554 35.2118 26.4512 34.327 24.3498 33.4423C24.298 33.4115 24.2299 33.3872 24.1613 33.3628C24.0829 33.3348 24.0038 33.3067 23.9478 33.2683C23.1768 32.9593 22.7388 32.4373 22.7388 31.6484C22.7388 30.8534 23.2518 30.3674 23.9838 30.0584C24.258 29.9486 24.5268 29.8417 24.7923 29.7361C25.4476 29.4755 26.0835 29.2226 26.7346 28.9515C29.6679 27.7873 32.6011 26.6176 35.5369 25.4468C39.7498 23.7668 43.9679 22.0846 48.1985 20.414L49.1944 20H50.6943C52.5241 20.7259 54.3464 21.4518 56.1687 22.1777C57.9912 22.9037 59.8137 23.6298 61.6437 24.3558C66.3483 26.1965 71.0381 28.0744 75.7129 29.9895ZM32.5903 33.1333C34.5702 34.5132 38.122 34.4802 39.9909 33.0973C41.2358 32.2003 41.2358 30.8174 39.9909 29.8815C38.854 29.0865 37.573 28.8465 35.7401 28.8465C34.5996 28.8709 33.4915 29.2309 32.5543 29.8815C31.2704 30.8174 31.2704 32.2333 32.5903 33.1333ZM46.2156 33.0973C48.0845 34.5132 51.8223 34.5132 53.6522 33.0973V33.0943C54.9361 32.1643 54.8971 30.7814 53.6162 29.8125C52.5542 29.0865 51.2703 28.8465 50.3553 28.8465C48.6724 28.8465 47.4275 29.0895 46.2906 29.8815C45.0096 30.7814 44.9736 32.1643 46.2156 33.0973ZM59.9878 33.1963C61.9677 34.5792 65.5195 34.5432 67.3884 33.1633C68.6693 32.1943 68.6693 30.8474 67.3134 29.9145C66.2155 29.1165 64.9705 28.8765 63.6536 28.8765C62.3337 28.8765 61.0887 29.1195 59.9878 29.9475C58.6679 30.8804 58.6679 32.2663 59.9878 33.1963ZM41.9048 43.3687C43.7347 44.1637 45.5256 44.9226 47.3255 45.6486C48.3874 46.0656 48.8224 46.7555 48.7174 47.7935C48.6424 52.8452 48.6424 57.8489 48.6424 62.8976V77.9628C48.6424 79.6907 47.4335 80.4167 45.7476 79.7267C37.984 76.4449 30.2534 73.1931 22.4539 69.9443C20.768 69.2543 20 68.0454 20 66.3145V37.2461C20 36.4151 20.249 35.6891 21.1009 35.2752C21.7219 34.9692 22.3399 35.1042 22.9308 35.3802C24.7654 36.1515 26.597 36.9196 28.4274 37.6872C32.9181 39.5704 37.4016 41.4507 41.9048 43.3687ZM32.4133 60.0268C33.4393 61.2057 34.9392 61.1007 35.8211 59.8558L35.8271 59.8618C36.4871 58.8899 36.7061 57.8909 36.7061 56.37C36.7061 55.1941 36.2291 53.8111 35.3142 52.8782C34.2552 51.7713 32.7133 51.8073 31.9453 53.1182C31.5374 53.8801 31.2044 54.7441 31.0994 55.608C30.9134 57.198 31.2434 58.7489 32.4133 60.0268ZM52.7102 45.6486L77.1049 35.3832C78.7158 34.7232 79.9607 35.5211 79.9967 37.2131V66.4254C79.9967 68.0124 79.2288 69.1853 77.6538 69.8453L54.0661 79.7657C52.4882 80.4197 51.2793 79.6607 51.2793 78.0348C51.2433 72.9561 51.2433 67.9404 51.2433 62.8616V47.7905C51.2433 46.7525 51.6843 46.0986 52.7102 45.6486ZM58.4579 69.0803C59.4118 70.3612 60.8758 70.4272 61.9017 69.2513L61.9077 69.2543C62.8587 68.1444 63.1886 66.8304 63.1886 65.6545C63.1886 64.3406 62.8916 63.2006 62.3427 62.4057C61.4247 61.0587 59.9968 60.9537 58.8989 62.1627C57.324 63.8576 57.138 67.2114 58.4579 69.0803ZM69.1193 51.9002C70.0703 53.1782 71.5372 53.2472 72.5601 52.0712V52.0772C73.5501 51.0033 73.808 49.6204 73.88 48.2374C73.88 47.0975 73.5891 46.0956 73.1091 45.4056C72.1221 43.8487 70.6582 43.7467 69.4493 45.1266C67.9824 46.7825 67.8354 50.0673 69.1193 51.9002Z" fill="currentColor"/>
</svg>
