<svg width="100" height="100" viewBox="0 0 100 100" fill="currentColor" xmlns="http://www.w3.org/2000/svg">
<path fill-rule="evenodd" clip-rule="evenodd" d="M46 90C68.0914 90 86 72.0914 86 50C86 27.9086 68.0914 10 46 10C23.9086 10 6 27.9086 6 50C6 72.0914 23.9086 90 46 90ZM43.0346 54.0006C43.0583 53.9554 45.4123 49.4701 45.8476 43.6963C46.4236 36.0481 43.5275 29.8541 37.239 25.286C37.1292 25.2061 37.0423 25.1012 36.9859 24.9804C36.9295 24.8596 36.9053 24.7266 36.9154 24.593C36.9255 24.4594 36.9697 24.3293 37.044 24.2141C37.0992 24.1285 37.1698 24.0531 37.2522 23.9914C37.2809 23.9698 37.311 23.95 37.3423 23.9319C38.6386 23.1849 39.9029 22.632 41.1011 22.2884C43.8737 21.4933 46.3529 21.7716 48.4693 23.1158C50.1925 24.2098 51.4286 25.8612 52.2871 27.579L52.2857 27.5783C53.2982 29.604 53.7855 31.7222 53.9266 33.1276C54.7354 42.2233 44.8792 54.3388 44.459 54.8501C44.3267 55.0118 44.1375 55.1221 43.9284 55.1596C43.7192 55.1971 43.5051 55.159 43.3278 55.0528C43.1504 54.9469 43.0222 54.7806 42.9681 54.5863C42.9139 54.3919 42.9376 54.1832 43.0346 54.0006ZM19.388 33.0244C27.0625 35.6442 32.0196 40.7198 34.1213 48.1108C35.703 53.6729 34.9909 58.5397 34.979 58.6206L34.9789 58.6212C34.9455 58.8454 35.0039 59.0692 35.143 59.2502C35.2821 59.4311 35.4922 59.5565 35.7334 59.6025C35.9746 59.6486 36.23 59.612 36.451 59.4997C36.672 59.3875 36.8432 59.2075 36.9321 58.9939C37.1768 58.3971 42.8815 44.3042 39.7318 36.3485C38.1164 31.4167 31.7048 25.7195 24.8942 27.6152C22.7067 28.2241 20.7184 29.5752 18.9861 31.6295C18.8896 31.7441 18.8226 31.8762 18.7903 32.0154C18.7581 32.1546 18.7613 32.2973 18.7999 32.4323C18.839 32.5673 18.9124 32.6909 19.0144 32.7936C19.1164 32.8962 19.2442 32.9752 19.388 33.0244ZM46.8239 63.4412C46.9825 63.325 47.1767 63.2639 47.3736 63.2682C47.5706 63.2725 47.7581 63.3419 47.9044 63.4646C48.0507 63.5873 48.1467 63.7558 48.1763 63.9416L48.5166 66.094L55.9531 58.935C56.1098 58.7838 56.3198 58.6946 56.5394 58.6862C56.759 58.6777 56.9712 58.7506 57.1318 58.8897C57.2926 59.0285 57.3898 59.2227 57.4031 59.4321C57.4165 59.6414 57.345 59.8498 57.2035 60.0142L45.658 73.3927C45.5331 73.5368 45.362 73.6375 45.1726 73.6784C44.9832 73.7193 44.7867 73.698 44.6151 73.618C44.4434 73.538 44.3067 73.4039 44.2272 73.2377C44.1477 73.0714 44.1301 72.8827 44.1773 72.7024L46.5036 63.9055C46.5521 63.7215 46.6653 63.5574 46.8239 63.4412ZM68.5068 26.7465C69.936 26.7622 71.422 27.0633 72.6585 27.9337C74.4623 29.2033 75.3792 31.4149 75.3841 34.5071C75.3841 34.6483 75.3459 34.7882 75.2732 34.913C75.2004 35.0378 75.0956 35.1434 74.969 35.2193C74.8423 35.2952 74.6982 35.339 74.5506 35.3463C74.403 35.3536 74.257 35.3242 74.1268 35.261C71.2665 33.8706 68.228 33.621 65.0981 34.5185C58.8615 36.3069 54.2773 42.0564 54.2317 42.1143C54.1081 42.2717 53.931 42.3834 53.7324 42.4291C53.5337 42.4749 53.3264 42.4518 53.1477 42.3641C52.9691 42.2763 52.8306 42.1296 52.7573 41.9503C52.684 41.7709 52.6806 41.5707 52.7478 41.3855C52.8619 41.0705 54.8202 35.7445 58.1193 31.7344L58.1191 31.7342C59.4976 30.0585 61.1102 28.6125 62.9202 27.858C63.1843 27.7516 63.7161 27.55 64.4232 27.3473C65.4491 27.0531 66.9438 26.7289 68.5064 26.7459L68.5068 26.7465ZM31.4895 68.9138C31.6437 68.231 35.1902 52.0985 28.9086 44.9013L28.8783 44.8686C28.6315 44.6135 22.7653 38.6393 16.4196 40.4056C14.0009 41.0789 11.8803 42.789 10.1169 45.4886C10.0333 45.6167 9.98388 45.7596 9.97272 45.9056C9.96156 46.0515 9.98901 46.1963 10.0528 46.3277C10.1165 46.4592 10.2148 46.5736 10.3394 46.6614C10.4639 46.7492 10.6112 46.8079 10.769 46.8326C27.9976 49.524 29.4713 68.6711 29.4841 68.8646C29.4979 69.0864 29.601 69.2925 29.774 69.4443C29.947 69.5961 30.1781 69.6831 30.424 69.6891C30.6699 69.6952 30.9137 69.6198 31.1098 69.477C31.306 69.3343 31.441 69.1341 31.4895 68.9138ZM60.0814 46.0255C60.0404 46.034 60 46.045 59.9604 46.0586C46.3684 50.7747 42.6802 62.8961 42.5304 63.4096C42.4781 63.5889 42.4904 63.7781 42.5651 63.9466C42.6398 64.115 42.7726 64.2527 42.9419 64.3372C43.1111 64.4215 43.3067 64.4476 43.4969 64.4115C43.6871 64.3753 43.8607 64.279 43.9895 64.1381C44.0741 64.0453 44.1583 63.9535 44.2421 63.8627L44.2416 63.8637C49.2998 58.38 52.8447 56.5094 54.9384 55.909C56.7259 55.3965 58.1831 55.5979 59.1519 56.4928C60.4106 57.6539 60.8112 59.9038 60.2361 62.4461C60.1978 62.6156 60.1551 62.7864 60.108 62.9583C58.9748 67.099 55.1209 72.2799 47.6996 74.4079L47.6952 74.4092C45.7107 74.9782 43.556 75.3008 41.2913 75.3687C41.2166 75.3713 41.1423 75.3831 41.0702 75.4036C40.8935 75.4538 40.7367 75.5566 40.6231 75.6968C40.5095 75.8371 40.445 76.0074 40.4392 76.1825C40.4333 76.3577 40.4865 76.5285 40.5907 76.6697C40.695 76.8109 40.8448 76.915 41.0182 76.9666C45.7431 78.3929 50.3115 78.4922 54.5973 77.2633C60.194 75.6585 65.0883 71.8163 68.3811 66.4458C71.3471 61.6063 72.5357 56.2625 71.5616 52.151C71.4943 51.867 71.4177 51.592 71.3321 51.3259L71.3325 51.3254C70.4406 48.5539 68.5668 46.7582 65.9207 46.0491L65.9206 46.0497C64.2609 45.6049 62.2972 45.5877 60.0814 46.0255Z"/>
</svg>
