<svg width="100" height="100" viewBox="0 0 100 100" fill="currentColor" xmlns="http://www.w3.org/2000/svg">
<path fill-rule="evenodd" clip-rule="evenodd" d="M90 50C90 72.0914 72.0914 90 50 90C27.9086 90 10 72.0914 10 50C10 27.9086 27.9086 10 50 10C72.0914 10 90 27.9086 90 50ZM37.4859 47.0276C38.5251 40.7104 41.6913 35.3139 46.0326 31.602L49 21L26.8891 26.7633L26.222 37.2082L28.7763 36.4495L22 70.499L34.4455 73L38.3262 59.1307C37.1396 55.3987 36.7919 51.2647 37.4859 47.0276ZM47.6038 32.3279C52.2137 28.2918 58.1899 26.2614 64.3088 27.2455C75.9947 29.1306 83.7601 41.2885 81.656 54.407C79.5531 67.528 68.3756 76.6352 56.6897 74.7539C48.7383 73.4702 42.6021 67.4285 40.1546 59.5639C39.0077 55.8721 38.6717 51.7801 39.3437 47.5912C40.3455 41.3407 43.4093 36.0036 47.6038 32.3279ZM58.1478 64.8029C58.1478 64.8029 59.4906 56.8351 64.5902 53.2327C69.6923 49.6266 73.448 49.7869 73.448 49.7869C73.448 49.7869 65.2895 47.7974 63.8389 43.1711C62.3894 38.5423 62.6597 34.9374 62.6597 34.9374C62.6597 34.9374 60.082 42.7399 56.8037 45.4302C53.8231 47.8795 46.3354 49.7869 46.3354 49.7869C46.3354 49.7869 54.1752 51.4582 55.8937 54.4716C57.6097 57.4813 58.1478 64.8029 58.1478 64.8029Z" fill="currentColor"/>
</svg>
