<svg width="100" height="100" viewBox="0 0 100 100" fill="currentColor" xmlns="http://www.w3.org/2000/svg">
<path fill-rule="evenodd" clip-rule="evenodd" d="M90 50C90 72.0914 72.0914 90 50 90C27.9086 90 10 72.0914 10 50C10 42.2736 12.1906 35.0589 15.9846 28.943C18.9569 38.6519 28.1588 46.235 33.3212 50.4893C33.6829 50.7873 34.0248 51.069 34.3433 51.334C24.6852 56.0175 19.005 44.5332 17.5011 41.4925C17.4511 41.3914 17.4057 41.2996 17.3649 41.2181C19.9213 60.9123 33.8056 65.4098 38.4261 66.3667C40.3902 69.8552 43.2401 72.7636 46.688 74.7981C50.1359 76.8326 54.0597 77.9211 58.063 77.9537C62.0663 77.9862 66.0073 76.9617 69.4878 74.9835C72.9683 73.0053 75.8652 70.1436 77.8856 66.6874C79.9061 63.2313 80.9786 59.3031 80.9949 55.2997C81.0112 51.2963 79.9706 47.3595 77.9783 43.8871C75.986 40.4146 73.1125 37.5294 69.6482 35.523C66.1838 33.5166 62.2513 32.46 58.2479 32.46C54.9528 32.4585 51.6969 33.1747 48.7066 34.5589C45.7163 35.9431 43.0634 37.962 40.9323 40.4753C39.0413 40.0971 41.347 37.7413 42.2994 37.0578C43.3884 36.274 42.5409 34.7065 42.5409 34.7065C42.5409 34.7065 42.1809 34.1643 39.8068 31.9725C41.1328 31.2525 43.1834 32.3963 44.8192 33.6038C46.929 34.5151 49.0433 32.5147 48.6788 32.3962C45.9236 30.1798 40.5576 29.1773 38.1655 28.7304L38.1655 28.7304C37.8872 28.6784 37.6491 28.6339 37.4601 28.5959C30.8135 27.2766 29.4191 25.7022 27.6688 23.7261C27.3395 23.3544 26.9977 22.9685 26.606 22.5674C27.3679 28.3705 30.0678 30.6423 33.1734 33.2554L33.4411 33.4808C37.3599 37.1626 32.1743 36.2148 31.8736 36.0143C26.1704 34.5682 21.7062 29.541 18.8503 24.9041C26.1826 15.8144 37.4123 10 50 10C72.0914 10 90 27.9086 90 50ZM53.9646 49.5432C55.2678 48.1215 55.3772 43.9066 55.3316 41.6874C53.3741 42.1106 51.5315 42.953 49.9307 44.1565C48.3299 45.3601 47.0089 46.8962 46.0587 48.6592C47.9315 49.6116 51.9505 49.6116 53.9646 49.5432ZM44.4547 54.2412C44.4547 54.4007 44.4467 54.5613 44.4388 54.7219C44.4308 54.8826 44.4228 55.0432 44.4228 55.2027C44.418 58.3103 45.4651 61.3281 47.3938 63.7648C48.3507 62.6074 50.5562 59.7822 51.2898 57.6041C50.0048 56.0821 46.3913 54.8336 44.4547 54.2412ZM70.3096 48.4496C69.3452 46.7303 68.0247 45.2368 66.4365 44.0691C64.8483 42.9013 63.0291 42.0862 61.1004 41.6783C60.9045 43.9567 62.2624 47.9028 62.8821 49.566C65.2106 49.5979 68.8605 49.4749 70.3096 48.4496ZM57.2278 59.5165C56.0822 59.2461 55.0909 58.5317 54.4721 57.5304C54.1656 57.0346 53.9598 56.4833 53.8664 55.908C53.7731 55.3327 53.7939 54.7446 53.9278 54.1774C54.1982 53.0318 54.9126 52.0405 55.9139 51.4216C56.4096 51.1152 56.9609 50.9094 57.5362 50.816C58.1115 50.7226 58.6996 50.7434 59.2669 50.8773C59.8341 51.0112 60.3694 51.2555 60.8423 51.5963C61.3151 51.9371 61.7162 52.3676 62.0227 52.8634C62.6415 53.8647 62.8373 55.0708 62.5669 56.2164C62.2965 57.362 61.5821 58.3533 60.5809 58.9722C59.5796 59.5911 58.3735 59.7869 57.2278 59.5165ZM58.2479 71.5431C55.0159 71.544 51.8562 70.5864 49.1684 68.7915C46.4807 66.9965 44.3855 64.4448 43.1481 61.4591C41.9106 58.4733 41.5864 55.1876 42.2164 52.0176C42.8463 48.8476 44.4023 45.9356 46.6873 43.6499C48.9724 41.3642 51.884 39.8074 55.0538 39.1766C58.2237 38.5457 61.5094 38.869 64.4955 40.1057C67.4816 41.3423 70.0339 43.4367 71.8296 46.124C73.6253 48.8112 74.5838 51.9707 74.5838 55.2027C74.5844 57.3483 74.1623 59.4731 73.3416 61.4556C72.5209 63.438 71.3177 65.2394 69.8007 66.7568C68.2838 68.2742 66.4827 69.4779 64.5004 70.2992C62.5182 71.1204 60.3936 71.5431 58.2479 71.5431ZM52.3743 67.7246C52.6477 65.9885 55.9832 63.5324 58.0565 62.1654C59.8701 63.3638 63.0917 65.9292 64.0896 67.7246C62.2549 68.5784 60.2557 69.0207 58.232 69.0207C56.2083 69.0207 54.2091 68.5784 52.3743 67.7246ZM64.518 57.8319C65.7392 56.0639 70.2048 54.624 72.0275 54.0954C72.0548 54.4599 72.0685 54.8336 72.0685 55.1845C72.073 58.4981 70.8841 61.7026 68.7193 64.2113C67.5619 62.8079 65.2835 59.8779 64.518 57.8319Z" />
<mask id="path-2-outside-1_704_1045" maskUnits="userSpaceOnUse" x="12.0293" y="10.043" width="71" height="70" fill="black">
<rect fill="white" x="12.0293" y="10.043" width="71" height="70"/>
<path fill-rule="evenodd" clip-rule="evenodd" d="M58.2467 32.4605C54.9516 32.4589 51.6956 33.1751 48.7053 34.5593C45.715 35.9435 43.0621 37.9625 40.9311 40.4757C39.0401 40.0975 41.3458 37.7417 42.2981 37.0582C43.3872 36.2744 42.5396 34.7069 42.5396 34.7069C42.5396 34.7069 42.1797 34.1647 39.8056 31.9729C41.1316 31.2529 43.1821 32.3967 44.818 33.6042C46.9278 34.5155 49.0421 32.5151 48.6776 32.3967C45.9223 30.1802 40.5564 29.1777 38.1642 28.7308L38.1641 28.7308C37.8859 28.6788 37.6479 28.6343 37.4589 28.5964C30.8123 27.277 29.4178 25.7026 27.6675 23.7265C27.3383 23.3548 26.9965 22.9689 26.6048 22.5678C27.3667 28.371 30.0666 30.6427 33.1721 33.2558L33.4398 33.4812C37.3586 37.163 32.1731 36.2152 31.8723 36.0147C22.8865 33.7363 16.9764 22.5678 15.5866 18.043C12.0345 32.9487 26.3544 44.7494 33.32 50.4897L33.32 50.4897C33.6817 50.7877 34.0236 51.0695 34.3421 51.3344C24.684 56.018 19.0038 44.5336 17.4999 41.4929L17.4998 41.4928C17.4498 41.3918 17.4045 41.3 17.3637 41.2185C19.92 60.9127 33.8044 65.4102 38.4249 66.3671C40.3889 69.8556 43.2388 72.7641 46.6868 74.7986C50.1347 76.8331 54.0585 77.9216 58.0618 77.9541C62.0651 77.9866 66.006 76.9621 69.4866 74.9839C72.9671 73.0057 75.8639 70.144 77.8844 66.6878C79.9049 63.2317 80.9774 59.3035 80.9937 55.3001C81.0099 51.2967 79.9694 47.36 77.9771 43.8875C75.9848 40.415 73.1113 37.5298 69.647 35.5234C66.1826 33.517 62.2501 32.4605 58.2467 32.4605ZM58.2467 71.5435C55.0147 71.5444 51.855 70.5868 49.1672 68.7919C46.4794 66.9969 44.3843 64.4452 43.1468 61.4595C41.9094 58.4737 41.5851 55.1881 42.2151 52.018C42.8451 48.848 44.401 45.936 46.6861 43.6503C48.9712 41.3646 51.8827 39.8078 55.0526 39.177C58.2224 38.5461 61.5082 38.8694 64.4943 40.1061C67.4804 41.3427 70.0327 43.4371 71.8284 46.1244C73.6241 48.8116 74.5826 51.9711 74.5826 55.2031C74.5832 57.3487 74.1611 59.4735 73.3404 61.456C72.5197 63.4385 71.3165 65.2398 69.7995 66.7573C68.2825 68.2747 66.4815 69.4784 64.4992 70.2996C62.517 71.1208 60.3923 71.5435 58.2467 71.5435ZM55.3304 41.6878C55.3759 43.907 55.2666 48.1219 53.9634 49.5436C51.9493 49.612 47.9303 49.612 46.0574 48.6596C47.0077 46.8966 48.3287 45.3605 49.9294 44.157C51.5302 42.9534 53.3728 42.111 55.3304 41.6878ZM44.4375 54.7224C44.4455 54.5617 44.4535 54.4011 44.4535 54.2416C46.3901 54.834 50.0036 56.0825 51.2886 57.6045C50.5549 59.7826 48.3495 62.6078 47.3926 63.7652C45.4639 61.3285 44.4167 58.3107 44.4216 55.2031C44.4216 55.0436 44.4295 54.883 44.4375 54.7224ZM66.4353 44.0695C68.0235 45.2372 69.3439 46.7307 70.3083 48.45C68.8593 49.4753 65.2094 49.5983 62.8809 49.5664C62.2612 47.9032 60.9033 43.9571 61.0992 41.6787C63.0278 42.0866 64.8471 42.9017 66.4353 44.0695ZM57.2266 59.5169C56.081 59.2465 55.0897 58.5321 54.4708 57.5308C54.1644 57.035 53.9586 56.4837 53.8652 55.9084C53.7718 55.3331 53.7927 54.7451 53.9265 54.1778C54.1969 53.0322 54.9113 52.0409 55.9126 51.422C56.4084 51.1156 56.9597 50.9098 57.535 50.8164C58.1103 50.723 58.6984 50.7439 59.2656 50.8777C59.8329 51.0116 60.3682 51.2559 60.8411 51.5967C61.3139 51.9375 61.715 52.368 62.0214 52.8638C62.6403 53.8651 62.8361 55.0712 62.5657 56.2168C62.2953 57.3625 61.5809 58.3537 60.5796 58.9726C59.5783 59.5915 58.3722 59.7873 57.2266 59.5169ZM52.3731 67.725C52.6465 65.9889 55.982 63.5328 58.0553 62.1658C59.8689 63.3642 63.0905 65.9296 64.0884 67.725C62.2536 68.5788 60.2544 69.0211 58.2307 69.0211C56.207 69.0211 54.2078 68.5788 52.3731 67.725ZM64.5167 57.8323C65.7379 56.0643 70.2035 54.6244 72.0262 54.0958C72.0536 54.4604 72.0672 54.834 72.0672 55.1849C72.0718 58.4985 70.8828 61.703 68.7181 64.2118C67.5606 62.8083 65.2823 59.8783 64.5167 57.8323Z"/>
</mask>
<path d="M48.7053 34.5593L47.8652 32.7443L47.8652 32.7443L48.7053 34.5593ZM58.2467 32.4605L58.2457 34.4605L58.2467 34.4605L58.2467 32.4605ZM40.9311 40.4757L40.5389 42.4369L41.6944 42.668L42.4566 41.7692L40.9311 40.4757ZM42.2981 37.0582L43.4643 38.683L43.4664 38.6815L42.2981 37.0582ZM42.5396 34.7069L44.2989 33.7557L44.2559 33.6761L44.2059 33.6008L42.5396 34.7069ZM39.8056 31.9729L38.8513 30.2153L36.3969 31.5479L38.4489 33.4424L39.8056 31.9729ZM44.818 33.6042L43.6302 35.2133L43.8146 35.3494L44.0249 35.4402L44.818 33.6042ZM48.6776 32.3967L47.4239 33.955L47.7101 34.1852L48.0594 34.2987L48.6776 32.3967ZM38.1642 28.7308L37.79 30.6955L37.797 30.6968L38.1642 28.7308ZM38.1641 28.7308L38.5384 26.7661L38.5314 26.7648L38.1641 28.7308ZM37.4589 28.5964L37.853 26.6356L37.8483 26.6346L37.4589 28.5964ZM27.6675 23.7265L26.1704 25.0526L26.1704 25.0526L27.6675 23.7265ZM26.6048 22.5678L28.0356 21.1704L23.8401 16.8744L24.6218 22.8282L26.6048 22.5678ZM33.1721 33.2558L34.4602 31.7258L34.4598 31.7254L33.1721 33.2558ZM33.4398 33.4812L34.8093 32.0236L34.7696 31.9863L34.7279 31.9512L33.4398 33.4812ZM31.8723 36.0147L32.9817 34.3506L32.6963 34.1604L32.3639 34.0761L31.8723 36.0147ZM15.5866 18.043L17.4984 17.4557L15.3429 10.4379L13.6411 17.5793L15.5866 18.043ZM33.32 50.4897L32.0481 52.0331L32.1263 52.0976L32.2106 52.1538L33.32 50.4897ZM33.32 50.4897L34.592 48.9462L34.5137 48.8818L34.4294 48.8256L33.32 50.4897ZM34.3421 51.3344L35.2147 53.134L38.0056 51.7806L35.6212 49.7969L34.3421 51.3344ZM17.4999 41.4929L15.6933 42.351L15.7001 42.3653L15.7072 42.3796L17.4999 41.4929ZM17.4998 41.4928L19.3064 40.6347L19.2996 40.6204L19.2925 40.6061L17.4998 41.4928ZM17.3637 41.2185L19.1526 40.3241L15.3803 41.4759L17.3637 41.2185ZM38.4249 66.3671L40.1677 65.3859L39.7214 64.5931L38.8305 64.4086L38.4249 66.3671ZM46.6868 74.7986L47.7031 73.0761L47.7031 73.0761L46.6868 74.7986ZM77.8844 66.6878L79.611 67.6972L79.611 67.6972L77.8844 66.6878ZM77.9771 43.8875L76.2423 44.8828L76.2423 44.8828L77.9771 43.8875ZM69.647 35.5234L70.6493 33.7927L70.6493 33.7927L69.647 35.5234ZM49.1672 68.7919L50.2779 67.1287L50.2779 67.1287L49.1672 68.7919ZM58.2467 71.5435L58.2467 69.5435L58.2461 69.5435L58.2467 71.5435ZM43.1468 61.4595L44.9944 60.6937L44.9944 60.6937L43.1468 61.4595ZM46.6861 43.6503L48.1005 45.0643L48.1005 45.0643L46.6861 43.6503ZM64.4943 40.1061L63.729 41.9539L63.7291 41.9539L64.4943 40.1061ZM74.5826 55.2031L72.5826 55.2031L72.5826 55.2037L74.5826 55.2031ZM73.3404 61.456L75.1883 62.2209L75.1883 62.2209L73.3404 61.456ZM69.7995 66.7573L71.2139 68.1713L69.7995 66.7573ZM64.4992 70.2996L63.7337 68.4519L63.7337 68.4519L64.4992 70.2996ZM53.9634 49.5436L54.0312 51.5425L54.8703 51.514L55.4377 50.8951L53.9634 49.5436ZM55.3304 41.6878L57.33 41.6468L57.2801 39.2201L54.9078 39.733L55.3304 41.6878ZM46.0574 48.6596L44.2969 47.7107L43.325 49.5139L45.1509 50.4424L46.0574 48.6596ZM49.9294 44.157L51.1313 45.7555L51.1313 45.7555L49.9294 44.157ZM44.4535 54.2416L45.0385 52.3291L42.4535 51.5384V54.2416H44.4535ZM44.4375 54.7224L42.44 54.6232L42.44 54.6232L44.4375 54.7224ZM51.2886 57.6045L53.1839 58.2429L53.5436 57.1751L52.8167 56.3143L51.2886 57.6045ZM47.3926 63.7652L45.8243 65.0065L47.3587 66.9449L48.934 65.0396L47.3926 63.7652ZM44.4216 55.2031L46.4216 55.2062V55.2031H44.4216ZM70.3083 48.45L71.4635 50.0827L72.9338 49.0424L72.0527 47.4716L70.3083 48.45ZM66.4353 44.0695L65.2505 45.6808L65.2505 45.6808L66.4353 44.0695ZM62.8809 49.5664L61.0067 50.2647L61.4847 51.5475L62.8535 51.5662L62.8809 49.5664ZM61.0992 41.6787L61.513 39.722L59.3003 39.254L59.1066 41.5074L61.0992 41.6787ZM54.4708 57.5308L52.7696 58.5823L52.7696 58.5823L54.4708 57.5308ZM57.2266 59.5169L56.7672 61.4634L56.7672 61.4634L57.2266 59.5169ZM53.8652 55.9084L51.891 56.2289L51.891 56.2289L53.8652 55.9084ZM53.9265 54.1778L51.98 53.7184L51.98 53.7184L53.9265 54.1778ZM55.9126 51.422L54.8611 49.7208L54.8611 49.7208L55.9126 51.422ZM59.2656 50.8777L58.8062 52.8243L58.8062 52.8243L59.2656 50.8777ZM62.0214 52.8638L60.3202 53.9154L60.3202 53.9154L62.0214 52.8638ZM62.5657 56.2168L64.5122 56.6763L64.5122 56.6762L62.5657 56.2168ZM60.5796 58.9726L61.6312 60.6739L61.6312 60.6739L60.5796 58.9726ZM58.0553 62.1658L59.1579 60.4972L58.0565 59.7694L56.9544 60.4961L58.0553 62.1658ZM52.3731 67.725L50.3974 67.4139L50.163 68.9025L51.5293 69.5383L52.3731 67.725ZM64.0884 67.725L64.9322 69.5383L66.8806 68.6317L65.8365 66.7533L64.0884 67.725ZM72.0262 54.0958L74.0206 53.9462L73.8363 51.4885L71.4692 52.175L72.0262 54.0958ZM64.5167 57.8323L62.8711 56.6957L62.2776 57.555L62.6436 58.5332L64.5167 57.8323ZM72.0672 55.1849L70.0672 55.1849L70.0672 55.1876L72.0672 55.1849ZM68.7181 64.2118L67.1751 65.4842L68.6834 67.3133L70.2323 65.5183L68.7181 64.2118ZM49.5455 36.3743C52.2722 35.1121 55.2411 34.459 58.2457 34.4605L58.2476 30.4605C54.662 30.4588 51.1191 31.2381 47.8652 32.7443L49.5455 36.3743ZM42.4566 41.7692C44.3997 39.4774 46.8188 37.6365 49.5455 36.3743L47.8652 32.7443C44.6113 34.2505 41.7245 36.4475 39.4056 39.1823L42.4566 41.7692ZM41.132 35.4334C40.5055 35.883 39.4902 36.8187 38.8609 37.808C38.5892 38.235 38.1029 39.1019 38.2278 40.1216C38.3018 40.7253 38.584 41.3083 39.088 41.751C39.552 42.1586 40.0883 42.3468 40.5389 42.4369L41.3233 38.5146C41.3012 38.5102 41.4958 38.542 41.7277 38.7457C41.9996 38.9845 42.1591 39.3161 42.1982 39.6351C42.2308 39.9013 42.17 40.067 42.1674 40.0743C42.1613 40.0916 42.1737 40.0526 42.2358 39.955C42.3616 39.7573 42.5744 39.5001 42.8362 39.2364C43.096 38.9747 43.3346 38.7761 43.4643 38.683L41.132 35.4334ZM42.5396 34.7069C40.7803 35.6582 40.78 35.6575 40.7797 35.6569C40.7795 35.6567 40.7792 35.6561 40.779 35.6557C40.7785 35.6549 40.7781 35.6541 40.7777 35.6533C40.7769 35.6517 40.7761 35.6503 40.7753 35.6489C40.7739 35.6461 40.7726 35.6436 40.7714 35.6415C40.7692 35.6372 40.7675 35.634 40.7665 35.632C40.7645 35.6281 40.7648 35.6285 40.7668 35.6327C40.771 35.6415 40.781 35.6633 40.7931 35.6944C40.8206 35.7643 40.842 35.8378 40.8508 35.8943C40.8606 35.9576 40.8419 35.9166 40.8727 35.8092C40.9144 35.6637 41.0133 35.5188 41.1299 35.4349L43.4664 38.6815C44.8914 37.656 44.933 36.1187 44.8038 35.283C44.7368 34.8497 44.6144 34.4823 44.517 34.2338C44.4667 34.1057 44.419 33.9989 44.3811 33.919C44.362 33.8788 44.3451 33.8447 44.3312 33.8174C44.3243 33.8037 44.3181 33.7917 44.3126 33.7814C44.3099 33.7763 44.3074 33.7715 44.3051 33.7673C44.304 33.7651 44.3029 33.7631 44.3019 33.7611C44.3014 33.7602 44.3009 33.7592 44.3004 33.7583C44.3001 33.7579 44.2998 33.7572 44.2996 33.757C44.2993 33.7563 44.2989 33.7557 42.5396 34.7069ZM38.4489 33.4424C39.6154 34.5193 40.2636 35.1695 40.6088 35.535C40.7808 35.7172 40.8711 35.8218 40.9093 35.8677C40.9281 35.8902 40.9321 35.8959 40.9255 35.8873C40.9222 35.8829 40.9158 35.8743 40.9071 35.8621C40.9027 35.8559 40.8976 35.8488 40.892 35.8406C40.8892 35.8366 40.8862 35.8322 40.8831 35.8276C40.8816 35.8253 40.88 35.823 40.8784 35.8206C40.8775 35.8193 40.8767 35.8181 40.8759 35.8169C40.8755 35.8163 40.8749 35.8153 40.8746 35.815C40.874 35.814 40.8734 35.8131 42.5396 34.7069C44.2059 33.6008 44.2053 33.5998 44.2046 33.5988C44.2044 33.5985 44.2038 33.5976 44.2033 33.5969C44.2025 33.5957 44.2016 33.5944 44.2008 33.5931C44.1991 33.5905 44.1973 33.588 44.1956 33.5854C44.1921 33.5803 44.1886 33.5752 44.1851 33.57C44.1779 33.5597 44.1706 33.5492 44.163 33.5385C44.1478 33.5173 44.1314 33.4949 44.1135 33.4714C44.078 33.4246 44.0353 33.3708 43.9833 33.3082C43.8798 33.1839 43.7317 33.016 43.517 32.7886C43.0887 32.3351 42.3698 31.6182 41.1623 30.5034L38.4489 33.4424ZM46.0058 31.9951C45.1339 31.3515 44.0488 30.645 42.927 30.2043C41.8745 29.7907 40.3084 29.4241 38.8513 30.2153L40.7599 33.7305C40.6288 33.8017 40.751 33.647 41.4642 33.9272C42.1082 34.1802 42.8662 34.6493 43.6302 35.2133L46.0058 31.9951ZM48.0594 34.2987C47.8035 34.2156 47.4963 34.0549 47.2299 33.7643C46.9589 33.4684 46.8131 33.1281 46.7534 32.8172C46.6478 32.2676 46.8128 31.8551 46.8595 31.744C46.9259 31.5865 46.9964 31.4864 47.0211 31.4524C47.052 31.41 47.0723 31.3888 47.0729 31.3882C47.0737 31.3873 47.0433 31.4185 46.9757 31.4689C46.9112 31.5172 46.8276 31.5719 46.7294 31.6246C46.2889 31.8612 45.9015 31.8936 45.6111 31.7682L44.0249 35.4402C45.8442 36.2261 47.5689 35.7141 48.6218 35.1486C49.1564 34.8616 49.6305 34.5046 49.977 34.1388C50.1233 33.9844 50.3796 33.6919 50.5463 33.2958C50.6201 33.1205 50.7952 32.6538 50.6815 32.0623C50.5294 31.2706 49.956 30.7092 49.2957 30.4946L48.0594 34.2987ZM37.797 30.6968C38.9957 30.9208 40.8441 31.2673 42.7206 31.819C44.6454 32.3848 46.3629 33.1014 47.4239 33.955L49.9312 30.8383C48.237 29.4755 45.8939 28.5826 43.8488 27.9814C41.7555 27.366 39.7249 26.9878 38.5315 26.7648L37.797 30.6968ZM37.7899 30.6955L37.79 30.6955L38.5385 26.7661L38.5384 26.7661L37.7899 30.6955ZM37.0648 30.5571C37.2702 30.5984 37.5235 30.6457 37.7968 30.6968L38.5314 26.7648C38.2482 26.7119 38.0256 26.6703 37.853 26.6356L37.0648 30.5571ZM26.1704 25.0526C27.0522 26.0482 28.0233 27.1582 29.7287 28.1407C31.3944 29.1003 33.6436 29.878 37.0695 30.5581L37.8483 26.6346C34.6276 25.9953 32.8563 25.3262 31.7255 24.6747C30.6344 24.0462 30.0331 23.3809 29.1647 22.4004L26.1704 25.0526ZM25.1739 23.9652C25.5268 24.3265 25.8381 24.6775 26.1704 25.0526L29.1647 22.4004C28.8385 22.0322 28.4662 21.6113 28.0356 21.1704L25.1739 23.9652ZM34.4598 31.7254C32.8772 30.3938 31.6248 29.3269 30.6364 27.9447C29.6858 26.6154 28.9299 24.9131 28.5877 22.3074L24.6218 22.8282C25.0416 26.0256 26.0165 28.3609 27.3827 30.2714C28.7112 32.1291 30.3615 33.5047 31.8845 34.7861L34.4598 31.7254ZM34.7279 31.9512L34.4602 31.7258L31.8841 34.7858L32.1518 35.0112L34.7279 31.9512ZM30.7629 37.6788C31.0434 37.8658 31.3323 37.9516 31.3755 37.9654C31.4948 38.0034 31.6184 38.0356 31.7335 38.0624C31.967 38.1167 32.2461 38.1674 32.5425 38.2052C33.0785 38.2734 33.9192 38.3332 34.6956 38.1509C35.0814 38.0603 35.6811 37.8585 36.1768 37.3504C36.7621 36.7505 36.9805 35.9543 36.8707 35.1784C36.7764 34.5117 36.4565 33.9401 36.138 33.4937C35.8026 33.0236 35.3546 32.5359 34.8093 32.0236L32.0704 34.9388C32.5048 35.3469 32.752 35.635 32.8819 35.817C33.0287 36.0227 32.9442 35.9795 32.9102 35.7387C32.8902 35.5976 32.8886 35.3897 32.9623 35.1509C33.0374 34.9075 33.1679 34.7065 33.3138 34.557C33.4517 34.4156 33.5834 34.34 33.6587 34.3037C33.7338 34.2675 33.7808 34.2569 33.7812 34.2568C33.7838 34.2562 33.7639 34.2608 33.7171 34.2651C33.6715 34.2693 33.6119 34.2722 33.5386 34.272C33.3894 34.2716 33.2189 34.259 33.048 34.2372C32.8771 34.2155 32.7324 34.188 32.6401 34.1665C32.5923 34.1553 32.5774 34.1502 32.5896 34.1541C32.5952 34.1559 32.6253 34.1655 32.6706 34.184C32.6947 34.1939 32.8253 34.2463 32.9817 34.3506L30.7629 37.6788ZM13.6747 18.6302C14.4415 21.1264 16.3778 25.26 19.2899 29.0831C22.1869 32.8865 26.2571 36.6543 31.3808 37.9534L32.3639 34.0761C28.5016 33.0968 25.124 30.1411 22.472 26.6594C19.8351 23.1975 18.1215 19.4843 17.4984 17.4557L13.6747 18.6302ZM34.5919 48.9462C31.0917 46.0617 25.9648 41.8253 22.1288 36.5301C18.3046 31.2509 15.9436 25.1726 17.5321 18.5066L13.6411 17.5793C11.6775 25.819 14.7004 33.094 18.8895 38.8767C23.0669 44.6433 28.5827 49.1774 32.0481 52.0331L34.5919 48.9462ZM34.4294 48.8256L34.4294 48.8256L32.2106 52.1538L32.2106 52.1538L34.4294 48.8256ZM35.6212 49.7969C35.2984 49.5284 34.9528 49.2436 34.592 48.9462L32.0481 52.0331C32.4106 52.3319 32.7487 52.6105 33.063 52.8719L35.6212 49.7969ZM15.7072 42.3796C16.4513 43.884 18.3824 47.8219 21.488 50.7625C23.0594 52.2504 25.02 53.5708 27.3748 54.1435C29.7716 54.7264 32.4118 54.4932 35.2147 53.134L33.4694 49.5349C31.4433 50.5174 29.7517 50.605 28.3201 50.2568C26.8465 49.8984 25.4822 49.0359 24.2383 47.858C21.7133 45.4672 20.0524 42.1425 19.2926 40.6062L15.7072 42.3796ZM15.6933 42.351L15.6933 42.351L19.3064 40.6348L19.3064 40.6347L15.6933 42.351ZM15.5748 42.1129C15.6133 42.1898 15.6566 42.2774 15.7071 42.3795L19.2925 40.6061C19.2431 40.5062 19.1956 40.4102 19.1526 40.3241L15.5748 42.1129ZM38.8305 64.4086C36.7174 63.971 32.4418 62.7111 28.4141 59.2942C24.431 55.9151 20.5621 50.3217 19.3471 40.9611L15.3803 41.4759C16.7216 51.8094 21.0731 58.3119 25.8264 62.3444C30.535 66.339 35.5119 67.8062 38.0193 68.3255L38.8305 64.4086ZM47.7031 73.0761C44.5584 71.2205 41.959 68.5677 40.1677 65.3859L36.6821 67.3483C38.8188 71.1435 41.9193 74.3077 45.6704 76.5211L47.7031 73.0761ZM58.078 75.9542C54.4267 75.9245 50.8479 74.9317 47.7031 73.0761L45.6704 76.5211C49.4215 78.7344 53.6902 79.9186 58.0455 79.954L58.078 75.9542ZM68.4983 73.2451C65.3238 75.0494 61.7293 75.9838 58.078 75.9542L58.0455 79.954C62.4008 79.9894 66.6882 78.8748 70.4748 76.7227L68.4983 73.2451ZM76.1578 65.6785C74.315 68.8308 71.6728 71.4409 68.4983 73.2451L70.4748 76.7227C74.2614 74.5706 77.4129 71.4573 79.611 67.6972L76.1578 65.6785ZM78.9937 55.292C78.9788 58.9434 78.0006 62.5262 76.1578 65.6785L79.611 67.6972C81.8091 63.9372 82.976 59.6636 82.9937 55.3082L78.9937 55.292ZM76.2423 44.8828C78.0595 48.05 79.0085 51.6406 78.9937 55.292L82.9937 55.3082C83.0114 50.9529 81.8793 46.67 79.7118 42.8922L76.2423 44.8828ZM68.6446 37.2541C71.8044 39.0841 74.4252 41.7156 76.2423 44.8828L79.7118 42.8922C77.5443 39.1144 74.4182 35.9756 70.6493 33.7927L68.6446 37.2541ZM58.2467 34.4605C61.8981 34.4605 65.4849 35.4241 68.6446 37.2541L70.6493 33.7927C66.8804 31.6099 62.6021 30.4605 58.2467 30.4605L58.2467 34.4605ZM48.0565 70.4551C51.0732 72.4698 54.6196 73.5445 58.2472 73.5435L58.2461 69.5435C55.4097 69.5443 52.6367 68.7039 50.2779 67.1287L48.0565 70.4551ZM41.2992 62.2252C42.6882 65.5764 45.0397 68.4404 48.0565 70.4551L50.2779 67.1287C47.9191 65.5534 46.0804 63.314 44.9944 60.6937L41.2992 62.2252ZM40.2535 51.6282C39.5464 55.1862 39.9103 58.874 41.2992 62.2252L44.9944 60.6937C43.9084 58.0734 43.6239 55.1899 44.1768 52.4079L40.2535 51.6282ZM45.2717 42.2363C42.7069 44.8017 40.9606 48.0702 40.2535 51.6282L44.1768 52.4079C44.7296 49.6258 46.0951 47.0702 48.1005 45.0643L45.2717 42.2363ZM54.6622 37.2154C51.1044 37.9235 47.8364 39.6708 45.2717 42.2363L48.1005 45.0643C50.1059 43.0584 52.6611 41.6922 55.443 41.1385L54.6622 37.2154ZM65.2595 38.2583C61.908 36.8703 58.22 36.5074 54.6622 37.2154L55.443 41.1385C58.2249 40.5849 61.1084 40.8686 63.729 41.9539L65.2595 38.2583ZM73.4913 45.0132C71.4758 41.997 68.6111 39.6463 65.2595 38.2583L63.7291 41.9539C66.3497 43.0392 68.5896 44.8772 70.1655 47.2356L73.4913 45.0132ZM76.5826 55.2031C76.5826 51.5755 75.5068 48.0294 73.4913 45.0132L70.1655 47.2356C71.7414 49.5939 72.5826 52.3667 72.5826 55.2031H76.5826ZM75.1883 62.2209C76.1095 59.9957 76.5832 57.6109 76.5826 55.2025L72.5826 55.2037C72.5831 57.0866 72.2127 58.9512 71.4925 60.691L75.1883 62.2209ZM71.2139 68.1713C72.9166 66.4681 74.2671 64.4461 75.1883 62.2209L71.4925 60.691C70.7722 62.4308 69.7164 64.0116 68.3851 65.3432L71.2139 68.1713ZM65.2647 72.1473C67.4896 71.2255 69.5112 69.8745 71.2139 68.1713L68.3851 65.3432C67.0538 66.6749 65.4733 67.7312 63.7337 68.4519L65.2647 72.1473ZM58.2467 73.5435C60.655 73.5435 63.0398 73.0691 65.2647 72.1473L63.7337 68.4519C61.9941 69.1726 60.1296 69.5435 58.2467 69.5435V73.5435ZM55.4377 50.8951C56.056 50.2206 56.4164 49.3624 56.6455 48.614C56.8846 47.833 57.0374 46.9787 57.1379 46.1576C57.3389 44.514 57.3536 42.799 57.33 41.6468L53.3308 41.7289C53.3527 42.7958 53.3355 44.2978 53.1675 45.672C53.0833 46.3597 52.9673 46.9644 52.8208 47.443C52.6643 47.954 52.5223 48.1559 52.4891 48.1922L55.4377 50.8951ZM45.1509 50.4424C46.4743 51.1153 48.3029 51.3672 49.8096 51.4789C51.4012 51.5969 52.9891 51.5779 54.0312 51.5425L53.8955 47.5448C52.9235 47.5778 51.4949 47.5929 50.1053 47.4899C48.6307 47.3806 47.5134 47.1563 46.964 46.8769L45.1509 50.4424ZM48.7276 42.5584C46.8958 43.9356 45.3842 45.6934 44.2969 47.7107L47.818 49.6086C48.6311 48.0999 49.7615 46.7854 51.1313 45.7555L48.7276 42.5584ZM54.9078 39.733C52.6678 40.2173 50.5593 41.1812 48.7276 42.5584L51.1313 45.7555C52.5012 44.7256 54.0779 44.0048 55.753 43.6427L54.9078 39.733ZM42.4535 54.2416C42.4535 54.3431 42.4484 54.454 42.44 54.6232L46.4351 54.8215C46.4426 54.6695 46.4535 54.4591 46.4535 54.2416H42.4535ZM52.8167 56.3143C51.8522 55.1719 50.2441 54.3278 48.9229 53.7447C47.5123 53.1222 46.0393 52.6352 45.0385 52.3291L43.8685 56.1542C44.8042 56.4404 46.1063 56.8739 47.3078 57.4042C48.5988 57.974 49.4399 58.5151 49.7604 58.8947L52.8167 56.3143ZM48.934 65.0396C49.436 64.4323 50.2689 63.3841 51.0789 62.1911C51.8679 61.0292 52.728 59.5965 53.1839 58.2429L49.3932 56.9661C49.1155 57.7906 48.5061 58.8596 47.7697 59.9441C47.0544 60.9976 46.306 61.9407 45.8511 62.4908L48.934 65.0396ZM42.4216 55.2C42.416 58.7593 43.6154 62.2156 45.8243 65.0065L48.9608 62.5239C47.3124 60.4414 46.4174 57.8622 46.4216 55.2062L42.4216 55.2ZM42.44 54.6232C42.4324 54.7752 42.4216 54.9856 42.4216 55.2031H46.4216C46.4216 55.1016 46.4267 54.9907 46.4351 54.8215L42.44 54.6232ZM72.0527 47.4716C70.9489 45.5039 69.4377 43.7946 67.6201 42.4582L65.2505 45.6808C66.6093 46.6799 67.739 47.9576 68.564 49.4285L72.0527 47.4716ZM62.8535 51.5662C64.0545 51.5827 65.643 51.5605 67.1468 51.3923C67.8989 51.3081 68.6689 51.1833 69.379 50.994C70.0656 50.811 70.8241 50.5351 71.4635 50.0827L69.1532 46.8174C69.0681 46.8776 68.827 47.0015 68.3488 47.1289C67.8943 47.2501 67.3346 47.3463 66.702 47.4171C65.4364 47.5587 64.0358 47.5821 62.9083 47.5666L62.8535 51.5662ZM59.1066 41.5074C58.9766 43.0185 59.3528 44.865 59.751 46.3661C60.167 47.9338 60.686 49.4038 61.0067 50.2647L64.755 48.8681C64.4561 48.0659 63.9863 46.7312 63.6173 45.3404C63.2307 43.8831 63.0259 42.6173 63.0918 41.8501L59.1066 41.5074ZM67.6201 42.4582C65.8024 41.1217 63.7203 40.1888 61.513 39.722L60.6854 43.6354C62.3354 43.9844 63.8918 44.6818 65.2505 45.6808L67.6201 42.4582ZM52.7696 58.5823C53.6673 60.0348 55.1053 61.0712 56.7672 61.4634L57.686 57.5704C57.0567 57.4218 56.5121 57.0293 56.1721 56.4793L52.7696 58.5823ZM51.891 56.2289C52.0265 57.0635 52.325 57.8632 52.7696 58.5823L56.1721 56.4793C56.0037 56.2069 55.8907 55.904 55.8394 55.588L51.891 56.2289ZM51.98 53.7184C51.7858 54.5413 51.7556 55.3943 51.891 56.2289L55.8394 55.588C55.7881 55.2719 55.7995 54.9489 55.8731 54.6372L51.98 53.7184ZM54.8611 49.7208C53.4086 50.6185 52.3723 52.0565 51.98 53.7184L55.8731 54.6372C56.0216 54.0079 56.4141 53.4633 56.9642 53.1233L54.8611 49.7208ZM57.2145 48.8422C56.38 48.9777 55.5803 49.2762 54.8611 49.7208L56.9642 53.1233C57.2365 52.9549 57.5394 52.8419 57.8554 52.7906L57.2145 48.8422ZM59.725 48.9312C58.9022 48.737 58.0491 48.7068 57.2145 48.8422L57.8554 52.7906C58.1715 52.7393 58.4946 52.7507 58.8062 52.8243L59.725 48.9312ZM62.0104 49.9742C61.3245 49.4798 60.5479 49.1254 59.725 48.9312L58.8062 52.8243C59.1178 52.8978 59.4119 53.032 59.6717 53.2192L62.0104 49.9742ZM63.7227 51.8123C63.2781 51.0931 62.6963 50.4685 62.0104 49.9742L59.6717 53.2192C59.9315 53.4065 60.1518 53.643 60.3202 53.9154L63.7227 51.8123ZM64.5122 56.6762C64.9044 55.0144 64.6204 53.2648 63.7227 51.8123L60.3202 53.9154C60.6602 54.4654 60.7677 55.128 60.6192 55.7574L64.5122 56.6762ZM61.6312 60.6739C63.0836 59.7761 64.12 58.3381 64.5122 56.6763L60.6192 55.7574C60.4706 56.3868 60.0781 56.9314 59.5281 57.2714L61.6312 60.6739ZM56.7672 61.4634C58.4291 61.8556 60.1787 61.5716 61.6312 60.6739L59.5281 57.2714C58.978 57.6114 58.3154 57.7189 57.686 57.5704L56.7672 61.4634ZM56.9544 60.4961C55.8841 61.2017 54.4415 62.218 53.2105 63.3121C52.5964 63.858 51.9902 64.4624 51.5028 65.0924C51.0427 65.6871 50.5433 66.4873 50.3974 67.4139L54.3487 68.0361C54.3395 68.0947 54.3596 67.9367 54.6665 67.54C54.9462 67.1785 55.3548 66.7579 55.8679 66.3018C56.8914 65.3921 58.1532 64.4969 59.1562 63.8355L56.9544 60.4961ZM65.8365 66.7533C65.1569 65.5307 63.8698 64.248 62.6972 63.2185C61.4714 62.1424 60.1401 61.1462 59.1579 60.4972L56.9527 63.8344C57.7841 64.3838 58.9704 65.2695 60.0583 66.2245C61.1993 67.2263 62.022 68.1239 62.3403 68.6967L65.8365 66.7533ZM58.2307 71.0211C60.5459 71.0211 62.8331 70.515 64.9322 69.5383L63.2446 65.9117C61.6742 66.6425 59.9629 67.0211 58.2307 67.0211V71.0211ZM51.5293 69.5383C53.6283 70.515 55.9155 71.0211 58.2307 71.0211V67.0211C56.4986 67.0211 54.7873 66.6425 53.2168 65.9117L51.5293 69.5383ZM71.4692 52.175C70.524 52.4491 68.8607 52.9682 67.2524 53.6635C66.4487 54.0108 65.6169 54.42 64.879 54.8872C64.1699 55.3363 63.4001 55.9298 62.8711 56.6957L66.1624 58.969C66.2439 58.8509 66.4904 58.6014 67.019 58.2667C67.5188 57.9502 68.1462 57.6348 68.8395 57.3351C70.2249 56.7362 71.7058 56.2712 72.5833 56.0167L71.4692 52.175ZM74.0672 55.1849C74.0672 54.7843 74.0517 54.3607 74.0206 53.9462L70.0318 54.2454C70.0554 54.56 70.0672 54.8838 70.0672 55.1849H74.0672ZM70.2323 65.5183C72.711 62.6457 74.0724 58.9764 74.0672 55.1821L70.0672 55.1876C70.0711 58.0206 69.0546 60.7603 67.2038 62.9052L70.2323 65.5183ZM62.6436 58.5332C63.1184 59.8023 64.0011 61.2162 64.8289 62.4055C65.6805 63.629 66.5759 64.7577 67.1751 65.4842L70.261 62.9393C69.7028 62.2623 68.8803 61.2243 68.112 60.1204C67.3199 58.9825 66.6806 57.9083 66.3899 57.1315L62.6436 58.5332Z" mask="url(#path-2-outside-1_704_1045)"/>
</svg>
