<svg width="100" height="100" viewBox="0 0 100 100" fill="currentColor" xmlns="http://www.w3.org/2000/svg">
<path fill-rule="evenodd" clip-rule="evenodd" d="M50 90C72.0914 90 90 72.0914 90 50C90 27.9086 72.0914 10 50 10C27.9086 10 10 27.9086 10 50C10 72.0914 27.9086 90 50 90ZM83 50C83 68.2254 68.2254 83 50 83C31.7746 83 17 68.2254 17 50C17 31.7746 31.7746 17 50 17C68.2254 17 83 31.7746 83 50ZM77.5719 36.8684C79.4699 40.8463 80.5325 45.2994 80.5325 50.0007C80.5325 52.9274 80.1207 55.7579 79.352 58.4374C74.8084 56.6905 71.5886 52.329 71.5886 47.225C71.5886 42.817 73.9901 38.9628 77.5719 36.8684ZM22.2428 54.6269C22.2428 56.5655 21.8663 58.417 21.1817 60.1138C20.071 56.9487 19.4671 53.5452 19.4671 50.0007C19.4671 48.7631 19.5407 47.5427 19.6838 46.3436C21.2993 48.7076 22.2428 51.5582 22.2428 54.6269ZM49.9998 80.5334C53.717 80.5334 57.2792 79.8692 60.5739 78.6528C57.8177 73.1854 52.1153 69.4306 45.5278 69.4306C40.4337 69.4306 35.8689 71.676 32.7865 75.2223C37.6872 78.5735 43.6146 80.5334 49.9998 80.5334ZM46.2994 64.8038C58.2225 64.8038 67.8881 55.2072 67.8881 43.3692C67.8881 31.5312 58.2225 21.9346 46.2994 21.9346C34.3762 21.9346 24.7106 31.5312 24.7106 43.3692C24.7106 55.2072 34.3762 64.8038 46.2994 64.8038ZM48.6631 53.3823C47.4246 53.7995 46.183 54.0021 44.9385 53.9899C43.6985 53.9684 42.5073 53.6801 41.365 53.125C40.2226 52.5699 39.1773 51.697 38.2292 50.5063C37.288 49.3132 36.4957 47.7503 35.8523 45.8175C35.2788 44.0923 34.9781 42.4677 34.9501 40.9439C34.9291 39.4178 35.1602 38.034 35.6434 36.7926C36.1336 35.5488 36.8598 34.4798 37.8221 33.5855C38.782 32.6843 39.9574 31.9994 41.3482 31.5309C42.9119 31.0041 44.3903 30.8412 45.7832 31.0423C47.1761 31.2433 48.3956 31.7301 49.4417 32.5026C50.4924 33.2658 51.2805 34.233 51.8061 35.4043L46.1184 37.3203C45.7841 36.7626 45.3316 36.4258 44.761 36.3099C44.1949 36.1847 43.6074 36.2247 42.9985 36.4298C41.7876 36.8377 41.0756 37.6631 40.8625 38.906C40.6564 40.1465 40.8354 41.6271 41.3997 43.3478L41.5242 43.3058C41.5749 42.5645 41.7955 41.87 42.186 41.2222C42.5765 40.5745 43.093 40.0037 43.7356 39.5098C44.3782 39.016 45.1043 38.6327 45.9139 38.36C47.2009 37.9264 48.4232 37.8383 49.5807 38.0955C50.7452 38.3504 51.7675 38.892 52.6475 39.7204C53.5276 40.5489 54.1832 41.6146 54.6145 42.9178C55.1343 44.4377 55.2232 45.8909 54.8812 47.2773C54.5462 48.6615 53.8447 49.884 52.7768 50.9448C51.7088 52.0057 50.3376 52.8182 48.6631 53.3823ZM47.1531 49.0371C47.7274 48.8436 48.1917 48.5408 48.546 48.1287C48.9071 47.7143 49.1354 47.2368 49.2306 46.6962C49.3328 46.1533 49.2825 45.5923 49.0798 45.0135C48.8886 44.423 48.5892 43.946 48.1817 43.5825C47.7788 43.2097 47.3081 42.9676 46.7698 42.8562C46.2384 42.7424 45.6855 42.7823 45.1112 42.9758C44.6891 43.118 44.3238 43.3258 44.0153 43.5992C43.7114 43.8634 43.4745 44.1781 43.3048 44.5435C43.1328 44.9019 43.0336 45.2936 43.0073 45.7185C42.9855 46.1342 43.0446 46.5612 43.1845 46.9994C43.3872 47.5783 43.6935 48.053 44.1034 48.4234C44.5132 48.7938 44.9839 49.0359 45.5153 49.1497C46.0467 49.2634 46.5926 49.2259 47.1531 49.0371Z" fill="currentColor"/>
</svg>
