<svg xmlns="http://www.w3.org/2000/svg" viewBox="0 0 64 64" fill="currentColor"><path xmlns="http://www.w3.org/2000/svg" id="icon_sy_zc_tzjl_icon_sy_zc_tzjl" d="M-5600.436-1395.588v-2.023c3.267,1.892,8.893,2.023,10.37,2.023s7.112-.131,10.381-2.023v2.023c0,1.767-4.644,3.2-10.381,3.2S-5600.436-1393.821-5600.436-1395.588Zm-17.565-3.195v-3.615c3.515,1.879,9.579,2.023,11.184,2.023.677,0,2.2-.031,3.986-.21v4.773a34.741,34.741,0,0,1-3.986.224C-5613-1395.588-5618-1397.024-5618-1398.782Zm41.19,1.779v-11.453l-.051.03c-.292-1.63-1.77-2.89-4.395-3.748a26.879,26.879,0,0,0-8.006-1.083,32.793,32.793,0,0,0-3.873.221,3.221,3.221,0,0,0,.359-1.5v-14.536l0,0c-.184-3.848-6.735-4.884-10.625-5.159V-1451a6.007,6.007,0,0,1,6-6h33.4a6.007,6.007,0,0,1,6,6v48a6.007,6.007,0,0,1-6,6Zm-9.808-29.284a1.918,1.918,0,0,0,1.916,1.915h17.73a1.917,1.917,0,0,0,1.915-1.915,1.918,1.918,0,0,0-1.915-1.916h-17.73A1.919,1.919,0,0,0-5586.618-1426.287Zm-9.729-10.218a1.918,1.918,0,0,0,1.916,1.916h27.458a1.918,1.918,0,0,0,1.915-1.916,1.918,1.918,0,0,0-1.915-1.916h-27.458A1.918,1.918,0,0,0-5596.347-1436.505Zm0-10.216a1.917,1.917,0,0,0,1.916,1.915h27.458a1.917,1.917,0,0,0,1.915-1.915,1.917,1.917,0,0,0-1.915-1.916h-27.458A1.917,1.917,0,0,0-5596.347-1446.722Zm-4.089,45.544v-2.023c3.267,1.891,8.893,2.023,10.37,2.023s7.112-.132,10.381-2.023v2.023c0,1.767-4.644,3.2-10.381,3.2S-5600.436-1399.411-5600.436-1401.178Zm-17.565-4.788v-3.619c3.515,1.879,9.579,2.023,11.184,2.023a40.954,40.954,0,0,0,4.162-.226,3.121,3.121,0,0,0-.113.485l-.063-.049V-1403a33.822,33.822,0,0,1-3.986.228C-5613-1402.771-5618-1404.211-5618-1405.966Zm17.843-1c0-1.786,4.718-3.25,10.535-3.25s10.545,1.464,10.545,3.25-4.718,3.239-10.545,3.239S-5600.158-1405.178-5600.158-1406.964Zm-17.843-6.178v-3.626c3.526,1.891,9.579,2.027,11.184,2.027s7.658-.137,11.171-2.027v3.626c0,1.755-5,3.188-11.171,3.188S-5618-1411.387-5618-1413.143Zm0-7.191v-3.622c3.526,1.893,9.579,2.026,11.184,2.026s7.658-.133,11.171-2.026v3.622c0,1.767-5,3.2-11.171,3.2S-5618-1418.567-5618-1420.333Zm0-7.711c0-1.786,5.09-3.247,11.356-3.247s11.348,1.461,11.348,3.247-5.088,3.237-11.348,3.237S-5618-1426.255-5618-1428.044Z" transform="translate(5618 1457)"/></svg>
