<svg class="icon" viewBox="0 0 24 24" xmlns="http://www.w3.org/2000/svg" width="200" height="200"><path xmlns="http://www.w3.org/2000/svg" id="icon_game_menu_active_0_icon_dtfl_rm_0" d="M2415.871,308.38l-.119-.032c-3.5-.973-6.83-3.291-6.612-7.284a7.612,7.612,0,0,1,1.1-3.46,5.643,5.643,0,0,0,.574-4.431,3.126,3.126,0,0,1,2.606,1.595c3.228-1.984,2.722-5.212,2.256-6.768,6.029.622,7.663,4.2,7.857,8.051,1.711-.389,1.595-2.645,1.361-3.306,4.434,4.239,3.656,9.3,2.684,11.007a8.052,8.052,0,0,1-5.406,4.395c2.528-3.15.661-5.251-1.011-8.051-1.05-1.711-1.05-2.878-.778-3.578a4.719,4.719,0,0,0-2.995,5.1,2.47,2.47,0,0,1-1.051-3.228C2412.409,301.535,2413.42,305.385,2415.871,308.38Z" transform="translate(-2409.13 -288)"/></svg>
