<svg xmlns="http://www.w3.org/2000/svg" viewBox="0 0 24 24" fill="currentColor"><path xmlns="http://www.w3.org/2000/svg" id="icon_game_menu_active_4_icon_dtfl_zr_0" d="M15.94,7.81c-.016-1.373-1-2.274-1.639-3.1l-.787-.725c-.6-1.088.976-2.679,1.574-2.965.835.16,1.384.98,1.836,1.548a8.614,8.614,0,0,1,1.41,2.043c.472,1.143.646,2.462,1.016,3.69l.656,1.516a2.572,2.572,0,0,1-.525,1.483c-.091.108-.242.069-.3.231-.344,1.053-.338,2.446-1.016,3.163a4.6,4.6,0,0,0,2.525,3.756c.708.254,1.483.046,2.131.264a4.707,4.707,0,0,1,2.459,2.405c.238.47,1.267,3.787.361,4.25-.741-.371-.439-1.863-.623-2.8-.173-.988-1.045-2.72-1.836-3.064a3.417,3.417,0,0,0-1.476-.1c-.313.05-.616-.045-.82.1l-.3.56-.492.955c-.109,1.384-.219,2.781-.328,4.151l-.2.165-1.672-.165H14.825l-.1-.066c.168-.52,1.352-.67,1.8-.923a6.049,6.049,0,0,0,2.82-3.459c.115-.308.528-.82.459-1.153l-.066-.165c-1.824-.486-2.755.313-3.967-1.054-.1-.145-.34-.168-.426-.362-.324-.736.021-1.889-.2-2.767l-.2.066c-.4.869-2.083,2.357-3.541,1.746-.776-.325-1.51-1.18-2.23-1.417l-.033.033c.009,1.9.085,3.911-.852,4.942a7.407,7.407,0,0,1-.82.857c-.476.37-1.1.473-1.377,1.054a1.688,1.688,0,0,0-.23.955c.074.315,1.17,1.191,1.639,1.087.643-.143.824-.82,1.312-1.12l.1.066c.9,3.8-8.279,3.985-8.886.659a2.592,2.592,0,0,1,1.312-2.372c.431-.236.91-.268,1.344-.527a3.451,3.451,0,0,0,1.213-2.076c.306-1.5-.352-2.449-.623-3.394l-.164-1.45c-.079-.355-.386-.673-.3-1.153.152-.8,1.366-1.93,1.738-2.9.442-1.136.184-2.791.557-3.987A9.169,9.169,0,0,1,8.89,1.22C10.3.192,12.766-.743,14.2.891a7.862,7.862,0,0,1-1.541,2.965c-.482.238-1.4-.009-1.935.2A5.269,5.269,0,0,0,8.234,7.612l.1.066.623-.033a5.162,5.162,0,0,1,1.934.527v.165c-.312.386-2.472-.862-2.984.165a.283.283,0,0,0-.033.231l.033.132c1.175-.047,2.115-.342,2.721.527l-.033.165h-.459c-.113.271-.187.515-.459.626-.645.2-.8-.267-.984-.659H8.66c-.3.077-.07.237,0,.428l-.1.066c-.386.165-.566-.175-.82-.264v.066c-.6,1.408.387,3.94.951,4.678a9.123,9.123,0,0,0,1.8,1.45c.439.313,1.222,1,2.033.857.654-.116,1.234-.875,1.607-1.318a7.4,7.4,0,0,0,2.131-6.062h-.1c-.289.259-.466.724-1.016.593l-.033-.066.164-.362-.066-.066-.2.066a.7.7,0,0,1-1.082.527l-.328-.56a.744.744,0,0,1-.459-.033V9.358c.719-.883,1.84-.562,3.049-.4V8.9c.078-.213-.094-.482-.2-.626a5.237,5.237,0,0,0-1.771-.165c-.422.087-.822.422-1.279.362l-.033-.1c-.055-.147,0-.194.066-.3A6.621,6.621,0,0,1,15.94,7.81Zm1.115,1.746a4.294,4.294,0,0,0-.426,2.109c.817.351,1.148-.507,1.41-1.186-.175-.39-.553-.616-.82-.922Zm-4.82,2.8.557.033a.257.257,0,0,1-.033.231c-.462.163-1.283.444-1.607-.1l.066-.1A2.147,2.147,0,0,0,12.234,12.356Zm4.722.3a14.712,14.712,0,0,0,.033,4.283l.131-.066a13.421,13.421,0,0,0,0-4.151Zm-4.656.955,1.377.132c-.086.287-.365.409-.59.56-1.086.731-1.011.551-2.033,0-.318-.172-.664-.2-.885-.461.043-.126,0-.068.1-.132C10.768,13.528,11.847,13.884,12.3,13.608ZM1.709,22.372c-.887.705-1.5,1.743-.23,2.6.119-.021.107-.013.164-.066-.411-.94.006-1.621.131-2.405C1.8,22.376,1.815,22.433,1.709,22.372Z" transform="translate(-0.012 -0.005)" fill-rule="evenodd"/></svg>
