<svg xmlns="http://www.w3.org/2000/svg" viewBox="0 0 34 22" fill="currentColor"><g xmlns="http://www.w3.org/2000/svg" id="icon_game_menu_active_8_icon_dtfl_cp_0" clip-path="url(#icon_game_menu_active_8_clip-path)"><path id="icon_game_menu_active_8_Path_6309" data-name="Path 6309" d="M22.214,21.232a6.133,6.133,0,0,0,2.254.433A5.961,5.961,0,0,0,25.959,9.941a10.855,10.855,0,0,1,.363,2.789q0,.391-.027.776a1.543,1.543,0,0,1,.218-.024,1.926,1.926,0,0,1,.833.162,1.994,1.994,0,0,1,.706.484,1.153,1.153,0,0,1,.352.671,1.2,1.2,0,0,1-.071.71,1.007,1.007,0,0,1-.466.517,1.293,1.293,0,0,1-.755.2,1.654,1.654,0,0,1,.484.753,1.273,1.273,0,0,1-.066.84,1.221,1.221,0,0,1-.865.774,1.99,1.99,0,0,1-1.349-.13,2.571,2.571,0,0,1-.476-.259A10.928,10.928,0,0,1,22.214,21.232Zm3.034-3.791a.654.654,0,0,0,.373.323.7.7,0,0,0,.567.012.846.846,0,0,0,.428-1.031.763.763,0,0,0-.894-.449A10.781,10.781,0,0,1,25.248,17.441ZM4.874,13.822q-.054-.539-.054-1.092a10.871,10.871,0,0,1,.4-2.936,5.959,5.959,0,0,0,.743,11.871A5.853,5.853,0,0,0,8.659,21a10.841,10.841,0,0,1-2.43-2.922L4.112,19.209l-.176-.332a1.516,1.516,0,0,1-.195-.707,1.772,1.772,0,0,1,.05-.7,4.548,4.548,0,0,1,.386-.98,3.117,3.117,0,0,0,.3-.9,1.068,1.068,0,0,0-.109-.622.63.63,0,0,0-.976-.253,1.962,1.962,0,0,0-.853,1.072L2.1,14.933a2.687,2.687,0,0,1,1.111-1.08,1.746,1.746,0,0,1,1.237-.223A1.229,1.229,0,0,1,4.874,13.822ZM5.355,16.1q-.1.24-.248.542a4.64,4.64,0,0,0-.342.824.572.572,0,0,0,.007.389l1.053-.563A10.747,10.747,0,0,1,5.355,16.1ZM26.58,14.371a.581.581,0,0,1,.5-.015.5.5,0,0,1,.3.352.725.725,0,0,1-.031.516A.684.684,0,0,1,27,15.6a.552.552,0,0,1-.79-.339.71.71,0,0,1,.026-.506A.729.729,0,0,1,26.58,14.371Z" transform="translate(0 -2.677)" fill-rule="evenodd"/><path id="icon_game_menu_active_8_Path_6310" data-name="Path 6310" d="M17.693,4.1a5.957,5.957,0,1,1-5.932,5.957A5.944,5.944,0,0,1,17.693,4.1Zm0-4.1A10.053,10.053,0,1,1,7.684,10.052,10.031,10.031,0,0,1,17.693,0Z" transform="translate(-2.122)" fill-rule="evenodd"/><path id="icon_game_menu_active_8_Path_6311" data-name="Path 6311" d="M18.412,16.283a4.185,4.185,0,0,0,1.627.3,2.922,2.922,0,0,0,2.517-1.2,5.448,5.448,0,0,0,.874-3.268,4.417,4.417,0,0,0-.725-2.7,2.346,2.346,0,0,0-2-.984,2.57,2.57,0,0,0-1.957.769,2.629,2.629,0,0,0-.763,2,2.461,2.461,0,0,0,.609,1.738,2.089,2.089,0,0,0,1.616.69,1.8,1.8,0,0,0,1.6-.8l.018.043c-.027,1.623-.641,2.451-1.941,2.451a2.661,2.661,0,0,1-1.48-.407Zm1.457-6.2a1,1,0,0,1,.788-.392.928.928,0,0,1,.808.453,1.866,1.866,0,0,1,.3,1.059,1.187,1.187,0,0,1-.3.845.98.98,0,0,1-.768.341,1.034,1.034,0,0,1-.824-.351,1.5,1.5,0,0,1-.3-.988A1.557,1.557,0,0,1,19.869,10.083Z" transform="translate(-4.968 -2.304)" fill-rule="evenodd"/></g></svg>
