<svg xmlns="http://www.w3.org/2000/svg" viewBox="0 0 1024 1024" fill="currentColor"><path d="M864 192l-512 0c-88 0-160 72-160 160l0 512c0 88 72 160 160 160l512 0c88 0 160-72 160-160l0-512c0-88-72-160-160-160zM416 896c-53.024 0-96-42.976-96-96s42.976-96 96-96 96 42.976 96 96-42.976 96-96 96zM416 512c-53.024 0-96-42.976-96-96s42.976-96 96-96 96 42.976 96 96-42.976 96-96 96zM608 704c-53.024 0-96-42.976-96-96s42.976-96 96-96 96 42.976 96 96-42.976 96-96 96zM800 896c-53.024 0-96-42.976-96-96s42.976-96 96-96 96 42.976 96 96-42.976 96-96 96zM800 512c-53.024 0-96-42.976-96-96s42.976-96 96-96 96 42.976 96 96-42.976 96-96 96zM828.752 128c-14.928-72.8-79.712-128-156.752-128l-512 0c-88 0-160 72-160 160l0 512c0 77.04 55.2 141.824 128 156.752l0-636.752c0-35.2 28.8-64 64-64l636.752 0z" p-id="4171"/></svg>
