<svg xmlns="http://www.w3.org/2000/svg" viewBox="0 0 24 24" fill="currentColor"><path xmlns="http://www.w3.org/2000/svg" id="icon_game_menu_active_5_icon_dtfl_ty_0" d="M14.536.205A12.331,12.331,0,0,1,23.15,6.8c1.246,2.722,1.452,3.7,1.1,7.711-.5,4.419-4.086,7.86-7.551,9.361-.913.4-1.974.479-3,.806a18.237,18.237,0,0,1-3.036-.038C5.678,24.341.434,19.138.078,14.17a23.642,23.642,0,0,1,0-3.645C.471,5.519,5.237,1.045,9.83.205A18.218,18.218,0,0,1,14.536.205Zm0,1.458c-.749.288-3.455.792-3.643,1.419a10.456,10.456,0,0,0,.569,3.76c1.265.652,2.53,1.308,3.795,1.957a16.267,16.267,0,0,0,3.719-1.458c.509-.384.147-1.627,0-2.225-.126-.533-.253-1.074-.379-1.611C17.872,2.446,15.937,2.035,14.536,1.663ZM7.174,2.891c-1.308.641-3.747,2.634-4.136,4.067A7.207,7.207,0,0,0,3.19,9.835a8.716,8.716,0,0,0,3.377.537c.622-.158,1.209-1.046,1.594-1.5.515-.6,2.078-1.637,2.277-2.379-.089-.572-.177-1.151-.266-1.726-.115-.679-.01-1.254-.3-1.688A18.489,18.489,0,0,0,7.174,2.891Zm12.1,5.179c-.764.478-2.986.92-3.415,1.573l-.379,2.148c-.152.882-.3,1.772-.455,2.647a26.441,26.441,0,0,0,3.187,3.108A5.742,5.742,0,0,0,21.4,15.82l.379-2.494.341-2.494c-.136-.545-.815-1.015-1.138-1.419C20.6,8.932,20.1,8.077,19.279,8.07ZM3.266,10.832c-.693.44-.686,1.279-.987,2.148-.164.46-.329.925-.493,1.381-.2,1.013,1.269,3.922,1.783,4.258a5.452,5.452,0,0,0,1.859.46,4.286,4.286,0,0,0,1.708.192c.326-.433,1.875-3.446,1.708-4.1L7.668,13.019c-.221-.523-.516-1.5-.987-1.765C5.554,11.114,4.4,10.973,3.266,10.832Zm19.656,1.189a13.107,13.107,0,0,0-.721,4.143l.152.038.152-.115C22.687,15.628,23.6,12.465,22.922,12.022Zm-8.766,3.031c-.969.565-3.55.255-4.44.844-.441.292-.63,1.146-.835,1.688-.185.524-.672,1.172-.8,1.688-.183.759,2.212,2.752,2.732,2.954.605.236,1.645-.2,2.239-.307.675-.121,2.823-.261,3.112-.652.257-.318,1.524-2.578,1.4-3.069C17.472,17.789,14.643,15.074,14.156,15.052Zm1.4,7.289c-1.113.439-2.934.125-3.908.691v.115l.114.038c.736.5,4.073-.291,4.364-.652-.05-.147,0-.08-.114-.153Z" transform="translate(-0.004 -0.05)" fill-rule="evenodd"/></svg>
