<svg xmlns="http://www.w3.org/2000/svg" viewBox="0 0 36 24" fill="currentColor"><path xmlns="http://www.w3.org/2000/svg" id="icon_game_menu_active_1_icon_dtfl_qp_0" d="M6.956,16.114l.112-2.02a1.81,1.81,0,0,1-.311.153A1.787,1.787,0,0,1,4.405,13.2a1.714,1.714,0,0,1,.024-1.377,1.765,1.765,0,0,1,.42-.572,1.829,1.829,0,0,1,.617-.368,1.989,1.989,0,0,1,.8-.082s.049,0,.053-.036a.06.06,0,0,0-.013-.041.064.064,0,0,0-.038-.023,1.81,1.81,0,0,1-.6-.4A1.746,1.746,0,0,1,5.288,9.7,1.765,1.765,0,0,1,5.313,8.31a1.817,1.817,0,0,1,.419-.584,1.869,1.869,0,0,1,1.712-.45l.234-4.208L.313,5.772a.48.48,0,0,0-.27.247.458.458,0,0,0-.012.359L5.116,19.516a.465.465,0,0,0,.1.156.482.482,0,0,0,.153.107.5.5,0,0,0,.37.011l5.671-2.084-3.14-.165a1.418,1.418,0,0,1-.96-.451,1.333,1.333,0,0,1-.354-.976ZM31.679,5.147,20.747.053a.575.575,0,0,0-.429-.022A.563.563,0,0,0,20.13.14.543.543,0,0,0,20,.311L12.781,15a.532.532,0,0,0-.023.418.553.553,0,0,0,.288.311l10.932,5.1a.576.576,0,0,0,.429.022.564.564,0,0,0,.188-.109.545.545,0,0,0,.131-.17l7.216-14.69a.532.532,0,0,0,.027-.421.544.544,0,0,0-.112-.185.563.563,0,0,0-.177-.129ZM20.061,14.672l-1.523-.722A6.259,6.259,0,0,0,21.2,12.385a5.926,5.926,0,0,0,.382,3.007c-1.525-.707-1.524-.712-1.524-.712Zm6.1-2.06a2.384,2.384,0,0,1-3.66.946,3.186,3.186,0,0,1-.783-2.205v.01a3.384,3.384,0,0,1-2.265.765,2.281,2.281,0,0,1-1.493-3.393c.9-1.68,3.392-1.416,6.411-2.688C25.206,9.146,26.965,10.9,26.157,12.613Zm-14.166,2.02,1.181-2.4-2.2-2.205-.22-.257a2.6,2.6,0,0,1,.189-3.524,2.269,2.269,0,0,1,3.319.322l.216.257.248-.236a2.556,2.556,0,0,1,1.57-.712l2.326-4.734L9.21.642a.534.534,0,0,0-.2.028.523.523,0,0,0-.174.1.5.5,0,0,0-.121.157.491.491,0,0,0-.05.19L7.837,16.16a.5.5,0,0,0,.132.364.527.527,0,0,0,.358.168l5.363.283L12.673,16.5a1.419,1.419,0,0,1-.739-.8,1.364,1.364,0,0,1,.057-1.071Z"/></svg>
