<svg xmlns="http://www.w3.org/2000/svg" viewBox="0 0 34 21" fill="currentColor"><path xmlns="http://www.w3.org/2000/svg" id="icon_game_menu_active_3_icon_dtfl_dz_0" d="M-344.793-8599.5h.011a.763.763,0,0,1,0,.078A.763.763,0,0,1-344.793-8599.5Zm-6.494.077a7.9,7.9,0,0,1,.38-2.028,6.354,6.354,0,0,1,.853-1.56,6.078,6.078,0,0,1,1.938-1.794c.356-.181.624-.276,1.086-.468a7.963,7.963,0,0,0,1.085-.624,6.048,6.048,0,0,0,.7-.547c.166-.157.272-.341.234-.389-.078-.1-.8.474-1.629.623a4.192,4.192,0,0,1-1.55-.078c-.4-.1-.974-.282-1.861-.467a2.545,2.545,0,0,0-.542,0,1.64,1.64,0,0,0-1.086.625,2.942,2.942,0,0,0-.429,1.169h-1.2l.979-5.166h1.473v.779c.658-.782.837-1.177,2.2-.917.32.062.555.1.567.1-.029-.006-.023,0-.013,0h.013c.032.006.189.02.363.055a7.966,7.966,0,0,1,1.4.469,6.856,6.856,0,0,0,1.241.391,3.584,3.584,0,0,0,1.628-.08,4.226,4.226,0,0,0,.93-.389,4.077,4.077,0,0,1,.89.74,8.864,8.864,0,0,0-.581.74c-.559.891-1.113,1.905-1.4,2.341a8.712,8.712,0,0,0-1.163,3.119,7.33,7.33,0,0,0-.077,1.638c.016.765.042,1.42.066,1.64-.594.027-1.217.056-1.772.077Zm-14.195-.077h.011a.763.763,0,0,1,0,.078A.53.53,0,0,1-365.482-8599.5Zm-6.494.077a7.9,7.9,0,0,1,.38-2.028,6.377,6.377,0,0,1,.852-1.56,6.088,6.088,0,0,1,1.939-1.794c.357-.181.624-.276,1.086-.468a7.971,7.971,0,0,0,1.085-.624,6.117,6.117,0,0,0,.7-.547c.166-.157.271-.341.233-.389-.077-.1-.8.474-1.629.623a4.2,4.2,0,0,1-1.551-.078c-.4-.1-.974-.282-1.861-.467a2.544,2.544,0,0,0-.543,0,1.64,1.64,0,0,0-1.085.625,2.961,2.961,0,0,0-.43,1.169H-374l.98-5.166h1.473v.779c.657-.782.837-1.177,2.2-.917.32.062.555.1.567.1-.029-.006-.023,0-.013,0h.013c.032.006.189.02.363.055a8.019,8.019,0,0,1,1.4.469,6.87,6.87,0,0,0,1.24.391,3.583,3.583,0,0,0,1.629-.08,4.22,4.22,0,0,0,.931-.389,4.1,4.1,0,0,1,.891.74,8.53,8.53,0,0,0-.581.74c-.559.891-1.113,1.905-1.395,2.341a8.714,8.714,0,0,0-1.164,3.119,7.33,7.33,0,0,0-.077,1.638c.016.765.042,1.42.066,1.64-.594.027-1.217.056-1.772.077Zm17.729-1.42.013,0h0a1.018,1.018,0,0,1,0,.117A.771.771,0,0,1-354.248-8600.839Zm-9.742.115a11.924,11.924,0,0,1,.569-3.041,17.232,17.232,0,0,1,1.725-4.286c.991-1.4,1.461-2.061,2.214-2.444.533-.271,1.185-.662,1.876-.949a11.723,11.723,0,0,0,1.628-.935,9.347,9.347,0,0,0,1.046-.819c.249-.238.407-.515.35-.586-.115-.141-1.205.714-2.442.938a6.321,6.321,0,0,1-2.327-.117c-.6-.15-1.461-.424-2.792-.7a3.79,3.79,0,0,0-.814,0,2.464,2.464,0,0,0-1.628.937,4.485,4.485,0,0,0-.645,1.754h-1.8v-7.019h2.21v1.169c.986-1.174,2.724-2.494,4.769-2.105.48.092.832.144.85.15-.042-.008-.033,0-.019,0s.028,0,.019,0c.049.009.284.031.545.085a11.966,11.966,0,0,1,2.094.7,10.211,10.211,0,0,0,1.86.585,5.4,5.4,0,0,0,2.443-.117,6.371,6.371,0,0,0,1.4-.586,6.323,6.323,0,0,1,1.338,1.111,12.57,12.57,0,0,0-.873,1.111c-.839,1.336-1.668,2.856-2.093,3.511a13.077,13.077,0,0,0-1.744,4.679,36.394,36.394,0,0,0-.116,4.4c.025,1.146.061,2.13.1,2.458-.891.042-1.826.082-2.658.115Zm22.352-8.244h0Zm-20.688,0h0Zm20.683-.006.04-.039c.016-.013-.029.035-.035.045Zm-20.688,0c.015-.016.028-.029.039-.039s-.029.035-.034.045Zm12.817-8.02,0,0h0S-349.514-8616.991-349.514-8616.993Zm-.007-.008a.667.667,0,0,1,.058-.058c.023-.02-.044.052-.051.065Z" transform="translate(373.999 8619)"/></svg>
