<svg xmlns="http://www.w3.org/2000/svg" viewBox="0 0 24 26" fill="currentColor"><path xmlns="http://www.w3.org/2000/svg" id="icon_game_menu_active_2_icon_dtfl_by_0" d="M4.787.063A9.073,9.073,0,0,1,10.11,1.728L11.642,3.16h2.413a19.909,19.909,0,0,1,6.51,2.013A5.935,5.935,0,0,1,22.289,6.3c.355.45-.232.919-.46,1.161-.541.577-2.025,2.128-2.911,2.091L18.765,8.7c-.453-.748-2.238-1.362-3.37-1.394-.578-.016-1.527-.215-1.838.116.662.733,2.477.474,3.294,1.549.22.256.671.741.306,1.2-.545,1.057-4.99,1.084-5.553,2.052-.064.081-.059.077-.077.232H11.6c.437.149,1.177-.161,1.455.116.352.365.073,2.619-.153,2.942l-.23-.039c-.6-.261-2.339-2.065-2.949-1.9a2.511,2.511,0,0,0-.957,1.239c-1.172,2.3.338,4.2,1.991,5.226.325.2,2.078,1.364,2.183.658-.251-.471-.791-.662-.843-1.316a7.22,7.22,0,0,1,3.332-3.523c.387-.225,1.046-.687,1.608-.542v.232c-1.249.952-3.158,3.492-2.336,5.884.221.642,1.639,2.258,1.494,2.633a6.352,6.352,0,0,1-3.638-1.781l-.613-.968A15.777,15.777,0,0,0,9,20.736a1.364,1.364,0,0,0-.306.774l-.23.039A3.949,3.949,0,0,1,7.2,19.768c-.131-.275-.1-.653-.345-.813l-.192-.039-.421.542c-.594.215-2.873-2.063-3.14-2.478-1.624-2.523-.64-5.221,1.034-6.93L4.1,9.741c-.107-.255-.636-.767-1-.619-.921.455-1.512,1.77-2.068,2.594H.919l-.038-.039c-.021-1.46.951-2.339,1.379-3.407C1.852,7.292.512,7.116,0,6.257a.411.411,0,0,1,.23-.232l1.532-.039a17.825,17.825,0,0,1,5.362.852c.421.142.846.284,1.264.426l3.37-.813c.942-.174,2,.032,2.643-.426h.077l-.038-.155A13.839,13.839,0,0,0,10,6.025c-.532.109-1.188.5-1.838.348L6.7,5.754,5.668,5.56,5.63,5.483c.017-.272.1-.275.191-.426a19.459,19.459,0,0,0,2.8-1.239l-.038-.155c-.709,0-1.388.19-1.915.116-.291-.334-.233-.875-.421-1.355A6.4,6.4,0,0,0,4.634.334L4.672.218Zm12.1,4.452-.153.194a1.5,1.5,0,0,0,.306.658,1.065,1.065,0,0,0,1.187-.116.5.5,0,0,0-.115-.348A5.225,5.225,0,0,0,16.889,4.515Z" transform="translate(0 -0.063)" fill-rule="evenodd"/></svg>
