<svg width="100" height="100" viewBox="0 0 100 100" fill="currentColor" xmlns="http://www.w3.org/2000/svg">
<path fill-rule="evenodd" clip-rule="evenodd" d="M50 90C72.0914 90 90 72.0914 90 50C90 27.9086 72.0914 10 50 10C27.9086 10 10 27.9086 10 50C10 72.0914 27.9086 90 50 90ZM47.0001 17C30.4315 17 17 30.4314 17 47.0002C17 63.5685 30.4314 76.9999 47.0001 76.9999C48.9177 76.9999 50.7932 76.82 52.6107 76.4762C50.3486 73.5891 49 69.952 49 65.9999C49 65.6647 49.0097 65.3317 49.0289 65.0012C47.1847 65.4899 45.2477 65.7502 43.2499 65.7502C30.8236 65.7502 20.75 55.6764 20.75 43.2499C20.7499 30.8236 30.8236 20.7499 43.2498 20.7499C55.6765 20.7499 65.7502 30.8236 65.7502 43.2499C65.7502 45.2477 65.4898 47.1847 65.0011 49.0288C65.3316 49.0097 65.6647 48.9999 66 48.9999C69.9521 48.9999 73.5892 50.3485 76.4763 52.6106C76.8201 50.7931 77 48.9177 77 47.0002C77 30.4314 63.5685 17 47.0001 17ZM69.8847 31.9378C72.0485 33.3254 75.0746 40.3415 74.6621 45.3254C70.9232 43.6677 69.2922 33.8167 69.8847 31.9378ZM66 80C73.732 80 80 73.732 80 66C80 58.268 73.732 52 66 52C58.268 52 52 58.268 52 66C52 73.732 58.268 80 66 80ZM67.7961 63.5279L66 58L64.2039 63.5279H58.3915L63.0938 66.9443L61.2977 72.4721L66 69.0557L70.7023 72.4721L68.9062 66.9443L73.6085 63.5279H67.7961ZM56.3218 49.9151L48.4277 26.4818L42.0659 28.6249L46.198 40.8908L46.0149 40.9525L33.553 31.4927L28.1523 33.312L36.0464 56.7454L42.4082 54.6022L38.2607 42.2906L38.398 42.2443L51.0126 51.7036L56.3218 49.9151Z" fill="currentColor"/>
</svg>
