<svg width="100" height="100" viewBox="0 0 100 100" fill="currentColor" xmlns="http://www.w3.org/2000/svg">
<path fill-rule="evenodd" clip-rule="evenodd" d="M50 90C72.0914 90 90 72.0914 90 50C90 27.9086 72.0914 10 50 10C27.9086 10 10 27.9086 10 50C10 72.0914 27.9086 90 50 90ZM47.0001 17C30.4315 17 17 30.4314 17 47.0002C17 63.5685 30.4314 76.9999 47.0001 76.9999C48.9177 76.9999 50.7932 76.82 52.6107 76.4762C50.3486 73.5891 49 69.952 49 65.9999C49 65.6647 49.0097 65.3317 49.0289 65.0012C47.1847 65.4899 45.2477 65.7502 43.2499 65.7502C30.8236 65.7502 20.75 55.6764 20.75 43.2499C20.7499 30.8236 30.8236 20.7499 43.2498 20.7499C55.6765 20.7499 65.7502 30.8236 65.7502 43.2499C65.7502 45.2477 65.4898 47.1847 65.0011 49.0288C65.3316 49.0097 65.6647 48.9999 66 48.9999C69.9521 48.9999 73.5892 50.3485 76.4763 52.6106C76.8201 50.7931 77 48.9177 77 47.0002C77 30.4314 63.5685 17 47.0001 17ZM69.8847 31.9378C72.0485 33.3254 75.0746 40.3415 74.6621 45.3254C70.9232 43.6677 69.2922 33.8167 69.8847 31.9378ZM66 80C73.732 80 80 73.732 80 66C80 58.268 73.732 52 66 52C58.268 52 52 58.268 52 66C52 73.732 58.268 80 66 80ZM67.7961 63.5279L66 58L64.2039 63.5279H58.3915L63.0938 66.9443L61.2977 72.4721L66 69.0557L70.7023 72.4721L68.9062 66.9443L73.6085 63.5279H67.7961ZM46.5348 37.5423L52.9881 35.3683C52.3753 33.9525 51.5926 32.7764 50.6402 31.8402C49.6878 30.904 48.6127 30.2087 47.4149 29.7543C46.2146 29.2923 44.9246 29.0686 43.545 29.0832C42.1655 29.0978 40.7358 29.3543 39.2559 29.8529C37.1506 30.5621 35.399 31.666 34.0013 33.1646C32.601 34.6556 31.6993 36.467 31.2963 38.5988C30.8907 40.7229 31.1273 43.0894 32.0061 45.6982C32.8798 48.2917 34.1106 50.319 35.6985 51.7801C37.294 53.2387 39.0978 54.1429 41.1098 54.4929C43.1294 54.8402 45.2148 54.6516 47.3659 53.9269C49.0822 53.3488 50.5001 52.5781 51.6195 51.6149C52.739 50.6517 53.5921 49.5914 54.179 48.4339C54.7709 47.2662 55.135 46.0904 55.2712 44.9063C55.4048 43.7146 55.3428 42.6101 55.085 41.5928L48.6163 43.721C48.7096 44.2501 48.7137 44.7541 48.6287 45.2329C48.5488 45.7015 48.3847 46.1348 48.1365 46.5326C47.8883 46.9305 47.5573 47.2841 47.1433 47.5934C46.7269 47.8951 46.2249 48.1449 45.6376 48.3427C44.6078 48.6896 43.6458 48.7462 42.7516 48.5123C41.8549 48.2708 41.0501 47.735 40.3373 46.9049C39.6295 46.0646 39.0341 44.9275 38.551 43.4934C38.0936 42.1356 37.8886 40.9094 37.936 39.8147C37.9911 38.7174 38.2974 37.7861 38.8549 37.0207C39.4201 36.2528 40.2367 35.6889 41.3046 35.3291C41.9148 35.1236 42.4898 35.0276 43.0295 35.0411C43.5666 35.047 44.0569 35.1537 44.5005 35.361C44.9491 35.5581 45.342 35.8419 45.6791 36.2125C46.0239 36.5805 46.3092 37.0237 46.5348 37.5423Z" fill="currentColor"/>
</svg>
