<svg width="100" height="100" viewBox="0 0 100 100" fill="currentColor" xmlns="http://www.w3.org/2000/svg">
<path fill-rule="evenodd" clip-rule="evenodd" d="M50 90C72.0914 90 90 72.0914 90 50C90 27.9086 72.0914 10 50 10C27.9086 10 10 27.9086 10 50C10 72.0914 27.9086 90 50 90ZM47.0001 17C30.4315 17 17 30.4314 17 47.0002C17 63.5685 30.4314 76.9999 47.0001 76.9999C48.9177 76.9999 50.7932 76.82 52.6107 76.4762C50.3486 73.5891 49 69.952 49 65.9999C49 65.6647 49.0097 65.3317 49.0289 65.0012C47.1847 65.4899 45.2477 65.7502 43.2499 65.7502C30.8236 65.7502 20.75 55.6764 20.75 43.2499C20.7499 30.8236 30.8236 20.7499 43.2498 20.7499C55.6765 20.7499 65.7502 30.8236 65.7502 43.2499C65.7502 45.2477 65.4898 47.1847 65.0011 49.0288C65.3316 49.0097 65.6647 48.9999 66 48.9999C69.9521 48.9999 73.5892 50.3485 76.4763 52.6106C76.8201 50.7931 77 48.9177 77 47.0002C77 30.4314 63.5685 17 47.0001 17ZM69.8847 31.9378C72.0485 33.3254 75.0746 40.3415 74.6621 45.3254C70.9232 43.6677 69.2922 33.8167 69.8847 31.9378ZM66 80C73.732 80 80 73.732 80 66C80 58.268 73.732 52 66 52C58.268 52 52 58.268 52 66C52 73.732 58.268 80 66 80ZM67.7961 63.5279L66 58L64.2039 63.5279H58.3915L63.0938 66.9443L61.2977 72.4721L66 69.0557L70.7023 72.4721L68.9062 66.9443L73.6085 63.5279H67.7961ZM42.7916 35.2453C43.4466 35.5003 43.9331 35.9989 44.2511 36.7412L50.3382 34.6906C49.8141 33.1599 48.9817 31.9496 47.8411 31.0598C46.7055 30.1598 45.3408 29.6258 43.7468 29.4578C42.1528 29.2898 40.41 29.5244 38.5182 30.1617C36.6646 30.7862 35.1261 31.6527 33.9028 32.7613C32.687 33.8673 31.8638 35.1172 31.4329 36.5109C31.0072 37.8944 31.0486 39.3286 31.5574 40.8135C32.1665 42.6468 33.2446 43.8932 34.7918 44.5526C36.344 45.2018 38.2333 45.402 40.4597 45.1531L42.9635 44.8702C43.8974 44.768 44.6571 44.7414 45.2427 44.7904C45.8257 44.8318 46.2741 44.9526 46.5878 45.1527C46.9066 45.3426 47.1302 45.6155 47.2586 45.9714C47.3794 46.3554 47.3717 46.736 47.2355 47.1131C47.0992 47.4903 46.8305 47.8398 46.4294 48.1618C46.0282 48.4838 45.4882 48.7592 44.8093 48.9879C44.0007 49.2603 43.2604 49.3695 42.5882 49.3157C41.9237 49.2593 41.349 49.0409 40.8642 48.6606C40.3793 48.2804 39.9971 47.7381 39.7174 47.034L33.676 49.0691C34.344 51.027 35.3058 52.4952 36.5612 53.4737C37.8217 54.442 39.3087 54.9731 41.022 55.0669C42.743 55.1582 44.6218 54.8607 46.6585 54.1746C48.6418 53.5065 50.2453 52.6563 51.4689 51.6241C52.7001 50.5893 53.5172 49.4094 53.9203 48.0845C54.3233 46.7596 54.2691 45.3255 53.7577 43.782C53.4494 42.8921 53.0269 42.1171 52.4903 41.457C51.9613 40.7944 51.3016 40.2607 50.5112 39.8559C49.7183 39.4435 48.7845 39.1678 47.7099 39.0287C46.6353 38.8895 45.4034 38.9011 44.0141 39.0633L41.9531 39.299C41.3577 39.3721 40.8334 39.4044 40.3803 39.3956C39.9272 39.3869 39.5414 39.3385 39.223 39.2504C38.9019 39.1547 38.6431 39.0168 38.4466 38.8367C38.2551 38.6464 38.1194 38.4076 38.0396 38.1202C37.9316 37.7744 37.9318 37.4345 38.0401 37.1007C38.1485 36.767 38.383 36.4544 38.7435 36.1631C39.1091 35.8615 39.6199 35.6003 40.2759 35.3793C41.3057 35.0324 42.1443 34.9877 42.7916 35.2453Z" fill="currentColor"/>
</svg>
