<svg width="24" height="24" viewBox="0 0 24 24" fill="none" xmlns="http://www.w3.org/2000/svg">
<g clip-path="url(#clip0_505_11123)">
<path d="M23.5866 15.13C23.8556 14.1318 24 13.0827 24 11.9995C24 10.9164 23.8556 9.86721 23.5866 8.86906L10.9565 0.045166C8.61178 0.247197 6.46008 1.12329 4.69566 2.47896L0.413391 8.86906C0.144375 9.86721 0 10.9164 0 11.9995C0 13.0763 0.142641 14.1197 0.408656 15.1126L4.69561 21.5201C6.46003 22.8757 8.61173 23.7519 10.9565 23.9539L23.5866 15.13Z" fill="#FFDA44"/>
<path d="M0.412109 15.1306C1.10642 17.7068 2.63666 19.9397 4.69438 21.5207V15.1306H0.412109Z" fill="#0052B4"/>
<path d="M10.9551 23.9545C11.299 23.9841 11.6469 24.0002 11.9986 24.0002C17.5429 24.0002 22.2082 20.2398 23.5852 15.1306H10.9551V23.9545Z" fill="#0052B4"/>
<path d="M23.5852 8.86955C22.2082 3.76036 17.5429 0 11.9986 0C11.6469 0 11.299 0.0160312 10.9551 0.0456562V8.86955H23.5852Z" fill="#0052B4"/>
<path d="M4.69438 2.47974C2.63666 4.06083 1.10642 6.29363 0.412109 8.86983H4.69438V2.47974Z" fill="#0052B4"/>
<path d="M23.8984 10.4342H9.39136H9.39131V0.284668C8.28234 0.530574 7.23098 0.929152 6.26086 1.45851V10.4342H0.101578C0.0347813 10.9466 0 11.4689 0 11.9994C0 12.5299 0.0347813 13.0523 0.101578 13.5646H6.26081H6.26086V22.5403C7.23098 23.0696 8.28234 23.4683 9.39131 23.7142V13.5648V13.5647H23.8984C23.9651 13.0523 24 12.5299 24 11.9994C24 11.4689 23.9651 10.9466 23.8984 10.4342Z" fill="#D80027"/>
</g>
<defs>
<clipPath id="clip0_505_11123">
<rect width="24" height="24" fill="white"/>
</clipPath>
</defs>
</svg>
