<svg width="24" height="24" viewBox="0 0 24 24" fill="none" xmlns="http://www.w3.org/2000/svg">
<g clip-path="url(#clip0_505_11222)">
<path d="M24 12.0001C24 10.5323 23.736 9.12615 23.2536 7.82621L12 7.30444L0.746391 7.82616C0.264047 9.12614 0 10.5323 0 12.0001C0 13.4679 0.264047 14.874 0.746391 16.174L12 16.6957L23.2536 16.174C23.736 14.874 24 13.4679 24 12.0001Z" fill="#D80027"/>
<path d="M11.9997 23.9995C17.1593 23.9995 21.5578 20.743 23.2533 16.1733H0.746094C2.44161 20.743 6.84013 23.9995 11.9997 23.9995Z" fill="#6DA544"/>
<path d="M0.746094 7.82513H23.2534C21.5578 3.25552 17.1593 -0.000976562 11.9997 -0.000976562C6.84013 -0.000976562 2.44161 3.25552 0.746094 7.82513Z" fill="#338AF3"/>
<path d="M12.2614 15.3912C10.3885 15.3912 8.87012 13.8728 8.87012 11.9999C8.87012 10.1269 10.3885 8.60855 12.2614 8.60855C12.8454 8.60855 13.3949 8.75621 13.8746 9.01618C13.122 8.28019 12.0928 7.82593 10.9571 7.82593C8.65187 7.82593 6.7832 9.69465 6.7832 11.9998C6.7832 14.305 8.65192 16.1737 10.9571 16.1737C12.0929 16.1737 13.1221 15.7194 13.8746 14.9835C13.3949 15.2435 12.8454 15.3912 12.2614 15.3912Z" fill="#F0F0F0"/>
<path d="M14.8713 9.65088L15.3205 10.9142L16.5314 10.3385L15.9558 11.5495L17.2191 11.9987L15.9558 12.448L16.5314 13.6589L15.3205 13.0832L14.8713 14.3465L14.4221 13.0832L13.2111 13.6589L13.7868 12.448L12.5234 11.9987L13.7868 11.5495L13.2111 10.3385L14.4221 10.9142L14.8713 9.65088Z" fill="#F0F0F0"/>
</g>
<defs>
<clipPath id="clip0_505_11222">
<rect width="24" height="24" fill="white"/>
</clipPath>
</defs>
</svg>
