<svg width="24" height="24" viewBox="0 0 24 24" fill="none" xmlns="http://www.w3.org/2000/svg">
<g clip-path="url(#clip0_505_11245)">
<path d="M17.2165 1.19096C15.6389 0.428119 13.869 0.000244141 11.9991 0.000244141C10.1293 0.000244141 8.35939 0.428119 6.78177 1.19096L5.73828 12.0002L6.78177 22.8095C8.35939 23.5724 10.1293 24.0002 11.9991 24.0002C13.869 24.0002 15.6389 23.5724 17.2165 22.8095L18.26 12.0002L17.2165 1.19096Z" fill="#FFDA44"/>
<path d="M6.78262 1.19116C2.76872 3.13207 0 7.24249 0 12C0 16.7576 2.76872 20.868 6.78262 22.8089V1.19116Z" fill="#0052B4"/>
<path d="M17.2168 1.19165V22.8094C21.2307 20.8685 23.9994 16.758 23.9994 12.0005C23.9994 7.24303 21.2307 3.13256 17.2168 1.19165Z" fill="#0052B4"/>
<path d="M15.6528 7.30325L16.3528 7.65322L15.6528 7.30325L14.9527 6.95328C14.9105 7.0377 13.9965 8.89738 13.8472 11.738H12.7832V7.30325L12.0006 6.25977L11.218 7.30325V11.738H10.154C10.0046 8.89738 9.09064 7.0377 9.04841 6.95328L7.64844 7.65327C7.65809 7.67248 8.60933 9.60866 8.60933 12.5207V13.3033H11.218V17.7381H12.7832V13.3033H15.3919V12.5206C15.3919 11.0151 15.6524 9.77366 15.871 8.99731C16.1092 8.15075 16.3512 7.65636 16.3536 7.65144L15.6528 7.30325Z" fill="black"/>
</g>
<defs>
<clipPath id="clip0_505_11245">
<rect width="24" height="24" fill="white"/>
</clipPath>
</defs>
</svg>
