<svg width="24" height="24" viewBox="0 0 24 24" fill="none" xmlns="http://www.w3.org/2000/svg">
<g clip-path="url(#clip0_505_11494)">
<path d="M12.0002 23.9977C18.6266 23.9977 23.9984 18.6259 23.9984 11.9995C23.9984 5.37302 18.6266 0.0012207 12.0002 0.0012207C5.37375 0.0012207 0.00195312 5.37302 0.00195312 11.9995C0.00195312 18.6259 5.37375 23.9977 12.0002 23.9977Z" fill="#F0F0F0"/>
<path d="M1.6094 6.00122C1.06784 6.93912 0.668365 7.91967 0.402344 8.91846L20.468 20.5034C21.2 19.7736 21.8495 18.9373 22.3909 17.9995L1.6094 6.00122Z" fill="black"/>
<path d="M17.9983 1.6092C13.1974 -1.16253 7.27791 -0.238742 3.53125 3.4969L23.5969 15.0818C24.9588 9.9694 22.799 4.38098 17.9983 1.6092Z" fill="#FFDA44"/>
<path d="M6.0003 22.3899C10.8011 25.1617 16.7207 24.2379 20.4673 20.5023L0.401573 8.91724C-0.960222 14.0298 1.19945 19.6182 6.0003 22.3899Z" fill="#FFDA44"/>
<path d="M15.3903 10.6963C15.3903 12.5689 13.8722 14.0871 11.9995 14.0871C10.1268 14.0871 8.60867 12.5689 8.60867 10.6963C8.60867 10.1124 8.75629 9.56293 9.01626 9.08325C8.28045 9.83575 7.82617 10.8648 7.82617 12.0004C7.82617 14.3052 9.6946 16.1737 11.9995 16.1737C14.3044 16.1737 16.1728 14.3053 16.1728 12.0004C16.1728 10.8648 15.7186 9.83575 14.9827 9.08325C15.2427 9.56303 15.3903 10.1124 15.3903 10.6963Z" fill="#D80027"/>
<path d="M12.7818 6.78345H11.2168V14.6084H12.7818V6.78345Z" fill="#D80027"/>
<path d="M14.6072 8.34814H9.39062C9.39062 8.70829 9.70437 9.00024 10.0645 9.00024H10.0427C10.0427 9.36038 10.3347 9.65233 10.6948 9.65233C10.6948 10.0125 10.9868 10.3044 11.3469 10.3044H12.651C13.0112 10.3044 13.3031 10.0125 13.3031 9.65233C13.6633 9.65233 13.9552 9.36038 13.9552 9.00024H13.9335C14.2935 9.00019 14.6072 8.70834 14.6072 8.34814Z" fill="#D80027"/>
<path d="M15.6509 15.1299H8.34766V16.6949H15.6509V15.1299Z" fill="#D80027"/>
<path d="M16.6944 15.6509H13.5645V17.2159H16.6944V15.6509Z" fill="#D80027"/>
<path d="M10.4346 15.6509H7.30469V17.2159H10.4346V15.6509Z" fill="#D80027"/>
</g>
<defs>
<clipPath id="clip0_505_11494">
<rect width="24" height="24" fill="white"/>
</clipPath>
</defs>
</svg>
