<svg width="24" height="24" viewBox="0 0 24 24" fill="none" xmlns="http://www.w3.org/2000/svg">
<g clip-path="url(#clip0_505_11407)">
<path d="M24 12.0006C24 10.5327 23.736 9.12663 23.2536 7.8267L12 7.30493L0.746391 7.82665C0.264 9.12663 0 10.5327 0 12.0006C0 13.4684 0.264 14.8745 0.746391 16.1745L12 16.6962L23.2536 16.1745C23.736 14.8745 24 13.4684 24 12.0006Z" fill="#FFDA44"/>
<path d="M11.9997 23.9999C17.1593 23.9999 21.5578 20.7434 23.2533 16.1738H0.746094C2.44161 20.7434 6.84013 23.9999 11.9997 23.9999Z" fill="#6DA544"/>
<path d="M0.746094 7.82635H23.2534C21.5578 3.25674 17.1593 0.000244141 11.9997 0.000244141C6.84012 0.000244141 2.44161 3.25674 0.746094 7.82635Z" fill="#D80027"/>
</g>
<defs>
<clipPath id="clip0_505_11407">
<rect width="24" height="24" fill="white"/>
</clipPath>
</defs>
</svg>
