<svg width="24" height="24" viewBox="0 0 24 24" fill="none" xmlns="http://www.w3.org/2000/svg">
<g clip-path="url(#clip0_505_11412)">
<path d="M12 24C18.6274 24 24 18.6274 24 12C24 5.37258 18.6274 0 12 0C5.37258 0 0 5.37258 0 12C0 18.6274 5.37258 24 12 24Z" fill="#F0F0F0"/>
<path d="M3.51436 3.51432C0.942561 6.08612 -0.217454 9.5349 0.0334675 12.898L12.898 0.0334789C9.53489 -0.21749 6.08616 0.942526 3.51436 3.51432Z" fill="#FFDA44"/>
<path d="M4.28516 21.1899C8.99989 25.1566 16.048 24.922 20.4856 20.4844C24.9233 16.0467 25.1579 8.99862 21.1912 4.28394L4.28516 21.1899Z" fill="#0052B4"/>
<path d="M11.9561 11.5167L12.9902 10.9565L11.9561 10.3964C11.7146 8.82788 10.4753 7.58855 8.90686 7.34714L8.34665 6.31299L7.7865 7.3471C6.21806 7.5885 4.97878 8.82783 4.73728 10.3963L3.70312 10.9565L4.73723 11.5167C4.97869 13.0852 6.21797 14.3245 7.78645 14.5659L8.34665 15.6001L8.90681 14.5659C10.4753 14.3245 11.7146 13.0852 11.9561 11.5167ZM8.3467 13.0435C7.19409 13.0435 6.25973 12.1092 6.25973 10.9565C6.25973 9.80386 7.19404 8.86955 8.3467 8.86955C9.49936 8.86955 10.4337 9.80386 10.4337 10.9565C10.4337 12.1092 9.49931 13.0435 8.3467 13.0435Z" fill="black"/>
<path d="M8.34767 9.39087L8.7995 10.1734H9.7032L9.25133 10.9561L9.7032 11.7387H8.7995L8.34767 12.5213L7.89584 11.7387H6.99219L7.44402 10.9561L6.99219 10.1734H7.89584L8.34767 9.39087Z" fill="#D80027"/>
</g>
<defs>
<clipPath id="clip0_505_11412">
<rect width="24" height="24" fill="white"/>
</clipPath>
</defs>
</svg>
