<svg width="24" height="24" viewBox="0 0 24 24" fill="none" xmlns="http://www.w3.org/2000/svg">
<g clip-path="url(#clip0_505_11230)">
<path d="M12 24C18.6274 24 24 18.6274 24 12C24 5.37258 18.6274 0 12 0C5.37258 0 0 5.37258 0 12C0 18.6274 5.37258 24 12 24Z" fill="#FFDA44"/>
<path d="M7.30681 7.82513H23.256C21.5606 3.25552 17.162 -0.000976562 12.0025 -0.000976562C8.68869 -0.000976562 5.68902 1.34241 3.51758 3.51413L7.30681 7.82513Z" fill="#338AF3"/>
<path d="M7.30486 16.1724H23.2541C21.5586 20.742 17.16 23.9985 12.0005 23.9985C8.68673 23.9985 5.68706 22.6551 3.51562 20.4834L7.30486 16.1724Z" fill="#338AF3"/>
<path d="M3.51471 3.5144C-1.17157 8.20069 -1.17157 15.7987 3.51471 20.485C5.45126 18.5485 7.31374 16.686 12 11.9997L3.51471 3.5144Z" fill="black"/>
</g>
<defs>
<clipPath id="clip0_505_11230">
<rect width="24" height="24" fill="white"/>
</clipPath>
</defs>
</svg>
