<svg width="24" height="24" viewBox="0 0 24 24" fill="none" xmlns="http://www.w3.org/2000/svg">
<g clip-path="url(#clip0_505_11426)">
<path d="M0.566625 8.34765C0.199031 9.49932 -4.68667e-05 10.7262 8.276e-09 11.9998C-4.68667e-05 13.2734 0.199031 14.5003 0.566672 15.652L12 16.1738L23.4333 15.652C23.8008 14.5003 24 13.2733 24 11.9999C24 10.7263 23.8009 9.49932 23.4333 8.34765L12 7.82593L0.566625 8.34765Z" fill="#F0F0F0"/>
<path d="M24 12.0006C24 11.2887 23.9377 10.5914 23.8187 9.91357H0.181313C0.0623437 10.5914 0 11.2886 0 12.0005C0 12.7125 0.0623906 13.4097 0.181313 14.0875H23.8187C23.9376 13.4096 24 12.7124 24 12.0006Z" fill="black"/>
<path d="M11.9997 23.9995C17.3536 23.9995 21.8878 20.4931 23.433 15.6516H0.566406C2.11164 20.493 6.64591 23.9994 11.9997 23.9995Z" fill="#338AF3"/>
<path d="M11.9998 -0.00073242C6.64595 -0.00073242 2.11173 3.50566 0.566406 8.347L23.433 8.34705C21.8878 3.50566 17.3536 -0.00082617 11.9998 -0.00073242Z" fill="#338AF3"/>
</g>
<defs>
<clipPath id="clip0_505_11426">
<rect width="24" height="24" fill="white"/>
</clipPath>
</defs>
</svg>
