<svg width="24" height="24" viewBox="0 0 24 24" fill="none" xmlns="http://www.w3.org/2000/svg">
<g clip-path="url(#clip0_505_11733)">
<path d="M22.667 6.49836C22.1125 5.42403 21.3857 4.41566 20.4852 3.5151C19.5845 2.61449 18.5761 1.88769 17.5018 1.33325L9.04798 9.04916L1.33203 17.503C1.88652 18.5773 2.61331 19.5858 3.51387 20.4863C4.41444 21.3869 5.42286 22.1137 6.49714 22.6682L14.951 14.9522L22.667 6.49836Z" fill="#FFDA44"/>
<path d="M3.51553 20.4855C4.01892 20.9889 4.55606 21.4379 5.11945 21.8332L21.8343 5.11823C21.4391 4.55484 20.9902 4.0177 20.4868 3.51431C19.9833 3.01092 19.4462 2.562 18.8828 2.16675L2.16797 18.8816C2.56317 19.4449 3.01209 19.9822 3.51553 20.4855Z" fill="#D80027"/>
<path d="M3.51441 3.51431C-0.271541 7.30026 -0.998338 12.9861 1.33257 17.5023L17.5024 1.33251C12.9862 -0.998347 7.30032 -0.271457 3.51441 3.51431Z" fill="#338AF3"/>
<path d="M20.486 20.485C24.2719 16.6991 24.9986 11.0132 22.6679 6.49707L6.49805 22.6669C11.0142 24.9977 16.7001 24.271 20.486 20.485Z" fill="#338AF3"/>
<path d="M6.39547 3.65112L7.043 5.64411H9.1385L7.44322 6.87579L8.09075 8.86873L6.39547 7.637L4.70009 8.86873L5.34772 6.87579L3.65234 5.64411H5.74784L6.39547 3.65112Z" fill="#FFDA44"/>
</g>
<defs>
<clipPath id="clip0_505_11733">
<rect width="24" height="24" fill="white"/>
</clipPath>
</defs>
</svg>
