<svg width="24" height="24" viewBox="0 0 24 24" fill="none" xmlns="http://www.w3.org/2000/svg">
<g clip-path="url(#clip0_505_11539)">
<path d="M17.2165 1.19121C15.6389 0.428363 13.869 0.000488281 11.9991 0.000488281C10.1293 0.000488281 8.35939 0.428363 6.78176 1.19121L5.73828 12.0005L6.78176 22.8098C8.35939 23.5726 10.1293 24.0005 11.9991 24.0005C13.869 24.0005 15.6389 23.5726 17.2165 22.8098L18.26 12.0005L17.2165 1.19121Z" fill="#D80027"/>
<path d="M12 7.82544L13.0359 11.0138H16.3888L13.6764 12.9846L14.7124 16.1732L12 14.2025L9.28753 16.1732L10.3237 12.9846L7.61133 11.0138H10.964L12 7.82544Z" fill="#FFDA44"/>
<path d="M6.78262 1.19165C2.76872 3.13256 0 7.24298 0 12.0005C0 16.758 2.76872 20.8685 6.78262 22.8094V1.19165Z" fill="#496E2D"/>
<path d="M17.2168 1.19165V22.8094C21.2307 20.8685 23.9994 16.758 23.9994 12.0005C23.9994 7.24303 21.2307 3.13256 17.2168 1.19165Z" fill="#FFDA44"/>
</g>
<defs>
<clipPath id="clip0_505_11539">
<rect width="24" height="24" fill="white"/>
</clipPath>
</defs>
</svg>
