<svg width="24" height="24" viewBox="0 0 24 24" fill="none" xmlns="http://www.w3.org/2000/svg">
<g clip-path="url(#clip0_505_11728)">
<path d="M12 24C18.6274 24 24 18.6274 24 12C24 5.37258 18.6274 0 12 0C5.37258 0 0 5.37258 0 12C0 18.6274 5.37258 24 12 24Z" fill="#F0F0F0"/>
<path d="M10.9575 11.9993C10.9575 11.9993 3.52266 20.4862 3.51562 20.4845C5.68716 22.6561 8.6872 23.9993 12.0009 23.9993C18.6283 23.9993 24.0009 18.6266 24.0009 11.9993H10.9575Z" fill="#D80027"/>
<path d="M3.51471 3.51465C-1.17157 8.20093 -1.17157 15.7989 3.51471 20.4853C5.45126 18.5487 7.31375 16.6862 12 12L3.51471 3.51465Z" fill="#0052B4"/>
</g>
<defs>
<clipPath id="clip0_505_11728">
<rect width="24" height="24" fill="white"/>
</clipPath>
</defs>
</svg>
