<svg width="24" height="24" viewBox="0 0 24 24" fill="none" xmlns="http://www.w3.org/2000/svg">
<g clip-path="url(#clip0_505_11704)">
<path d="M12 24.0001C18.6273 24.0001 23.9999 18.6276 23.9999 12.0002C23.9999 5.37281 18.6273 0.000244141 12 0.000244141C5.37256 0.000244141 0 5.37281 0 12.0002C0 18.6276 5.37256 24.0001 12 24.0001Z" fill="#F0F0F0"/>
<path d="M11.999 0.000244141C8.07308 0.000244141 4.58773 1.8857 2.39844 4.80024H21.5994C19.4102 1.88565 15.9248 0.000244141 11.999 0.000244141Z" fill="#0052B4"/>
<path d="M11.999 24.0002C15.9248 24.0002 19.4102 22.1147 21.5995 19.2002H2.39844C4.58769 22.1148 8.07308 24.0002 11.999 24.0002Z" fill="#0052B4"/>
<path d="M0 12.0001C0 12.8221 0.0828749 13.6247 0.240328 14.4001H23.7597C23.9172 13.6247 24 12.8221 24 12.0001C24 11.1781 23.9171 10.3756 23.7597 9.6001H0.240328C0.0828749 10.3756 0 11.1781 0 12.0001Z" fill="#0052B4"/>
<path d="M3.51468 3.51465C-1.17156 8.20088 -1.17156 15.7989 3.51468 20.4852C5.45122 18.5487 7.31366 16.6862 11.9999 12L3.51468 3.51465Z" fill="#D80027"/>
<path d="M4.85597 8.86963L5.63287 11.261H8.14753L6.1133 12.739L6.8902 15.1304L4.85597 13.6524L2.82164 15.1304L3.59873 12.739L1.56445 11.261H4.07892L4.85597 8.86963Z" fill="#F0F0F0"/>
</g>
<defs>
<clipPath id="clip0_505_11704">
<rect width="24" height="24" fill="white"/>
</clipPath>
</defs>
</svg>
