<svg width="24" height="24" viewBox="0 0 24 24" fill="none" xmlns="http://www.w3.org/2000/svg">
<g clip-path="url(#clip0_505_11741)">
<path d="M12 24C18.6274 24 24 18.6274 24 12C24 5.37258 18.6274 0 12 0C5.37258 0 0 5.37258 0 12C0 18.6274 5.37258 24 12 24Z" fill="#F0F0F0"/>
<path d="M9.39262 10.435H23.8997C23.1327 4.54721 18.0982 0.000244141 12.0013 0.000244141C11.1052 0.000244141 10.2326 0.099291 9.39258 0.285479V10.435H9.39262Z" fill="#D80027"/>
<path d="M6.26085 10.4359V1.46021C2.96586 3.25805 0.607016 6.55575 0.101562 10.4359H6.26085V10.4359Z" fill="#D80027"/>
<path d="M6.2608 13.5657H0.101562C0.607016 17.4458 2.96586 20.7435 6.26085 22.5413L6.2608 13.5657Z" fill="#D80027"/>
<path d="M9.39258 13.5657V23.7152C10.2326 23.9014 11.1052 24.0005 12.0013 24.0005C18.0982 24.0005 23.1327 19.4535 23.8997 13.5657H9.39258V13.5657Z" fill="#D80027"/>
</g>
<defs>
<clipPath id="clip0_505_11741">
<rect width="24" height="24" fill="white"/>
</clipPath>
</defs>
</svg>
