<svg width="24" height="24" viewBox="0 0 24 24" fill="none" xmlns="http://www.w3.org/2000/svg">
<g clip-path="url(#clip0_505_11755)">
<path d="M12 24C18.6274 24 24 18.6274 24 12C24 5.37258 18.6274 0 12 0C5.37258 0 0 5.37258 0 12C0 18.6274 5.37258 24 12 24Z" fill="#F0F0F0"/>
<path d="M14.3477 23.7695C19.0915 22.8285 22.8285 19.0915 23.7695 14.3477H14.3477V23.7695Z" fill="#496E2D"/>
<path d="M0.230469 14.3477C1.17148 19.0915 4.90845 22.8285 9.65234 23.7695V14.3477H0.230469Z" fill="#496E2D"/>
<path d="M23.7695 9.65234C22.8285 4.9085 19.0915 1.17153 14.3477 0.230469V9.65234H23.7695Z" fill="#496E2D"/>
<path d="M9.65234 0.230469C4.90845 1.17153 1.17148 4.9085 0.230469 9.65234H9.65234V0.230469Z" fill="#496E2D"/>
<path d="M11.2175 14.3481H9.65234V23.77C10.1631 23.8713 10.6857 23.9399 11.2175 23.9742V14.3481Z" fill="#FFDA44"/>
<path d="M11.2175 9.65267V0.0266113C10.6857 0.0608301 10.1631 0.129502 9.65234 0.230799V9.65267H11.2175Z" fill="#FFDA44"/>
<path d="M12.782 0.0265977C12.5232 0.00986328 12.2624 0.000488281 11.9994 0.000488281C11.7364 0.000488281 11.4756 0.00986328 11.2168 0.0265977V9.65271H12.782V0.0265977H12.782Z" fill="black"/>
<path d="M11.2168 23.974C11.4756 23.9907 11.7364 24.0001 11.9994 24.0001C12.2624 24.0001 12.5232 23.9907 12.782 23.974V14.3479H11.2168V23.974H11.2168Z" fill="black"/>
<path d="M9.65145 11.2178V9.65259H0.229578C0.128234 10.1634 0.0596094 10.6859 0.0253906 11.2178H9.65145Z" fill="#FFDA44"/>
<path d="M14.3477 11.2183H23.9738C23.9395 10.6864 23.8709 10.1639 23.7696 9.65308H14.3477V11.2183H14.3477Z" fill="#FFDA44"/>
<path d="M14.3477 12.783H23.9738C23.9904 12.5242 23.9998 12.2634 23.9998 12.0004C23.9998 11.7374 23.9904 11.4766 23.9737 11.2178H14.3477V12.783Z" fill="black"/>
<path d="M0.0261094 11.2178C0.00942187 11.4766 0 11.7374 0 12.0004C0 12.2634 0.00942187 12.5242 0.0261094 12.783H9.65222V11.2178H0.0261094V11.2178Z" fill="black"/>
<path d="M11.9989 17.739C15.1685 17.739 17.738 15.1695 17.738 11.9999C17.738 8.83024 15.1685 6.26074 11.9989 6.26074C8.82927 6.26074 6.25977 8.83024 6.25977 11.9999C6.25977 15.1695 8.82927 17.739 11.9989 17.739Z" fill="#D80027"/>
<path d="M13.3056 12.6407C12.8787 11.7869 12.3238 10.9216 12.3238 10.9216C12.3238 10.9216 12.3376 10.5277 12.3376 10.2929C12.3376 9.93928 12.0509 9.65259 11.6973 9.65259C11.3623 9.65259 11.0878 9.90998 11.0598 10.2377C10.7963 10.2549 10.5879 10.4734 10.5879 10.7412C10.5879 10.9358 10.6982 11.1045 10.8596 11.1889C10.9399 11.0012 11.097 10.8547 11.2913 10.7879C11.323 10.8138 11.3571 10.8369 11.3934 10.8566L11.4754 10.8959C11.4754 10.8959 11.1712 11.7532 11.1712 12.2138C11.1712 13.5087 12.025 13.908 12.025 13.908V13.9214L11.5981 14.3482H12.4519V13.4945L12.8788 13.9214C12.8825 13.9133 13.6874 13.4043 13.3056 12.6407Z" fill="#496E2D"/>
<path d="M11.9986 7.30444L12.1929 7.90229H12.8215L12.3129 8.2718L12.5072 8.86964L11.9986 8.50018L11.49 8.86964L11.6843 8.2718L11.1758 7.90229H11.8044L11.9986 7.30444Z" fill="#496E2D"/>
<path d="M9.23817 8.20171L9.74667 8.57122L10.2553 8.20166L10.061 8.7996L10.5696 9.16902L9.94097 9.16907L9.74672 9.76692L9.55242 9.16907L8.92383 9.16902L9.43237 8.79951L9.23817 8.20171Z" fill="#496E2D"/>
<path d="M7.5332 10.5493H8.16175L8.35605 9.95142L8.55029 10.5493L9.17893 10.5492L8.67039 10.9188L8.86468 11.5166L8.35605 11.1471L7.8475 11.5166L8.0417 10.9187L7.5332 10.5493Z" fill="#496E2D"/>
<path d="M7.5332 13.4512L8.0417 13.0818L7.84745 12.4839L8.35605 12.8534L8.86464 12.4839L8.67039 13.0817L9.17898 13.4512L8.5503 13.4513L8.35605 14.0491L8.16175 13.4512H7.5332Z" fill="#496E2D"/>
<path d="M9.23822 15.7991L9.43242 15.2013L8.92383 14.8318H9.55247L9.74676 14.2339L9.94101 14.8317H10.5697L10.0611 15.2013L10.2553 15.7991L9.74672 15.4296L9.23822 15.7991Z" fill="#496E2D"/>
<path d="M11.9986 16.6963L11.8044 16.0986H11.1758L11.6843 15.729L11.49 15.1312L11.9986 15.5006L12.5072 15.1311L12.3129 15.729L12.8215 16.0985L12.1929 16.0986L11.9986 16.6963Z" fill="#496E2D"/>
<path d="M14.7592 15.799L14.2507 15.4296L13.7421 15.7991L13.9363 15.2013L13.4277 14.8318L14.0564 14.8317L14.2506 14.2339L14.4449 14.8318H15.0735L14.565 15.2013L14.7592 15.799Z" fill="#496E2D"/>
<path d="M16.4661 13.4514H15.8375L15.6433 14.0493L15.449 13.4515H14.8203L15.3289 13.0819L15.1346 12.4841L15.6433 12.8536L16.1518 12.4841L15.9576 13.082L16.4661 13.4514Z" fill="#496E2D"/>
<path d="M16.4661 10.5492L15.9576 10.9187L16.1518 11.5165L15.6433 11.1471L15.1347 11.5166L15.3289 10.9187L14.8203 10.5493L15.449 10.5492L15.6432 9.95142L15.8375 10.5492H16.4661Z" fill="#496E2D"/>
<path d="M14.7592 8.20166L14.565 8.79946L15.0735 9.16898H14.4449L14.2507 9.76687L14.0564 9.16902L13.4277 9.16907L13.9363 8.79946L13.7421 8.20171L14.2507 8.57113L14.7592 8.20166Z" fill="#496E2D"/>
</g>
<defs>
<clipPath id="clip0_505_11755">
<rect width="24" height="24" fill="white"/>
</clipPath>
</defs>
</svg>
