<svg width="24" height="24" viewBox="0 0 24 24" fill="none" xmlns="http://www.w3.org/2000/svg">
<g clip-path="url(#clip0_505_11943)">
<path d="M12 24C18.6274 24 24 18.6274 24 12C24 5.37258 18.6274 0 12 0C5.37258 0 0 5.37258 0 12C0 18.6274 5.37258 24 12 24Z" fill="#F0F0F0"/>
<path d="M12 8.86995H23.5866C23.2857 7.75367 22.8284 6.70175 22.2387 5.7395H12V8.86995Z" fill="#338AF3"/>
<path d="M4.53058 21.3914H19.4702C20.5654 20.5192 21.5046 19.4597 22.2391 18.261H1.76172C2.4963 19.4597 3.43548 20.5192 4.53058 21.3914Z" fill="#338AF3"/>
<path d="M4.17433 2.90381C3.23092 3.7162 2.41534 4.67287 1.76172 5.73956H4.17433V2.90381Z" fill="#338AF3"/>
<path d="M12 12.0001C12 10.7778 12 9.75482 12 8.86963H7.30434V12.0001H4.17389V8.86963H0.413391C0.144375 9.86779 0 10.9169 0 12.0001C0 13.0832 0.144375 14.1324 0.413391 15.1305H23.5867C23.8556 14.1324 24 13.0832 24 12.0001H12Z" fill="#338AF3"/>
<path d="M12.0003 0.000732422C10.334 0.000732422 8.74703 0.340717 7.30469 0.954545V5.73987H12.0003C12.0003 4.64712 12.0003 3.71773 12.0003 2.60942H19.4702C17.4203 0.976857 14.8245 0.000732422 12.0003 0.000732422Z" fill="#338AF3"/>
</g>
<defs>
<clipPath id="clip0_505_11943">
<rect width="24" height="24" fill="white"/>
</clipPath>
</defs>
</svg>
