<svg width="24" height="24" viewBox="0 0 24 24" fill="none" xmlns="http://www.w3.org/2000/svg">
<g clip-path="url(#clip0_505_11829)">
<path d="M10.9575 10.9565C10.9575 10.9565 3.52266 20.487 3.51562 20.4853C5.68716 22.6569 8.6872 24 12.0009 24C18.6283 24 24.0009 18.6274 24.0009 12L10.9575 10.9565Z" fill="#338AF3"/>
<path d="M10.9575 11.9998C10.9575 11.9998 3.52266 3.5128 3.51562 3.51449C5.68716 1.34291 8.6872 -0.000244141 12.0009 -0.000244141C18.6283 -0.000244141 24.0009 5.37238 24.0009 11.9998H10.9575Z" fill="#6DA544"/>
<path d="M3.51471 3.51538C-1.17157 8.20166 -1.17157 15.7997 3.51471 20.486C3.51438 20.4879 24 12.0007 24 12.0007L3.51471 3.51538Z" fill="#D80027"/>
<path d="M6.25983 7.04321C3.95831 7.04321 2.08594 8.91563 2.08594 11.2171V12.7823C2.08594 15.0838 3.95836 16.9562 6.25983 16.9562C8.5613 16.9562 10.4337 15.0838 10.4337 12.7823V11.2171C10.4338 8.91563 8.56134 7.04321 6.25983 7.04321ZM8.86852 12.7824C8.86852 13.9482 8.09967 14.9377 7.04241 15.2709V13.565L8.14978 12.4576L7.04302 11.3508L7.04241 10.9569V10.4346H5.47725V11.9997L4.37063 13.1063L5.47725 14.2129V15.271C4.41998 14.9378 3.65114 13.9483 3.65114 12.7824V11.2172C3.65114 9.77874 4.82142 8.60851 6.25983 8.60851C7.69824 8.60851 8.86852 9.77879 8.86852 11.2172V12.7824Z" fill="#FFDA44"/>
</g>
<defs>
<clipPath id="clip0_505_11829">
<rect width="24" height="24" fill="white"/>
</clipPath>
</defs>
</svg>
