<svg width="24" height="24" viewBox="0 0 24 24" fill="none" xmlns="http://www.w3.org/2000/svg">
<g clip-path="url(#clip0_505_12888)">
<path d="M0 11.9992C0 13.4671 0.264047 14.8731 0.746391 16.1731L12 17.2166L23.2536 16.1731C23.736 14.8731 24 13.4671 24 11.9992C24 10.5314 23.736 9.12533 23.2536 7.82534L12 6.78186L0.746391 7.82534C0.264047 9.12533 0 10.5314 0 11.9992Z" fill="#FFDA44"/>
<path d="M23.2533 7.82574C21.5578 3.25618 17.1593 -0.000366211 11.9997 -0.000366211C6.84012 -0.000366211 2.44161 3.25618 0.746094 7.82574H23.2533Z" fill="#D80027"/>
<path d="M0.746094 16.174C2.44161 20.7435 6.84012 24.0001 11.9997 24.0001C17.1593 24.0001 21.5578 20.7435 23.2533 16.174H0.746094Z" fill="#D80027"/>
</g>
<defs>
<clipPath id="clip0_505_12888">
<rect width="24" height="24" fill="white"/>
</clipPath>
</defs>
</svg>
