<svg width="24" height="24" viewBox="0 0 24 24" fill="none" xmlns="http://www.w3.org/2000/svg">
<g clip-path="url(#clip0_505_11840)">
<path d="M0 12.0001C0 13.468 0.264047 14.8741 0.746437 16.1741L12 17.2175L23.2536 16.1741C23.736 14.8741 24 13.468 24 12.0001C24 10.5524 23.7435 9.16453 23.2737 7.87954L12 6.78271L0.726281 7.87959C0.256453 9.16453 0 10.5524 0 12.0001Z" fill="#FFDA44"/>
<path d="M11.9997 24.0004C17.1593 24.0004 21.5578 20.7439 23.2533 16.1743H0.746094C2.44161 20.7439 6.84012 24.0004 11.9997 24.0004Z" fill="#D80027"/>
<path d="M11.9997 -0.000244141C6.84013 -0.000244141 2.44161 3.25626 0.746094 7.82587H23.2534C21.5578 3.25626 17.1593 -0.000244141 11.9997 -0.000244141Z" fill="#6DA544"/>
<path d="M11.9989 17.7397C15.1685 17.7397 17.738 15.1702 17.738 12.0006C17.738 8.83097 15.1685 6.26147 11.9989 6.26147C8.82927 6.26147 6.25977 8.83097 6.25977 12.0006C6.25977 15.1702 8.82927 17.7397 11.9989 17.7397Z" fill="#0052B4"/>
<path d="M11.999 7.5564L13.035 10.7449H16.393L13.6753 12.7156L14.7195 15.9136L11.999 13.9336L9.28269 15.9099L10.3227 12.7156L7.60742 10.7449H10.963L11.999 7.5564Z" fill="#FFDA44"/>
<path d="M16.1308 12.7939L12.8441 11.7259L14.8753 8.9303L14.0312 8.31689L11.9999 11.1127L9.96872 8.31694L9.1245 8.93025L11.1557 11.7261L7.86914 12.7939L8.19155 13.7864L11.4782 12.7185V16.1742H12.5217V12.7185L15.8082 13.7864L16.1308 12.7939Z" fill="#FFDA44"/>
</g>
<defs>
<clipPath id="clip0_505_11840">
<rect width="24" height="24" fill="white"/>
</clipPath>
</defs>
</svg>
