<svg width="24" height="24" viewBox="0 0 24 24" fill="none" xmlns="http://www.w3.org/2000/svg">
<g clip-path="url(#clip0_505_11869)">
<path d="M24 12C24 18.6274 18.6274 24 12 24C5.37262 24 0 18.6274 0 12C0 12.0029 12 0.0013125 12 0C18.6274 0 24 5.37262 24 12Z" fill="#338AF3"/>
<path d="M11.9981 5.74023V9.78756L7.82422 5.74023H11.9981Z" fill="#0052B4"/>
<path d="M6.26 12.0018H9.78556L6.26 7.30615L5.73828 10.9583L6.26 12.0018Z" fill="#0052B4"/>
<path d="M11.9668 12.0001H11.999C11.999 11.9893 11.999 11.9787 11.999 11.9679C11.9883 11.9786 11.9776 11.9894 11.9668 12.0001Z" fill="#F0F0F0"/>
<path d="M12 6.26147C12 4.14999 12 2.76647 12 0.000610352H11.998C5.3715 0.00173535 0 5.37384 0 12.0006H6.26086V8.47509L9.78642 12.0006H11.968C11.9787 11.9899 11.9894 11.9792 12.0001 11.9685C12.0001 11.16 12.0001 10.4387 12.0001 9.78708L8.47443 6.26147H12Z" fill="#F0F0F0"/>
<path d="M6.07027 1.5658C4.19344 2.6345 2.63316 4.19478 1.56445 6.07161V12.0006H4.69491V4.69635V4.69625H11.9993C11.9993 3.70892 11.9993 2.76833 11.9993 1.5658H6.07027Z" fill="#D80027"/>
<path d="M11.9989 10.5249L7.73544 6.26147H6.25977V6.26157L11.9988 12.0006H11.9989C11.9989 12.0006 11.9989 10.983 11.9989 10.5249Z" fill="#D80027"/>
<path d="M13.5664 7.82718V12.001C13.5664 14.7966 17.2186 15.6532 17.2186 15.6532C17.2186 15.6532 20.8707 14.7966 20.8707 12.001V7.82718L17.2186 6.78369L13.5664 7.82718Z" fill="#F3F3F3"/>
<path d="M20.8707 7.82631V6.26111H13.5664V7.82631H16.6968V10.9568H13.5664V12.0002C13.5664 12.0002 13.5664 12.0003 13.5664 12.0003L16.6968 12.0003V15.4924C17.0117 15.6038 17.2186 15.6524 17.2186 15.6524C17.2186 15.6524 17.4254 15.6039 17.7402 15.4924V12.0003H20.8707V12.0002V10.9568H17.7402V7.82626H20.8707V7.82631Z" fill="#D80027"/>
</g>
<defs>
<clipPath id="clip0_505_11869">
<rect width="24" height="24" fill="white"/>
</clipPath>
</defs>
</svg>
