<svg width="24" height="24" viewBox="0 0 24 24" fill="none" xmlns="http://www.w3.org/2000/svg">
<g clip-path="url(#clip0_505_12349)">
<path d="M12 24C18.6274 24 24 18.6274 24 12C24 5.37258 18.6274 0 12 0C5.37258 0 0 5.37258 0 12C0 18.6274 5.37258 24 12 24Z" fill="#338AF3"/>
<path d="M11.999 5.21753L12.517 6.81184H14.1935L12.8373 7.7972L13.3552 9.39147L11.999 8.40615L10.6428 9.39147L11.1609 7.7972L9.80469 6.81184H11.4811L11.999 5.21753Z" fill="#F0F0F0"/>
<path d="M5.2168 11.9997L6.81111 11.4816V9.80518L7.79647 11.1615L9.39073 10.6434L8.40542 11.9997L9.39073 13.3558L7.79647 12.8377L6.81111 14.1939V12.5176L5.2168 11.9997Z" fill="#F0F0F0"/>
<path d="M11.9991 18.7831L11.4811 17.1888H9.80469L11.161 16.2034L10.643 14.6091L11.9991 15.5944L13.3553 14.6091L12.8372 16.2034L14.1935 17.1888H12.5171L11.9991 18.7831Z" fill="#F0F0F0"/>
<path d="M18.7833 11.9995L17.189 12.5176V14.1939L16.2036 12.8377L14.6094 13.3557L15.5947 11.9995L14.6094 10.6434L16.2036 11.1615L17.189 9.80518V11.4816L18.7833 11.9995Z" fill="#F0F0F0"/>
</g>
<defs>
<clipPath id="clip0_505_12349">
<rect width="24" height="24" fill="white"/>
</clipPath>
</defs>
</svg>
