<svg width="24" height="24" viewBox="0 0 24 24" fill="none" xmlns="http://www.w3.org/2000/svg">
<g clip-path="url(#clip0_505_11936)">
<path d="M12 24C18.6274 24 24 18.6274 24 12C24 5.37258 18.6274 0 12 0C5.37258 0 0 5.37258 0 12C0 18.6274 5.37258 24 12 24Z" fill="#F9F9F9"/>
<path d="M11.9997 24.0007C17.1593 24.0007 21.5578 20.7442 23.2533 16.1746H0.746094C2.44166 20.7442 6.84012 24.0007 11.9997 24.0007Z" fill="#D80027"/>
<path d="M16.6946 9.91353V8.34833H17.2163V7.30485H16.1728V7.82661H15.1294V7.30485H14.0859V8.34833H14.6076V9.91353H13.5641V6.26146H14.0859V5.21802H13.0424V5.73964H12.5206V5.21802H11.4772V5.73964H10.9554V5.21802H9.91194V6.26146H10.4337V9.91353H9.39022V8.34833H9.91194V7.30485H8.86845V7.82661H7.82502V7.30485H6.78153V8.34833H7.30325V9.91353H6.25977V14.0875H17.7381V9.91353H16.6946Z" fill="#D80027"/>
<path d="M11.999 13.5652C11.1346 13.5652 10.4338 14.266 10.4338 15.1304C10.4338 15.8118 10.8695 16.3913 11.4773 16.6062V18.7826H9.91211V20.8696H12.5208V16.6063C13.1286 16.3914 13.5643 15.8119 13.5643 15.1304C13.5642 14.266 12.8635 13.5652 11.999 13.5652ZM11.999 15.6522C11.7109 15.6522 11.4773 15.4185 11.4773 15.1304C11.4773 14.8423 11.7109 14.6087 11.999 14.6087C12.2872 14.6087 12.5207 14.8423 12.5207 15.1304C12.5207 15.4185 12.2872 15.6522 11.999 15.6522Z" fill="#FFDA44"/>
</g>
<defs>
<clipPath id="clip0_505_11936">
<rect width="24" height="24" fill="white"/>
</clipPath>
</defs>
</svg>
