<svg width="24" height="24" viewBox="0 0 24 24" fill="none" xmlns="http://www.w3.org/2000/svg">
<g clip-path="url(#clip0_505_11952)">
<path d="M0 12C0 5.37262 5.37262 0 12 0C18.6274 0 24 5.37262 24 12C23.4783 12 12 13.5652 12 13.5652L0 12Z" fill="#F0F0F0"/>
<path d="M24 12.0005C24 18.6279 18.6274 24.0005 12 24.0005C5.37262 24.0005 0 18.6279 0 12.0005" fill="#D80027"/>
<path d="M8.34657 17.7398C11.5162 17.7398 14.0857 15.1703 14.0857 12.0006C14.0857 8.83097 11.5162 6.26147 8.34657 6.26147C5.17692 6.26147 2.60742 8.83097 2.60742 12.0006C2.60742 15.1703 5.17692 17.7398 8.34657 17.7398Z" fill="#F0F0F0"/>
<path d="M2.60742 12.0006C2.60742 8.83107 5.17692 6.26147 8.34657 6.26147C11.5163 6.26147 14.0857 8.83102 14.0857 12.0006" fill="#D80027"/>
</g>
<defs>
<clipPath id="clip0_505_11952">
<rect width="24" height="24" fill="white"/>
</clipPath>
</defs>
</svg>
