<svg width="24" height="24" viewBox="0 0 24 24" fill="none" xmlns="http://www.w3.org/2000/svg">
<g clip-path="url(#clip0_505_11820)">
<path d="M12 24C18.6274 24 24 18.6274 24 12C24 5.37258 18.6274 0 12 0C5.37258 0 0 5.37258 0 12C0 18.6274 5.37258 24 12 24Z" fill="#F0F0F0"/>
<path d="M7.30486 7.82587H23.2541C21.5586 3.25626 17.16 -0.000244141 12.0005 -0.000244141C8.68673 -0.000244141 5.68706 1.34315 3.51562 3.51487L7.30486 7.82587Z" fill="#6DA544"/>
<path d="M7.30486 16.1743H23.2541C21.5586 20.7439 17.16 24.0004 12.0005 24.0004C8.68673 24.0004 5.68706 22.657 3.51562 20.4853L7.30486 16.1743Z" fill="#D80027"/>
<path d="M3.51471 3.51538C-1.17157 8.20166 -1.17157 15.7997 3.51471 20.486C5.45126 18.5495 7.31375 16.687 12 12.0007L3.51471 3.51538Z" fill="#0052B4"/>
<path d="M14.0879 9.91284V12.5215C14.0879 14.119 16.1749 14.6085 16.1749 14.6085C16.1749 14.6085 18.2618 14.119 18.2618 12.5215V9.91284H14.0879Z" fill="#DEDDE0"/>
<path d="M16.6958 12.0522H15.6523V13.5653H16.6958V12.0522Z" fill="#786145"/>
<path d="M17.2181 11.4788C17.2181 10.9025 16.7509 10.4353 16.1746 10.4353C15.5982 10.4353 15.1311 10.9025 15.1311 11.4788C14.843 11.4788 14.6094 11.7124 14.6094 12.0005C14.6094 12.2887 14.843 12.5222 15.1311 12.5222C15.3022 12.5222 17.047 12.5222 17.2181 12.5222C17.5062 12.5222 17.7398 12.2887 17.7398 12.0005C17.7398 11.7124 17.5062 11.4788 17.2181 11.4788Z" fill="#6DA544"/>
</g>
<defs>
<clipPath id="clip0_505_11820">
<rect width="24" height="24" fill="white"/>
</clipPath>
</defs>
</svg>
