<svg width="24" height="24" viewBox="0 0 24 24" fill="none" xmlns="http://www.w3.org/2000/svg">
<g clip-path="url(#clip0_505_12007)">
<path d="M12.0001 0C10.917 0 9.86772 0.144375 8.86961 0.413391L7.82617 12L8.86966 23.5866C9.86772 23.8556 10.917 24 12.0001 24C18.6274 24 24.0001 18.6274 24.0001 12C24.0001 5.37262 18.6274 0 12.0001 0Z" fill="#FFDA44"/>
<path d="M7.82617 12.0005L8.86966 23.5871C9.86772 23.8561 10.917 24.0005 12.0001 24.0005C18.6274 24.0005 24.0001 18.6279 24.0001 12.0005H7.82617Z" fill="#6DA544"/>
<path d="M0 11.9994C0 16.5479 2.53078 20.5051 6.26086 22.5403V1.4585C2.53078 3.49372 0 7.4509 0 11.9994Z" fill="#D80027"/>
<path d="M0 11.9995C0 17.5438 3.76036 22.2091 8.86955 23.5861V0.412842C3.76036 1.78984 0 6.45512 0 11.9995Z" fill="#D80027"/>
<path d="M4.5337 8.86841L5.31066 11.2598H7.82531L5.79103 12.7378L6.56794 15.1293L4.5337 13.6513L2.49937 15.1293L3.27647 12.7378L1.24219 11.2598H3.7567L4.5337 8.86841Z" fill="black"/>
</g>
<defs>
<clipPath id="clip0_505_12007">
<rect width="24" height="24" fill="white"/>
</clipPath>
</defs>
</svg>
