<svg width="24" height="24" viewBox="0 0 24 24" fill="none" xmlns="http://www.w3.org/2000/svg">
<g clip-path="url(#clip0_505_12049)">
<path d="M12 24C18.6274 24 24 18.6274 24 12C24 5.37258 18.6274 0 12 0C5.37258 0 0 5.37258 0 12C0 18.6274 5.37258 24 12 24Z" fill="#D80027"/>
<path d="M13.2387 9.07764C12.966 10.212 12.4815 9.99564 12.2437 10.9849C10.8429 10.6481 9.98021 9.2395 10.317 7.83864C10.6537 6.43787 12.0624 5.57519 13.4632 5.91198C12.9876 7.89044 13.4827 8.06312 13.2387 9.07764Z" fill="#F0F0F0"/>
<path d="M9.60395 9.91773C10.5985 10.5276 10.243 10.9217 11.1103 11.4535C10.3571 12.6817 8.75092 13.0668 7.5227 12.3137C6.29453 11.5605 5.90936 9.95424 6.66255 8.72607C8.3972 9.78976 8.71431 9.37225 9.60395 9.91773Z" fill="#F0F0F0"/>
<path d="M9.28044 13.635C10.1678 12.8776 10.4326 13.3375 11.2065 12.677C12.1419 13.7728 12.0117 15.4194 10.916 16.3548C9.82015 17.2902 8.17353 17.1599 7.23828 16.0642C8.78581 14.7432 8.4867 14.3124 9.28044 13.635Z" fill="#F0F0F0"/>
<path d="M12.7145 15.0917C12.2683 14.0137 12.7875 13.9038 12.3984 12.9638C13.7296 12.4129 15.2555 13.0454 15.8065 14.3767C16.3574 15.7079 15.7248 17.2337 14.3936 17.7847C13.6156 15.9045 13.1136 16.0559 12.7145 15.0917Z" fill="#F0F0F0"/>
<path d="M15.1627 12.2741C13.9996 12.3653 14.0555 11.8375 13.0413 11.9171C12.9287 10.4809 14.0018 9.22507 15.4381 9.11234C16.8744 8.99988 18.1302 10.0729 18.2428 11.5093C16.2141 11.6683 16.2029 12.1925 15.1627 12.2741Z" fill="#F0F0F0"/>
</g>
<defs>
<clipPath id="clip0_505_12049">
<rect width="24" height="24" fill="white"/>
</clipPath>
</defs>
</svg>
