<svg width="24" height="24" viewBox="0 0 24 24" fill="none" xmlns="http://www.w3.org/2000/svg">
<g clip-path="url(#clip0_505_11441)">
<path d="M12 24C18.6274 24 24 18.6274 24 12C24 5.37258 18.6274 0 12 0C5.37258 0 0 5.37258 0 12C0 18.6274 5.37258 24 12 24Z" fill="#F0F0F0"/>
<path d="M21.9999 13.4358C20.9999 13.4358 20.9999 12.5215 19.9998 12.5215C18.9999 12.5215 18.9999 13.4358 17.9999 13.4358C17 13.4358 16.9999 12.5215 16 12.5215C15 12.5215 15 13.4358 14 13.4358C13 13.4358 12.9999 12.5215 11.9998 12.5215C10.9998 12.5215 10.9998 13.4358 9.99991 13.4358C9.00006 13.4358 9.00006 12.5215 8.00008 12.5215C7 12.5215 7 13.4358 5.99992 13.4358C4.99984 13.4358 4.99984 12.5215 3.99977 12.5215C2.99992 12.5215 2.99992 13.4358 1.99994 13.4358C1.00534 13.4358 0.999578 12.5316 0.015625 12.5219C0.0433281 13.0708 0.108859 13.6097 0.207953 14.1367C1.00502 14.2538 1.07481 15.0358 2.00003 15.0358C3.00002 15.0358 3.00002 14.1215 3.99986 14.1215C4.99994 14.1215 4.99994 15.0358 6.00002 15.0358C7.00009 15.0358 7.00009 14.1215 8.00017 14.1215C9.00016 14.1215 9.00016 15.0358 10 15.0358C11 15.0358 11 14.1215 11.9999 14.1215C13 14.1215 13 15.0358 14.0001 15.0358C15.0002 15.0358 15.0002 14.1215 16.0001 14.1215C17.0001 14.1215 17.0001 15.0358 18 15.0358C19 15.0358 19 14.1215 19.9999 14.1215C21 14.1215 21 15.0358 22 15.0358C22.9252 15.0358 22.995 14.2538 23.7921 14.1367C23.8913 13.6096 23.9567 13.0708 23.9845 12.5219C23.0004 12.5316 22.9945 13.4358 21.9999 13.4358Z" fill="#0052B4"/>
<path d="M19.9993 15.6514C18.9993 15.6514 18.9993 16.5657 17.9994 16.5657C16.9994 16.5657 16.9994 15.6514 15.9995 15.6514C14.9995 15.6514 14.9995 16.5657 13.9994 16.5657C12.9994 16.5657 12.9994 15.6514 11.9993 15.6514C10.9993 15.6514 10.9993 16.5657 9.99936 16.5657C8.99951 16.5657 8.99952 15.6514 7.99953 15.6514C6.99945 15.6514 6.99945 16.5657 5.99937 16.5657C4.9993 16.5657 4.9993 15.6514 3.99922 15.6514C2.99937 15.6514 2.99937 16.5657 1.99939 16.5657C1.26275 16.5657 1.06827 16.0699 0.617188 15.8087C0.890375 16.6252 1.2492 17.4023 1.68256 18.13C1.77641 18.1527 1.88075 18.1657 1.99934 18.1657C2.99933 18.1657 2.99933 17.2515 3.99917 17.2515C4.99925 17.2515 4.99925 18.1657 5.99933 18.1657C6.99941 18.1657 6.99941 17.2515 7.99948 17.2515C8.99947 17.2515 8.99947 18.1657 9.99931 18.1657C10.9993 18.1657 10.9993 17.2515 11.9992 17.2515C12.9993 17.2515 12.9993 18.1657 13.9994 18.1657C14.9995 18.1657 14.9995 17.2515 15.9994 17.2515C16.9994 17.2515 16.9994 18.1657 17.9993 18.1657C18.9993 18.1657 18.9993 17.2515 19.9992 17.2515C20.9993 17.2515 20.9993 18.1657 21.9993 18.1657C22.118 18.1657 22.2224 18.1527 22.3163 18.13C22.7497 17.4023 23.1085 16.6252 23.3816 15.8087C22.9305 16.0699 22.736 16.5658 21.9993 16.5658C20.9994 16.5657 20.9994 15.6514 19.9993 15.6514Z" fill="#0052B4"/>
<path d="M23.7211 9.4194C22.9902 9.57113 22.897 10.3059 22.0002 10.3059C21.0002 10.3059 21.0002 9.3916 20.0002 9.3916C19.0002 9.3916 19.0002 10.3059 18.0002 10.3059C17.0003 10.3059 17.0003 9.3916 16.0003 9.3916C15.0003 9.3916 15.0003 10.3059 14.0003 10.3059C13.0003 10.3059 13.0002 9.3916 12.0001 9.3916C11.4598 9.3916 11.2114 9.65851 10.9395 9.90394V11.5039C11.2114 11.2585 11.4598 10.9917 12.0001 10.9917C13.0002 10.9917 13.0002 11.9059 14.0003 11.9059C15.0004 11.9059 15.0004 10.9917 16.0003 10.9917C17.0003 10.9917 17.0003 11.9059 18.0002 11.9059C19.0002 11.9059 19.0002 10.9917 20.0002 10.9917C21.0002 10.9917 21.0002 11.9059 22.0002 11.9059C22.9254 11.9059 22.9952 11.124 23.7923 11.0069C23.8434 11.0069 23.9005 11.0063 23.959 11.0056C23.9147 10.466 23.8345 9.93647 23.7211 9.4194Z" fill="#0052B4"/>
<path d="M22.8445 6.85721C22.6373 7.03126 22.3978 7.17582 22.0002 7.17582C21.0002 7.17582 21.0002 6.26147 20.0002 6.26147C19.0002 6.26147 19.0002 7.17582 18.0002 7.17582C17.0003 7.17582 17.0003 6.26147 16.0003 6.26147C15.0003 6.26147 15.0003 7.17582 14.0003 7.17582C13.0003 7.17582 13.0002 6.26147 12.0001 6.26147C11.4598 6.26147 11.2114 6.52838 10.9395 6.77382V8.3738C11.2114 8.12841 11.4598 7.86155 12.0001 7.86155C13.0002 7.86155 13.0002 8.7758 14.0003 8.7758C15.0003 8.7758 15.0003 7.86155 16.0003 7.86155C17.0003 7.86155 17.0003 8.7758 18.0002 8.7758C19.0001 8.7758 19.0001 7.86155 20.0001 7.86155C21.0002 7.86155 21.0002 8.7758 22.0001 8.7758C22.7097 8.7758 22.9164 8.31619 23.3335 8.04891C23.1914 7.64124 23.0281 7.24351 22.8445 6.85721Z" fill="#0052B4"/>
<path d="M20.0856 3.13256C20.0579 3.13106 20.0296 3.13013 20.0002 3.13013C19.0002 3.13013 19.0002 4.04447 18.0003 4.04447C17.0003 4.04447 17.0003 3.13013 16.0004 3.13013C15.0004 3.13013 15.0004 4.04447 14.0003 4.04447C13.0002 4.04447 13.0002 3.13013 12.0001 3.13013C11.4598 3.13013 11.2114 3.39703 10.9395 3.64247V5.24246C11.2114 4.99707 11.4598 4.73021 12.0001 4.73021C13.0002 4.73021 13.0002 5.64446 14.0003 5.64446C15.0004 5.64446 15.0004 4.73021 16.0003 4.73021C17.0003 4.73021 17.0003 5.64446 18.0002 5.64446C19.0002 5.64446 19.0002 4.73021 20.0002 4.73021C21.0002 4.73021 21.0002 5.64446 22.0002 5.64446C22.0618 5.64446 22.1193 5.6408 22.1738 5.63429C21.5929 4.70785 20.8896 3.86611 20.0856 3.13256Z" fill="#0052B4"/>
<path d="M15.0678 0.396188C14.7933 0.643125 14.5453 0.914344 14.0006 0.914344C13.0005 0.914344 13.0005 9.375e-05 12.0005 0H12.0003C11.4832 4.6875e-05 11.2335 0.244594 10.9746 0.480797V2.08083C11.2335 1.84463 11.4832 1.60003 12.0005 1.60003C13.0006 1.60003 13.0006 2.51428 14.0007 2.51428C15.0007 2.51428 15.0007 1.60003 16.0007 1.60003C17.0007 1.60003 17.0007 2.51428 18.0006 2.51428C18.4202 2.51428 18.6636 2.35322 18.8788 2.16637C17.7381 1.36692 16.4519 0.761016 15.0678 0.396188Z" fill="#0052B4"/>
<path d="M14.0013 22.8272C13.0012 22.8272 13.0012 21.9129 12.0011 21.9129C11.0011 21.9129 11.0011 22.8272 10.0012 22.8272C9.00135 22.8272 9.00135 21.9129 8.00136 21.9129C7.23538 21.9129 7.0557 22.4489 6.56445 22.7C7.91914 23.3897 9.42228 23.8294 11.0132 23.9591C11.2593 23.7343 11.5092 23.5129 12.0011 23.5129C12.4932 23.5129 12.7431 23.7343 12.9892 23.9591C14.5802 23.8295 16.0834 23.3898 17.4381 22.7001C16.9468 22.449 16.7672 21.9128 16.0013 21.9128C15.0014 21.9129 15.0014 22.8272 14.0013 22.8272Z" fill="#0052B4"/>
<path d="M18.0003 19.6975C17.0003 19.6975 17.0003 18.7832 16.0003 18.7832C15.0004 18.7832 15.0004 19.6975 14.0003 19.6975C13.0002 19.6975 13.0003 18.7832 12.0002 18.7832C11.0002 18.7832 11.0002 19.6975 10.0003 19.6975C9.00041 19.6975 9.00041 18.7832 8.00042 18.7832C7.00034 18.7832 7.00034 19.6975 6.00027 19.6975C5.00019 19.6975 5.00019 18.7832 4.00011 18.7832C3.281 18.7832 3.07906 19.2562 2.65039 19.5217C2.91908 19.8554 3.20473 20.1748 3.50703 20.4776C3.64245 20.4197 3.80136 20.3832 4.00006 20.3832C5.00014 20.3832 5.00014 21.2975 6.00022 21.2975C7.0003 21.2975 7.0003 20.3832 8.00038 20.3832C9.00036 20.3832 9.00036 21.2975 10.0002 21.2975C11.0002 21.2975 11.0002 20.3832 12.0001 20.3832C13.0002 20.3832 13.0002 21.2975 14.0003 21.2975C15.0004 21.2975 15.0004 20.3832 16.0003 20.3832C17.0002 20.3832 17.0003 21.2975 18.0002 21.2975C19.0002 21.2975 19.0002 20.3832 20.0001 20.3832C20.1991 20.3832 20.358 20.4197 20.4935 20.4777C20.7958 20.1748 21.0815 19.8554 21.3502 19.5218C20.9215 19.2563 20.7195 18.7832 20.0002 18.7832C19.0002 18.7832 19.0002 19.6975 18.0003 19.6975Z" fill="#0052B4"/>
<path d="M11.9668 11.999H11.999C11.999 11.9882 11.999 11.9776 11.999 11.9668C11.9883 11.9776 11.9776 11.9883 11.9668 11.999Z" fill="#F0F0F0"/>
<path d="M11.9981 6.26147V9.78707L7.82422 5.73975L11.9981 6.26147Z" fill="#0052B4"/>
<path d="M6.26005 12.0006H9.78552L6.26 7.30493L5.73828 10.9571L6.26005 12.0006Z" fill="#0052B4"/>
<path d="M12 6.26086C12 4.14937 12 2.76586 12 0H11.998C5.3715 0.001125 0 5.37323 0 12H6.2609V8.47448L9.78637 12H11.9679C11.9786 11.9893 11.9893 11.9786 12 11.9679C12 11.1594 12 10.4381 12 9.78647L8.47443 6.26086H12Z" fill="#F0F0F0"/>
<path d="M6.07222 1.56421C4.19539 2.63291 2.63511 4.19319 1.56641 6.07002V11.999H4.69686V4.69476V4.69466H12.0012C12.0012 3.70733 12.0012 2.76674 12.0012 1.56421H6.07222Z" fill="#D80027"/>
<path d="M12.0009 10.5234L7.73734 6.26001H6.26172V6.2601L12.0008 11.9991H12.0009C12.0009 11.9991 12.0009 10.9816 12.0009 10.5234Z" fill="#D80027"/>
<path d="M15.6523 6.26099H20.348L18.0002 8.60882L15.6523 6.26099Z" fill="#6DA544"/>
<path d="M18.524 8.08643H17.4805V10.956H18.524V8.08643Z" fill="#A2001D"/>
<path d="M18.522 15.6519H17.4785V18.5214H18.522V15.6519Z" fill="#A2001D"/>
<path d="M21.13 14.0872C21.13 13.2228 20.4292 12.522 19.5648 12.522C19.1638 12.522 18.7983 12.673 18.5213 12.9209V12.0003H19.043V10.9568H18.5213V10.4351H17.4778V10.9568H16.9561V12.0003H17.4778V12.9209C17.2008 12.673 16.8353 12.522 16.4343 12.522C15.5699 12.522 14.8691 13.2228 14.8691 14.0872C14.8691 14.5507 15.0708 14.9669 15.3909 15.2536V16.1742H20.6082V15.2536C20.9284 14.9669 21.13 14.5507 21.13 14.0872Z" fill="#FFDA44"/>
<path d="M19.5642 13.5649C19.3997 13.5649 19.2844 13.6372 19.2167 13.6978L18.5207 14.3208H17.4773L16.7814 13.6978C16.7136 13.6372 16.5984 13.5649 16.4338 13.5649C16.1462 13.5649 15.9121 13.799 15.9121 14.0867C15.9121 14.2893 16.0214 14.4173 16.0865 14.4757L16.4339 14.7867V15.1301H19.5643V14.7867L19.9117 14.4757C19.9768 14.4174 20.0861 14.2893 20.0861 14.0867C20.086 13.799 19.8519 13.5649 19.5642 13.5649Z" fill="#D80027"/>
</g>
<defs>
<clipPath id="clip0_505_11441">
<rect width="24" height="24" fill="white"/>
</clipPath>
</defs>
</svg>
