<svg width="24" height="24" viewBox="0 0 24 24" fill="none" xmlns="http://www.w3.org/2000/svg">
<g clip-path="url(#clip0_505_12131)">
<path d="M12 24C18.6274 24 24 18.6274 24 12C24 5.37258 18.6274 0 12 0C5.37258 0 0 5.37258 0 12C0 18.6274 5.37258 24 12 24Z" fill="#F0F0F0"/>
<path d="M21.5209 19.3071L14.2143 12.0005H14.2142L21.5209 4.69376C21.2058 4.28426 20.861 3.89027 20.486 3.51513C20.1109 3.14004 19.7169 2.79527 19.3074 2.48022L12.0007 9.78686L12.0007 9.78691L4.69405 2.48022C4.28459 2.79532 3.89056 3.13999 3.51542 3.51513C3.14028 3.89027 2.79556 4.28426 2.48052 4.69376L9.78716 12.0003L9.7872 12.0004L2.48047 19.3071C2.79561 19.7166 3.14033 20.1106 3.51538 20.4858C3.89052 20.8608 4.28445 21.2056 4.694 21.5207L12.0007 14.214L12.0007 14.214L19.3074 21.5206C19.7168 21.2055 20.1109 20.8608 20.486 20.4857C20.8611 20.1106 21.2058 19.7166 21.5209 19.3071Z" fill="#D80027"/>
<path d="M9.91211 3.65288L11.9991 4.1746L14.086 3.65288V1.87899L13.2513 2.29636L11.9991 1.04419L10.7469 2.29636L9.91211 1.87899V3.65288Z" fill="#FFDA44"/>
<path d="M9.91211 3.65283V4.95727C9.91211 6.55477 11.9991 7.04424 11.9991 7.04424C11.9991 7.04424 14.086 6.55472 14.086 4.95727V3.65283H9.91211Z" fill="#D80027"/>
</g>
<defs>
<clipPath id="clip0_505_12131">
<rect width="24" height="24" fill="white"/>
</clipPath>
</defs>
</svg>
