<svg width="24" height="24" viewBox="0 0 24 24" fill="none" xmlns="http://www.w3.org/2000/svg">
<g clip-path="url(#clip0_505_12120)">
<path d="M12 24C18.6274 24 24 18.6274 24 12C24 5.37258 18.6274 0 12 0C5.37258 0 0 5.37258 0 12C0 18.6274 5.37258 24 12 24Z" fill="#FFDA44"/>
<path d="M19.3049 2.48087C17.2814 0.92551 14.7486 0.000244141 11.9992 0.000244141C9.24975 0.000244141 6.71681 0.925557 4.69336 2.48087L11.9992 9.78662L19.3049 2.48087Z" fill="#6DA544"/>
<path d="M2.48058 4.6936C0.925312 6.71706 0 9.24995 0 11.9994C0 14.7488 0.925312 17.2817 2.48062 19.3052L9.78642 11.9994L2.48058 4.6936Z" fill="black"/>
<path d="M4.69336 21.5189C6.71686 23.0742 9.24975 23.9995 11.9992 23.9995C14.7486 23.9995 17.2815 23.0742 19.305 21.5189L11.9992 14.2131L4.69336 21.5189Z" fill="#6DA544"/>
<path d="M21.5186 19.3051C23.074 17.2816 23.9993 14.7488 23.9993 11.9994C23.9993 9.24995 23.074 6.71706 21.5186 4.6936L14.2129 11.9994L21.5186 19.3051Z" fill="black"/>
</g>
<defs>
<clipPath id="clip0_505_12120">
<rect width="24" height="24" fill="white"/>
</clipPath>
</defs>
</svg>
