<svg width="24" height="24" viewBox="0 0 24 24" fill="none" xmlns="http://www.w3.org/2000/svg">
<g clip-path="url(#clip0_505_12137)">
<path d="M12 24C18.6274 24 24 18.6274 24 12C24 5.37258 18.6274 0 12 0C5.37258 0 0 5.37258 0 12C0 18.6274 5.37258 24 12 24Z" fill="#F0F0F0"/>
<path d="M7.30486 7.82635H23.2541C21.5586 3.25674 17.16 0.000244141 12.0005 0.000244141C8.68673 0.000244141 5.68706 1.34363 3.51562 3.51535L7.30486 7.82635Z" fill="black"/>
<path d="M7.30486 16.1746H23.2541C21.5586 20.7442 17.16 24.0007 12.0005 24.0007C8.68673 24.0007 5.68706 22.6573 3.51562 20.4856L7.30486 16.1746Z" fill="#6DA544"/>
<path d="M3.51471 3.51392C-1.17157 8.2002 -1.17157 15.7982 3.51471 20.4845C5.45126 18.548 7.31375 16.6855 12 11.9992L3.51471 3.51392Z" fill="#D80027"/>
<path d="M4.76366 9.39185L5.4222 10.769L6.9095 10.4252L6.24341 11.7987L7.43942 12.7472L5.95034 13.0828L5.95447 14.6092L4.76366 13.6542L3.5728 14.6092L3.57697 13.0828L2.08789 12.7472L3.28386 11.7987L2.61786 10.4252L4.10506 10.769L4.76366 9.39185Z" fill="#F0F0F0"/>
</g>
<defs>
<clipPath id="clip0_505_12137">
<rect width="24" height="24" fill="white"/>
</clipPath>
</defs>
</svg>
