<svg width="24" height="24" viewBox="0 0 24 24" fill="none" xmlns="http://www.w3.org/2000/svg">
<g clip-path="url(#clip0_505_12164)">
<path d="M0 12C0 5.37262 5.37262 0 12 0C18.6274 0 24 5.37262 24 12" fill="#D80027"/>
<path d="M16.174 11.16L14.4684 11.9622L15.3767 13.614L13.5247 13.2597L13.29 15.1305L12.0001 13.7545L10.7101 15.1305L10.4755 13.2597L8.62347 13.6139L9.53167 11.9622L7.82617 11.16L9.53167 10.3577L8.62347 8.70605L10.4754 9.06023L10.7101 7.18945L12.0001 8.56537L13.2901 7.18945L13.5247 9.06023L15.3767 8.70605L14.4685 10.3578L16.174 11.16Z" fill="#FFDA44"/>
<path d="M15.13 3.913H12.7822C12.7822 3.48086 12.4318 3.13037 11.9996 3.13037C11.5674 3.13037 11.217 3.48081 11.217 3.913H8.86914C8.86914 4.34518 9.24564 4.69562 9.67783 4.69562H9.65172C9.65172 5.12781 10.0021 5.47824 10.4343 5.47824C10.4343 5.91043 10.7847 6.26087 11.217 6.26087H12.7822C13.2143 6.26087 13.5648 5.91048 13.5648 5.47824C13.9969 5.47824 14.3474 5.12785 14.3474 4.69562H14.3213C14.7535 4.69562 15.13 4.34523 15.13 3.913Z" fill="#FFDA44"/>
<path d="M24 11.9995C24 18.6269 18.6274 23.9995 12 23.9995C5.37262 23.9995 0 18.6269 0 11.9995C0.521719 11.9995 24 11.9995 24 11.9995Z" fill="#F0F0F0"/>
<path d="M11.9995 24.0005C15.7505 24.0005 19.099 22.279 21.2995 19.5835C20.9037 19.3137 20.69 18.8774 19.9993 18.8774C18.9993 18.8774 18.9993 19.7918 17.9994 19.7918C16.9994 19.7918 16.9994 18.8774 15.9994 18.8774C14.9995 18.8774 14.9995 19.7918 13.9994 19.7918C12.9994 19.7918 12.9993 18.8774 11.9993 18.8774C10.9993 18.8774 10.9993 19.7918 9.99934 19.7918C8.9995 19.7918 8.9995 18.8774 7.99952 18.8774C6.99944 18.8774 6.99944 19.7918 5.99936 19.7918C4.99928 19.7918 4.99928 18.8774 3.9992 18.8774C3.30855 18.8774 3.09484 19.3136 2.69922 19.5834C4.89972 22.279 8.24837 24.0005 11.9995 24.0005Z" fill="#0052B4"/>
<path d="M21.9999 13.5313C20.9999 13.5313 20.9999 12.6169 19.9998 12.6169C18.9999 12.6169 18.9999 13.5313 17.9999 13.5313C17 13.5313 16.9999 12.6169 16 12.6169C15 12.6169 15 13.5313 14 13.5313C13 13.5313 12.9999 12.6169 11.9998 12.6169C10.9998 12.6169 10.9998 13.5313 9.99991 13.5313C9.00006 13.5313 9.00006 12.6169 8.00008 12.6169C7 12.6169 7 13.5313 5.99992 13.5313C4.99984 13.5313 4.99984 12.6169 3.99977 12.6169C2.99992 12.6169 2.99992 13.5313 1.99994 13.5313C1.00534 13.5313 0.999578 12.627 0.015625 12.6174C0.0433281 13.1663 0.108859 13.7051 0.207953 14.2321C1.00502 14.3493 1.07481 15.1313 1.99998 15.1313C2.99997 15.1313 2.99997 14.217 3.99981 14.217C4.99989 14.217 4.99989 15.1313 5.99997 15.1313C7.00005 15.1313 7.00005 14.217 8.00012 14.217C9.00011 14.217 9.00011 15.1313 9.99995 15.1313C10.9999 15.1313 10.9999 14.217 11.9999 14.217C13 14.217 13 15.1313 14 15.1313C15.0001 15.1313 15.0001 14.217 16 14.217C17 14.217 17 15.1313 18 15.1313C18.9999 15.1313 19 14.217 19.9999 14.217C21 14.217 21 15.1313 21.9999 15.1313C22.9252 15.1313 22.995 14.3493 23.7921 14.2322C23.8912 13.7051 23.9567 13.1663 23.9845 12.6174C23.0004 12.6271 22.9945 13.5313 21.9999 13.5313Z" fill="#0052B4"/>
<path d="M19.9998 15.7478C18.9998 15.7478 18.9998 16.6621 17.9998 16.6621C16.9999 16.6621 16.9999 15.7478 15.9999 15.7478C14.9999 15.7478 14.9999 16.6621 13.9999 16.6621C12.9998 16.6621 12.9998 15.7478 11.9998 15.7478C10.9998 15.7478 10.9998 16.6621 9.99983 16.6621C8.99998 16.6621 8.99998 15.7478 8 15.7478C6.99992 15.7478 6.99992 16.6621 5.99984 16.6621C4.99977 16.6621 4.99977 15.7478 3.99969 15.7478C2.99984 15.7478 2.99984 16.6621 1.99986 16.6621C1.28534 16.6621 1.08125 16.1955 0.658203 15.9288C0.939828 16.7425 1.3062 17.5166 1.74744 18.2401C1.82417 18.2543 1.9077 18.2621 1.99986 18.2621C2.99984 18.2621 2.99984 17.3479 3.99969 17.3479C4.99977 17.3479 4.99977 18.2621 5.99984 18.2621C6.99992 18.2621 6.99992 17.3479 8 17.3479C8.99998 17.3479 8.99998 18.2621 9.99983 18.2621C10.9998 18.2621 10.9998 17.3479 11.9998 17.3479C12.9998 17.3479 12.9998 18.2621 13.9999 18.2621C15 18.2621 15 17.3479 15.9999 17.3479C16.9999 17.3479 16.9999 18.2621 17.9998 18.2621C18.9998 18.2621 18.9998 17.3479 19.9998 17.3479C20.9998 17.3479 20.9998 18.2621 21.9998 18.2621C22.092 18.2621 22.1756 18.2543 22.2523 18.2401C22.6935 17.5166 23.0599 16.7425 23.3416 15.9289C22.9185 16.1954 22.7144 16.6621 21.9998 16.6621C20.9998 16.6621 20.9998 15.7478 19.9998 15.7478Z" fill="#0052B4"/>
<path d="M23.9628 11.0511C23.0004 11.0738 22.9872 11.9644 21.9998 11.9644C20.9999 11.9644 20.9999 11.05 19.9998 11.05C18.9998 11.05 18.9998 11.9644 17.9999 11.9644C17 11.9644 16.9999 11.05 16 11.05C15 11.05 15 11.9644 14 11.9644C12.9999 11.9644 12.9999 11.05 11.9998 11.05C10.9998 11.05 10.9998 11.9644 9.99989 11.9644C9.00005 11.9644 9.00005 11.05 8.00006 11.05C6.99998 11.05 6.99998 11.9644 5.99991 11.9644C4.99983 11.9644 4.99983 11.05 3.99975 11.05C2.99991 11.05 2.99991 11.9644 1.99992 11.9644C1.01278 11.9644 0.999422 11.0739 0.0371719 11.0511C0.01275 11.3639 0 11.68 0 11.9991C0 12.2177 0.0061875 12.4349 0.0178594 12.6505C0.999563 12.6616 1.00608 13.5643 1.99997 13.5643C2.99995 13.5643 2.99995 12.6501 3.9998 12.6501C4.99988 12.6501 4.99988 13.5643 5.99995 13.5643C7.00003 13.5643 7.00003 12.6501 8.00011 12.6501C9.00009 12.6501 9.00009 13.5643 9.99994 13.5643C10.9999 13.5643 10.9999 12.6501 11.9999 12.6501C12.9999 12.6501 12.9999 13.5643 14 13.5643C15.0001 13.5643 15.0001 12.6501 16 12.6501C17 12.6501 17 13.5643 18 13.5643C18.9999 13.5643 18.9999 12.6501 19.9999 12.6501C21 12.6501 21 13.5643 21.9999 13.5643C22.9939 13.5643 23.0004 12.6616 23.9823 12.6505C23.9938 12.4348 24 12.2177 24 11.9991C24 11.68 23.9872 11.3639 23.9628 11.0511Z" fill="#F0F0F0"/>
</g>
<defs>
<clipPath id="clip0_505_12164">
<rect width="24" height="24" fill="white"/>
</clipPath>
</defs>
</svg>
