<svg width="24" height="24" viewBox="0 0 24 24" fill="none" xmlns="http://www.w3.org/2000/svg">
<g clip-path="url(#clip0_505_11639)">
<path d="M12 24C18.6274 24 24 18.6274 24 12C24 5.37258 18.6274 0 12 0C5.37258 0 0 5.37258 0 12C0 18.6274 5.37258 24 12 24Z" fill="#F0F0F0"/>
<path d="M23.9994 11.9653H10.9911C8.40842 14.548 6.84664 16.542 5.25195 18.1367L12.0346 18.7479L22.5596 17.7044C23.4781 16.0078 23.9998 14.0649 23.9998 12.0001C23.9998 11.9884 23.9994 11.977 23.9994 11.9653Z" fill="#D80027"/>
<path d="M5.25272 6.22564H22.522C20.4812 2.51464 16.5348 -0.000488281 12.0005 -0.000488281C8.69559 -0.000488281 5.70328 1.33597 3.5332 3.49751L5.25272 6.22564Z" fill="#FFDA44"/>
<path d="M5.77425 17.704C4.69547 18.7828 4.27856 19.6866 3.49805 20.4671C5.67094 22.649 8.67773 23.9996 12.0003 23.9996C16.563 23.9996 20.5306 21.4531 22.5602 17.704H5.77425Z" fill="#0052B4"/>
<path d="M3.51471 3.48035C-1.17157 8.16663 -1.17157 15.7646 3.51471 20.451C5.45126 18.5144 7.31374 16.6519 12 11.9657L3.51471 3.48035Z" fill="#6DA544"/>
<path d="M3.16486 11.9647C3.16486 10.2163 4.39359 8.75575 6.0344 8.39744C5.78222 8.34236 5.52056 8.3125 5.25178 8.3125C3.2347 8.3125 1.59961 9.9476 1.59961 11.9647C1.59961 13.9818 3.2347 15.6169 5.25178 15.6169C5.52051 15.6169 5.78217 15.587 6.0344 15.5319C4.39359 15.1736 3.16486 13.713 3.16486 11.9647Z" fill="#F0F0F0"/>
<path d="M5.99477 8.83472L6.18906 9.43256H6.81766L6.30906 9.80208L6.50336 10.3999L5.99477 10.0305L5.48617 10.3999L5.68047 9.80208L5.17188 9.43256H5.80047L5.99477 8.83472Z" fill="#F0F0F0"/>
<path d="M5.99477 10.3998L6.18906 10.9977H6.81766L6.30906 11.3671L6.50336 11.965L5.99477 11.5955L5.48617 11.965L5.68047 11.3671L5.17188 10.9977H5.80047L5.99477 10.3998Z" fill="#F0F0F0"/>
<path d="M5.99477 11.9646L6.18906 12.5624H6.81766L6.30906 12.932L6.50336 13.5298L5.99477 13.1603L5.48617 13.5298L5.68047 12.932L5.17188 12.5624H5.80047L5.99477 11.9646Z" fill="#F0F0F0"/>
<path d="M5.99477 13.5297L6.18906 14.1275H6.81766L6.30906 14.497L6.50336 15.0949L5.99477 14.7254L5.48617 15.0949L5.68047 14.497L5.17188 14.1275H5.80047L5.99477 13.5297Z" fill="#F0F0F0"/>
</g>
<defs>
<clipPath id="clip0_505_11639">
<rect width="24" height="24" fill="white"/>
</clipPath>
</defs>
</svg>
