<svg width="24" height="24" viewBox="0 0 24 24" fill="none" xmlns="http://www.w3.org/2000/svg">
<g clip-path="url(#clip0_505_12518)">
<path d="M12 24C18.6274 24 24 18.6274 24 12C24 5.37258 18.6274 0 12 0C5.37258 0 0 5.37258 0 12C0 18.6274 5.37258 24 12 24Z" fill="#F0F0F0"/>
<path d="M11.999 -0.000244141C8.36188 -0.000244141 5.10298 1.61807 2.90234 4.17365H21.0955C18.8949 1.61807 15.636 -0.000244141 11.999 -0.000244141Z" fill="#0052B4"/>
<path d="M21.0956 19.8269H2.90234C5.10298 22.3825 8.36188 24.0008 11.999 24.0008C15.636 24.0008 18.8949 22.3825 21.0956 19.8269Z" fill="#0052B4"/>
<path d="M22.2387 5.73853H1.76128C0.644297 7.56126 0 9.705 0 11.9994C0 14.2938 0.644297 16.4376 1.76128 18.2603H22.2387C23.3557 16.4376 24 14.2938 24 11.9994C24 9.705 23.3557 7.56126 22.2387 5.73853Z" fill="#D80027"/>
<path d="M7.383 16.6183C9.9331 16.6183 12.0004 14.551 12.0004 12.0009C12.0004 9.45082 9.9331 7.38354 7.383 7.38354C4.83289 7.38354 2.76562 9.45082 2.76562 12.0009C2.76562 14.551 4.83289 16.6183 7.383 16.6183Z" fill="#F0F0F0"/>
<path d="M7.38181 7.38354L8.4178 10.572H11.7758L9.05816 12.5428L10.1022 15.7408L7.38181 13.7607L4.6655 15.7371L5.70547 12.5428L2.99023 10.572H6.34578L7.38181 7.38354Z" fill="#D80027"/>
</g>
<defs>
<clipPath id="clip0_505_12518">
<rect width="24" height="24" fill="white"/>
</clipPath>
</defs>
</svg>
