<svg width="24" height="24" viewBox="0 0 24 24" fill="none" xmlns="http://www.w3.org/2000/svg">
<g clip-path="url(#clip0_505_12176)">
<path d="M23.2536 16.173C23.736 14.873 24 13.467 24 11.9991C24 10.5313 23.736 9.12521 23.2536 7.82522L12 6.78174L0.746391 7.82522C0.264047 9.12521 0 10.5313 0 11.9991C0 13.467 0.264047 14.873 0.746391 16.173L12 17.2165L23.2536 16.173Z" fill="#F0F0F0"/>
<path d="M11.9998 23.9994C17.1593 23.9994 21.5578 20.7429 23.2533 16.1733H0.746094C2.44166 20.7429 6.84013 23.9994 11.9998 23.9994Z" fill="#D80027"/>
<path d="M11.9997 -0.000488281C6.84012 -0.000488281 2.44166 3.25601 0.746094 7.82562H23.2534C21.5578 3.25601 17.1593 -0.000488281 11.9997 -0.000488281Z" fill="#6DA544"/>
<path d="M3.51471 3.5144C-1.17157 8.20069 -1.17157 15.7987 3.51471 20.485C4.73791 19.2618 5.93182 18.0679 7.82609 16.1737V7.82583L3.51471 3.5144Z" fill="black"/>
</g>
<defs>
<clipPath id="clip0_505_12176">
<rect width="24" height="24" fill="white"/>
</clipPath>
</defs>
</svg>
