<svg width="24" height="24" viewBox="0 0 24 24" fill="none" xmlns="http://www.w3.org/2000/svg">
<g clip-path="url(#clip0_505_12894)">
<path d="M12 24C18.6274 24 24 18.6274 24 12C24 5.37257 18.6274 0 12 0C5.37257 0 0 5.37257 0 12C0 18.6274 5.37257 24 12 24Z" fill="#FFDA44"/>
<path d="M9.39149 2.08618H5.23672C5.0526 2.21204 4.87241 2.34306 4.69583 2.47867L3.65234 11.9992L4.69583 21.5197C4.87241 21.6554 5.0526 21.7864 5.23672 21.9122H9.39149V2.08618Z" fill="#FF9811"/>
<path d="M0 12.0007C0 15.8793 1.84069 19.3276 4.69567 21.5212V2.4801C1.84069 4.67376 0 8.12199 0 12.0007Z" fill="#6DA544"/>
<path d="M19.3047 7.31531V7.61582L19.3159 7.61751L19.3047 7.31531Z" fill="#FFDA44"/>
<path d="M23.044 15.1296H20.7831L19.8266 16.1731V18.2601H17.7396V17.2166H18.7831V15.1296H14.0874V16.434H13.044V13.9482C12.7238 13.6616 12.5222 13.2453 12.5222 12.7818V5.99922C12.5222 5.1348 13.223 4.43401 14.0874 4.43401V14.0862H16.1744L16.8905 13.4894C16.7654 13.1915 16.6961 12.8644 16.6961 12.521V10.9558H15.1309V7.82538H18.2613C18.2613 7.30366 19.044 6.78189 19.044 6.78189C19.044 6.78189 19.8266 7.30361 19.8266 7.82538V8.60801V10.9558C20.407 10.9627 21.3293 10.9477 22.3256 10.9558C22.0638 10.4983 21.9135 9.95548 21.9135 9.39063C21.9135 8.46996 22.311 7.64224 22.9437 7.06943C22.0317 5.04841 20.5764 3.32518 18.7639 2.08618H10.957V21.9123H18.764C20.968 20.4057 22.6437 18.1833 23.4567 15.5799L23.044 15.1296Z" fill="#A2001D"/>
</g>
<defs>
<clipPath id="clip0_505_12894">
<rect width="24" height="24" fill="white"/>
</clipPath>
</defs>
</svg>
