<svg width="24" height="24" viewBox="0 0 24 24" fill="none" xmlns="http://www.w3.org/2000/svg">
<g clip-path="url(#clip0_505_12192)">
<path d="M22.81 6.78189C20.869 2.76794 16.7582 -0.000732422 12.0007 -0.000732422C7.24316 -0.000732422 3.13241 2.76794 1.19141 6.78189L12.0007 7.82538L22.81 6.78189Z" fill="#D80027"/>
<path d="M1.19141 17.2161C3.13241 21.23 7.24316 23.9987 12.0007 23.9987C16.7582 23.9987 20.869 21.23 22.81 17.2161L12.0007 16.1726L1.19141 17.2161Z" fill="#D80027"/>
<path d="M22.8093 6.78174H1.19072C0.427875 8.35932 0 10.1292 0 11.9991C0 13.869 0.427875 15.6389 1.19072 17.2165H22.8092C23.5722 15.6389 24 13.869 24 11.9991C24 10.1292 23.5722 8.35932 22.8093 6.78174Z" fill="#0052B4"/>
<path d="M12.0001 16.1737C14.3052 16.1737 16.174 14.305 16.174 11.9998C16.174 9.69464 14.3052 7.82593 12.0001 7.82593C9.69489 7.82593 7.82617 9.69464 7.82617 11.9998C7.82617 14.305 9.69489 16.1737 12.0001 16.1737Z" fill="#F0F0F0"/>
</g>
<defs>
<clipPath id="clip0_505_12192">
<rect width="24" height="24" fill="white"/>
</clipPath>
</defs>
</svg>
