<svg width="24" height="24" viewBox="0 0 24 24" fill="none" xmlns="http://www.w3.org/2000/svg">
<g clip-path="url(#clip0_505_12383)">
<path d="M12 24C18.6274 24 24 18.6274 24 12C24 5.37258 18.6274 0 12 0C5.37258 0 0 5.37258 0 12C0 18.6274 5.37258 24 12 24Z" fill="#FFDA44"/>
<path d="M24 11.9997C24 7.88122 21.9249 4.24775 18.7635 2.08667H5.23655C2.07516 4.24775 0 7.88122 0 11.9997C0 16.1183 2.07516 19.7517 5.23655 21.9127H18.7635C21.9249 19.7517 24 16.1183 24 11.9997Z" fill="#A2001D"/>
<path d="M9.39258 8.87015H14.61V6.78323L13.5665 7.30495L12.0013 5.73975L10.4361 7.30495L9.39258 6.78323V8.87015Z" fill="#FFDA44"/>
<path d="M16.6961 12.0002H14.0884C14.1907 11.8233 14.2501 11.6186 14.2501 11.3996C14.2501 10.7346 13.711 10.1956 13.0461 10.1956C12.5867 10.1956 12.1877 10.453 11.9846 10.8313C11.7816 10.4529 11.3826 10.1956 10.9232 10.1956C10.2583 10.1956 9.71917 10.7346 9.71917 11.3996C9.71917 11.6186 9.7787 11.8233 9.88089 12.0002H7.30469C7.30469 12.7982 7.9997 13.445 8.79761 13.445H8.74952C8.74952 14.0995 9.18484 14.6522 9.7817 14.8297L8.60903 16.0024L9.7158 17.1092L11.2858 15.5392C11.3473 15.5618 11.4109 15.5798 11.4767 15.5921L10.528 17.7341C10.9826 17.919 11.4794 18.0216 12.0004 18.0216C12.5214 18.0216 13.0182 17.919 13.4729 17.7341L12.5242 15.5921C12.5899 15.5798 12.6535 15.5618 12.715 15.5392L14.285 17.1092L15.3917 16.0024L14.219 14.8297C14.8158 14.6521 15.2512 14.0995 15.2512 13.445H15.203C16.001 13.445 16.6961 12.7982 16.6961 12.0002Z" fill="#FFDA44"/>
<path d="M12.0003 12.7827L10.3047 13.5653V15.1305L12.0003 16.174L13.696 15.1305V13.5653L12.0003 12.7827Z" fill="#6DA544"/>
<path d="M13.696 11.9993H10.3047V14.0862H13.696V11.9993Z" fill="#0052B4"/>
</g>
<defs>
<clipPath id="clip0_505_12383">
<rect width="24" height="24" fill="white"/>
</clipPath>
</defs>
</svg>
