<svg width="24" height="24" viewBox="0 0 24 24" fill="none" xmlns="http://www.w3.org/2000/svg">
<g clip-path="url(#clip0_505_12310)">
<path d="M12 24C18.6274 24 24 18.6274 24 12C24 9.98611 23.5031 8.08847 22.6265 6.42188L11.9859 12.0141L17.5781 1.37353C15.9115 0.496875 14.0139 0 12 0C5.37262 0 0 5.37262 0 12C0 15.3137 1.34316 18.3137 3.51469 20.4853C5.68627 22.6569 8.68627 24 12 24Z" fill="#0052B4"/>
<path d="M22.6131 6.43441C22.0639 5.38891 21.3497 4.40731 20.4706 3.52821C19.5915 2.64912 18.61 1.93498 17.5644 1.38574L3.5 20.4988L22.6131 6.43441Z" fill="#F0F0F0"/>
<path d="M3.5 20.4994L22.6131 6.43501C22.0639 5.38951 21.3497 4.4079 20.4706 3.52881L3.5 20.4994Z" fill="#FF9811"/>
<path d="M10.4213 7.03694L8.95583 7.72628L9.73625 9.14566L8.14484 8.8412L7.94319 10.4488L6.83469 9.26641L5.72619 10.4488L5.52462 8.8412L3.93322 9.14556L4.71355 7.72623L3.24805 7.03694L4.71359 6.34755L3.93322 4.92827L5.52453 5.23262L5.72623 3.625L6.83469 4.80742L7.94319 3.625L8.14484 5.23262L9.7363 4.92827L8.95587 6.34759L10.4213 7.03694Z" fill="#F0F0F0"/>
</g>
<defs>
<clipPath id="clip0_505_12310">
<rect width="24" height="24" fill="white"/>
</clipPath>
</defs>
</svg>
