<svg width="24" height="24" viewBox="0 0 24 24" fill="none" xmlns="http://www.w3.org/2000/svg">
<g clip-path="url(#clip0_505_12369)">
<path d="M12.0003 24.0005C13.4682 24.0005 14.8743 23.7365 16.1742 23.2541L16.696 12.0005L16.1743 0.746879C14.8743 0.264535 13.4682 0.000488281 12.0003 0.000488281C10.5325 0.000488281 9.12639 0.264535 7.82645 0.746879L7.30469 12.0005L7.82641 23.2541C9.12639 23.7365 10.5325 24.0005 12.0003 24.0005Z" fill="#0052B4"/>
<path d="M0 12.0002C0 17.1598 3.2565 21.5583 7.82611 23.2538V0.746582C3.2565 2.4421 0 6.84061 0 12.0002Z" fill="#A2001D"/>
<path d="M16.1738 0.746094V23.2534C20.7434 21.5578 23.9999 17.1593 23.9999 11.9997C23.9999 6.84013 20.7434 2.44161 16.1738 0.746094Z" fill="#A2001D"/>
<path d="M6.78177 11.9988H5.73828V16.1727H6.78177V11.9988Z" fill="#FFDA44"/>
<path d="M2.60794 11.9988H1.56445V16.1727H2.60794V11.9988Z" fill="#FFDA44"/>
<path d="M4.17239 14.6085C4.74869 14.6085 5.21588 14.1413 5.21588 13.565C5.21588 12.9887 4.74869 12.5215 4.17239 12.5215C3.59609 12.5215 3.12891 12.9887 3.12891 13.565C3.12891 14.1413 3.59609 14.6085 4.17239 14.6085Z" fill="#FFDA44"/>
<path d="M4.17211 10.4336C4.46025 10.4336 4.69383 10.2 4.69383 9.91185C4.69383 9.62372 4.46025 9.39014 4.17211 9.39014C3.88397 9.39014 3.65039 9.62372 3.65039 9.91185C3.65039 10.2 3.88397 10.4336 4.17211 10.4336Z" fill="#FFDA44"/>
<path d="M5.21588 15.1289H3.12891V16.1724H5.21588V15.1289Z" fill="#FFDA44"/>
<path d="M5.21588 10.9551H3.12891V11.9986H5.21588V10.9551Z" fill="#FFDA44"/>
<path d="M4.17262 6.26001L4.54219 7.3972H5.73787L4.77061 8.10004L5.13989 9.23723L4.17262 8.53439L3.20541 9.23723L3.57469 8.10004L2.60742 7.3972H3.80311L4.17262 6.26001Z" fill="#FFDA44"/>
</g>
<defs>
<clipPath id="clip0_505_12369">
<rect width="24" height="24" fill="white"/>
</clipPath>
</defs>
</svg>
