<svg width="24" height="24" viewBox="0 0 24 24" fill="none" xmlns="http://www.w3.org/2000/svg">
<g clip-path="url(#clip0_505_12527)">
<path d="M12 24C18.6274 24 24 18.6274 24 12C24 5.37258 18.6274 0 12 0C5.37258 0 0 5.37258 0 12C0 18.6274 5.37258 24 12 24Z" fill="#338AF3"/>
<path d="M11.6206 19.556C11.2971 19.5404 11.0294 19.3301 10.9246 19.0447C10.7394 19.2862 10.4211 19.4078 10.1076 19.327C9.79345 19.2461 9.57384 18.9863 9.52842 18.6847C9.29779 18.884 8.96179 18.9382 8.67121 18.7958C8.38007 18.6529 8.21732 18.3539 8.23401 18.0497C7.96846 18.1989 7.62829 18.1843 7.37212 17.986C7.11646 17.7877 7.01681 17.4627 7.09401 17.1679C6.8039 17.2608 6.47418 17.1784 6.26287 16.9326C6.05156 16.6874 6.01917 16.3488 6.15384 16.0759C5.85121 16.1082 5.54446 15.9611 5.38687 15.6784C5.22876 15.3956 5.26532 15.057 5.45259 14.8164C5.14945 14.7872 4.87814 14.5811 4.7811 14.2722C4.68356 13.9634 4.7879 13.6388 5.02007 13.4411C4.72893 13.3513 4.50562 13.0946 4.47276 12.7727C4.4399 12.4508 4.60687 12.155 4.87345 12.0079C4.60682 11.8618 4.43882 11.566 4.47065 11.2446C4.47065 11.2446 4.47065 11.2446 4.47117 11.2446C4.503 10.9221 4.72631 10.6649 5.01689 10.5741C4.78471 10.3769 4.67934 10.0529 4.77585 9.74399C4.87237 9.43462 5.14312 9.22799 5.44631 9.19771C5.259 8.95771 5.22145 8.61904 5.37848 8.33582C5.53551 8.05302 5.84231 7.90537 6.14545 7.9372C6.00979 7.66434 6.04162 7.32571 6.25242 7.07948C6.4627 6.83376 6.79242 6.75079 7.08304 6.84262C7.00476 6.54834 7.1039 6.22279 7.35956 6.02404C7.6147 5.82519 7.95487 5.81005 8.22042 5.95823C8.20321 5.6541 8.36545 5.35509 8.65607 5.2116C8.94618 5.06863 9.2827 5.12188 9.51379 5.32115C9.55814 5.01965 9.77779 4.75879 10.0913 4.67732C10.4044 4.59595 10.7227 4.71646 10.9084 4.95749C11.0132 4.67212 11.2804 4.46132 11.6039 4.44515C11.9268 4.42851 12.2137 4.61001 12.3473 4.88296C12.507 4.62416 12.8107 4.47079 13.1305 4.5193C13.4508 4.5673 13.6966 4.80309 13.7728 5.09793C13.9814 4.8756 14.3101 4.78748 14.6138 4.89909C14.918 5.01126 15.111 5.29194 15.1256 5.59663C15.3745 5.42137 15.7147 5.40098 15.9896 5.57212C16.2646 5.74274 16.3966 6.05629 16.3496 6.35732C16.6288 6.23577 16.9658 6.28429 17.2006 6.50652C17.4354 6.72932 17.5021 7.0627 17.3957 7.34807C17.6936 7.28493 18.014 7.39973 18.1997 7.66527C18.3854 7.9303 18.3839 8.27048 18.2227 8.52876C18.5269 8.52665 18.8175 8.70407 18.9464 9.00093C19.0747 9.2983 19.0042 9.63173 18.794 9.85241C19.093 9.9119 19.3418 10.1441 19.4076 10.4613C19.4728 10.7785 19.3366 11.09 19.0867 11.2637C19.3664 11.3822 19.5636 11.6592 19.5641 11.9827C19.5641 11.9863 19.5641 11.9895 19.5641 11.9931C19.5641 11.9953 19.5641 11.9978 19.5641 11.9999C19.5641 12.3234 19.3679 12.601 19.0882 12.7205C19.3387 12.8932 19.4759 13.2046 19.4107 13.5218C19.346 13.839 19.0977 14.0718 18.7987 14.1323C19.0095 14.3525 19.081 14.6853 18.9532 14.9833C18.8253 15.2806 18.5347 15.4586 18.23 15.457C18.3917 15.7153 18.3944 16.0554 18.2092 16.321C18.0239 16.5866 17.7041 16.7024 17.4062 16.6398C17.5132 16.9246 17.4469 17.2586 17.2126 17.4819C16.9778 17.7047 16.6413 17.7537 16.3622 17.6332C16.4097 17.9337 16.2782 18.2478 16.0037 18.4195C15.7293 18.5911 15.3891 18.5713 15.1397 18.3965C15.1256 18.7012 14.9336 18.9824 14.63 19.0951C14.63 19.0951 14.63 19.0951 14.6295 19.0951C14.3258 19.2073 13.9972 19.1197 13.7879 18.898C13.7128 19.1933 13.4676 19.4296 13.1473 19.4787C12.8274 19.5272 12.5233 19.3748 12.3631 19.116C12.2358 19.3785 11.9666 19.5569 11.6598 19.5569C11.6467 19.5571 11.6337 19.5566 11.6206 19.556Z" fill="#F3F3F3"/>
<path d="M12.0006 17.2182C14.8821 17.2182 17.218 14.8823 17.218 12.0008C17.218 9.11934 14.8821 6.78345 12.0006 6.78345C9.1191 6.78345 6.7832 9.11934 6.7832 12.0008C6.7832 14.8823 9.1191 17.2182 12.0006 17.2182Z" fill="#338AF3"/>
<path d="M13.141 10.2288C13.3974 10.0387 13.5642 9.73482 13.5642 9.39113V8.86941C13.5642 8.29308 13.0971 7.82593 12.5208 7.82593H11.4773C10.901 7.82593 10.4338 8.29308 10.4338 8.86941V9.39113C10.4338 9.73482 10.6007 10.0387 10.857 10.2288L9.91211 19.8259C9.91211 19.8259 10.4338 20.3477 11.9991 20.3477C13.5643 20.3477 14.086 19.8259 14.086 19.8259L13.141 10.2288Z" fill="#BDBCC1"/>
<path d="M12.0002 7.82593L12.9067 10.6158H15.8404L13.4671 12.3403L14.3735 15.1303L12.0002 13.406L9.62687 15.1303L10.5335 12.3403L8.16016 10.6158H11.0937L12.0002 7.82593Z" fill="#F0F0F0"/>
</g>
<defs>
<clipPath id="clip0_505_12527">
<rect width="24" height="24" fill="white"/>
</clipPath>
</defs>
</svg>
