<svg width="24" height="24" viewBox="0 0 24 24" fill="none" xmlns="http://www.w3.org/2000/svg">
<g clip-path="url(#clip0_505_12316)">
<path d="M12 24C18.6274 24 24 18.6274 24 12C24 5.37258 18.6274 0 12 0C5.37258 0 0 5.37258 0 12C0 18.6274 5.37258 24 12 24Z" fill="#F0F0F0"/>
<path d="M23.8984 10.4355C23.5673 7.90488 22.4306 5.45959 20.4865 3.51545C18.5423 1.57131 16.097 0.434547 13.5664 0.103516L13.5665 10.4355H23.8984Z" fill="#0052B4"/>
<path d="M10.4355 0.104248C7.90488 0.435279 5.45955 1.572 3.51541 3.51614C1.57131 5.46033 0.434547 7.90565 0.103516 10.4363L10.4355 10.4362L10.4355 0.104248Z" fill="#0052B4"/>
<path d="M0.103516 13.5664C0.434547 16.097 1.57131 18.5424 3.51541 20.4865C5.45955 22.4306 7.90483 23.5673 10.4355 23.8984L10.4355 13.5665L0.103516 13.5664Z" fill="#0052B4"/>
<path d="M13.5664 23.8983C16.097 23.5673 18.5423 22.4306 20.4864 20.4864C22.4306 18.5423 23.5673 16.097 23.8983 13.5664H13.5664V23.8983Z" fill="#0052B4"/>
<path d="M16.0951 7.61471C16.0951 7.45515 16.2248 7.32545 16.3844 7.32545H17.0043C17.9842 7.32545 18.7814 6.52829 18.7814 5.54846C18.7814 4.56863 17.9842 3.77143 17.0043 3.77143H16.4156C16.2235 3.6271 15.9657 3.53809 15.6814 3.53809C15.0883 3.53809 14.6075 3.9227 14.6075 4.39716C14.6075 4.86704 15.0791 5.24823 15.6643 5.25563L15.664 5.25906H17.0043C17.1639 5.25906 17.2936 5.38881 17.2936 5.54837C17.2936 5.70793 17.1639 5.83763 17.0043 5.83763H16.3844C15.4045 5.83763 14.6074 6.63479 14.6074 7.61462C14.6074 8.59445 15.4045 9.39165 16.3844 9.39165H18.7813V7.90393H16.3844C16.2248 7.90398 16.0951 7.77428 16.0951 7.61471Z" fill="#F0F0F0"/>
<path d="M6.70442 7.61496C6.70442 7.4554 6.83413 7.32569 6.99373 7.32569H7.61361C8.59348 7.32569 9.39069 6.52854 9.39069 5.54871C9.39069 4.56888 8.59353 3.77167 7.61361 3.77167H7.02495C6.83281 3.62735 6.57505 3.53833 6.2907 3.53833C5.69759 3.53833 5.2168 3.92294 5.2168 4.39741C5.2168 4.86728 5.68841 5.24847 6.27359 5.25588L6.27331 5.2593H7.61366C7.77327 5.2593 7.90297 5.38905 7.90297 5.54861C7.90297 5.70818 7.77327 5.83788 7.61366 5.83788H6.99378C6.01391 5.83788 5.2168 6.63504 5.2168 7.61486C5.2168 8.59469 6.01386 9.3919 6.99378 9.3919H9.39064V7.90418H6.99373C6.83413 7.90422 6.70442 7.77452 6.70442 7.61496Z" fill="#F0F0F0"/>
<path d="M16.0951 18.686C16.0951 18.5264 16.2248 18.3967 16.3845 18.3967H17.0043C17.9842 18.3967 18.7814 17.5996 18.7814 16.6197C18.7814 15.6399 17.9843 14.8427 17.0043 14.8427H16.4157C16.2235 14.6984 15.9658 14.6094 15.6814 14.6094C15.0883 14.6094 14.6075 14.994 14.6075 15.4685C14.6075 15.9383 15.0791 16.3195 15.6643 16.3269L15.664 16.3303H17.0043C17.1639 16.3303 17.2936 16.4601 17.2936 16.6197C17.2936 16.7792 17.1639 16.9089 17.0043 16.9089H16.3844C15.4045 16.9089 14.6074 17.7061 14.6074 18.6859C14.6074 19.6657 15.4045 20.4629 16.3844 20.4629H18.7814V18.9753H16.3845C16.2248 18.9753 16.0951 18.8455 16.0951 18.686Z" fill="#F0F0F0"/>
<path d="M6.70447 18.686C6.70447 18.5264 6.83417 18.3967 6.99378 18.3967H7.61365C8.59353 18.3967 9.39073 17.5996 9.39073 16.6197C9.39073 15.6399 8.59358 14.8427 7.61365 14.8427H7.025C6.83286 14.6984 6.57509 14.6094 6.29075 14.6094C5.69759 14.6094 5.2168 14.994 5.2168 15.4685C5.2168 15.9383 5.68841 16.3195 6.27359 16.3269L6.27331 16.3303H7.61365C7.77326 16.3303 7.90297 16.4601 7.90297 16.6197C7.90297 16.7792 7.77326 16.9089 7.61365 16.9089H6.99378C6.01391 16.9089 5.2168 17.7061 5.2168 18.6859C5.2168 19.6657 6.01386 20.4629 6.99378 20.4629H9.39068V18.9753H6.99378C6.83417 18.9753 6.70447 18.8455 6.70447 18.686Z" fill="#F0F0F0"/>
</g>
<defs>
<clipPath id="clip0_505_12316">
<rect width="24" height="24" fill="white"/>
</clipPath>
</defs>
</svg>
