<svg width="24" height="24" viewBox="0 0 24 24" fill="none" xmlns="http://www.w3.org/2000/svg">
<g clip-path="url(#clip0_505_12329)">
<path d="M12 24C18.6274 24 24 18.6274 24 12C24 5.37258 18.6274 0 12 0C5.37258 0 0 5.37258 0 12C0 18.6274 5.37258 24 12 24Z" fill="#496E2D"/>
<path d="M12.0001 13.8638C10.002 13.8638 8.33275 12.4595 7.9232 10.5843C7.8603 10.8726 7.82617 11.1715 7.82617 11.4787C7.82617 13.784 9.69484 15.6526 12.0001 15.6526C14.3053 15.6526 16.174 13.7839 16.174 11.4787C16.174 11.1715 16.1398 10.8726 16.0769 10.5842C15.6674 12.4596 13.9982 13.8638 12.0001 13.8638Z" fill="#FFDA44"/>
<path d="M12.0012 8.3479L12.3897 9.54364H13.647L12.6299 10.2826L13.0184 11.4784L12.0012 10.7393L10.9841 11.4784L11.3726 10.2826L10.3555 9.54364H11.6127L12.0012 8.3479Z" fill="#FFDA44"/>
</g>
<defs>
<clipPath id="clip0_505_12329">
<rect width="24" height="24" fill="white"/>
</clipPath>
</defs>
</svg>
