<svg width="24" height="24" viewBox="0 0 24 24" fill="none" xmlns="http://www.w3.org/2000/svg">
<g clip-path="url(#clip0_505_12392)">
<path d="M24 12C24 18.6274 18.6274 24 12 24C5.37262 24 0 18.6274 0 12C0 12.0029 12 0.0013125 12 0C18.6274 0 24 5.37262 24 12Z" fill="#0052B4"/>
<path d="M11.9688 11.9999H12.0009C12.0009 11.9891 12.0009 11.9786 12.0009 11.9678C11.9902 11.9785 11.9795 11.9892 11.9688 11.9999Z" fill="#F0F0F0"/>
<path d="M12 6.26135C12 4.14986 12 2.76635 12 0.000488281H11.998C5.37145 0.00161328 0 5.37372 0 12.0005H6.26086V8.47497L9.78637 12.0005H11.9679C11.9786 11.9898 11.9893 11.9791 12 11.9684C12 11.1599 12 10.4386 12 9.78696L8.47443 6.26135H12Z" fill="#F0F0F0"/>
<path d="M6.07222 1.56543C4.19539 2.63413 2.63506 4.19441 1.56641 6.07124V12.0002H4.69686V4.69598V4.69588H12.0012C12.0012 3.70856 12.0012 2.76796 12.0012 1.56543H6.07222Z" fill="#D80027"/>
<path d="M12.0009 10.5242L7.73734 6.26074H6.26172V6.26084L12.0008 11.9998H12.0009C12.0009 11.9998 12.0009 10.9823 12.0009 10.5242Z" fill="#D80027"/>
<path d="M13.5645 6.2605V11.9996C13.5645 14.7952 17.2166 15.6518 17.2166 15.6518C17.2166 15.6518 20.8688 14.7952 20.8688 11.9996V6.2605H13.5645Z" fill="#338AF3"/>
<path d="M13.5645 11.9993C13.5645 14.7949 17.2166 15.6515 17.2166 15.6515C17.2166 15.6515 20.8688 14.7949 20.8688 11.9993H13.5645Z" fill="#A2001D"/>
<path d="M18.7828 8.86921H17.7393V7.82568H16.6958V8.86921H15.6523V9.91265H16.6958V13.0431H17.7393V9.91265H18.7828V8.86921Z" fill="black"/>
</g>
<defs>
<clipPath id="clip0_505_12392">
<rect width="24" height="24" fill="white"/>
</clipPath>
</defs>
</svg>
