<svg width="24" height="24" viewBox="0 0 24 24" fill="none" xmlns="http://www.w3.org/2000/svg">
<g clip-path="url(#clip0_505_12295)">
<path d="M12 24C18.6274 24 24 18.6274 24 12C24 5.37258 18.6274 0 12 0C5.37258 0 0 5.37258 0 12C0 18.6274 5.37258 24 12 24Z" fill="#D80027"/>
<path d="M19.826 6.26099H4.17383V17.7393H19.826V6.26099Z" fill="#6DA544"/>
<path d="M13.9314 15.3913C12.0584 15.3913 10.54 13.8729 10.54 12C10.54 10.127 12.0584 8.60867 13.9314 8.60867C14.5153 8.60867 15.0648 8.75633 15.5446 9.0163C14.792 8.28032 13.7628 7.82605 12.627 7.82605C10.3219 7.82605 8.45312 9.69477 8.45312 11.9999C8.45312 14.3051 10.3219 16.1738 12.627 16.1738C13.7628 16.1738 14.792 15.7196 15.5446 14.9836C15.0648 15.2436 14.5153 15.3913 13.9314 15.3913Z" fill="#F0F0F0"/>
</g>
<defs>
<clipPath id="clip0_505_12295">
<rect width="24" height="24" fill="white"/>
</clipPath>
</defs>
</svg>
