<svg width="24" height="24" viewBox="0 0 24 24" fill="none" xmlns="http://www.w3.org/2000/svg">
<g clip-path="url(#clip0_505_12409)">
<path d="M12 24C18.6274 24 24 18.6274 24 12C24 5.37258 18.6274 0 12 0C5.37258 0 0 5.37258 0 12C0 18.6274 5.37258 24 12 24Z" fill="#F0F0F0"/>
<path d="M6.4847 16.696L3.51367 20.4853C5.68511 22.657 8.68478 24.0004 11.9986 24.0004C16.9593 24.0004 21.2162 20.9897 23.0438 16.696H6.4847Z" fill="#FFDA44"/>
<path d="M23.0624 7.34829C21.2451 3.03152 16.9761 0.000488281 11.9986 0.000488281C8.68478 0.000488281 5.68511 1.34388 3.51367 3.5156L6.51883 7.34829H23.0624Z" fill="#496E2D"/>
<path d="M2.60938 8.82593V15.1302H23.5873C23.8565 14.1322 24.0007 13.083 24.0007 11.9998C24.0007 10.901 23.8526 9.83693 23.5759 8.82593H2.60938Z" fill="black"/>
<path d="M3.51471 3.51416C-1.17157 8.20044 -1.17157 15.7985 3.51471 20.4848C5.45126 18.5482 7.31374 16.6858 12 11.9995L3.51471 3.51416Z" fill="#A2001D"/>
<path d="M4.85792 8.86938L5.63487 11.2608H8.14953L6.11525 12.7388L6.89216 15.1303L4.85792 13.6523L2.82359 15.1303L3.60069 12.7388L1.56641 11.2608H4.08087L4.85792 8.86938Z" fill="#FFDA44"/>
<path d="M7.13198 11.9993H2.58398V14.0862H7.13198V11.9993Z" fill="#F0F0F0"/>
<path d="M7.99155 9.60729L7.25369 8.86938L4.85612 11.2669L2.45856 8.86938L1.7207 9.60729L4.12038 12.0027L1.7207 14.4024L2.45856 15.1303L4.85612 12.737L7.25369 15.1303L7.99155 14.4024L5.59188 12.0027L7.99155 9.60729Z" fill="black"/>
</g>
<defs>
<clipPath id="clip0_505_12409">
<rect width="24" height="24" fill="white"/>
</clipPath>
</defs>
</svg>
