<svg width="24" height="24" viewBox="0 0 24 24" fill="none" xmlns="http://www.w3.org/2000/svg">
<g clip-path="url(#clip0_505_12480)">
<path d="M1.19072 6.78213C0.427875 8.35976 0 10.1296 0 11.9995C0 13.8694 0.427875 15.6393 1.19072 17.2169L12 18.2604L22.8093 17.2169C23.5721 15.6393 24 13.8694 24 11.9995C24 10.1296 23.5721 8.35976 22.8093 6.78213L12 5.73865L1.19072 6.78213Z" fill="#F0F0F0"/>
<path d="M1.19141 17.2183C3.13231 21.2322 7.24273 24.0009 12.0003 24.0009C16.7578 24.0009 20.8682 21.2322 22.8091 17.2183H1.19141Z" fill="#6DA544"/>
<path d="M1.19141 6.78238H22.8091C20.8682 2.76843 16.7577 -0.000244141 12.0003 -0.000244141C7.24278 -0.000244141 3.13231 2.76843 1.19141 6.78238Z" fill="#FF9811"/>
<path d="M12.0001 16.1742C14.3052 16.1742 16.174 14.3055 16.174 12.0003C16.174 9.69513 14.3052 7.82642 12.0001 7.82642C9.69489 7.82642 7.82617 9.69513 7.82617 12.0003C7.82617 14.3055 9.69489 16.1742 12.0001 16.1742Z" fill="#FF9811"/>
</g>
<defs>
<clipPath id="clip0_505_12480">
<rect width="24" height="24" fill="white"/>
</clipPath>
</defs>
</svg>
