<svg width="24" height="24" viewBox="0 0 24 24" fill="none" xmlns="http://www.w3.org/2000/svg">
<g clip-path="url(#clip0_505_12432)">
<path d="M12 24C18.6274 24 24 18.6274 24 12C24 5.37258 18.6274 0 12 0C5.37258 0 0 5.37258 0 12C0 18.6274 5.37258 24 12 24Z" fill="#0052B4"/>
<path d="M12 24C18.6274 24 24 18.6274 24 12C24 5.37258 18.6274 0 12 0C5.37258 0 0 5.37258 0 12C0 18.6274 5.37258 24 12 24Z" fill="#FFDA44"/>
<path d="M12.0012 -0.000488281C5.72536 -0.000488281 0.575766 4.81737 0.046875 10.956H23.9555C23.4266 4.81737 18.277 -0.000488281 12.0012 -0.000488281Z" fill="#0052B4"/>
<path d="M11.9992 24.0002C18.275 24.0002 23.4246 19.1824 23.9536 13.0437H0.0449219C0.573813 19.1824 5.72341 24.0002 11.9992 24.0002Z" fill="#0052B4"/>
<path d="M9.91361 16.1746L8.56895 16.8071L9.28497 18.1094L7.82486 17.83L7.63984 19.3051L6.6228 18.2202L5.6058 19.3051L5.42078 17.83L3.96063 18.1093L4.67669 16.8071L3.33203 16.1746L4.67673 15.5421L3.96063 14.2399L5.42073 14.5192L5.60584 13.0442L6.6228 14.129L7.63989 13.0442L7.82486 14.5192L9.28502 14.2399L8.569 15.5422L9.91361 16.1746Z" fill="#F0F0F0"/>
</g>
<defs>
<clipPath id="clip0_505_12432">
<rect width="24" height="24" fill="white"/>
</clipPath>
</defs>
</svg>
