<svg width="24" height="24" viewBox="0 0 24 24" fill="none" xmlns="http://www.w3.org/2000/svg">
<g clip-path="url(#clip0_505_12571)">
<path d="M12 24C18.6274 24 24 18.6274 24 12C24 5.37258 18.6274 0 12 0C5.37258 0 0 5.37258 0 12C0 18.6274 5.37258 24 12 24Z" fill="#F0F0F0"/>
<path d="M0 11.9998C0 18.6271 5.37262 23.9998 12 23.9998C12 19.4362 12 11.9998 12 11.9998C12 11.9998 4.17389 11.9998 0 11.9998Z" fill="#0052B4"/>
<path d="M12 0.000732422C18.6274 0.000732422 24 5.37336 24 12.0007C19.4365 12.0007 12 12.0007 12 12.0007C12 12.0007 12 4.17462 12 0.000732422Z" fill="#D80027"/>
<path d="M7.14312 4.1748L7.92017 6.56627H10.4347L8.40041 8.04424L9.17741 10.4357L7.14312 8.9577L5.10884 10.4357L5.88584 8.04424L3.85156 6.56627H6.36608L7.14312 4.1748Z" fill="#0052B4"/>
<path d="M16.858 13.5647L17.635 15.9562H20.1495L18.1152 17.4341L18.8923 19.8256L16.858 18.3476L14.8237 19.8256L15.6007 17.4341L13.5664 15.9562H16.0809L16.858 13.5647Z" fill="#D80027"/>
</g>
<defs>
<clipPath id="clip0_505_12571">
<rect width="24" height="24" fill="white"/>
</clipPath>
</defs>
</svg>
