<svg width="24" height="24" viewBox="0 0 24 24" fill="none" xmlns="http://www.w3.org/2000/svg">
<g clip-path="url(#clip0_505_12612)">
<path d="M24 12C24 18.6274 18.6274 24 12 24C5.37262 24 0 18.6274 0 12C0 12.0029 12 0.0013125 12 0C18.6274 0 24 5.37262 24 12Z" fill="#0052B4"/>
<path d="M11.9688 12.0007H12.0009C12.0009 11.9899 12.0009 11.9794 12.0009 11.9685C11.9902 11.9793 11.9795 11.99 11.9688 12.0007Z" fill="#F0F0F0"/>
<path d="M12 6.2611C12 4.14962 12 2.7661 12 0.000244141H11.998C5.37145 0.00136914 0 5.37348 0 12.0002H6.26086V8.47473L9.78637 12.0002H11.9679C11.9786 11.9896 11.9893 11.9789 12 11.9681C12 11.1597 12 10.4383 12 9.78671L8.47443 6.2611H12Z" fill="#F0F0F0"/>
<path d="M6.07222 1.56494C4.19539 2.63365 2.63506 4.19393 1.56641 6.07076V11.9997H4.69686V4.69549V4.6954H12.0012C12.0012 3.70807 12.0012 2.76747 12.0012 1.56494H6.07222Z" fill="#D80027"/>
<path d="M12.0009 10.5247L7.73734 6.26123H6.26172V6.26132L12.0008 12.0003H12.0009C12.0009 12.0003 12.0009 10.9828 12.0009 10.5247Z" fill="#D80027"/>
<path d="M18.783 7.30376L17.2178 7.82552L15.6526 7.30376L15.1309 5.99941L15.6526 4.69507H18.783L18.2613 5.99941L18.783 7.30376Z" fill="#ACABB1"/>
<path d="M13.5645 7.30396V13.0431C13.5645 15.8387 17.2166 16.6953 17.2166 16.6953C17.2166 16.6953 20.8688 15.8387 20.8688 13.0431V7.30396H13.5645Z" fill="#338AF3"/>
<path d="M13.8945 14.4024C14.7923 16.1259 17.2175 16.695 17.2175 16.695C17.2175 16.695 19.6427 16.1259 20.5405 14.4024L17.2175 8.8689L13.8945 14.4024Z" fill="#6DA544"/>
<path d="M20.8688 12.9851L17.2166 7.30396L13.5645 12.9851V13.043C13.5645 13.5605 13.6898 14.0113 13.8937 14.4027L17.2166 9.23356L20.5396 14.4027C20.7435 14.0112 20.8688 13.5604 20.8688 13.043V12.9851Z" fill="#FFDA44"/>
</g>
<defs>
<clipPath id="clip0_505_12612">
<rect width="24" height="24" fill="white"/>
</clipPath>
</defs>
</svg>
