<svg width="24" height="24" viewBox="0 0 24 24" fill="none" xmlns="http://www.w3.org/2000/svg">
<g clip-path="url(#clip0_505_12565)">
<path d="M12 24C18.6274 24 24 18.6274 24 12C24 5.37258 18.6274 0 12 0C5.37258 0 0 5.37258 0 12C0 18.6274 5.37258 24 12 24Z" fill="#F0F0F0"/>
<path d="M7.30486 7.82684H23.2541C21.5586 3.25723 17.16 0.000732422 12.0005 0.000732422C8.68673 0.000732422 5.68706 1.34412 3.51562 3.51584L7.30486 7.82684Z" fill="black"/>
<path d="M7.30486 16.1736H23.2541C21.5586 20.7432 17.16 23.9997 12.0005 23.9997C8.68673 23.9997 5.68706 22.6563 3.51562 20.4846L7.30486 16.1736Z" fill="#6DA544"/>
<path d="M3.51471 3.51489C-1.17157 8.20117 -1.17157 15.7992 3.51471 20.4855C5.45126 18.549 7.31375 16.6865 12 12.0002L3.51471 3.51489Z" fill="#D80027"/>
</g>
<defs>
<clipPath id="clip0_505_12565">
<rect width="24" height="24" fill="white"/>
</clipPath>
</defs>
</svg>
