<svg width="24" height="24" viewBox="0 0 24 24" fill="none" xmlns="http://www.w3.org/2000/svg">
<g clip-path="url(#clip0_505_12741)">
<path d="M12 24C18.6274 24 24 18.6274 24 12C24 5.37258 18.6274 0 12 0C5.37258 0 0 5.37258 0 12C0 18.6274 5.37258 24 12 24Z" fill="#6DA544"/>
<path d="M6.78125 14.3477C6.78125 15.2121 7.48203 15.9129 8.34645 15.9129H13.0421C13.0421 16.6332 13.6261 17.2172 14.3465 17.2172H15.9117C16.632 17.2172 17.216 16.6332 17.216 15.9129V14.3477H6.78125Z" fill="#F0F0F0"/>
<path d="M17.3462 6.78296V10.4351C17.3462 11.0105 16.8781 11.4786 16.3027 11.4786V13.0438C17.7412 13.0438 18.9114 11.8735 18.9114 10.4351V6.78296H17.3462Z" fill="#F0F0F0"/>
<path d="M6.12942 10.4349C6.12942 11.0103 5.66133 11.4784 5.08594 11.4784V13.0436C6.52439 13.0436 7.69462 11.8733 7.69462 10.4349V6.78271H6.12942V10.4349Z" fill="#F0F0F0"/>
<path d="M16.5652 6.78296H15V10.4351H16.5652V6.78296Z" fill="#F0F0F0"/>
<path d="M12.6505 8.86993C12.6505 9.01379 12.5334 9.13079 12.3896 9.13079C12.2458 9.13079 12.1287 9.01374 12.1287 8.86993V6.78296H10.5635V8.86993C10.5635 9.01379 10.4465 9.13079 10.3027 9.13079C10.1589 9.13079 10.0418 9.01374 10.0418 8.86993V6.78296H8.47656V8.86993C8.47656 9.87685 9.29575 10.696 10.3027 10.696C10.6905 10.696 11.0501 10.5742 11.3462 10.3672C11.6422 10.5741 12.0019 10.696 12.3896 10.696C12.4677 10.696 12.5445 10.6906 12.62 10.6809C12.5091 11.1379 12.0976 11.4786 11.607 11.4786V13.0438C13.0455 13.0438 14.2157 11.8735 14.2157 10.4351V8.86993V6.78296H12.6505V8.86993H12.6505Z" fill="#F0F0F0"/>
<path d="M10.8244 11.478H8.47656V13.0432H10.8244V11.478Z" fill="#F0F0F0"/>
</g>
<defs>
<clipPath id="clip0_505_12741">
<rect width="24" height="24" fill="white"/>
</clipPath>
</defs>
</svg>
