<svg width="24" height="24" viewBox="0 0 24 24" fill="none" xmlns="http://www.w3.org/2000/svg">
<g clip-path="url(#clip0_505_12834)">
<path d="M20.4854 20.4851C24.9859 15.9846 25.1636 8.79939 21.0203 4.08569L11.9997 11.9994L4.08594 21.0201C8.79963 25.1633 15.9848 24.9856 20.4854 20.4851Z" fill="#496E2D"/>
<path d="M3.51438 3.5144C8.01488 -0.986107 15.2001 -1.16381 19.9138 2.97942L12 12.0001L2.97944 19.9138C-1.16383 15.2001 -0.986083 8.01491 3.51438 3.5144Z" fill="#0052B4"/>
<path d="M19.9148 2.98022L2.98047 19.9146C3.15166 20.1094 3.32941 20.3005 3.51545 20.4864C3.70145 20.6724 3.89256 20.8502 4.08737 21.0214L21.0216 4.08703C20.8505 3.89222 20.6727 3.70116 20.4866 3.51511C20.3007 3.32921 20.1096 3.15141 19.9148 2.98022Z" fill="#FFDA44"/>
<path d="M5.05619 4.17432L5.31526 4.97152H6.15343L5.47534 5.46413L5.73433 6.26133L5.05619 5.76863L4.37805 6.26133L4.63712 5.46413L3.95898 4.97152H4.7972L5.05619 4.17432Z" fill="#F0F0F0"/>
<path d="M9.33744 4.17358L9.59652 4.97079H10.4346L9.75655 5.46339L10.0156 6.2606L9.33744 5.76789L8.6593 6.2606L8.91837 5.46339L8.24023 4.97079H9.07841L9.33744 4.17358Z" fill="#F0F0F0"/>
<path d="M5.05619 8.34766L5.31526 9.14486H6.15343L5.47534 9.63751L5.73433 10.4347L5.05619 9.94201L4.37805 10.4347L4.63712 9.63751L3.95898 9.14486H4.7972L5.05619 8.34766Z" fill="#F0F0F0"/>
<path d="M9.33744 8.34766L9.59652 9.14486H10.4346L9.75655 9.63751L10.0156 10.4347L9.33744 9.94201L8.6593 10.4347L8.91837 9.63751L8.24023 9.14486H9.07841L9.33744 8.34766Z" fill="#F0F0F0"/>
<path d="M7.19686 6.26172L7.45593 7.05892H8.29406L7.61597 7.55157L7.875 8.34877L7.19686 7.85607L6.51872 8.34877L6.77775 7.55157L6.09961 7.05892H6.93783L7.19686 6.26172Z" fill="#F0F0F0"/>
</g>
<defs>
<clipPath id="clip0_505_12834">
<rect width="24" height="24" fill="white"/>
</clipPath>
</defs>
</svg>
