<svg width="24" height="24" viewBox="0 0 24 24" fill="none" xmlns="http://www.w3.org/2000/svg">
<g clip-path="url(#clip0_505_12776)">
<path d="M23.2536 16.1742C23.736 14.8742 24 13.4682 24 12.0003C24 10.5325 23.736 9.12643 23.2536 7.82644L12 6.78296L0.746391 7.82644C0.264 9.12643 0 10.5325 0 12.0003C0 13.4682 0.264 14.8742 0.746391 16.1742L12 17.2177L23.2536 16.1742Z" fill="#F0F0F0"/>
<path d="M11.9997 24.0007C17.1593 24.0007 21.5578 20.7442 23.2533 16.1746H0.746094C2.44166 20.7442 6.84012 24.0007 11.9997 24.0007Z" fill="#338AF3"/>
<path d="M11.9997 0C6.84012 0 2.44166 3.2565 0.746094 7.82611H23.2534C21.5578 3.2565 17.1593 0 11.9997 0Z" fill="#6DA544"/>
</g>
<defs>
<clipPath id="clip0_505_12776">
<rect width="24" height="24" fill="white"/>
</clipPath>
</defs>
</svg>
