<svg width="24" height="24" viewBox="0 0 24 24" fill="none" xmlns="http://www.w3.org/2000/svg">
<g clip-path="url(#clip0_505_12723)">
<path d="M24 11.9998C24 18.6271 18.6274 23.9998 12 23.9998C5.37262 23.9998 0 18.6271 0 11.9998C0.521719 11.9998 12 10.4346 12 10.4346L24 11.9998Z" fill="#338AF3"/>
<path d="M0 12C0 5.37262 5.37262 0 12 0C18.6274 0 24 5.37262 24 12" fill="#F0F0F0"/>
<path d="M16.7641 8.28076L12.0008 13.0441L7.23756 8.28076C6.62158 9.19515 6.26172 10.2957 6.26172 11.4788V13.044C6.26172 15.5573 7.8857 17.6982 10.1393 18.4731C9.83851 19.0626 9.88923 19.7983 10.33 20.3484C10.9154 19.8792 11.5214 19.3935 12.0355 18.9816C12.5497 19.3936 13.1558 19.8792 13.7411 20.3484C14.187 19.7919 14.2341 19.0451 13.9214 18.4522C16.1442 17.6605 17.7399 15.5352 17.7399 13.044V11.4789C17.7399 10.2957 17.38 9.1952 16.7641 8.28076Z" fill="#6DA544"/>
<path d="M12.0001 17.2174C9.69855 17.2174 7.82617 15.345 7.82617 13.0435V11.4783C7.82617 9.17682 9.69859 7.30444 12.0001 7.30444C14.3015 7.30444 16.174 9.17687 16.174 11.4783V13.0435C16.174 15.345 14.3016 17.2174 12.0001 17.2174Z" fill="#FFDA44"/>
<path d="M14.608 13.0433V11.4781C14.608 10.0396 13.4377 8.86938 11.9993 8.86938C10.5609 8.86938 9.39062 10.0397 9.39062 11.4781V13.0433L11.9993 13.565L14.608 13.0433Z" fill="#338AF3"/>
<path d="M9.39062 13.0432C9.39062 14.4817 10.5609 15.6519 11.9993 15.6519C13.4377 15.6519 14.608 14.4816 14.608 13.0432H9.39062Z" fill="#6DA544"/>
<path d="M15.13 7.30403C15.13 6.43961 14.4292 5.73882 13.5648 5.73882C13.1638 5.73882 12.7983 5.88976 12.5213 6.13768V5.21706H13.043V4.17357H12.5213V3.65186H11.4778V4.17357H10.9561V5.21706H11.4778V6.13768C11.2008 5.88976 10.8353 5.73882 10.4343 5.73882C9.56992 5.73882 8.86914 6.43961 8.86914 7.30403C8.86914 7.76748 9.07075 8.18373 9.39086 8.47037V9.391H14.6082V8.47037C14.9284 8.18373 15.13 7.76748 15.13 7.30403Z" fill="#FFDA44"/>
</g>
<defs>
<clipPath id="clip0_505_12723">
<rect width="24" height="24" fill="white"/>
</clipPath>
</defs>
</svg>
