<svg width="24" height="24" viewBox="0 0 24 24" fill="none" xmlns="http://www.w3.org/2000/svg">
<g clip-path="url(#clip0_505_12933)">
<path d="M12 24C18.6274 24 24 18.6274 24 12C24 5.37258 18.6274 0 12 0C5.37258 0 0 5.37258 0 12C0 18.6274 5.37258 24 12 24Z" fill="#F0F0F0"/>
<path d="M23.2536 7.8269H0.746344C0.264047 9.12694 0 10.533 0 12.0008C0 13.4686 0.264047 14.8747 0.746344 16.1747H23.2536C23.736 14.8747 24 13.4686 24 12.0008C24 10.533 23.736 9.12694 23.2536 7.8269Z" fill="#A2001D"/>
<path d="M12.0345 24.0011C16.1446 24.0011 19.7716 21.9343 21.9343 18.7837H2.13477C4.29748 21.9343 7.92439 24.0011 12.0345 24.0011Z" fill="#6DA544"/>
<path d="M12.0345 0.000244141C16.1446 0.000244141 19.7716 2.06706 21.9343 5.21762H2.13477C4.29748 2.06706 7.92439 0.000244141 12.0345 0.000244141Z" fill="#6DA544"/>
<path d="M12 7.8269L13.036 11.0153H16.3888L13.6764 12.9862L14.7125 16.1747L12 14.2041L9.28763 16.1747L10.3238 12.9862L7.61133 11.0153H10.9641L12 7.8269Z" fill="#FFDA44"/>
</g>
<defs>
<clipPath id="clip0_505_12933">
<rect width="24" height="24" fill="white"/>
</clipPath>
</defs>
</svg>
