<svg width="24" height="24" viewBox="0 0 24 24" fill="none" xmlns="http://www.w3.org/2000/svg">
<g clip-path="url(#clip0_505_12732)">
<path d="M12 24C18.6274 24 24 18.6274 24 12C24 5.37258 18.6274 0 12 0C5.37258 0 0 5.37258 0 12C0 18.6274 5.37258 24 12 24Z" fill="#FFDA44"/>
<path d="M7.30486 7.82611H23.2541C21.5586 3.2565 17.16 0 12.0005 0C8.68673 0 5.68706 1.34339 3.51562 3.51511L7.30486 7.82611Z" fill="#6DA544"/>
<path d="M7.30486 16.1746H23.2541C21.5586 20.7442 17.16 24.0007 12.0005 24.0007C8.68673 24.0007 5.68706 22.6573 3.51562 20.4856L7.30486 16.1746Z" fill="#6DA544"/>
<path d="M3.51471 3.51367C-1.17157 8.19995 -1.17157 15.798 3.51471 20.4843C5.45126 18.5478 7.31375 16.6853 12 11.999L3.51471 3.51367Z" fill="#D80027"/>
<path d="M15.2373 9.91284L15.7553 11.5072H17.4317L16.0755 12.4925L16.5935 14.0868L15.2373 13.1014L13.8811 14.0868L14.3991 12.4925L13.043 11.5072H14.7193L15.2373 9.91284Z" fill="black"/>
<path d="M20.4561 9.91284L20.9741 11.5072H22.6504L21.2943 12.4925L21.8123 14.0868L20.4561 13.1014L19.0999 14.0868L19.6179 12.4925L18.2617 11.5072H19.9381L20.4561 9.91284Z" fill="black"/>
</g>
<defs>
<clipPath id="clip0_505_12732">
<rect width="24" height="24" fill="white"/>
</clipPath>
</defs>
</svg>
