<svg width="24" height="24" viewBox="0 0 24 24" fill="none" xmlns="http://www.w3.org/2000/svg">
<g clip-path="url(#clip0_505_12808)">
<path d="M10.9555 13.0428C10.9555 13.0428 3.5207 3.51232 3.51367 3.514C5.6852 1.34242 8.68525 -0.000732422 11.999 -0.000732422C18.6264 -0.000732422 23.999 5.37189 23.999 11.9993L10.9555 13.0428Z" fill="#D80027"/>
<path d="M10.9555 11.9995C10.9555 11.9995 3.5207 20.4865 3.51367 20.4848C5.6852 22.6563 8.68525 23.9995 11.999 23.9995C18.6264 23.9995 23.999 18.6269 23.999 11.9995H10.9555Z" fill="#0052B4"/>
<path d="M3.51471 3.51465C-1.17157 8.20093 -1.17157 15.7989 3.51471 20.4853C5.45126 18.5487 7.31375 16.6862 12 12L3.51471 3.51465Z" fill="#F0F0F0"/>
<path d="M1.3157 11.9998C1.30914 12.0859 1.30469 12.1727 1.30469 12.2606C1.30469 14.1335 2.82306 15.6519 4.696 15.6519C6.56894 15.6519 8.08731 14.1335 8.08731 12.2606C8.08731 12.1727 8.08286 12.0859 8.0763 11.9998H1.3157Z" fill="#FFDA44"/>
<path d="M4.69583 10.4339C5.27213 10.4339 5.73931 9.96671 5.73931 9.39041C5.73931 8.81411 5.27213 8.34692 4.69583 8.34692C4.11953 8.34692 3.65234 8.81411 3.65234 9.39041C3.65234 9.96671 4.11953 10.4339 4.69583 10.4339Z" fill="#FFDA44"/>
<path d="M2.34766 9.13013V12.5214C2.34766 14.3186 4.69548 14.8693 4.69548 14.8693C4.69548 14.8693 7.04331 14.3186 7.04331 12.5214V9.13013H2.34766Z" fill="#D80027"/>
<path d="M4.69614 13.7777C4.26058 13.6209 3.39062 13.2203 3.39062 12.5219V10.1741H5.99936V12.5219C5.99936 13.2226 5.1295 13.6222 4.69614 13.7777Z" fill="#338AF3"/>
<path d="M5.21841 11.4777V10.9559L4.69669 10.6951L4.17492 10.9559V11.4777L3.91406 11.7386V12.782H5.47931V11.7386L5.21841 11.4777Z" fill="#F3F3F3"/>
</g>
<defs>
<clipPath id="clip0_505_12808">
<rect width="24" height="24" fill="white"/>
</clipPath>
</defs>
</svg>
