<svg width="24" height="24" viewBox="0 0 24 24" fill="none" xmlns="http://www.w3.org/2000/svg">
<g clip-path="url(#clip0_505_12984)">
<path d="M1.19072 6.78177C0.427875 8.35939 0 10.1293 0 11.9991C0 13.869 0.427875 15.6389 1.19072 17.2165L12 18.26L22.8093 17.2165C23.5721 15.6389 24 13.869 24 11.9991C24 10.1293 23.5721 8.35939 22.8093 6.78177L12 5.73828L1.19072 6.78177Z" fill="#F0F0F0"/>
<path d="M1.19141 17.2175C3.13236 21.2314 7.24278 24.0002 12.0003 24.0002C16.7577 24.0002 20.8682 21.2314 22.8091 17.2175H1.19141Z" fill="#6DA544"/>
<path d="M1.19141 6.78214H22.8091C20.8682 2.76823 16.7577 -0.000488281 12.0003 -0.000488281C7.24278 -0.000488281 3.13236 2.76823 1.19141 6.78214Z" fill="#D80027"/>
<path d="M9.91211 15.1314H14.086V13.3575L13.2513 13.7749L11.9991 12.5227L10.7469 13.7749L9.91211 13.3575V15.1314Z" fill="#FFDA44"/>
<path d="M7.52406 13.0437L7.71836 13.6415H8.34695L7.83836 14.0111L8.03266 14.6089L7.52406 14.2394L7.01547 14.6089L7.20977 14.0111L6.70117 13.6415H7.32976L7.52406 13.0437Z" fill="#FFDA44"/>
<path d="M8.12562 10.9578L8.31992 11.5556H8.94852L8.43992 11.9251L8.63417 12.523L8.12562 12.1535L7.61703 12.523L7.81133 11.9251L7.30273 11.5556H7.93133L8.12562 10.9578Z" fill="#FFDA44"/>
<path d="M9.84828 9.39282L10.0426 9.99067H10.6711L10.1626 10.3602L10.3568 10.958L9.84828 10.5886L9.33973 10.958L9.53398 10.3602L9.02539 9.99067H9.65403L9.84828 9.39282Z" fill="#FFDA44"/>
<path d="M16.4733 13.0437L16.279 13.6415H15.6504L16.159 14.0111L15.9647 14.6089L16.4733 14.2394L16.9818 14.6089L16.7876 14.0111L17.2962 13.6415H16.6676L16.4733 13.0437Z" fill="#FFDA44"/>
<path d="M15.8717 10.9578L15.6774 11.5556H15.0488L15.5574 11.9251L15.3631 12.523L15.8717 12.1535L16.3803 12.523L16.186 11.9251L16.6946 11.5556H16.066L15.8717 10.9578Z" fill="#FFDA44"/>
<path d="M14.151 9.39282L13.9567 9.99067H13.3281L13.8366 10.3602L13.6424 10.958L14.151 10.5886L14.6595 10.958L14.4653 10.3602L14.9738 9.99067H14.3452L14.151 9.39282Z" fill="#FFDA44"/>
<path d="M11.9987 8.60938L12.193 9.20722H12.8216L12.313 9.57673L12.5073 10.1746L11.9987 9.80511L11.4901 10.1746L11.6844 9.57673L11.1758 9.20722H11.8044L11.9987 8.60938Z" fill="#FFDA44"/>
</g>
<defs>
<clipPath id="clip0_505_12984">
<rect width="24" height="24" fill="white"/>
</clipPath>
</defs>
</svg>
