<svg width="24" height="24" viewBox="0 0 24 24" fill="none" xmlns="http://www.w3.org/2000/svg">
<g clip-path="url(#clip0_505_11796)">
<path d="M12 24C18.6274 24 24 18.6274 24 12C24 5.37258 18.6274 0 12 0C5.37258 0 0 5.37258 0 12C0 18.6274 5.37258 24 12 24Z" fill="#FFDA44"/>
<path d="M12.0001 -0.000244141C9.06209 -0.000244141 6.37119 1.05618 4.28516 2.80916L17.2175 11.9998L4.28516 21.1903C6.37119 22.9433 9.06209 23.9998 12.0001 23.9998C18.6275 23.9998 24.0001 18.6271 24.0001 11.9998C24.0001 5.37238 18.6275 -0.000244141 12.0001 -0.000244141Z" fill="#D80027"/>
<path d="M3.51471 3.51538C-1.17157 8.20166 -1.17157 15.7997 3.51471 20.486C5.45126 18.5495 7.31375 16.687 12 12.0007L3.51471 3.51538Z" fill="black"/>
<path d="M3.32659 9.25146L5.15284 10.9798L7.36103 9.77684L6.28173 12.0479L8.10803 13.7763L5.61456 13.4516L4.53513 15.7226L4.07355 13.2508L1.58008 12.926L3.78817 11.7231L3.32659 9.25146Z" fill="#F0F0F0"/>
</g>
<defs>
<clipPath id="clip0_505_11796">
<rect width="24" height="24" fill="white"/>
</clipPath>
</defs>
</svg>
