<svg width="24" height="24" viewBox="0 0 24 24" fill="none" xmlns="http://www.w3.org/2000/svg">
<g clip-path="url(#clip0_505_13055)">
<path d="M11.9995 -0.000732422C11.1035 -0.000732422 10.2308 0.0983145 9.39086 0.284502L8.86914 11.9992L9.39086 23.714C10.2308 23.9002 11.1036 23.9993 11.9995 23.9993C18.6269 23.9993 23.9995 18.6266 23.9995 11.9992C23.9995 5.37185 18.6269 -0.000732422 11.9995 -0.000732422Z" fill="#496E2D"/>
<path d="M3.13041 3.91699C1.18584 6.04962 0 8.88602 0 11.9996C0 15.1131 1.18589 17.9495 3.13045 20.0822L3.65217 11.9996L3.13041 3.91699Z" fill="#496E2D"/>
<path d="M17.5522 9.05156C18.1425 7.40596 17.4793 5.61623 16.0558 4.72485C16.3118 4.75818 16.5682 4.81846 16.8211 4.90917C18.7197 5.59035 19.7066 7.68154 19.0254 9.58007C18.3442 11.4787 16.253 12.4656 14.3544 11.7844C14.1015 11.6936 13.8653 11.5771 13.6465 11.4401C15.312 11.657 16.9618 10.6971 17.5522 9.05156Z" fill="#F0F0F0"/>
<path d="M14.2766 4.27417L13.7636 4.93708L12.9747 4.654L13.4465 5.34672L12.9336 6.00953L13.7382 5.77487L14.2101 6.46749L14.2355 5.62975L15.0401 5.39504L14.2513 5.11206L14.2766 4.27417Z" fill="#F0F0F0"/>
<path d="M15.6634 6.4353L15.1503 7.09816L14.3614 6.81508L14.8333 7.5078L14.3203 8.17062L15.1249 7.93587L15.5969 8.62863L15.6223 7.79083L16.4269 7.55608L15.638 7.27305L15.6634 6.4353Z" fill="#F0F0F0"/>
<path d="M11.8352 5.0603L11.3222 5.72312L10.5333 5.44013L11.0052 6.1328L10.4922 6.79566L11.2967 6.56096L11.7687 7.25363L11.7941 6.41588L12.5987 6.18118L11.8098 5.8981L11.8352 5.0603Z" fill="#F0F0F0"/>
<path d="M11.7786 7.53442L11.2656 8.19728L10.4767 7.91425L10.9486 8.60697L10.4355 9.26978L11.2402 9.03513L11.7121 9.72775L11.7375 8.89L12.5422 8.6553L11.7532 8.37222L11.7786 7.53442Z" fill="#F0F0F0"/>
<path d="M14.1321 8.37988L13.6191 9.0427L12.8302 8.75966L13.3022 9.45238L12.7891 10.1151L13.5938 9.88049L14.0657 10.5732L14.091 9.73537L14.8957 9.50071L14.1067 9.21768L14.1321 8.37988Z" fill="#F0F0F0"/>
<path d="M3.13086 3.91756V20.0827C4.76586 21.8759 6.93758 23.1708 9.39172 23.7148V0.2854C6.93753 0.829432 4.76591 2.12435 3.13086 3.91756Z" fill="#D80027"/>
<path d="M5.51888 6.31749L4.4707 5.53664V4.43241L5.51888 3.65161H7.0013L8.04947 4.43241V5.53664L7.0013 6.31749H5.51888Z" fill="#F0F0F0"/>
<path d="M6.26011 3.65161H5.51887L4.4707 4.43241V4.97227H6.26011V3.65161Z" fill="#FF9811"/>
<path d="M6.25977 6.31656H7.00095L8.04913 5.53571V4.97241H6.25977V6.31656Z" fill="#FF9811"/>
<path d="M5.51888 20.3485L4.4707 19.5676V18.4635L5.51888 17.6826H7.0013L8.04947 18.4635V19.5676L7.0013 20.3485H5.51888Z" fill="#F0F0F0"/>
<path d="M6.26011 17.6826H5.51887L4.4707 18.4635V19.0033H6.26011V17.6826Z" fill="#FF9811"/>
<path d="M6.25977 20.3492H7.00095L8.04913 19.5684V19.0051H6.25977V20.3492Z" fill="#FF9811"/>
<path d="M5.51887 13.3324L4.4707 12.5515V11.4473L5.51887 10.6665H7.00129L8.04946 11.4473V12.5515L7.00129 13.3324H5.51887Z" fill="#496E2D"/>
<path d="M8.08572 15.0514H7.62916V14.5949H6.82689L6.25961 14.0276L5.69238 14.5949H4.89011V15.0514H4.43359V15.9644H4.89011V16.4209H5.69233L6.25966 16.9883L6.82689 16.4209H7.62916V15.9644H8.08572V15.0514Z" fill="#496E2D"/>
<path d="M8.08572 8.03605H7.62916V7.57949H6.82689L6.25961 7.01221L5.69238 7.57949H4.89011V8.03605H4.43359V8.94908H4.89011V9.4056H5.69233L6.25966 9.97297L6.82689 9.4056H7.62916V8.94908H8.08572V8.03605Z" fill="#496E2D"/>
<path d="M6.78176 11.4792H5.73828V12.5227H6.78176V11.4792Z" fill="#D80027"/>
<path d="M6.26 9.01487C6.54813 9.01487 6.78171 8.78129 6.78171 8.49315C6.78171 8.20502 6.54813 7.97144 6.26 7.97144C5.97186 7.97144 5.73828 8.20502 5.73828 8.49315C5.73828 8.78129 5.97186 9.01487 6.26 9.01487Z" fill="#D80027"/>
<path d="M6.26 16.0307C6.54813 16.0307 6.78171 15.7972 6.78171 15.509C6.78171 15.2209 6.54813 14.9873 6.26 14.9873C5.97186 14.9873 5.73828 15.2209 5.73828 15.509C5.73828 15.7972 5.97186 16.0307 6.26 16.0307Z" fill="#D80027"/>
</g>
<defs>
<clipPath id="clip0_505_13055">
<rect width="24" height="24" fill="white"/>
</clipPath>
</defs>
</svg>
