<svg width="24" height="24" viewBox="0 0 24 24" fill="none" xmlns="http://www.w3.org/2000/svg">
<g clip-path="url(#clip0_505_13042)">
<path d="M12 24C18.6274 24 24 18.6274 24 12C24 5.37258 18.6274 0 12 0C5.37258 0 0 5.37258 0 12C0 18.6274 5.37258 24 12 24Z" fill="#D80027"/>
<path d="M11.9989 17.7388C15.1686 17.7388 17.7381 15.1693 17.7381 11.9996C17.7381 8.83 15.1686 6.2605 11.9989 6.2605C8.82927 6.2605 6.25977 8.83 6.25977 11.9996C6.25977 15.1693 8.82927 17.7388 11.9989 17.7388Z" fill="#F0F0F0"/>
<path d="M12.707 9.80493L13.6915 11.1617L15.2861 10.6447L14.3 12.0003L15.2844 13.3571L13.6904 12.8381L12.7043 14.1937L12.7053 12.5174L11.1113 11.9984L12.7059 11.4814L12.707 9.80493Z" fill="#D80027"/>
<path d="M13.3044 15.3904C11.4315 15.3904 9.91309 13.8721 9.91309 11.9991C9.91309 10.1262 11.4315 8.60782 13.3044 8.60782C13.8884 8.60782 14.4379 8.75548 14.9176 9.01545C14.165 8.27946 13.1359 7.8252 12.0001 7.8252C9.69494 7.8252 7.82617 9.69391 7.82617 11.9991C7.82617 14.3043 9.69494 16.173 12.0001 16.173C13.1359 16.173 14.1651 15.7187 14.9176 14.9827C14.4379 15.2428 13.8884 15.3904 13.3044 15.3904Z" fill="#D80027"/>
</g>
<defs>
<clipPath id="clip0_505_13042">
<rect width="24" height="24" fill="white"/>
</clipPath>
</defs>
</svg>
