<svg width="24" height="24" viewBox="0 0 24 24" fill="none" xmlns="http://www.w3.org/2000/svg">
<g clip-path="url(#clip0_505_13099)">
<path d="M24 12C24 18.6274 18.6274 24 12 24C5.37263 24 0 18.6274 0 12C0 12.0029 12 0.0013125 12 0C18.6274 0 24 5.37262 24 12Z" fill="#338AF3"/>
<path d="M5.74023 12.001H9.78752L6.26195 7.82715L5.74023 9.39235V12.001Z" fill="#0052B4"/>
<path d="M12.0001 9.78659L7.82617 5.73926H12.0001L12.0001 9.78659Z" fill="#0052B4"/>
<path d="M11.9688 11.9995H12.0009C12.0009 11.9887 12.0009 11.9781 12.0009 11.9673C11.9902 11.978 11.9795 11.9887 11.9688 11.9995Z" fill="#F0F0F0"/>
<path d="M12 6.2611C12 4.14962 12 2.76606 12 0.000244141H11.998C5.3715 0.00136914 0 5.37348 0 12.0002H6.26091V8.47473L9.78642 12.0002H11.968C11.9787 11.9896 11.9894 11.9789 12.0001 11.9681C12.0001 11.1597 12.0001 10.4383 12.0001 9.78671L8.47444 6.2611H12Z" fill="#F0F0F0"/>
<path d="M6.07222 1.56543C4.19539 2.63413 2.63511 4.19441 1.56641 6.07124V12.0002H4.69686V4.69598V4.69588H12.0012C12.0012 3.70856 12.0012 2.76796 12.0012 1.56543H6.07222Z" fill="#D80027"/>
<path d="M12.0009 10.5242L7.73735 6.26074H6.26172V6.26084L12.0008 11.9998H12.0009C12.0009 11.9998 12.0009 10.9823 12.0009 10.5242Z" fill="#D80027"/>
<path d="M13.0972 19.8252L13.3562 20.6224H14.1944L13.5163 21.115L13.7753 21.9121L13.0972 21.4195L12.4191 21.9121L12.6781 21.115L12 20.6224H12.8381L13.0972 19.8252Z" fill="#FFDA44"/>
<path d="M19.773 14.6091L20.032 15.4063H20.8701L20.1921 15.899L20.4512 16.6961L19.773 16.2035L19.0949 16.6961L19.354 15.899L18.6758 15.4063H19.5139L19.773 14.6091Z" fill="#FFDA44"/>
<path d="M21.4448 6.78247L21.7038 7.57963H22.542L21.864 8.07228L22.123 8.86939L21.4448 8.37678L20.7668 8.86939L21.0258 8.07228L20.3477 7.57963H21.1858L21.4448 6.78247Z" fill="#FFDA44"/>
<path d="M21.8589 12.5212L22.1179 13.3184H22.9561L22.278 13.8111L22.5371 14.6082L21.8589 14.1156L21.1809 14.6082L21.4399 13.8111L20.7617 13.3184H21.5999L21.8589 12.5212Z" fill="#FFDA44"/>
<path d="M14.298 17.9513L15.045 18.3319L15.6376 17.7393L15.5065 18.567L16.2533 18.9475L15.4254 19.0787L15.2943 19.9066L14.9138 19.1597L14.0859 19.2909L14.6786 18.6983L14.298 17.9513Z" fill="#FFDA44"/>
<path d="M14.298 14.8212L15.045 15.2018L15.6376 14.6091L15.5065 15.4369L16.2533 15.8174L15.4254 15.9486L15.2943 16.7764L14.9138 16.0296L14.0859 16.1608L14.6786 15.5681L14.298 14.8212Z" fill="#FFDA44"/>
<path d="M16.9074 16.8271L17.6543 17.2076L18.247 16.615L18.1159 17.4428L18.8627 17.8233L18.0348 17.9544L17.9037 18.7823L17.5232 18.0354L16.6953 18.1667L17.288 17.574L16.9074 16.8271Z" fill="#FFDA44"/>
<path d="M16.9074 10.1247L17.6543 10.5052L18.247 9.9126L18.1159 10.7404L18.8627 11.1209L18.0348 11.252L17.9037 12.0799L17.5232 11.3331L16.6953 11.4642L17.288 10.8716L16.9074 10.1247Z" fill="#FFDA44"/>
<path d="M19.4367 10.0444L20.1836 10.4249L20.7763 9.83228L20.6451 10.6601L21.392 11.0406L20.5641 11.1717L20.4329 11.9996L20.0525 11.2528L19.2246 11.3839L19.8172 10.7913L19.4367 10.0444Z" fill="#FFDA44"/>
</g>
<defs>
<clipPath id="clip0_505_13099">
<rect width="24" height="24" fill="white"/>
</clipPath>
</defs>
</svg>
