<svg width="24" height="24" viewBox="0 0 24 24" fill="none" xmlns="http://www.w3.org/2000/svg">
<g clip-path="url(#clip0_505_13179)">
<path d="M0.566625 8.34794C0.199031 9.49956 -4.68667e-05 10.7264 8.27601e-09 12C-4.68667e-05 13.2736 0.199078 14.5005 0.566672 15.6521L12 16.174L23.4333 15.6522C23.8009 14.5006 24.0001 13.2736 24.0001 12.0001C24 10.7265 23.8009 9.49956 23.4333 8.34789L12 7.82617L0.566625 8.34794Z" fill="#F0F0F0"/>
<path d="M23.4332 8.34789L11.9999 7.82617L0.5665 8.34789C0.457563 8.68933 0.363766 9.03747 0.285156 9.39137H23.7144C23.6359 9.03742 23.5421 8.68923 23.4332 8.34789Z" fill="#D80027"/>
<path d="M0.285156 14.609C0.363672 14.9629 0.457469 15.311 0.566406 15.6524L0.567531 15.6525L11.9997 16.1742L23.433 15.6525C23.542 15.3111 23.6358 14.9629 23.7143 14.609H0.285156Z" fill="#D80027"/>
<path d="M11.9997 24.0007C17.3536 24.0007 21.8878 20.4943 23.433 15.6528H0.566406C2.11164 20.4942 6.64595 24.0007 11.9997 24.0007Z" fill="#6DA544"/>
<path d="M11.9997 -0.000854492C6.64595 -0.000807617 2.11173 3.50558 0.566406 8.34697L23.433 8.34702C21.8879 3.50554 17.3536 -0.000901367 11.9997 -0.000854492Z" fill="#338AF3"/>
<path d="M5.48278 4.95618C5.48278 3.83226 6.27267 2.89335 7.3275 2.66301C7.1654 2.62757 6.99717 2.6084 6.82439 2.6084C5.52773 2.6084 4.47656 3.65952 4.47656 4.95623C4.47656 6.25293 5.52764 7.30406 6.82439 7.30406C6.99717 7.30406 7.16536 7.28484 7.3275 7.24945C6.27272 7.01901 5.48278 6.0801 5.48278 4.95618Z" fill="#F0F0F0"/>
<path d="M8.71433 6.02246L8.87324 6.5116H9.38755L8.97149 6.81395L9.1304 7.30309L8.71433 7.00079L8.29817 7.30309L8.45713 6.81395L8.04102 6.5116H8.55533L8.71433 6.02246Z" fill="#F0F0F0"/>
<path d="M10.3568 6.02246L10.5158 6.5116H11.0301L10.614 6.81395L10.7729 7.30309L10.3568 7.00079L9.9407 7.30309L10.0997 6.81395L9.68359 6.5116H10.1979L10.3568 6.02246Z" fill="#F0F0F0"/>
<path d="M11.9975 6.02246L12.1564 6.5116H12.6708L12.2547 6.81395L12.4136 7.30309L11.9975 7.00079L11.5814 7.30309L11.7404 6.81395L11.3242 6.5116H11.8386L11.9975 6.02246Z" fill="#F0F0F0"/>
<path d="M13.6401 6.02246L13.7991 6.5116H14.3133L13.8973 6.81395L14.0562 7.30309L13.6401 7.00079L13.224 7.30309L13.383 6.81395L12.9668 6.5116H13.4811L13.6401 6.02246Z" fill="#F0F0F0"/>
<path d="M15.2806 6.02246L15.4396 6.5116H15.9539L15.5378 6.81395L15.6968 7.30309L15.2806 7.00079L14.8645 7.30309L15.0235 6.81395L14.6074 6.5116H15.1217L15.2806 6.02246Z" fill="#F0F0F0"/>
<path d="M10.3568 4.31506L10.5158 4.80416H11.0301L10.614 5.10655L10.7729 5.59564L10.3568 5.29335L9.9407 5.59564L10.0997 5.10655L9.68359 4.80416H10.1979L10.3568 4.31506Z" fill="#F0F0F0"/>
<path d="M11.9975 4.31506L12.1564 4.80416H12.6708L12.2547 5.10655L12.4136 5.59564L11.9975 5.29335L11.5814 5.59564L11.7404 5.10655L11.3242 4.80416H11.8386L11.9975 4.31506Z" fill="#F0F0F0"/>
<path d="M13.6401 4.31506L13.7991 4.80416H14.3133L13.8973 5.10655L14.0562 5.59564L13.6401 5.29335L13.224 5.59564L13.383 5.10655L12.9668 4.80416H13.4811L13.6401 4.31506Z" fill="#F0F0F0"/>
<path d="M15.2806 4.31506L15.4396 4.80416H15.9539L15.5378 5.10655L15.6968 5.59564L15.2806 5.29335L14.8645 5.59564L15.0235 5.10655L14.6074 4.80416H15.1217L15.2806 4.31506Z" fill="#F0F0F0"/>
<path d="M11.9975 2.60803L12.1564 3.09722H12.6708L12.2547 3.39952L12.4136 3.8887L11.9975 3.58641L11.5814 3.8887L11.7404 3.39952L11.3242 3.09722H11.8386L11.9975 2.60803Z" fill="#F0F0F0"/>
<path d="M13.6401 2.60803L13.7991 3.09722H14.3133L13.8973 3.39952L14.0562 3.8887L13.6401 3.58641L13.224 3.8887L13.383 3.39952L12.9668 3.09722H13.4811L13.6401 2.60803Z" fill="#F0F0F0"/>
<path d="M15.2806 2.60803L15.4396 3.09722H15.9539L15.5378 3.39952L15.6968 3.8887L15.2806 3.58641L14.8645 3.8887L15.0235 3.39952L14.6074 3.09722H15.1217L15.2806 2.60803Z" fill="#F0F0F0"/>
</g>
<defs>
<clipPath id="clip0_505_13179">
<rect width="24" height="24" fill="white"/>
</clipPath>
</defs>
</svg>
