<svg width="24" height="24" viewBox="0 0 24 24" fill="none" xmlns="http://www.w3.org/2000/svg">
<g clip-path="url(#clip0_505_11471)">
<path d="M24 12C24 18.6274 18.6274 24 12 24C5.37262 24 0 18.6274 0 12C0 12.0029 12 0.0013125 12 0C18.6274 0 24 5.37262 24 12Z" fill="#0052B4"/>
<path d="M11.9688 12.0007H12.0009C12.0009 11.9899 12.0009 11.9794 12.0009 11.9685C11.9902 11.9793 11.9795 11.99 11.9688 12.0007Z" fill="#F0F0F0"/>
<path d="M12 6.26184C12 4.15035 12 2.76684 12 0.000976562H11.998C5.37145 0.00210156 0 5.37421 0 12.001H6.26086V8.47546L9.78637 12.001H11.9679C11.9786 11.9903 11.9893 11.9796 12 11.9689C12 11.1604 12 10.4391 12 9.78745L8.47443 6.26184H12Z" fill="#F0F0F0"/>
<path d="M6.07027 1.56421C4.19344 2.63291 2.63311 4.19319 1.56445 6.07002V11.999H4.69491V4.69476V4.69466H11.9993C11.9993 3.70733 11.9993 2.76674 11.9993 1.56421H6.07027Z" fill="#D80027"/>
<path d="M17.218 11.9998L13.9746 15.2432C14.5825 16.4156 15.8063 17.2171 17.218 17.2171C18.6298 17.2171 19.8536 16.4156 20.4615 15.2432L17.218 11.9998Z" fill="#FFDA44"/>
<path d="M11.9989 10.5244L7.73539 6.26099H6.25977V6.26108L11.9988 12.0001H11.9989C11.9989 12.0001 11.9989 10.9826 11.9989 10.5244Z" fill="#D80027"/>
<path d="M13.5645 6.26099V12.0001V12.0001C13.5645 14.7957 17.2166 15.6523 17.2166 15.6523C17.2166 15.6523 20.8687 14.7957 20.8688 12.0001V12.0001V6.26099H13.5645Z" fill="#6DA544"/>
<path d="M18.0008 8.86987H16.4355V13.0438H18.0008V8.86987Z" fill="#F0F0F0"/>
<path d="M17.2182 9.65168C17.6504 9.65168 18.0008 9.30129 18.0008 8.86905C18.0008 8.43682 17.6504 8.08643 17.2182 8.08643C16.7859 8.08643 16.4355 8.43682 16.4355 8.86905C16.4355 9.30129 16.7859 9.65168 17.2182 9.65168Z" fill="#A2001D"/>
<path d="M15.6529 7.30469H14.6094V8.34817H15.6529V7.30469Z" fill="#FFDA44"/>
<path d="M15.6529 9.65186H14.6094V10.6953H15.6529V9.65186Z" fill="#FFDA44"/>
<path d="M15.6529 12.0005H14.6094V13.044H15.6529V12.0005Z" fill="#FFDA44"/>
<path d="M19.8267 7.30542H18.7832V8.3489H19.8267V7.30542Z" fill="#FFDA44"/>
<path d="M19.8267 9.65186H18.7832V10.6953H19.8267V9.65186Z" fill="#FFDA44"/>
<path d="M19.8267 12.0005H18.7832V13.044H19.8267V12.0005Z" fill="#FFDA44"/>
</g>
<defs>
<clipPath id="clip0_505_11471">
<rect width="24" height="24" fill="white"/>
</clipPath>
</defs>
</svg>
