<svg width="24" height="24" viewBox="0 0 24 24" fill="none" xmlns="http://www.w3.org/2000/svg">
<g clip-path="url(#clip0_505_11352)">
<path d="M12 24C18.6274 24 24 18.6274 24 12C24 5.37258 18.6274 0 12 0C5.37258 0 0 5.37258 0 12C0 18.6274 5.37258 24 12 24Z" fill="#FCFCFC"/>
<path d="M14.0383 8.38349C14.0383 7.25793 13.1258 6.34546 12.0002 6.34546C10.8746 6.34546 9.96216 7.25793 9.96216 8.38349H5.47852C5.47852 9.49166 6.44386 10.3901 7.55203 10.3901H7.48528C7.48528 11.4984 8.38359 12.3969 9.49195 12.3969C9.49195 13.3781 10.1967 14.1934 11.1274 14.3677L11.1222 14.3794H12.8783L12.8731 14.3677C13.8039 14.1934 14.5086 13.3781 14.5086 12.3969C15.6169 12.3969 16.5152 11.4984 16.5152 10.3901H16.4484C17.5566 10.3901 18.522 9.49166 18.522 8.38349H14.0383Z" fill="#FFDA44"/>
<path d="M11.1055 14.1724L9.8418 17.0253C10.5085 17.2964 11.2373 17.447 12.0014 17.447C12.7655 17.447 13.4943 17.2964 14.161 17.0253L12.8974 14.1724H11.1055Z" fill="#FFDA44"/>
<path d="M9.39062 9.3855V12.896C9.39062 14.8928 11.9993 15.5047 11.9993 15.5047C11.9993 15.5047 14.608 14.8928 14.608 12.896V9.3855H9.39062Z" fill="#F0F0F0"/>
<path d="M2.90927 12.0846L4.32016 16.0307L5.71638 12.0846H6.78194L4.74634 17.302H3.89392L1.84375 12.0846H2.90927Z" fill="#338AF3"/>
<path d="M19.3027 17.302V12.0846H20.3168V17.302H19.3027Z" fill="#338AF3"/>
<path d="M10.4336 10.5195V14.7736C10.7922 15.0376 11.1781 15.2191 11.4771 15.3354V10.5195H10.4336Z" fill="#D80027"/>
<path d="M13.563 10.5195V14.7736C13.2044 15.0376 12.8185 15.2191 12.5195 15.3354V10.5195H13.563Z" fill="#D80027"/>
<path d="M14.608 9.3855H9.39062V11.0409H14.608V9.3855Z" fill="#0052B4"/>
</g>
<defs>
<clipPath id="clip0_505_11352">
<rect width="24" height="24" fill="white"/>
</clipPath>
</defs>
</svg>
