<svg width="24" height="24" viewBox="0 0 24 24" fill="none" xmlns="http://www.w3.org/2000/svg">
<g clip-path="url(#clip0_505_12849)">
<path d="M12 24C18.6274 24 24 18.6274 24 12C24 5.37258 18.6274 0 12 0C5.37258 0 0 5.37258 0 12C0 18.6274 5.37258 24 12 24Z" fill="#F0F0F0"/>
<path d="M3.51471 20.4853C-1.17157 15.7989 -1.17157 8.20098 3.51471 3.51465C3.51438 3.51516 10.4348 12 10.4348 12L3.51471 20.4853Z" fill="black"/>
<path d="M10.4341 12.0001L1.59089 6.02417C1.31672 6.50075 1.07494 6.99819 0.867188 7.51306L5.34417 12.0002L0.867328 16.4875C1.07489 17.002 1.31644 17.4991 1.59042 17.9754L10.4341 12.0001Z" fill="#FFDA44"/>
<path d="M23.8991 10.4348H10.4352L3.51531 3.51489C2.76962 4.26058 2.12177 5.10391 1.59227 6.02411L7.55659 12L1.5918 17.9752C2.1213 18.8956 2.76944 19.7392 3.51531 20.4851L10.4352 13.5652H23.8991C23.9658 13.0529 24.0007 12.5305 24.0007 12C24.0007 11.4695 23.9658 10.9472 23.8991 10.4348Z" fill="#6DA544"/>
<path d="M4.69336 21.5182C6.71691 23.0736 9.24989 23.9989 11.9994 23.9989C17.5437 23.9989 22.209 20.2386 23.586 15.1294H11.0822L4.69336 21.5182Z" fill="#0052B4"/>
<path d="M23.586 8.86881C22.209 3.75963 17.5437 -0.000732422 11.9994 -0.000732422C9.24989 -0.000732422 6.71691 0.924627 4.69336 2.48003L11.0821 8.86881H23.586Z" fill="#D80027"/>
</g>
<defs>
<clipPath id="clip0_505_12849">
<rect width="24" height="24" fill="white"/>
</clipPath>
</defs>
</svg>
