<svg width="24" height="24" viewBox="0 0 24 24" fill="none" xmlns="http://www.w3.org/2000/svg">
<g clip-path="url(#clip0_505_13084)">
<path d="M24 12C24 18.6274 18.6274 24 12 24C5.37262 24 0 18.6274 0 12C0 12.0029 12 0.0013125 12 0C18.6274 0 24 5.37262 24 12Z" fill="#0052B4"/>
<path d="M11.9688 11.9995H12.0009C12.0009 11.9887 12.0009 11.9781 12.0009 11.9673C11.9902 11.978 11.9795 11.9887 11.9688 11.9995Z" fill="#F0F0F0"/>
<path d="M12 6.2611C12 4.14962 12 2.7661 12 0.000244141H11.998C5.37145 0.00136914 0 5.37348 0 12.0002H6.26086V8.47473L9.78638 12.0002H11.9679C11.9786 11.9896 11.9893 11.9789 12 11.9681C12 11.1597 12 10.4383 12 9.78671L8.47444 6.2611H12Z" fill="#F0F0F0"/>
<path d="M6.07027 1.56543C4.19344 2.63413 2.63311 4.19441 1.56445 6.07124V12.0002H4.69491V4.69598V4.69588H11.9993C11.9993 3.70856 11.9993 2.76796 11.9993 1.56543H6.07027Z" fill="#D80027"/>
<path d="M11.9989 10.5242L7.73539 6.26074H6.25977V6.26084L11.9988 11.9998H11.9989C11.9989 11.9998 11.9989 10.9823 11.9989 10.5242Z" fill="#D80027"/>
<path d="M13.5645 6.2605V11.9996C13.5645 14.7952 17.2166 15.6518 17.2166 15.6518C17.2166 15.6518 20.8688 14.7952 20.8688 11.9996V6.2605H13.5645Z" fill="#FFDA44"/>
<path d="M16.6963 8.34768C16.6963 8.92401 16.2292 10.4347 15.6529 10.4347C15.0765 10.4347 14.6094 8.92401 14.6094 8.34768C14.6094 7.77136 15.6529 7.3042 15.6529 7.3042C15.6529 7.3042 16.6963 7.77136 16.6963 8.34768Z" fill="#FF9811"/>
<path d="M19.4642 9.48417C19.6326 9.07331 19.7636 8.47275 19.7636 8.17378C19.7636 7.6935 19.1374 7.3042 19.1374 7.3042C19.1374 7.3042 18.5113 7.69354 18.5113 8.17378C18.5113 8.47275 18.6423 9.07331 18.8107 9.48417L18.4492 10.3003C18.6617 10.3866 18.8939 10.4346 19.1374 10.4346C19.3809 10.4346 19.6131 10.3866 19.8256 10.3003L19.4642 9.48417Z" fill="#A2001D"/>
<path d="M16.4358 12C16.4358 12 15.9141 13.0435 15.9141 14.087C15.9141 14.087 17.4793 14.087 18.5228 14.087C18.5227 13.0435 18.001 12 18.001 12L17.2184 11.4783L16.4358 12Z" fill="#6DA544"/>
<path d="M18.0008 12.0005V11.7397C18.0008 11.3075 17.6504 10.957 17.2182 10.957C16.786 10.957 16.4355 11.3074 16.4355 11.7397V12.0005H18.0008Z" fill="#D80027"/>
</g>
<defs>
<clipPath id="clip0_505_13084">
<rect width="24" height="24" fill="white"/>
</clipPath>
</defs>
</svg>
