<svg viewBox="0 0 39 36" fill="none" xmlns="http://www.w3.org/2000/svg">
    <path d="M16.0224 12.1993H11.2829C10.7653 12.1993 10.5712 12.3787 10.4742 12.9007L8.69482 23.1111C8.59777 23.6167 8.74335 23.7961 9.26097 23.7961H14.1137C16.3945 23.7961 18.2062 22.8012 18.5782 20.6971C18.8208 19.2781 18.4164 18.2179 17.4621 17.7612L17.4783 17.696C18.4003 17.1251 18.8532 16.5053 19.0634 15.4125C19.4032 13.4715 18.2709 12.1993 16.0224 12.1993ZM15.7313 15.7387C15.618 16.3748 15.2298 16.6195 14.5828 16.6195H9.82609L10.1388 14.8253H14.8901C15.5533 14.8253 15.8445 15.1026 15.7313 15.7387ZM15.3107 20.1915C15.1975 20.8765 14.7931 21.1538 14.1137 21.1538H12.2373L12.577 19.2455H14.4372C15.1328 19.2455 15.4401 19.5391 15.3107 20.1915Z" fill="#0077EE"/>
    <path fill-rule="evenodd" clip-rule="evenodd" d="M21.8942 12.1993H26.5043C28.9469 12.1993 30.2894 13.7325 29.8365 16.2606C29.5738 17.4187 28.8012 18.0589 27.7154 18.7727C27.6947 18.7834 27.6738 18.7942 27.6528 18.8051C27.766 19.0171 27.8631 19.2455 27.9601 19.5065L28.8012 22.9969C28.9469 23.4373 28.7689 23.7961 28.2351 23.7961H26.4881C25.6308 23.7961 25.2911 23.584 25.1294 23.0132L24.6117 20.0773C24.4338 19.5228 24.3206 19.2455 23.6088 19.2455H23.1883L22.5089 23.1111C22.4118 23.6167 22.2177 23.7961 21.7001 23.7961H19.8722C19.3546 23.7961 19.2091 23.6167 19.3061 23.1111L21.0854 12.8844C21.1825 12.3787 21.3766 12.1993 21.8942 12.1993ZM26.3549 15.7469C26.242 16.383 25.8549 16.6276 25.2098 16.6276H20.4331L20.7457 14.8335H25.5162C26.1775 14.8335 26.4678 15.1108 26.3549 15.7469Z" fill="#0077EE"/>
    <path d="M16.8631 29.6117H14.6882V29.2613L15.7146 28.3731C15.8555 28.248 15.9594 28.1389 16.0263 28.0457C16.0945 27.9525 16.1287 27.8641 16.1287 27.7803C16.1287 27.6659 16.0931 27.5762 16.0219 27.5114C15.9507 27.4453 15.849 27.4123 15.7168 27.4123C15.5744 27.4123 15.4618 27.4524 15.379 27.5326C15.2977 27.6116 15.257 27.716 15.257 27.8458H14.625C14.625 27.6889 14.6708 27.5456 14.7623 27.4158C14.8553 27.2861 14.986 27.1846 15.1546 27.1115C15.3231 27.0372 15.5141 27 15.7277 27C16.0546 27 16.3081 27.0637 16.4882 27.1911C16.6699 27.3185 16.7607 27.4984 16.7607 27.7308C16.7607 27.8582 16.72 27.9879 16.6386 28.12C16.5573 28.2522 16.4178 28.4061 16.2202 28.5819L15.4989 29.1994H16.8631V29.6117Z" fill="#0077EE"/>
    <path d="M19.5428 28.5465C19.5428 28.9027 19.452 29.1752 19.2704 29.364C19.0888 29.5527 18.823 29.6471 18.4728 29.6471C18.1271 29.6471 17.8627 29.5545 17.6796 29.3693C17.4965 29.1841 17.4028 28.9186 17.3985 28.573V28.0988C17.3985 27.739 17.49 27.466 17.6731 27.2796C17.8576 27.0932 18.1227 27 18.4685 27C18.8143 27 19.0787 27.0926 19.2617 27.2778C19.4448 27.4618 19.5385 27.7266 19.5428 28.0723V28.5465ZM18.913 28.0263C18.913 27.8128 18.8767 27.6576 18.8041 27.5609C18.7329 27.463 18.621 27.414 18.4685 27.414C18.3203 27.414 18.2106 27.4606 18.1394 27.5538C18.0697 27.6458 18.0326 27.7903 18.0283 27.9873V28.6137C18.0283 28.8237 18.0631 28.98 18.1329 29.0826C18.2041 29.1841 18.3174 29.2348 18.4728 29.2348C18.6268 29.2348 18.738 29.1858 18.8063 29.0879C18.8745 28.99 18.9101 28.8402 18.913 28.6385V28.0263Z" fill="#0077EE"/>
    <path d="M22.3011 29.6117H20.1262V29.2613L21.1526 28.3731C21.2935 28.248 21.3974 28.1389 21.4642 28.0457C21.5325 27.9525 21.5667 27.8641 21.5667 27.7803C21.5667 27.6659 21.5311 27.5762 21.4599 27.5114C21.3887 27.4453 21.287 27.4123 21.1548 27.4123C21.0124 27.4123 20.8998 27.4524 20.817 27.5326C20.7356 27.6116 20.695 27.716 20.695 27.8458H20.063C20.063 27.6889 20.1087 27.5456 20.2003 27.4158C20.2933 27.2861 20.424 27.1846 20.5925 27.1115C20.7611 27.0372 20.9521 27 21.1657 27C21.4926 27 21.7461 27.0637 21.9262 27.1911C22.1078 27.3185 22.1986 27.4984 22.1986 27.7308C22.1986 27.8582 22.158 27.9879 22.0766 28.12C21.9952 28.2522 21.8558 28.4061 21.6582 28.5819L20.9369 29.1994H22.3011V29.6117Z" fill="#0077EE"/>
    <path d="M24.375 29.6117H23.7452V27.6405L22.9934 27.8299V27.414L24.3074 27.0319H24.375V29.6117Z" fill="#0077EE"/>
    <path d="M9.73906 33.35L10.1512 33.6274L10.7819 32.726L11.2993 33.0742L9.5763 35.5364L8.64337 34.9086C8.34676 34.709 8.16335 34.4902 8.09312 34.2522C8.0229 34.0143 8.07062 33.7769 8.23629 33.5402C8.35384 33.3722 8.48942 33.257 8.64304 33.1945C8.79472 33.1324 8.96913 33.1188 9.16628 33.1536L9.32717 31.7819L9.34374 31.7582L9.89901 32.1319L9.73906 33.35ZM9.86364 34.0383L9.44633 33.7575C9.31642 33.6701 9.19334 33.6345 9.0771 33.6508C8.96006 33.6682 8.86171 33.7339 8.78203 33.8477C8.70077 33.9638 8.67078 34.078 8.69207 34.1901C8.7122 34.3015 8.79182 34.404 8.93093 34.4976L9.34652 34.7773L9.86364 34.0383Z" fill="#0077EE"/>
    <path d="M6.65687 31.0861L7.5219 31.9082L8.08957 31.3339L7.07436 30.369L7.42515 30.014L8.8909 31.4072L6.7716 33.5514L5.30885 32.1612L5.66255 31.8033L6.67476 32.7654L7.17984 32.2543L6.31481 31.4322L6.65687 31.0861Z" fill="#0077EE"/>
    <path d="M4.78074 28.2841C5.05978 28.1141 5.33978 28.0617 5.62071 28.1269C5.90082 28.191 6.14575 28.3647 6.35549 28.6479C6.5849 28.9577 6.6595 29.2772 6.57932 29.6063C6.49718 29.9352 6.27053 30.2318 5.89936 30.4961L5.74875 30.6034C5.51183 30.7721 5.27281 30.8798 5.03167 30.9265C4.79053 30.9732 4.5659 30.9549 4.35776 30.8716C4.14767 30.788 3.96807 30.6456 3.81896 30.4442C3.61249 30.1654 3.52233 29.8866 3.54846 29.6078C3.57459 29.3289 3.71546 29.0782 3.97107 28.8556L4.33976 29.3535C4.1897 29.4789 4.10699 29.6046 4.09162 29.7304C4.07431 29.856 4.12219 29.9951 4.23525 30.1477C4.35815 30.3137 4.51124 30.3948 4.69453 30.391C4.87587 30.3869 5.09485 30.2951 5.35145 30.1158L5.5376 29.9832C5.80385 29.7936 5.96938 29.6157 6.03418 29.4496C6.09816 29.2824 6.06706 29.1136 5.94089 28.9432C5.82701 28.7894 5.70667 28.7002 5.57988 28.6756C5.45115 28.6507 5.30766 28.6861 5.14942 28.7819L4.78074 28.2841Z" fill="#0077EE"/>
    <path d="M2.89367 25.6332C3.16393 25.506 3.4238 25.4413 3.67329 25.4391C3.92277 25.437 4.14566 25.4974 4.34194 25.6204C4.53762 25.7421 4.69066 25.9158 4.80106 26.1414C4.91025 26.3645 4.953 26.5893 4.9293 26.8158C4.90561 27.0423 4.8161 27.2513 4.66077 27.4426C4.50419 27.6346 4.29421 27.7934 4.03084 27.9188L3.89509 27.9827C3.62483 28.1099 3.36403 28.1743 3.11268 28.1758C2.85947 28.1767 2.63566 28.1159 2.44124 27.9936C2.24496 27.8706 2.09192 27.6969 1.98212 27.4726C1.87233 27.2482 1.83021 27.0231 1.85576 26.7973C1.87946 26.5708 1.97116 26.3615 2.13085 26.1696C2.28869 25.977 2.50211 25.8174 2.77111 25.6908L2.89367 25.6332ZM3.04432 26.2538C2.75646 26.3893 2.56248 26.5428 2.46236 26.7143C2.36224 26.8857 2.35803 27.0652 2.44973 27.2525C2.54083 27.4387 2.68527 27.5474 2.88307 27.5786C3.07961 27.6105 3.32085 27.5599 3.6068 27.4268L3.74067 27.3638C4.02098 27.2319 4.21371 27.079 4.31886 26.9052C4.424 26.7313 4.43012 26.5495 4.33722 26.3597C4.24612 26.1735 4.10198 26.0654 3.90479 26.0354C3.70634 26.006 3.46414 26.0578 3.17819 26.1908L3.04432 26.2538Z" fill="#0077EE"/>
    <path d="M0.859672 24.6012L2.80489 23.3205L0.472343 23.1191L0.267775 22.3364L3.21756 21.595L3.37384 22.193L2.56752 22.3957L1.16011 22.6859L3.56232 22.9142L3.66927 23.3235L1.67667 24.6542L3.0509 24.2453L3.85723 24.0427L4.01299 24.6387L1.0632 25.38L0.859672 24.6012Z" fill="#0077EE"/>
    <path d="M0.0760482 20.4737L2.25852 19.638L0.0262833 18.9445L0 18.1369L3.04357 18.0416L3.06365 18.6586L2.23168 18.6847L0.793602 18.6681L3.08786 19.4027L3.1016 19.825L0.861801 20.6995L2.29379 20.5931L3.12575 20.5671L3.14576 21.182L0.102198 21.2773L0.0760482 20.4737Z" fill="#0077EE"/>
    <path d="M2.10352 15.612L1.91009 16.778L2.71516 16.9065L2.94217 15.538L3.43966 15.6174L3.11192 17.5931L0.10631 17.1136L0.433385 15.142L0.935007 15.222L0.708674 16.5864L1.42498 16.7006L1.61841 15.5346L2.10352 15.612Z" fill="#0077EE"/>
    <path d="M4.35196 12.7657L4.14753 13.3474L1.85531 13.8396L3.74956 14.4798L3.54512 15.0615L0.666184 14.0885L0.870621 13.5068L3.16747 13.014L1.26927 12.3725L1.47303 11.7928L4.35196 12.7657Z" fill="#0077EE"/>
    <path d="M2.19365 10.5953L4.77664 12.1768L5.27287 11.3975C5.41465 11.1748 5.48984 10.9444 5.49845 10.7063C5.50898 10.4677 5.45101 10.2412 5.32455 10.0267C5.19927 9.81303 5.01658 9.63267 4.7765 9.48567L4.65764 9.41289C4.41755 9.2659 4.17306 9.1839 3.92417 9.16691C3.67602 9.14876 3.44437 9.19633 3.22924 9.30962C3.0141 9.4229 2.83542 9.58995 2.6932 9.81074L2.19365 10.5953ZM4.67785 11.391L2.95349 10.3352L3.1141 10.083C3.24406 9.87883 3.41138 9.76448 3.61607 9.73989C3.82075 9.71531 4.05038 9.77934 4.30495 9.93198L4.44155 10.0156C4.70411 10.1764 4.86883 10.3514 4.93572 10.5406C5.00379 10.7306 4.97248 10.9282 4.84178 11.1335L4.67785 11.391Z" fill="#0077EE"/>
    <path d="M6.20076 7.53801L5.44135 8.45505L6.07452 8.95928L6.96578 7.88304L7.35704 8.19463L6.07026 9.7485L3.70642 7.86604L4.99057 6.31535L5.38508 6.62952L4.49646 7.70259L5.05982 8.15122L5.81924 7.23418L6.20076 7.53801Z" fill="#0077EE"/>
    <path d="M7.73246 7.76919L5.72938 5.52004L6.43509 4.91564C6.63672 4.74296 6.85672 4.63351 7.09509 4.58729C7.33359 4.53915 7.57085 4.55924 7.80686 4.64756C8.04195 4.73486 8.25259 4.88303 8.43877 5.09209L8.53094 5.19559C8.71713 5.40464 8.83857 5.6283 8.89527 5.86656C8.95301 6.10393 8.94197 6.33576 8.86214 6.56206C8.78231 6.78837 8.64256 6.98793 8.4429 7.16074L7.73246 7.76919ZM6.53626 5.49068L7.87348 6.99217L8.10189 6.79655C8.28672 6.63826 8.37523 6.45807 8.36742 6.256C8.35961 6.05393 8.25862 5.8418 8.06445 5.61961L7.95852 5.50067C7.75491 5.27205 7.55252 5.14041 7.35135 5.10575C7.14926 5.07007 6.95528 5.13182 6.7694 5.29102L6.53626 5.49068Z" fill="#0077EE"/>
    <path d="M11.0865 5.18143L9.74887 2.49879L10.7071 2.03934C11.039 1.88018 11.322 1.82211 11.5561 1.86511C11.7895 1.90689 11.9663 2.04816 12.0863 2.28891C12.1519 2.42034 12.1753 2.55293 12.1566 2.68668C12.1373 2.81921 12.078 2.93824 11.9785 3.04377C12.1359 3.0109 12.2808 3.02745 12.413 3.09342C12.5465 3.15878 12.6509 3.26701 12.7262 3.41809C12.8548 3.67604 12.8683 3.91158 12.7666 4.12472C12.6649 4.33786 12.4593 4.52013 12.1499 4.67153L11.0865 5.18143ZM11.0677 3.74304L11.4287 4.46713L11.9116 4.2356C12.0444 4.17194 12.1324 4.09168 12.1757 3.99483C12.2196 3.89615 12.2143 3.79215 12.1598 3.68283C12.0373 3.43717 11.8455 3.37466 11.5844 3.49529L11.0677 3.74304ZM10.8729 3.35243L11.29 3.15244C11.5719 3.01119 11.6586 2.83186 11.5502 2.61445C11.4896 2.49284 11.4098 2.42305 11.3108 2.40507C11.2125 2.38526 11.0856 2.41259 10.9303 2.48706L10.5358 2.67625L10.8729 3.35243Z" fill="#0077EE"/>
    <path d="M14.3037 2.07601L14.5228 0.609672L15.1807 0.419108L14.7718 2.52212L15.0846 3.56065L14.4728 3.73785L14.16 2.69932L12.6515 1.15173L13.3114 0.960587L14.3037 2.07601Z" fill="#0077EE"/>
    <path d="M17.5745 3.02697L17.455 0.0431214L18.5208 0.00207402C18.89 -0.012145 19.1729 0.0467478 19.3693 0.178753C19.5657 0.309391 19.6693 0.508601 19.68 0.776383C19.6859 0.922569 19.6527 1.05315 19.5806 1.16814C19.5084 1.28175 19.4051 1.36715 19.2706 1.42432C19.4282 1.45657 19.5539 1.52904 19.6477 1.64173C19.7429 1.75438 19.7939 1.89472 19.8006 2.06277C19.8121 2.34968 19.7274 2.5705 19.5467 2.72524C19.3659 2.87999 19.1028 2.96538 18.7574 2.98142L17.5745 3.02697ZM18.1495 1.70354L18.1817 2.50893L18.7188 2.48825C18.8665 2.48256 18.98 2.44398 19.0595 2.3725C19.1403 2.2996 19.1783 2.20236 19.1734 2.08076C19.1625 1.80752 19.0127 1.6744 18.7241 1.68141L18.1495 1.70354ZM18.1321 1.26908L18.596 1.25121C18.912 1.23357 19.0652 1.10383 19.0555 0.862008C19.0501 0.726751 19.0058 0.631305 18.9227 0.575669C18.8408 0.518613 18.7136 0.493412 18.5408 0.500066L18.1019 0.516967L18.1321 1.26908Z" fill="#0077EE"/>
    <path d="M23.2178 1.87984C23.1752 2.17082 23.0854 2.41857 22.9484 2.62306C22.8115 2.82756 22.6363 2.97557 22.4229 3.0671C22.2108 3.15882 21.9785 3.18692 21.726 3.15138C21.4762 3.11623 21.2619 3.026 21.0831 2.88068C20.9044 2.73535 20.7771 2.54617 20.7014 2.31312C20.6258 2.07872 20.6081 1.81931 20.6483 1.5349L20.6697 1.38873C20.7123 1.09774 20.8028 0.849422 20.9414 0.643765C21.0815 0.436949 21.2575 0.288357 21.4693 0.197989C21.6827 0.106462 21.915 0.0783683 22.1662 0.11371C22.4174 0.149051 22.6316 0.239962 22.8087 0.386443C22.9875 0.531765 23.1138 0.722883 23.1876 0.959797C23.2629 1.19555 23.2794 1.45825 23.2371 1.74788L23.2178 1.87984ZM22.608 1.6573C22.6534 1.34737 22.6312 1.10391 22.5416 0.926929C22.452 0.749948 22.3023 0.6467 22.0925 0.617184C21.8841 0.587863 21.7117 0.645092 21.5751 0.788874C21.4388 0.931302 21.3474 1.15603 21.3011 1.46307L21.28 1.60721C21.2359 1.90902 21.2582 2.15112 21.347 2.33352C21.4358 2.51591 21.5865 2.62206 21.7991 2.65197C22.0075 2.68129 22.1792 2.62396 22.3144 2.47998C22.4498 2.33466 22.5406 2.10847 22.5869 1.80144L22.608 1.6573Z" fill="#0077EE"/>
    <path d="M26.2943 2.8122C26.1988 3.09085 26.0648 3.3186 25.8924 3.49545C25.72 3.6723 25.5204 3.78683 25.2937 3.83902C25.0682 3.89165 24.8346 3.87811 24.5927 3.79839C24.3535 3.71955 24.1594 3.59282 24.0104 3.41821C23.8614 3.24359 23.7711 3.03497 23.7395 2.79233C23.7084 2.54839 23.7388 2.29012 23.8307 2.01752L23.8787 1.87755C23.9742 1.5989 24.1091 1.37072 24.2832 1.19301C24.4592 1.01443 24.6596 0.899481 24.8846 0.848147C25.1114 0.795952 25.345 0.809495 25.5856 0.888776C25.8261 0.968057 26.02 1.09543 26.1673 1.27091C26.3163 1.44552 26.4053 1.65587 26.4342 1.90196C26.4649 2.14719 26.4327 2.40849 26.3376 2.68584L26.2943 2.8122ZM25.7356 2.48526C25.8373 2.18846 25.8604 1.94509 25.8049 1.75514C25.7494 1.5652 25.6212 1.43711 25.4203 1.3709C25.2208 1.30513 25.0406 1.33084 24.8798 1.44806C24.7195 1.56397 24.5882 1.76881 24.486 2.06258L24.4387 2.20061C24.3397 2.48962 24.317 2.7317 24.3708 2.92683C24.4245 3.12196 24.5531 3.25307 24.7567 3.32015C24.9562 3.38593 25.1357 3.35999 25.2952 3.24235C25.4551 3.1234 25.5862 2.91705 25.6883 2.62328L25.7356 2.48526Z" fill="#0077EE"/>
    <path d="M27.645 3.71578L27.19 3.86426L26.7721 4.61254L26.2218 4.31694L27.6847 1.69798L28.235 1.99357L27.5719 3.18074L27.9958 2.98523L29.1576 2.48919L29.8345 2.85277L28.2361 3.50714L28.399 5.48651L27.7442 5.13475L27.645 3.71578Z" fill="#0077EE"/>
    <path d="M31.4676 3.98235L30.6321 6.12889L32.6558 4.97385L33.2834 5.49751L31.31 7.77177L30.8306 7.37171L31.37 6.75004L32.3489 5.71683L30.2524 6.88925L29.9243 6.61546L30.7691 4.40126L29.8871 5.51266L29.3477 6.13433L28.8698 5.7356L30.8432 3.46134L31.4676 3.98235Z" fill="#0077EE"/>
    <path d="M33.139 9.01828L32.4599 8.16963L31.8372 8.38815L31.4253 7.87347L34.5206 6.90435L34.8795 7.35288L33.1878 10.0758L32.7759 9.56109L33.139 9.01828ZM32.9642 7.99263L33.4342 8.5799L34.0946 7.59458L32.9642 7.99263Z" fill="#0077EE"/>
    <path d="M34.9255 10.6492L34.4626 10.5263L33.6926 10.9234L33.4006 10.3788L36.0958 8.98907L36.3878 9.53366L35.1661 10.1636L35.6296 10.2305L36.8774 10.4467L37.2366 11.1166L35.5357 10.7956L34.5559 12.5336L34.2084 11.8855L34.9255 10.6492Z" fill="#0077EE"/>
    <path d="M36.5904 14.3385L36.2199 13.2144L35.4438 13.4604L35.8786 14.7797L35.399 14.9317L34.7712 13.027L37.6687 12.1085L38.2952 14.0093L37.8117 14.1626L37.3781 12.8473L36.6875 13.0662L37.0581 14.1902L36.5904 14.3385Z" fill="#0077EE"/>
    <path d="M36.8239 16.3573L36.7514 15.8723L35.6485 16.0306L35.5576 15.4219L38.5706 14.9893L38.7345 16.0871C38.7866 16.4362 38.7475 16.7168 38.6171 16.929C38.4867 17.1411 38.2767 17.268 37.987 17.3096C37.7814 17.3391 37.6031 17.3198 37.452 17.2517C37.3025 17.1847 37.1738 17.0685 37.066 16.9029L35.9301 17.7189L35.9011 17.7231L35.8036 17.0696L36.8239 16.3573ZM37.2543 15.8001L37.3276 16.2912C37.3504 16.4441 37.4074 16.5568 37.4986 16.6294C37.5911 16.7018 37.7071 16.728 37.8464 16.708C37.9885 16.6876 38.0943 16.6316 38.1638 16.5401C38.2334 16.45 38.2561 16.323 38.2316 16.1593L38.1586 15.6703L37.2543 15.8001Z" fill="#0077EE"/>
    <path d="M36.9518 20.8557L37.0098 20.3688L35.9027 20.2419L35.9755 19.6308L39 19.9774L38.8687 21.0794C38.827 21.4298 38.7151 21.6909 38.5332 21.8628C38.3513 22.0347 38.1149 22.104 37.8241 22.0706C37.6178 22.047 37.4506 21.9831 37.3226 21.879C37.1959 21.7763 37.1023 21.6314 37.0418 21.4441L35.7293 21.9442L35.7002 21.9409L35.7784 21.2849L36.9518 20.8557ZM37.5146 20.4266L37.4559 20.9196C37.4376 21.0731 37.4629 21.1964 37.5318 21.2897C37.6021 21.3831 37.7072 21.4378 37.8471 21.4538C37.9897 21.4701 38.1067 21.4429 38.1979 21.3722C38.289 21.3028 38.3443 21.1859 38.3639 21.0216L38.4224 20.5306L37.5146 20.4266Z" fill="#0077EE"/>
    <path d="M35.7056 24.2982L36.0281 23.2668L35.4895 22.8903L35.6851 22.2648L38.2641 24.203L38.0937 24.7481L34.8482 24.9414L35.0438 24.3159L35.7056 24.2982ZM36.4643 23.5717L36.2411 24.2855L37.4431 24.2543L36.4643 23.5717Z" fill="#0077EE"/>
    <path d="M35.9494 28.3808L36.3688 27.5638L34.1029 26.4451L34.385 25.8955L36.651 27.0142L37.0648 26.2082L37.5187 26.4323L36.4033 28.6049L35.9494 28.3808Z" fill="#0077EE"/>
    <path d="M33.0218 28.2164L33.3708 27.7051L35.9013 29.3661L35.5523 29.8774L33.0218 28.2164Z" fill="#0077EE"/>
    <path d="M31.0876 30.5437L31.5015 30.0812L33.813 30.477L32.3071 29.181L32.721 28.7186L35.0097 30.6882L34.5959 31.1507L32.2798 30.7538L33.7889 32.0525L33.3764 32.5134L31.0876 30.5437Z" fill="#0077EE"/>
    <path d="M29.0976 32.6455C29.1022 32.4728 29.1622 32.2947 29.2773 32.1113C29.3933 31.9289 29.5498 31.7614 29.7466 31.6087C29.9533 31.4484 30.1703 31.3516 30.3976 31.3182C30.6247 31.2868 30.8488 31.3222 31.0699 31.4244C31.2899 31.5275 31.4926 31.6919 31.6782 31.9175L31.8066 32.0768C31.9952 32.3106 32.1183 32.5437 32.176 32.7761C32.2334 33.0105 32.223 33.2312 32.1447 33.4383C32.0662 33.6474 31.9253 33.8308 31.7219 33.9885C31.4386 34.2082 31.1636 34.3135 30.8966 34.3043C30.6306 34.2962 30.3807 34.1771 30.1471 33.9469L30.6261 33.5754C30.7561 33.6925 30.8839 33.7529 31.0095 33.7566C31.134 33.7611 31.2619 33.7125 31.3932 33.6107C31.5605 33.4809 31.6382 33.3205 31.6262 33.1293C31.6142 32.9381 31.5106 32.7204 31.3154 32.4761L31.1947 32.3265C30.9967 32.0809 30.7995 31.9322 30.6031 31.8806C30.4068 31.8289 30.2167 31.8743 30.033 32.0168C29.8482 32.1601 29.7476 32.3009 29.7311 32.4392L30.0567 32.843L30.5046 32.4956L30.7913 32.8512L29.8513 33.5801L29.0976 32.6455Z" fill="#0077EE"/>
    <path d="M27.3915 34.0866C27.4482 34.1886 27.5283 34.2471 27.6318 34.2618C27.7359 34.2778 27.9002 34.2648 28.1245 34.2228C28.3495 34.1821 28.5341 34.1613 28.6782 34.1606C29.0712 34.1593 29.3435 34.295 29.4948 34.5675C29.5735 34.7092 29.6032 34.8569 29.5837 35.0105C29.5637 35.166 29.4951 35.3155 29.378 35.459C29.2596 35.6032 29.1055 35.726 28.9157 35.8274C28.7247 35.9294 28.5355 35.9861 28.3481 35.9974C28.1614 36.01 27.9927 35.9763 27.8419 35.8965C27.69 35.8173 27.5703 35.699 27.4829 35.5417L28.0339 35.2474C28.1006 35.3675 28.1909 35.44 28.3047 35.4648C28.4192 35.4908 28.5462 35.4666 28.6858 35.392C28.8205 35.3201 28.9095 35.2359 28.9529 35.1396C28.9969 35.0445 28.9935 34.9513 28.9429 34.86C28.8955 34.7748 28.8124 34.7266 28.6934 34.7154C28.5732 34.7048 28.414 34.7198 28.2158 34.7603C27.851 34.8352 27.559 34.8425 27.3397 34.7822C27.1204 34.7218 26.9541 34.5896 26.8407 34.3855C26.7146 34.1585 26.7031 33.9334 26.8062 33.7102C26.9099 33.4882 27.11 33.2981 27.4063 33.1398C27.612 33.03 27.8197 32.9665 28.0293 32.9495C28.2396 32.9337 28.4252 32.9662 28.5859 33.0469C28.7454 33.1283 28.8722 33.2536 28.9662 33.4229L28.4134 33.7182C28.2527 33.4288 27.996 33.3783 27.6434 33.5667C27.5124 33.6367 27.4245 33.7171 27.3797 33.808C27.3355 33.9 27.3395 33.9929 27.3915 34.0866Z" fill="#0077EE"/>
</svg>
