<svg viewBox="0 0 30 18" fill="none" xmlns="http://www.w3.org/2000/svg" aria-hidden="true" role="img" class="icon icon-payment-full-mastercard PaymentSection_icon_LlyCK PaymentSection_icon_LlyCK" style="--vicon-with-gradient-problem__size: 19px;"><g class="mastercard_svg__color"><path fill="#FF5F00" d="M10.625 1.925H18.5v14.15h-7.875z"></path><path d="M11.125 9a9.024 9.024 0 013.425-7.075A8.945 8.945 0 009 0C4.025 0 0 4.025 0 9s4.025 9 9 9c2.1 0 4.025-.725 5.55-1.925A8.986 8.986 0 0111.125 9z" fill="#EB001B"></path><path d="M29.125 9c0 4.975-4.025 9-9 9-2.1 0-4.025-.725-5.55-1.925A8.949 8.949 0 0018 9a9.024 9.024 0 00-3.425-7.075A8.945 8.945 0 0120.125 0c4.975 0 9 4.05 9 9z" fill="#F79E1B"></path></g><g class="mastercard_svg__mono"><path fill="#455279" d="M10.625 1.925H18.5v14.15h-7.875z"></path><path d="M11.125 9a9.024 9.024 0 013.425-7.075A8.945 8.945 0 009 0C4.025 0 0 4.025 0 9s4.025 9 9 9c2.1 0 4.025-.725 5.55-1.925A8.986 8.986 0 0111.125 9z" fill="#1F2639"></path><path d="M29.125 9c0 4.975-4.025 9-9 9-2.1 0-4.025-.725-5.55-1.925A8.949 8.949 0 0018 9a9.024 9.024 0 00-3.425-7.075A8.945 8.945 0 0120.125 0c4.975 0 9 4.05 9 9z" fill="#34405E"></path></g></svg>