<svg width="20" height="20" viewBox="0 0 20 20" fill="none" xmlns="http://www.w3.org/2000/svg" aria-hidden="true" role="img" class="icon icon-social-threads" style="--vicon-with-gradient-problem__size: 21px;"><path d="M14.376 9.15c-.155-2.844-1.709-4.473-4.318-4.49-1.574-.009-2.889.658-3.695 1.88l1.437.984c.603-.915 1.557-1.105 2.247-1.098.86.005 1.508.255 1.928.743.305.354.51.844.611 1.462-.762-.13-1.587-.17-2.466-.119-2.482.143-4.077 1.59-3.97 3.601.054 1.02.562 1.898 1.43 2.472.734.484 1.68.72 2.662.667 1.298-.071 2.317-.565 3.027-1.471.54-.688.88-1.58 1.03-2.701.62.373 1.077.864 1.331 1.454.43 1.004.455 2.654-.89 3.998-1.18 1.177-2.597 1.688-4.739 1.703-2.376-.017-4.173-.78-5.34-2.264C3.564 14.58 3 12.57 2.98 10c.02-2.571.586-4.58 1.68-5.971 1.168-1.485 2.965-2.247 5.341-2.264 2.394.018 4.221.783 5.435 2.276.595.731 1.043 1.651 1.339 2.724l1.682-.448c-.36-1.32-.923-2.459-1.69-3.403C15.212 1 12.927.02 9.996 0 7.07.02 4.822 1.005 3.31 2.925c-1.344 1.71-2.038 4.1-2.061 7.082.023 2.98.717 5.359 2.061 7.068 1.511 1.92 3.771 2.905 6.695 2.925 2.601-.018 4.434-.699 5.943-2.207 1.976-1.974 1.916-4.447 1.266-5.965-.5-1.167-1.495-2.101-2.838-2.677h-.001zm-4.227 4.34c-1.088.061-2.217-.426-2.273-1.472-.041-.775.552-1.64 2.34-1.743a8.94 8.94 0 012.412.166c-.206 2.573-1.414 2.99-2.479 3.05z" fill="#0F1419"></path></svg>