<svg viewBox="0 0 94 18" fill="none" xmlns="http://www.w3.org/2000/svg" aria-hidden="true" role="img" class="icon icon-payment-full-discover PaymentSection_icon_LlyCK PaymentSection_icon_LlyCK" style="--vicon-with-gradient-problem__size: 19px;"><g class="discover_svg__color"><g clip-path="url(#discover_svg__a)"><path d="M4.98.561H.84v14.461h4.124a7.489 7.489 0 005.177-1.674A7.222 7.222 0 0012.73 7.8C12.746 3.572 9.553.561 4.98.561zm3.296 10.863c-.888.777-2.036 1.148-3.857 1.148h-.767v-9.56h.759c1.82 0 2.925.327 3.857 1.173a4.85 4.85 0 011.561 3.598 4.961 4.961 0 01-1.553 3.641zM16.862.561H14.04v14.461h2.822V.561zM23.756 6.11c-1.726-.622-2.192-1.036-2.192-1.821 0-.785.889-1.58 2.105-1.58a2.908 2.908 0 012.27 1.166l1.475-1.933A6.299 6.299 0 0023.17.328a4.245 4.245 0 00-4.513 4.108c0 1.993.915 3.01 3.564 3.96.675.22 1.326.51 1.941.863a1.725 1.725 0 01.863 1.493 2.054 2.054 0 01-2.183 2.036 3.34 3.34 0 01-3.08-1.924l-1.82 1.725a5.609 5.609 0 005.004 2.753c2.933 0 4.987-1.95 4.987-4.746-.017-2.269-.984-3.313-4.176-4.487zM28.803 7.8a7.489 7.489 0 007.637 7.55 7.81 7.81 0 003.537-.862v-3.305a4.513 4.513 0 01-3.451 1.587 4.72 4.72 0 01-4.85-4.987 4.804 4.804 0 014.764-4.97 4.728 4.728 0 013.529 1.622V1.122a7.24 7.24 0 00-3.452-.863A7.601 7.601 0 0028.803 7.8zM62.325 10.268L58.468.561h-3.072l6.135 14.832h1.51L69.288.561h-3.054l-3.909 9.707zM70.565 15.022h7.999v-2.45h-5.177v-3.9h4.987v-2.45h-4.987v-3.21h5.177V.56h-7.999v14.461zM89.729 4.832c0-2.71-1.864-4.271-5.117-4.271h-4.167v14.461h2.821V9.215h.363l3.908 5.807h3.452l-4.556-6.091a3.848 3.848 0 003.296-4.099zm-5.66 2.39h-.863V2.84h.863c1.725 0 2.718.742 2.718 2.148 0 1.407-.915 2.235-2.718 2.235zM91.972 1.32c0-.25-.172-.388-.483-.388h-.405v1.269h.302v-.492l.362.492h.371l-.457-.527a.336.336 0 00.31-.354zm-.534.173h-.052v-.328h.06c.147 0 .225.052.225.164 0 .112-.078.164-.234.164z" fill="#D8D8D8"></path><path d="M91.558.449a1.113 1.113 0 10-.034 2.225A1.113 1.113 0 0091.558.45zm0 2.028a.863.863 0 01-.863-.915.863.863 0 111.726 0 .862.862 0 01-.871.915h.008z" fill="#D8D8D8"></path><path d="M56.199 7.775a7.662 7.662 0 11-15.325.017A7.662 7.662 0 0156.2 7.775z" fill="url(#discover_svg__b)"></path><path style="mix-blend-mode:multiply;" opacity=".65" d="M56.199 7.775a7.662 7.662 0 11-15.325.017A7.662 7.662 0 0156.2 7.775z" fill="url(#discover_svg__c)"></path></g><g clip-path="url(#discover_svg__a)"><path d="M4.98.561H.84v14.461h4.124a7.489 7.489 0 005.177-1.674A7.222 7.222 0 0012.73 7.8C12.746 3.572 9.553.561 4.98.561zm3.296 10.863c-.888.777-2.036 1.148-3.857 1.148h-.767v-9.56h.759c1.82 0 2.925.327 3.857 1.173a4.85 4.85 0 011.561 3.598 4.961 4.961 0 01-1.553 3.641zM16.862.561H14.04v14.461h2.822V.561zM23.756 6.11c-1.726-.622-2.192-1.036-2.192-1.821 0-.785.889-1.58 2.105-1.58a2.908 2.908 0 012.27 1.166l1.475-1.933A6.299 6.299 0 0023.17.328a4.245 4.245 0 00-4.513 4.108c0 1.993.915 3.01 3.564 3.96.675.22 1.326.51 1.941.863a1.725 1.725 0 01.863 1.493 2.054 2.054 0 01-2.183 2.036 3.34 3.34 0 01-3.08-1.924l-1.82 1.725a5.609 5.609 0 005.004 2.753c2.933 0 4.987-1.95 4.987-4.746-.017-2.269-.984-3.313-4.176-4.487zM28.803 7.8a7.489 7.489 0 007.637 7.55 7.81 7.81 0 003.537-.862v-3.305a4.513 4.513 0 01-3.451 1.587 4.72 4.72 0 01-4.85-4.987 4.804 4.804 0 014.764-4.97 4.728 4.728 0 013.529 1.622V1.122a7.24 7.24 0 00-3.452-.863A7.601 7.601 0 0028.803 7.8zM62.325 10.268L58.468.561h-3.072l6.135 14.832h1.51L69.288.561h-3.054l-3.909 9.707zM70.565 15.022h7.999v-2.45h-5.177v-3.9h4.987v-2.45h-4.987v-3.21h5.177V.56h-7.999v14.461zM89.729 4.832c0-2.71-1.864-4.271-5.117-4.271h-4.167v14.461h2.821V9.215h.363l3.908 5.807h3.452l-4.556-6.091a3.848 3.848 0 003.296-4.099zm-5.66 2.39h-.863V2.84h.863c1.725 0 2.718.742 2.718 2.148 0 1.407-.915 2.235-2.718 2.235zM91.972 1.32c0-.25-.172-.388-.483-.388h-.405v1.269h.302v-.492l.362.492h.371l-.457-.527a.336.336 0 00.31-.354zm-.534.173h-.052v-.328h.06c.147 0 .225.052.225.164 0 .112-.078.164-.234.164z" fill="#D8D8D8"></path><path d="M91.558.449a1.113 1.113 0 10-.034 2.225A1.113 1.113 0 0091.558.45zm0 2.028a.863.863 0 01-.863-.915.863.863 0 111.726 0 .862.862 0 01-.871.915h.008z" fill="#D8D8D8"></path><path d="M56.199 7.775a7.662 7.662 0 11-15.325.017A7.662 7.662 0 0156.2 7.775z" fill="url(#discover_svg__b)"></path><path style="mix-blend-mode:multiply;" opacity=".65" d="M56.199 7.775a7.662 7.662 0 11-15.325.017A7.662 7.662 0 0156.2 7.775z" fill="url(#discover_svg__c)"></path></g><defs><linearGradient id="discover_svg__b" x1="52.454" y1="13.909" x2="47.156" y2="5.609" gradientUnits="userSpaceOnUse"><stop stop-color="#FF9800"></stop><stop offset=".22" stop-color="#FF9300"></stop><stop offset=".47" stop-color="#FF8600"></stop><stop offset=".62" stop-color="#FF7A00"></stop><stop offset=".79" stop-color="#FF6D00"></stop><stop offset="1" stop-color="#FF6100"></stop></linearGradient><linearGradient id="discover_svg__c" x1="51.617" y1="13.797" x2="43.877" y2="-1.346" gradientUnits="userSpaceOnUse"><stop stop-color="#FF7A00" stop-opacity="0"></stop><stop offset=".19" stop-color="#FB6A00" stop-opacity=".22"></stop><stop offset=".37" stop-color="#F85C00" stop-opacity=".41"></stop><stop offset=".55" stop-color="#F55200" stop-opacity=".55"></stop><stop offset=".71" stop-color="#F34A00" stop-opacity=".66"></stop><stop offset=".86" stop-color="#F24600" stop-opacity=".72"></stop><stop offset=".98" stop-color="#F24400" stop-opacity=".74"></stop></linearGradient><clipPath id="discover_svg__a"><path fill="#fff" transform="translate(.254)" d="M0 0h93.129v18H0z"></path></clipPath></defs></g><g class="discover_svg__mono"><g clip-path="url(#discover_svg__d)"><path d="M4.98.561H.84v14.461h4.124a7.49 7.49 0 005.177-1.674A7.222 7.222 0 0012.728 7.8C12.747 3.572 9.553.561 4.98.561zm3.296 10.863c-.888.777-2.036 1.148-3.857 1.148h-.768v-9.56h.76c1.82 0 2.925.327 3.857 1.173a4.85 4.85 0 011.561 3.598 4.962 4.962 0 01-1.553 3.641zM16.861.561H14.04v14.461h2.822V.561zM23.756 6.11c-1.726-.622-2.192-1.036-2.192-1.821 0-.785.889-1.58 2.105-1.58a2.907 2.907 0 012.27 1.166l1.475-1.933A6.299 6.299 0 0023.17.328a4.245 4.245 0 00-4.513 4.108c0 1.993.915 3.01 3.564 3.96.675.22 1.325.51 1.941.863a1.726 1.726 0 01.863 1.493 2.054 2.054 0 01-2.183 2.036 3.34 3.34 0 01-3.08-1.924l-1.82 1.725a5.608 5.608 0 005.004 2.753c2.933 0 4.987-1.95 4.987-4.746-.017-2.269-.984-3.313-4.176-4.487zM28.803 7.8a7.489 7.489 0 007.637 7.55 7.81 7.81 0 003.537-.862v-3.305a4.513 4.513 0 01-3.451 1.587 4.72 4.72 0 01-4.85-4.987 4.806 4.806 0 014.764-4.97 4.728 4.728 0 013.529 1.622V1.122a7.24 7.24 0 00-3.452-.863A7.601 7.601 0 0028.803 7.8zM62.325 10.268L58.468.561h-3.072l6.135 14.832h1.51L69.288.561h-3.054l-3.91 9.707zM70.565 15.022h7.999v-2.45h-5.177v-3.9h4.987v-2.45h-4.987v-3.21h5.177V.56h-7.999v14.461zM89.729 4.832c0-2.71-1.864-4.271-5.117-4.271h-4.167v14.461h2.821V9.215h.363l3.908 5.807h3.452l-4.556-6.091a3.848 3.848 0 003.296-4.099zm-5.66 2.39h-.863V2.84h.863c1.725 0 2.718.742 2.718 2.148 0 1.407-.915 2.235-2.718 2.235zM91.972 1.32c0-.25-.172-.388-.483-.388h-.406v1.269h.302v-.492l.363.492h.37l-.456-.527a.337.337 0 00.31-.354zm-.535.173h-.052v-.328h.06c.148 0 .225.052.225.164 0 .112-.077.164-.233.164z" fill="#34405E"></path><path d="M91.558.449a1.113 1.113 0 10-.034 2.226 1.113 1.113 0 00.034-2.226zm0 2.028a.863.863 0 01-.863-.915.863.863 0 111.726 0 .863.863 0 01-.872.915h.01z" fill="#251F20"></path><path d="M56.199 7.775a7.662 7.662 0 11-15.323.017 7.662 7.662 0 0115.323-.017z" fill="#4A5370"></path></g><defs><clipPath id="discover_svg__d"><path fill="#fff" transform="translate(.254)" d="M0 0h93.129v18H0z"></path></clipPath></defs></g></svg>