<svg width="22" height="15" viewBox="0 0 22 15" fill="none" xmlns="http://www.w3.org/2000/svg" aria-hidden="true" role="img" class="icon icon-social-youtube-2" style="--vicon-with-gradient-problem__size: 14px;"><path d="M21.067 2.45A2.631 2.631 0 0019.217.6C17.573.15 11 .15 11 .15s-6.573 0-8.217.432a2.685 2.685 0 00-1.85 1.869C.5 4.094.5 7.5.5 7.5s0 3.426.432 5.052a2.63 2.63 0 001.851 1.85c1.661.45 8.217.45 8.217.45s6.573 0 8.217-.432a2.631 2.631 0 001.85-1.851c.433-1.643.433-5.051.433-5.051s.017-3.425-.433-5.068z" fill="#fff"></path><path d="M14.373 7.501L8.907 4.353v6.296l5.466-3.148z" fill="#F96057"></path></svg>