<svg viewBox="0 0 20 18" fill="none" xmlns="http://www.w3.org/2000/svg" aria-hidden="true" role="img" class="icon icon-payment-full-btc PaymentSection_icon_LlyCK PaymentSection_icon_LlyCK" style="--vicon-with-gradient-problem__size: 19px;"><path class="btc_svg__color" fill-rule="evenodd" clip-rule="evenodd" d="M7.81 17.73c5.02 1.203 10.102-1.731 11.353-6.553C20.415 6.356 17.361 1.471 12.342.27 7.324-.933 2.24 2.002.99 6.824c-1.252 4.82 1.803 9.705 6.82 10.907zm4.337-12.283c1.298.43 2.247 1.073 2.06 2.27-.135.877-.64 1.302-1.312 1.45.922.462 1.392 1.17.944 2.395-.554 1.523-1.872 1.652-3.625 1.333l-.425 1.638-1.028-.246.42-1.616a40.797 40.797 0 01-.82-.204l-.42 1.623-1.027-.246.425-1.64-.29-.073-.443-.11-1.337-.32.51-1.13s.757.194.747.18c.29.068.42-.114.471-.235l.672-2.59.074.018.035.009a.876.876 0 00-.107-.033l.48-1.848c.012-.21-.063-.475-.48-.575.017-.01-.746-.178-.746-.178l.273-1.055 1.418.34-.001.005c.213.051.432.1.656.149l.421-1.622 1.028.246-.413 1.59c.276.06.553.121.823.186l.41-1.58 1.028.247-.421 1.622zm-3.25 5.881c.838.213 2.67.678 2.962-.447.299-1.15-1.479-1.533-2.346-1.72l-.253-.056-.564 2.173.2.05zm3.28-3.628c-.266 1.023-1.792.632-2.49.453l-.17-.043.512-1.971c.059.014.13.029.212.046.724.154 2.207.47 1.935 1.515z" fill="#F7931A"></path><path class="btc_svg__mono" fill-rule="evenodd" clip-rule="evenodd" d="M7.81 17.73c5.02 1.203 10.102-1.731 11.353-6.553C20.415 6.356 17.361 1.471 12.342.27 7.324-.933 2.24 2.002.99 6.824c-1.252 4.82 1.803 9.705 6.82 10.907zm4.337-12.283c1.298.43 2.247 1.073 2.06 2.27-.135.877-.64 1.302-1.312 1.45.922.462 1.392 1.17.944 2.395-.554 1.523-1.872 1.652-3.625 1.333l-.425 1.638-1.028-.246.42-1.616a40.814 40.814 0 01-.82-.204l-.42 1.623-1.027-.246.425-1.64a80.458 80.458 0 01-.289-.073l-.444-.11-1.337-.32.51-1.13s.757.194.747.18c.291.068.42-.114.471-.235l.672-2.59.074.018.035.009a.876.876 0 00-.107-.033l.48-1.848c.012-.21-.063-.475-.48-.575.017-.01-.746-.178-.746-.178l.273-1.055 1.418.34-.001.005c.213.051.432.1.656.149l.421-1.622 1.028.246-.413 1.59c.276.06.553.121.823.186l.41-1.58 1.028.247-.42 1.622zm-3.25 5.881c.838.213 2.67.678 2.962-.447.299-1.15-1.479-1.533-2.346-1.72l-.253-.056-.564 2.173.2.05zm3.28-3.628c-.266 1.023-1.792.632-2.49.453l-.17-.043.512-1.971c.059.014.13.029.212.046.724.154 2.207.47 1.935 1.515z" fill="#34405E"></path></svg>