<svg viewBox="0 0 54 18" fill="none" xmlns="http://www.w3.org/2000/svg" aria-hidden="true" role="img" class="icon icon-payment-full-visa PaymentSection_icon_LlyCK PaymentSection_icon_LlyCK" style="--vicon-with-gradient-problem__size: 19px;"><g class="visa_svg__color" fill="#fff"><path fill-rule="evenodd" clip-rule="evenodd" d="M53.487 16.752h.104l-.057-.277-.076-.366c-.194-.932-.39-1.864-.585-2.795l-.584-2.796c-.168-.798-.334-1.599-.5-2.399l-.502-2.399-1.11-5.33c-.018-.075-.041-.104-.122-.104h-3.513c-.099 0-.203.006-.301.023-.747.122-1.256.538-1.546 1.233l-3.163 7.553c-1.054 2.517-2.11 5.035-3.162 7.552a1.258 1.258 0 01-.04.105H42.691c.07 0 .1-.024.123-.087.277-.764.555-1.528.827-2.292.017-.058.046-.081.11-.081h5.301c.07 0 .099.023.11.087l.21.998c.089.423.178.847.265 1.27.017.087.052.105.133.105h3.716zM47.16 4.76c.428 2.048.857 4.097 1.285 6.164-1.187 0-2.361 0-3.548.005.747-2.066 1.487-4.115 2.234-6.17h.029z"></path><path d="M.872.76C.907.598.936.448.97.292h7.183c1.024 0 1.811.636 2.014 1.637.197 1.007.382 2.015.573 3.022.202 1.088.41 2.176.613 3.264.197 1.059.4 2.118.596 3.171l.024.116c.069-.18.133-.336.196-.492 1.4-3.536 2.796-7.072 4.19-10.603.035-.086.076-.115.168-.115 1.407.005 2.813 0 4.22.005h.121c-.017.04-.023.07-.035.099-2.274 5.428-4.549 10.851-6.823 16.28-.023.064-.052.093-.122.087H9.56c-.029 0-.052 0-.087-.006-.098-.388-.202-.77-.3-1.157L6.48 5.182l-.503-1.916c-.134-.492-.429-.839-.874-1.076a11.388 11.388 0 00-2.101-.845C2.319 1.142 1.624.975.942.789.923.772.9.766.871.76zM38.566 4.198a9.138 9.138 0 00-1.412-.503 8.021 8.021 0 00-2.315-.267c-.52.018-1.03.099-1.499.348-.307.162-.561.376-.694.706-.162.393-.081.74.185 1.059.243.29.556.503.88.683.596.335 1.198.648 1.8.978.671.37 1.313.787 1.852 1.343.578.59.966 1.279 1.105 2.1.07.423.075.846.029 1.274a5.029 5.029 0 01-.602 1.968c-.515.92-1.262 1.591-2.176 2.095-.776.428-1.609.688-2.483.85-.793.145-1.591.203-2.396.18-1.285-.04-2.546-.214-3.773-.608-.232-.075-.452-.162-.69-.249.261-1.204.516-2.402.77-3.605.047.017.082.034.116.052.608.29 1.221.55 1.875.717a8.245 8.245 0 001.638.255c.429.023.851.035 1.274-.023.561-.075 1.094-.22 1.54-.59.433-.354.595-.903.422-1.395a1.4 1.4 0 00-.388-.562 4.493 4.493 0 00-1.013-.694c-.498-.266-1.007-.515-1.505-.787-.723-.394-1.395-.868-1.95-1.488-.492-.55-.84-1.175-.967-1.904-.115-.654-.058-1.302.11-1.939.307-1.128.973-2.014 1.899-2.702.85-.631 1.811-1.019 2.841-1.25A10.58 10.58 0 0135.84.013c1.158.052 2.28.295 3.369.683.075.029.087.052.075.133-.237 1.1-.474 2.2-.706 3.299.006.011 0 .034-.012.07zM19.201 16.746l.174-.828c.335-1.563.665-3.12 1.001-4.682.341-1.586.677-3.177 1.019-4.763l1.024-4.77c.093-.44.185-.879.284-1.319.011-.052.017-.098.098-.098 1.366.006 2.732 0 4.098 0h.07a8.701 8.701 0 01-.094.445c-.55 2.576-1.1 5.157-1.655 7.733-.544 2.535-1.088 5.07-1.626 7.604-.046.209-.087.412-.133.62-.012.046-.03.064-.075.064h-4.144c-.012.005-.024 0-.04-.006z"></path></g><g class="visa_svg__mono" fill="#34405E"><path fill-rule="evenodd" clip-rule="evenodd" d="M53.487 16.752h.104l-.057-.277-.076-.366c-.194-.932-.39-1.863-.585-2.795l-.584-2.796c-.168-.798-.334-1.599-.5-2.399l-.502-2.399-1.11-5.33c-.018-.075-.041-.104-.122-.104h-3.513c-.099 0-.203.006-.301.023-.747.122-1.256.538-1.546 1.233l-3.162 7.552-3.163 7.553a1.258 1.258 0 01-.04.105H42.691c.07 0 .1-.024.123-.087.277-.764.555-1.528.827-2.292.017-.058.046-.081.11-.081h5.301c.07 0 .099.023.11.087l.21.998c.089.423.178.847.265 1.27.017.087.052.105.133.105h3.716zM47.16 4.76c.428 2.048.857 4.097 1.285 6.164-1.187 0-2.361 0-3.548.005.747-2.066 1.487-4.115 2.234-6.17h.029z"></path><path d="M.872.76C.907.598.936.448.97.292h7.183c1.024 0 1.811.636 2.014 1.637.197 1.007.382 2.015.573 3.022.202 1.088.41 2.176.613 3.264.197 1.059.4 2.118.596 3.171l.024.116c.069-.18.133-.336.196-.492 1.4-3.536 2.796-7.072 4.19-10.603.035-.086.076-.115.168-.115 1.407.005 2.813 0 4.22.005h.121c-.017.04-.023.07-.035.099-2.274 5.428-4.549 10.851-6.823 16.28-.023.064-.052.093-.122.087H9.56c-.029 0-.052 0-.087-.006-.098-.388-.202-.77-.3-1.157L6.48 5.182l-.503-1.916c-.134-.492-.429-.839-.874-1.076a11.388 11.388 0 00-2.101-.845C2.319 1.142 1.624.975.942.789.923.772.9.766.871.76zM38.566 4.198a9.138 9.138 0 00-1.412-.503 8.021 8.021 0 00-2.315-.267c-.52.018-1.03.099-1.499.348-.307.162-.561.376-.694.706-.162.393-.081.74.185 1.059.243.29.556.503.88.683.596.335 1.198.648 1.8.978.671.37 1.313.787 1.852 1.343.578.59.966 1.279 1.105 2.1.07.423.075.846.029 1.274a5.029 5.029 0 01-.602 1.968c-.515.92-1.262 1.591-2.176 2.095-.776.428-1.609.688-2.483.85-.793.145-1.591.203-2.396.18-1.285-.04-2.546-.214-3.773-.608-.232-.075-.452-.162-.69-.249.261-1.204.516-2.402.77-3.605.047.017.082.034.116.052.608.29 1.221.55 1.875.717a8.245 8.245 0 001.638.255c.429.023.851.035 1.274-.023.561-.075 1.094-.22 1.54-.59.433-.354.595-.903.422-1.395a1.4 1.4 0 00-.388-.562 4.493 4.493 0 00-1.013-.694c-.498-.266-1.007-.515-1.505-.787-.723-.394-1.395-.868-1.95-1.488-.492-.55-.84-1.175-.967-1.904-.115-.654-.058-1.302.11-1.939.307-1.128.973-2.014 1.899-2.702.85-.631 1.811-1.019 2.841-1.25A10.58 10.58 0 0135.84.013c1.158.052 2.28.295 3.369.683.075.029.087.052.075.133-.237 1.1-.474 2.2-.706 3.299.006.011 0 .034-.012.07zM19.201 16.746l.174-.828c.335-1.563.665-3.12 1.001-4.682.341-1.586.677-3.177 1.019-4.763l1.024-4.77c.093-.44.185-.879.284-1.319.011-.052.017-.098.098-.098 1.366.006 2.732 0 4.098 0h.07a8.701 8.701 0 01-.094.445c-.55 2.576-1.1 5.157-1.655 7.733-.544 2.535-1.088 5.07-1.626 7.604-.046.209-.087.412-.133.62-.012.046-.03.064-.075.064h-4.144c-.012.005-.024 0-.04-.006z"></path></g></svg>