<svg viewBox="0 0 106 18" fill="none" xmlns="http://www.w3.org/2000/svg" aria-hidden="true" role="img" class="icon icon-payment-full-webmoney PaymentSection_icon_LlyCK PaymentSection_icon_LlyCK" style="--vicon-with-gradient-problem__size: 19px;"><g class="webmoney_svg__color" fill="#3895D6"><path d="M95.231 0c1.426 0 2.782.327 3.999.91.19.087.383.19.573.293l-.834.74-1.251-1.29-2.156 1.89-1.27-1.357-3.963 3.523 2.538 2.767-.991.86 2.504 2.766-.991.859 3.581 3.935 2.12-1.924 1.844 2.062c-.366.276-.766.551-1.2.791a9.167 9.167 0 01-4.485 1.168c-5.025 0-9.11-4.038-9.11-9.004C86.122 4.056 90.207 0 95.231 0zm-1.669 8.438l2.173-1.925 1.948 2.149-2.174 1.924-1.947-2.148zm1.548 3.713l2.155-1.942 1.965 2.148-2.174 1.925-1.946-2.131zm-3.094-7.373l2.172-1.925 1.947 2.148-2.173 1.925-1.946-2.148zm3.98-1.032l1.617-1.443 1.46 1.598-1.616 1.46-1.461-1.615zm2.886 6.617L100.5 8.92l1.46 1.615-1.617 1.445-1.46-1.616zm1.426 3.248l1.617-1.443 1.459 1.598-1.616 1.46-1.46-1.615zm.66-7.424l1.078-.963.973 1.066-1.077.962-.974-1.065zm-1.39-3.18l1.077-.979.974 1.083-1.078.962-.974-1.066zm2.764 6.36l1.077-.963.991 1.066-1.095.962-.973-1.065zm-4.85-2.39l1.616-1.443 1.46 1.598-1.616 1.444-1.46-1.598zM8.337 6.641h-.115L6.07 14.82H4.31L1.668 3.2h1.825L5.32 11.87h.114l2.12-8.67h1.451l2.267 8.67h.114l1.663-8.67h1.908L12.315 14.82h-1.761L8.336 6.64zM17.273 9.873h3.734c-.081-1.72-.913-2.408-1.794-2.408-.994 0-1.761.77-1.94 2.408zm5.038 3.081V14.2a5.727 5.727 0 01-2.886.754c-2.739 0-3.864-1.705-3.864-4.293 0-2.492 1.256-4.295 3.701-4.295 2.038 0 3.294 1.328 3.294 3.999v.606h-5.315c0 1.966.798 2.835 2.478 2.835.88 0 1.696-.312 2.592-.852zM26.35 13.64c.521.23 1.092.263 1.5.263 1.207 0 2.119-.755 2.119-3.409 0-2.08-.75-2.753-1.842-2.753-.653 0-1.125.181-1.778.54v5.359zm.016-6.57c.488-.262 1.32-.607 2.2-.607 2.023 0 3.115 1.41 3.115 4.031 0 3.065-1.467 4.556-3.83 4.556-.865 0-2.202-.279-3.181-.804V2.809l1.696-.409v4.67zM39.02 12.354h.082l3.489-9.16h2.023v11.619h-1.761V6.389h-.147l-3.327 8.424h-1.042l-3.328-8.227h-.146v8.227h-1.468V3.193h1.974l3.651 9.16zM51.809 10.66c0-2.212-.897-3.145-2.005-3.145-1.076 0-2.006.933-2.006 3.145 0 2.245.849 3.146 2.006 3.146 1.157 0 2.005-.9 2.005-3.146zm-5.723 0c0-2.869 1.566-4.294 3.718-4.294 2.153 0 3.718 1.425 3.718 4.294 0 2.802-1.484 4.293-3.718 4.293s-3.718-1.491-3.718-4.293zM54.81 7.58c.735-.443 2.284-1.214 4.159-1.214 1.956 0 2.689.77 2.689 2.458v5.933h-1.695V9.2c0-1.294-.635-1.523-1.467-1.523-.652 0-1.484.295-1.99.59v6.489h-1.695V7.58zM65.247 9.873h3.734c-.08-1.72-.913-2.408-1.793-2.408-.995 0-1.76.77-1.94 2.408zm5.038 3.081V14.2a5.727 5.727 0 01-2.886.754c-2.738 0-3.863-1.705-3.863-4.293 0-2.492 1.254-4.295 3.7-4.295 2.04 0 3.295 1.328 3.295 3.999v.606h-5.316c0 1.966.8 2.835 2.479 2.835.88 0 1.696-.312 2.591-.852zM77.305 6.366h1.745l-2.952 8.192C75.282 16.82 74.288 18 72.414 18v-1.343c1.109 0 1.793-.885 2.185-2.099l-3.13-8.192h1.793l2.087 6.03h.098l1.858-6.03z"></path></g><g class="webmoney_svg__mono" fill="#34405E"><path d="M95.293 0c1.425 0 2.781.327 3.998.91.191.087.383.19.574.293l-.835.74-1.25-1.29-2.156 1.89-1.27-1.357-3.964 3.523 2.538 2.767-.99.86 2.503 2.766-.99.859 3.58 3.935 2.12-1.924 1.844 2.062c-.365.276-.765.551-1.2.791a9.167 9.167 0 01-4.485 1.168c-5.024 0-9.11-4.038-9.11-9.004C86.184 4.056 90.27 0 95.294 0zm-1.67 8.438l2.174-1.925 1.947 2.149-2.173 1.924-1.947-2.148zm1.548 3.713l2.156-1.942 1.964 2.148-2.173 1.925-1.947-2.131zm-3.094-7.373l2.173-1.925 1.947 2.148-2.174 1.925-1.946-2.148zm3.98-1.032l1.617-1.443L99.135 3.9l-1.617 1.46-1.46-1.615zm2.887 6.617l1.616-1.444 1.461 1.615-1.617 1.445-1.46-1.616zm1.425 3.248l1.617-1.443 1.459 1.598-1.616 1.46-1.46-1.615zm.661-7.424l1.077-.963.974 1.066-1.078.962-.973-1.065zm-1.391-3.18l1.078-.979.974 1.083-1.079.962-.973-1.066zm2.764 6.36l1.078-.963.991 1.066-1.095.962-.974-1.065zm-4.85-2.39l1.617-1.443 1.46 1.598-1.617 1.444-1.46-1.598zM8.398 6.641h-.114L6.13 14.82H4.37L1.729 3.2h1.826l1.826 8.669h.114l2.12-8.67h1.451l2.267 8.67h.114l1.664-8.67h1.908L12.376 14.82h-1.761L8.398 6.64zM17.335 9.873h3.733c-.08-1.72-.913-2.408-1.793-2.408-.995 0-1.761.77-1.94 2.408zm5.037 3.081V14.2a5.727 5.727 0 01-2.886.754c-2.738 0-3.863-1.705-3.863-4.293 0-2.492 1.255-4.295 3.7-4.295 2.039 0 3.295 1.328 3.295 3.999v.606h-5.316c0 1.966.799 2.835 2.479 2.835.88 0 1.695-.312 2.591-.852zM26.41 13.64c.523.23 1.094.263 1.502.263 1.206 0 2.119-.755 2.119-3.409 0-2.08-.75-2.753-1.842-2.753-.653 0-1.126.181-1.778.54v5.359zm.018-6.57c.488-.262 1.32-.607 2.2-.607 2.022 0 3.115 1.41 3.115 4.031 0 3.065-1.468 4.556-3.83 4.556-.866 0-2.203-.279-3.182-.804V2.809l1.697-.409v4.67zM39.082 12.354h.082l3.488-9.16h2.023v11.619h-1.76V6.389h-.148l-3.326 8.424h-1.043L35.07 6.586h-.146v8.227h-1.468V3.193h1.974l3.652 9.16zM51.87 10.66c0-2.212-.896-3.145-2.005-3.145-1.076 0-2.006.933-2.006 3.145 0 2.245.85 3.146 2.006 3.146 1.157 0 2.005-.9 2.005-3.146zm-5.722 0c0-2.869 1.566-4.294 3.717-4.294 2.153 0 3.718 1.425 3.718 4.294 0 2.802-1.484 4.293-3.718 4.293s-3.717-1.491-3.717-4.293zM54.872 7.58c.734-.443 2.284-1.214 4.159-1.214 1.956 0 2.688.77 2.688 2.458v5.933h-1.694V9.2c0-1.294-.635-1.523-1.468-1.523-.651 0-1.484.295-1.989.59v6.489h-1.696V7.58zM65.309 9.873h3.734c-.08-1.72-.913-2.408-1.794-2.408-.995 0-1.76.77-1.94 2.408zm5.038 3.081V14.2a5.727 5.727 0 01-2.886.754c-2.738 0-3.864-1.705-3.864-4.293 0-2.492 1.255-4.295 3.701-4.295 2.039 0 3.295 1.328 3.295 3.999v.606h-5.316c0 1.966.799 2.835 2.478 2.835.88 0 1.696-.312 2.592-.852zM77.366 6.366h1.745l-2.951 8.192C75.343 16.82 74.35 18 72.475 18v-1.343c1.11 0 1.793-.885 2.186-2.099L71.53 6.366h1.794l2.087 6.03h.097l1.858-6.03z"></path></g></svg>