<svg viewBox="0 0 20 18" fill="none" xmlns="http://www.w3.org/2000/svg" aria-hidden="true" role="img" class="icon icon-payment-full-fk-wallet PaymentSection_icon_LlyCK PaymentSection_icon_LlyCK" style="--vicon-with-gradient-problem__size: 19px;"><g class="fk-wallet_svg__color" fill="#C04DF8"><path d="M13.428 8.763L19.588 0h-1.845c-.901 0-1.753.435-2.254 1.15L9.596 9.528c-.5.756-.81 1.15-.81 2.985V18h2.355v-7.813l4.8 6.831A2.356 2.356 0 0017.86 18h2.062l-6.494-9.237zM5.669 6.857h-2.67c-.957 0-2.77 2.658-2.77 4.953h.007a4.886 4.886 0 00-.014.329V18h2.305V9.307H2.45V9.3h3.219c.302 0 .548-.303.548-.676v-1.09c0-.373-.246-.676-.548-.676zM2.766 3.838v-.405c0-1.002.74-1.353 1.541-1.353v-.008h7.121c1.167 0 2.498-.933 2.498-2.072h-9.61C1.66 0 .221.91.221 3.326v4.388-.023c.085-.1 2.544-1.445 2.544-3.853z"></path></g><g class="fk-wallet_svg__mono" fill="#34405E"><path d="M13.49 8.763L19.65 0h-1.845c-.902 0-1.753.435-2.254 1.15L9.658 9.528c-.5.756-.81 1.15-.81 2.985V18h2.354v-7.813l4.8 6.831a2.356 2.356 0 001.92.982h2.061L13.49 8.763zM5.73 6.857H3.06c-.956 0-2.77 2.658-2.77 4.953h.007a4.885 4.885 0 00-.014.329V18H2.59V9.307H2.51V9.3h3.22c.302 0 .548-.303.548-.676v-1.09c0-.373-.246-.676-.548-.676zM2.828 3.838v-.405c0-1.002.74-1.353 1.54-1.353v-.008h7.121c1.168 0 2.498-.933 2.498-2.072h-9.61C1.723 0 .283.91.283 3.326v4.388-.023c.086-.1 2.545-1.445 2.545-3.853z"></path></g></svg>