<svg viewBox="0 0 41 18" fill="none" xmlns="http://www.w3.org/2000/svg" aria-hidden="true" role="img" class="icon icon-payment-full-qiwi PaymentSection_icon_LlyCK PaymentSection_icon_LlyCK" style="--vicon-with-gradient-problem__size: 19px;"><g class="qiwi_svg__color"><g clip-path="url(#qiwi_svg__a)"><path d="M19.863 10.18h.616v1.38h.445l.798-1.38h.674l-.959 1.62v.011l1.016 1.768h-.696l-.822-1.483h-.444v1.483h-.616v-3.4h-.012v.001zm3.97.901c.74 0 1.346.536 1.346 1.278 0 .753-.593 1.277-1.335 1.277s-1.335-.524-1.335-1.277c-.01-.753.582-1.278 1.324-1.278zm1.825.057h.581v1.917h.765v-1.916h.581v1.916h.764v-1.916h.582v2.44h-3.25v-2.44h-.024zm4.996-.057c.695 0 1.083.514 1.083 1.153-.002.08-.01.16-.022.239h-1.677c.034.422.365.65.73.65.25 0 .502-.114.695-.262l.24.433a1.566 1.566 0 01-.98.354c-.81 0-1.313-.582-1.313-1.278 0-.764.513-1.289 1.244-1.289zm1.368 1.985c.297-.046.514-.296.514-1.164v-.763h1.78v2.44h-.606v-1.95h-.593v.273c0 1.06-.285 1.677-1.095 1.7v-.536zm4.027-1.985c.695 0 1.083.514 1.083 1.153-.002.08-.01.16-.023.239h-1.676c.034.422.365.65.73.65.25 0 .502-.114.696-.262l.24.433a1.566 1.566 0 01-.982.354c-.81 0-1.311-.582-1.311-1.278 0-.764.513-1.289 1.243-1.289zm1.585.057h.605v.936h.296l.594-.935h.672l-.775 1.163v.011l.866 1.266h-.706l-.64-.992h-.318v.992h-.605v-2.44h.011zm-13.801 1.974c.399 0 .73-.308.73-.765 0-.444-.331-.764-.73-.764-.4 0-.719.309-.719.764 0 .457.32.765.719.765zm7.288-1.061c0-.32-.217-.513-.49-.513-.308 0-.536.205-.593.513h1.083zm5.395 0c0-.32-.216-.513-.49-.513-.308 0-.536.205-.593.513h1.083z" fill="#2D3540"></path><path d="M19.863 10.18h.616v1.38h.445l.798-1.38h.674l-.959 1.62v.011l1.016 1.768h-.696l-.822-1.483h-.444v1.483h-.616v-3.4h-.012v.001zm3.97.901c.74 0 1.346.536 1.346 1.278 0 .753-.593 1.277-1.335 1.277s-1.335-.524-1.335-1.277c-.01-.753.582-1.278 1.324-1.278zm1.825.057h.581v1.917h.765v-1.916h.581v1.916h.764v-1.916h.582v2.44h-3.25v-2.44h-.024zm4.996-.057c.695 0 1.083.514 1.083 1.153-.002.08-.01.16-.022.239h-1.677c.034.422.365.65.73.65.25 0 .502-.114.695-.262l.24.433a1.566 1.566 0 01-.98.354c-.81 0-1.313-.582-1.313-1.278 0-.764.513-1.289 1.244-1.289zm1.368 1.985c.297-.046.514-.296.514-1.164v-.763h1.78v2.44h-.606v-1.95h-.593v.273c0 1.06-.285 1.677-1.095 1.7v-.536zm4.027-1.985c.695 0 1.083.514 1.083 1.153-.002.08-.01.16-.023.239h-1.676c.034.422.365.65.73.65.25 0 .502-.114.696-.262l.24.433a1.566 1.566 0 01-.982.354c-.81 0-1.311-.582-1.311-1.278 0-.764.513-1.289 1.243-1.289zm1.585.057h.605v.936h.296l.594-.935h.672l-.775 1.163v.011l.866 1.266h-.706l-.64-.992h-.318v.992h-.605v-2.44h.011zm-13.801 1.974c.399 0 .73-.308.73-.765 0-.444-.331-.764-.73-.764-.4 0-.719.309-.719.764 0 .457.32.765.719.765zm7.288-1.061c0-.32-.217-.513-.49-.513-.308 0-.536.205-.593.513h1.083zm5.395 0c0-.32-.216-.513-.49-.513-.308 0-.536.205-.593.513h1.083z" fill="#BCBCBC"></path><path d="M28.384 2.778v5.76a.158.158 0 01-.046.114.156.156 0 01-.114.045H27.05a.156.156 0 01-.16-.16v-5.76a.155.155 0 01.099-.148.156.156 0 01.061-.01h1.175a.156.156 0 01.16.159zm9.17-.16a.27.27 0 01.16.069c.034.034.034.09.023.136l-1.94 5.772a.162.162 0 01-.147.103H34.6c-.068 0-.125-.035-.148-.103l-1.13-3.365-1.13 3.365a.162.162 0 01-.147.102h-1.05c-.068 0-.125-.034-.148-.102l-1.939-5.772c-.011-.045-.011-.091.023-.136.023-.046.08-.069.125-.069h1.312c.068 0 .125.045.148.114l1.038 3.41 1.14-3.41a.163.163 0 01.15-.103h.923c.068 0 .125.034.148.103l1.141 3.41 1.038-3.41a.157.157 0 01.148-.114h1.312zm1.985 0c.08 0 .148.069.16.16v5.76a.158.158 0 01-.046.114.156.156 0 01-.114.045h-1.175a.156.156 0 01-.16-.16v-5.76a.155.155 0 01.098-.148.156.156 0 01.062-.01h1.175zM26.205 8.492c.069.08.012.194-.091.194h-1.438a.184.184 0 01-.148-.068l-.239-.297a3.217 3.217 0 01-1.723.514 3.184 3.184 0 010-6.365 3.184 3.184 0 013.183 3.182c0 .628-.183 1.22-.502 1.722l.958 1.118zm-12.01 2.795c.296.114.41.558.433.752.045.354-.057.491-.171.491-.114 0-.274-.137-.445-.41-.171-.274-.24-.582-.148-.742.056-.103.182-.148.33-.091zm-1.735 1.289a.89.89 0 01.57.24c.354.296.457.638.275.889a.6.6 0 01-.468.205.814.814 0 01-.536-.194c-.32-.273-.41-.73-.206-.98a.442.442 0 01.365-.16zM8.47 15.872A7.847 7.847 0 01.62 8.025a7.847 7.847 0 1115.695 0c0 1.47-.41 2.851-1.106 4.026-.023.034-.08.023-.092-.023-.273-1.927-1.448-2.989-3.16-3.308-.148-.023-.17-.114.024-.136.524-.046 1.266-.035 1.653.034A5.194 5.194 0 008.48 2.823a5.194 5.194 0 00-5.19 5.19 5.194 5.194 0 005.19 5.19h.24a7.002 7.002 0 01-.103-1.403c.012-.32.08-.365.217-.114.719 1.243 1.746 2.361 3.753 2.806 1.642.365 3.285.787 5.053 3.034.16.194-.08.4-.262.24-1.802-1.597-3.445-2.122-4.94-2.122-1.676.011-2.817.228-3.969.228zm14.884-8.657l-.627-.765c-.068-.08-.011-.205.091-.205h1.323c.069-.182.103-.388.103-.593 0-.946-.707-1.768-1.677-1.768-.969 0-1.676.822-1.676 1.768 0 .947.707 1.757 1.676 1.757.274.011.548-.069.787-.194z" fill="#FF8C00"></path></g><defs><clipPath id="qiwi_svg__a"><path fill="#fff" transform="translate(.444)" d="M0 0h39.626v18H0z"></path></clipPath></defs></g><g class="qiwi_svg__mono"><g clip-path="url(#qiwi_svg__b)" fill="#34405E"><path d="M19.863 10.18h.616v1.38h.445l.798-1.38h.674l-.959 1.62v.011l1.016 1.768h-.696l-.822-1.483h-.444v1.483h-.616v-3.4h-.012v.001zm3.97.901c.74 0 1.346.536 1.346 1.278 0 .753-.593 1.277-1.335 1.277-.741 0-1.335-.524-1.335-1.277-.01-.753.582-1.278 1.324-1.278zm1.825.057h.581v1.917h.765v-1.916h.581v1.916h.764v-1.916h.582v2.44h-3.25v-2.44h-.023zm4.996-.057c.695 0 1.083.514 1.083 1.153-.002.08-.01.16-.022.239h-1.677c.034.422.365.65.73.65.25 0 .502-.114.695-.262l.24.433a1.566 1.566 0 01-.98.354c-.81 0-1.313-.582-1.313-1.278 0-.764.514-1.289 1.244-1.289zm1.368 1.985c.297-.046.514-.296.514-1.164v-.763h1.78v2.44h-.605v-1.95h-.594v.273c0 1.06-.285 1.677-1.095 1.7v-.536zm4.027-1.985c.695 0 1.083.514 1.083 1.153-.002.08-.01.16-.022.239h-1.677c.034.422.365.65.73.65.25 0 .502-.114.696-.262l.24.433a1.566 1.566 0 01-.982.354c-.81 0-1.311-.582-1.311-1.278 0-.764.513-1.289 1.243-1.289zm1.585.057h.605v.936h.297l.593-.935h.672l-.775 1.163v.011l.867 1.266h-.707l-.64-.992h-.318v.992h-.605v-2.44h.011zm-13.801 1.974c.4 0 .73-.308.73-.765 0-.444-.33-.764-.73-.764-.4 0-.719.309-.719.764 0 .457.32.765.719.765zm7.288-1.061c0-.32-.216-.513-.49-.513-.308 0-.536.205-.593.513h1.083zm5.396 0c0-.32-.217-.513-.49-.513-.31 0-.537.205-.594.513h1.084z"></path><path d="M19.863 10.18h.616v1.38h.445l.798-1.38h.674l-.959 1.62v.011l1.016 1.768h-.696l-.822-1.483h-.444v1.483h-.616v-3.4h-.012v.001zm3.97.901c.74 0 1.346.536 1.346 1.278 0 .753-.593 1.277-1.335 1.277-.741 0-1.335-.524-1.335-1.277-.01-.753.582-1.278 1.324-1.278zm1.825.057h.581v1.917h.765v-1.916h.581v1.916h.764v-1.916h.582v2.44h-3.25v-2.44h-.023zm4.996-.057c.695 0 1.083.514 1.083 1.153-.002.08-.01.16-.022.239h-1.677c.034.422.365.65.73.65.25 0 .502-.114.695-.262l.24.433a1.566 1.566 0 01-.98.354c-.81 0-1.313-.582-1.313-1.278 0-.764.514-1.289 1.244-1.289zm1.368 1.985c.297-.046.514-.296.514-1.164v-.763h1.78v2.44h-.605v-1.95h-.594v.273c0 1.06-.285 1.677-1.095 1.7v-.536zm4.027-1.985c.695 0 1.083.514 1.083 1.153-.002.08-.01.16-.022.239h-1.677c.034.422.365.65.73.65.25 0 .502-.114.696-.262l.24.433a1.566 1.566 0 01-.982.354c-.81 0-1.311-.582-1.311-1.278 0-.764.513-1.289 1.243-1.289zm1.585.057h.605v.936h.297l.593-.935h.672l-.775 1.163v.011l.867 1.266h-.707l-.64-.992h-.318v.992h-.605v-2.44h.011zm-13.801 1.974c.4 0 .73-.308.73-.765 0-.444-.33-.764-.73-.764-.4 0-.719.309-.719.764 0 .457.32.765.719.765zm7.288-1.061c0-.32-.216-.513-.49-.513-.308 0-.536.205-.593.513h1.083zm5.396 0c0-.32-.217-.513-.49-.513-.31 0-.537.205-.594.513h1.084zM28.384 2.778v5.76a.157.157 0 01-.16.16H27.05a.156.156 0 01-.16-.16v-5.76a.156.156 0 01.16-.16h1.175a.156.156 0 01.16.16zm9.17-.16a.27.27 0 01.16.069c.034.034.034.09.023.136l-1.94 5.772a.163.163 0 01-.147.103H34.6c-.068 0-.125-.035-.148-.103l-1.13-3.365-1.129 3.365a.162.162 0 01-.148.102h-1.05c-.068 0-.125-.034-.148-.102l-1.939-5.772c-.011-.045-.011-.091.023-.136.023-.046.08-.069.125-.069h1.312c.068 0 .126.045.149.114l1.037 3.41 1.141-3.41a.162.162 0 01.148-.103h.924c.069 0 .126.034.148.103l1.141 3.41 1.038-3.41a.157.157 0 01.148-.114h1.312zm1.985 0c.08 0 .148.069.16.16v5.76a.157.157 0 01-.16.16h-1.175a.156.156 0 01-.16-.16v-5.76a.156.156 0 01.16-.16h1.175zM26.205 8.492c.069.08.012.194-.091.194h-1.438a.184.184 0 01-.148-.068l-.239-.297a3.217 3.217 0 01-1.723.514 3.184 3.184 0 010-6.365 3.184 3.184 0 013.183 3.182 3.2 3.2 0 01-.502 1.722l.958 1.118zm-12.01 2.795c.296.114.41.558.433.752.045.354-.057.491-.171.491-.114 0-.274-.137-.445-.41-.171-.274-.24-.582-.148-.742.056-.103.182-.148.33-.091zm-1.735 1.289a.89.89 0 01.57.24c.354.296.457.638.275.889a.6.6 0 01-.468.205.814.814 0 01-.536-.194c-.32-.273-.41-.73-.206-.98a.442.442 0 01.365-.16zM8.47 15.872A7.847 7.847 0 01.62 8.025a7.847 7.847 0 0115.695 0c0 1.47-.41 2.851-1.106 4.026-.023.034-.08.023-.092-.023-.273-1.927-1.448-2.989-3.16-3.308-.148-.023-.17-.114.024-.136.524-.046 1.266-.035 1.653.034A5.194 5.194 0 008.48 2.823a5.194 5.194 0 00-5.19 5.19 5.194 5.194 0 005.191 5.19h.24a7.002 7.002 0 01-.104-1.403c.012-.32.08-.365.217-.114.72 1.243 1.746 2.361 3.753 2.806 1.643.365 3.285.787 5.053 3.034.16.194-.08.4-.262.24-1.802-1.597-3.445-2.122-4.94-2.122-1.676.011-2.817.228-3.969.228zm14.885-8.657l-.628-.765c-.068-.08-.011-.205.091-.205h1.323c.069-.182.103-.388.103-.593 0-.946-.707-1.768-1.677-1.768-.969 0-1.676.822-1.676 1.768 0 .947.707 1.757 1.676 1.757.274.011.548-.069.788-.194z"></path></g><defs><clipPath id="qiwi_svg__b"><path fill="#fff" transform="translate(.444)" d="M0 0h39.626v18H0z"></path></clipPath></defs></g></svg>