<svg viewBox="0 0 21 21" fill="none" xmlns="http://www.w3.org/2000/svg" aria-hidden="true" role="img" class="icon icon-social-instagram-2" style="--vicon-with-gradient-problem__size: 21px;"><path fill-rule="evenodd" clip-rule="evenodd" d="M6.171.063C7.291.011 7.648 0 10.5 0c2.852 0 3.21.012 4.328.063 1.119.05 1.882.23 2.55.488.7.264 1.335.677 1.86 1.212a5.129 5.129 0 011.21 1.859c.26.668.438 1.431.489 2.548.051 1.122.063 1.479.063 4.33 0 2.852-.012 3.21-.063 4.329-.05 1.117-.23 1.88-.489 2.549a5.15 5.15 0 01-1.21 1.86 5.149 5.149 0 01-1.86 1.21c-.668.26-1.431.438-2.548.489-1.12.051-1.478.063-4.33.063-2.852 0-3.21-.012-4.329-.063-1.117-.05-1.88-.23-2.549-.489a5.152 5.152 0 01-1.86-1.21 5.147 5.147 0 01-1.211-1.86C.292 16.71.115 15.947.063 14.83.011 13.708 0 13.35 0 10.5c0-2.852.012-3.21.063-4.328.05-1.119.23-1.882.488-2.55a5.15 5.15 0 011.212-1.86A5.147 5.147 0 013.622.551C4.29.292 5.053.115 6.17.063h.001zm8.572 1.89c-1.107-.05-1.44-.061-4.243-.061-2.803 0-3.136.01-4.243.061-1.024.047-1.58.218-1.95.362-.49.19-.84.417-1.208.784a3.257 3.257 0 00-.784 1.208c-.144.37-.315.926-.362 1.95-.05 1.107-.061 1.44-.061 4.243 0 2.803.01 3.136.061 4.243.047 1.024.218 1.58.362 1.95.168.455.436.869.784 1.208a3.26 3.26 0 001.208.784c.37.144.926.315 1.95.362 1.107.05 1.439.061 4.243.061 2.805 0 3.136-.01 4.243-.061 1.024-.047 1.58-.218 1.95-.362.49-.19.84-.417 1.208-.784a3.26 3.26 0 00.784-1.208c.144-.37.315-.926.362-1.95.05-1.107.061-1.44.061-4.243 0-2.803-.01-3.136-.061-4.243-.047-1.024-.218-1.58-.362-1.95a3.26 3.26 0 00-.784-1.208 3.258 3.258 0 00-1.208-.784c-.37-.144-.926-.315-1.95-.362zM9.159 13.737a3.503 3.503 0 102.521-6.535 3.503 3.503 0 00-2.521 6.535zM6.684 6.684a5.397 5.397 0 117.632 7.632 5.397 5.397 0 01-7.632-7.632zm10.41-.777a1.277 1.277 0 10-1.752-1.857 1.277 1.277 0 001.752 1.857z" fill="#fff"></path></svg>